<svg width="877" height="620" viewBox="0 0 877 620" fill="none" xmlns="http://www.w3.org/2000/svg">
<g style="mix-blend-mode:multiply" opacity="0.08">
<path d="M877 0V620H3.41001C2.20334 612.307 1.36004 604.55 0.88004 596.73C-4.89996 501.81 53.05 401.21 143.21 375C166.01 368.35 189.9 366.4 213.08 361.52L213.83 361.43C307.26 351.09 299.41 309.92 296.83 281.98C296.579 277.455 296.004 272.953 295.11 268.51C295.11 268.36 295.06 268.22 295.03 268.07C295.025 268.047 295.025 268.023 295.03 268C290.1 234.15 281.21 173 327.96 129.43L329.72 127.83L330.06 127.52C332.818 125.095 335.705 122.821 338.71 120.71C353.83 110.18 371.23 104.71 392.57 102.61C394.85 102.4 397.18 102.21 399.57 102.07C401.96 101.93 404.57 101.8 407.06 101.72C407.92 101.72 408.78 101.7 409.64 101.66C412.547 101.593 415.523 101.593 418.57 101.66C422.75 101.7 427.083 101.817 431.57 102.01C436.963 102.237 442.577 102.57 448.41 103.01C454.2 103.43 460.19 103.94 466.41 104.52C474.13 105.25 482.21 106.1 490.66 107.02L498.01 107.84L499.01 107.95L500.57 108.12L506.5 108.79L515.28 109.79C535.45 112.12 557.57 114.79 581.95 117.4C589.41 118.213 597.077 119.02 604.95 119.82L607.28 120.06C609.6 120.29 611.93 120.53 614.28 120.75L622.28 121.54C636.533 122.873 651.48 124.187 667.12 125.48C695.37 127.72 719.7 126.05 740.64 121.48C741.75 121.24 742.84 120.99 743.93 120.73C756.22 117.894 768.156 113.701 779.52 108.23C779.608 108.174 779.702 108.127 779.8 108.09C780.64 107.68 781.47 107.26 782.3 106.83C832.81 80.92 867.89 34.62 877 0Z" fill="black"/>
<path d="M254.572 286.332C260.363 259.97 244.068 233.989 218.175 228.301C192.283 222.613 166.599 239.372 160.808 265.734C155.016 292.095 171.312 318.076 197.204 323.764C223.096 329.452 248.781 312.693 254.572 286.332Z" fill="black"/>
<path d="M757.24 58.2904C760.961 41.3129 750.463 24.5886 733.793 20.9356C717.123 17.2827 700.593 28.0844 696.873 45.0619C693.152 62.0395 703.65 78.7638 720.32 82.4167C736.99 86.0697 753.52 75.268 757.24 58.2904Z" fill="black"/>
<path d="M242.566 130.415C238.366 131.45 234.74 134.091 232.466 137.771C230.193 141.451 229.453 145.876 230.406 150.095C230.851 152.172 231.706 154.14 232.92 155.884C234.134 157.627 235.683 159.111 237.477 160.25C239.271 161.388 241.273 162.158 243.368 162.514C245.462 162.871 247.607 162.806 249.676 162.325C253.867 161.285 257.485 158.647 259.757 154.975C262.029 151.304 262.775 146.889 261.836 142.675C261.394 140.595 260.542 138.624 259.329 136.877C258.117 135.13 256.568 133.642 254.774 132.501C252.98 131.359 250.976 130.587 248.88 130.229C246.784 129.87 244.637 129.934 242.566 130.415Z" fill="black"/>
</g>
<path d="M877 0V620H10.2999C9.0932 612.307 8.2499 604.55 7.7699 596.73C1.9999 501.81 59.9398 401.21 150.1 375C172.9 368.35 196.79 366.4 219.97 361.52L220.72 361.43C314.15 351.09 306.3 309.92 303.72 281.98C303.47 277.445 302.896 272.933 302 268.48C302 268.33 301.95 268.19 301.92 268.04C301.914 268.017 301.914 267.993 301.92 267.97C296.99 234.12 288.1 172.97 334.85 129.4L336.61 127.8L336.95 127.49C339.708 125.065 342.595 122.791 345.6 120.68C360.72 110.15 378.12 104.68 399.46 102.58C401.74 102.37 404.07 102.18 406.46 102.04C408.85 101.9 411.46 101.77 413.95 101.69C414.81 101.69 415.67 101.67 416.53 101.63C419.443 101.563 422.42 101.563 425.46 101.63C429.64 101.67 433.973 101.787 438.46 101.98C443.847 102.207 449.46 102.54 455.3 102.98C461.09 103.4 467.08 103.91 473.3 104.49C481.02 105.22 489.1 106.07 497.55 106.99L504.9 107.81L505.9 107.92L507.46 108.09L513.39 108.76L522.17 109.76C542.34 112.09 564.46 114.76 588.84 117.37C596.3 118.183 603.966 118.99 611.84 119.79L614.17 120.03C616.49 120.26 618.82 120.5 621.17 120.72L629.17 121.51C643.423 122.843 658.37 124.157 674.01 125.45C702.26 127.69 726.59 126.02 747.53 121.45C748.64 121.21 749.73 120.96 750.82 120.7C763.109 117.864 775.046 113.671 786.41 108.2C786.498 108.143 786.592 108.097 786.69 108.06C787.53 107.65 788.36 107.23 789.19 106.8C839.7 80.92 867.89 34.62 877 0Z" fill="white"/>
<path d="M261.47 286.332C267.261 259.971 250.966 233.989 225.074 228.301C199.182 222.613 173.497 239.372 167.706 265.734C161.915 292.096 178.21 318.077 204.102 323.765C229.995 329.453 255.679 312.694 261.47 286.332Z" fill="white"/>
<path d="M764.135 58.2902C767.855 41.3126 757.358 24.5883 740.688 20.9354C724.018 17.2824 707.488 28.0841 703.768 45.0617C700.047 62.0392 710.545 78.7635 727.215 82.4165C743.885 86.0694 760.415 75.2677 764.135 58.2902Z" fill="white"/>
<path d="M245.576 126.415C241.374 127.448 237.745 130.088 235.47 133.768C233.194 137.448 232.453 141.874 233.406 146.095C233.851 148.171 234.705 150.138 235.919 151.881C237.132 153.623 238.68 155.107 240.473 156.246C242.265 157.384 244.267 158.154 246.36 158.511C248.454 158.868 250.597 158.805 252.666 158.325C256.861 157.291 260.486 154.656 262.762 150.983C265.039 147.31 265.787 142.892 264.846 138.675C264.404 136.595 263.551 134.624 262.339 132.877C261.126 131.13 259.578 129.642 257.784 128.501C255.989 127.359 253.986 126.587 251.89 126.229C249.793 125.87 247.647 125.934 245.576 126.415Z" fill="white"/>
<path d="M792.46 143.22H699.89V155.56H792.46V143.22Z" fill="#111111"/>
<path d="M792.46 130.74H699.89V143.09H792.46V130.74Z" fill="black"/>
<path d="M792.46 118.53H699.89V130.88H792.46V118.53Z" fill="#111111"/>
<path d="M792.46 106.05H699.89V118.39H792.46V106.05Z" fill="black"/>
<path d="M696.53 120.11H649.33V155.75H696.53V120.11Z" fill="#EDD1D7"/>
<path d="M696.53 139.88H649.33V155.75H696.53V139.88Z" fill="#F0DBA9"/>
<path d="M689.09 126.63H655.93V149.22H689.09V126.63Z" fill="#FDF8FA"/>
<path d="M621.83 69.46H599.71V155.59H621.83V69.46Z" fill="#DF3349"/>
<path d="M615.91 75.71H605.64V88.36H615.91V75.71Z" fill="#FE5B70"/>
<path d="M615.91 103.81H605.64V149.35H615.91V103.81Z" fill="#FE5B70"/>
<path d="M646.2 69.46H624.07V155.59H646.2V69.46Z" fill="#DF3349"/>
<path d="M640.26 75.71H629.99V88.36H640.26V75.71Z" fill="#FE5B70"/>
<path d="M640.26 103.81H629.99V149.35H640.26V103.81Z" fill="#FE5B70"/>
<path d="M775.37 180.45H733.09V212.37H775.37V180.45Z" fill="#EDD1D7"/>
<path d="M775.37 198.16H733.09V212.37H775.37V198.16Z" fill="#F0DBA9"/>
<path d="M768.69 186.3H739V206.53H768.69V186.3Z" fill="#FDF8FA"/>
<path d="M731.4 180.45H689.12V212.37H731.4V180.45Z" fill="#EDD1D7"/>
<path d="M731.4 198.16H689.12V212.37H731.4V198.16Z" fill="#F0DBA9"/>
<path d="M724.71 186.3H695.02V206.53H724.71V186.3Z" fill="#FDF8FA"/>
<path d="M658 198.57L655 195.88L647.83 196.66L640.66 195.88L637.66 198.57C637.046 199.082 636.55 199.721 636.205 200.442C635.86 201.163 635.674 201.95 635.66 202.75V215.34C635.661 215.957 635.769 216.57 635.98 217.15C636.286 217.876 636.806 218.492 637.471 218.915C638.135 219.338 638.913 219.549 639.7 219.52H655.96C656.749 219.549 657.527 219.337 658.193 218.914C658.859 218.491 659.381 217.876 659.69 217.15C659.901 216.57 660.009 215.957 660.01 215.34V202.75C659.994 201.95 659.807 201.162 659.46 200.441C659.113 199.72 658.615 199.082 658 198.57Z" fill="#FCEFDE"/>
<path d="M656.53 194.76H639C638.694 194.743 638.395 194.847 638.165 195.049C637.935 195.251 637.793 195.535 637.77 195.84V196.45C637.793 196.755 637.935 197.039 638.165 197.241C638.395 197.443 638.694 197.546 639 197.53H656.58C656.885 197.546 657.185 197.443 657.415 197.241C657.645 197.039 657.787 196.755 657.81 196.45V195.84C657.8 195.684 657.759 195.531 657.688 195.392C657.618 195.252 657.52 195.128 657.4 195.027C657.281 194.926 657.142 194.85 656.992 194.804C656.843 194.759 656.686 194.743 656.53 194.76Z" fill="#E77387"/>
<path d="M657.46 202.72H638.02V214.49H657.46V202.72Z" fill="#FBD684"/>
<path opacity="0.53" d="M655.12 212.43V204.79H640.36V212.43H655.12Z" fill="#D9F0FA"/>
<path d="M438.1 199.61H425.39C421.64 199.61 418.6 202.65 418.6 206.4V237.3C418.6 241.05 421.64 244.09 425.39 244.09H438.1C441.85 244.09 444.89 241.05 444.89 237.3V206.4C444.89 202.65 441.85 199.61 438.1 199.61Z" fill="#BACD8B"/>
<path d="M418.6 202V221.8C423.11 215.67 431.19 208.8 444.9 208.21V202C444.859 201.387 444.577 200.815 444.117 200.409C443.656 200.002 443.053 199.794 442.44 199.83H421.06C420.447 199.794 419.844 200.002 419.384 200.409C418.923 200.815 418.641 201.387 418.6 202Z" fill="#E0E196"/>
<path d="M444.9 233.85V208.2C431.19 208.75 423.11 215.66 418.6 221.79V242.13C418.601 242.392 418.655 242.65 418.76 242.89C432.62 243 440.66 238 444.9 233.85Z" fill="white"/>
<path d="M418.76 242.89C418.964 243.324 419.291 243.688 419.699 243.938C420.108 244.189 420.581 244.315 421.06 244.3H442.44C443.053 244.336 443.656 244.128 444.117 243.721C444.577 243.315 444.859 242.743 444.9 242.13V233.85C440.66 238 432.62 243 418.76 242.89Z" fill="#E0E196"/>
<path d="M440.17 225.4H423.33C423.076 225.4 422.87 225.606 422.87 225.86V226.51C422.87 226.764 423.076 226.97 423.33 226.97H440.17C440.424 226.97 440.63 226.764 440.63 226.51V225.86C440.63 225.606 440.424 225.4 440.17 225.4Z" fill="#E0E196"/>
<path d="M440.17 229.48H423.33C423.076 229.48 422.87 229.686 422.87 229.94V230.59C422.87 230.844 423.076 231.05 423.33 231.05H440.17C440.424 231.05 440.63 230.844 440.63 230.59V229.94C440.63 229.686 440.424 229.48 440.17 229.48Z" fill="#E0E196"/>
<path d="M435.57 233.55H427.93C427.817 233.532 427.702 233.538 427.591 233.569C427.481 233.6 427.379 233.655 427.292 233.729C427.205 233.803 427.135 233.895 427.087 233.999C427.039 234.103 427.015 234.216 427.015 234.33C427.015 234.444 427.039 234.557 427.087 234.661C427.135 234.765 427.205 234.857 427.292 234.931C427.379 235.005 427.481 235.06 427.591 235.091C427.702 235.122 427.817 235.128 427.93 235.11H435.57C435.683 235.128 435.798 235.122 435.908 235.091C436.019 235.06 436.121 235.005 436.208 234.931C436.295 234.857 436.365 234.765 436.412 234.661C436.46 234.557 436.485 234.444 436.485 234.33C436.485 234.216 436.46 234.103 436.412 233.999C436.365 233.895 436.295 233.803 436.208 233.729C436.121 233.655 436.019 233.6 435.908 233.569C435.798 233.538 435.683 233.532 435.57 233.55Z" fill="#E0E196"/>
<path d="M465.07 199.61H452.36C448.61 199.61 445.57 202.65 445.57 206.4V237.3C445.57 241.05 448.61 244.09 452.36 244.09H465.07C468.82 244.09 471.86 241.05 471.86 237.3V206.4C471.86 202.65 468.82 199.61 465.07 199.61Z" fill="#BACD8B"/>
<path d="M445.57 202V221.8C450.07 215.67 458.15 208.8 471.86 208.21V202C471.821 201.388 471.542 200.816 471.083 200.409C470.624 200.003 470.022 199.794 469.41 199.83H448C447.392 199.803 446.797 200.014 446.343 200.42C445.889 200.825 445.611 201.393 445.57 202Z" fill="#E0E196"/>
<path d="M471.86 233.85V208.2C458.15 208.75 450.07 215.66 445.57 221.79V242.13C445.571 242.392 445.625 242.65 445.73 242.89C459.59 243 467.63 238 471.86 233.85Z" fill="white"/>
<path d="M445.73 242.89C445.934 243.324 446.261 243.688 446.669 243.938C447.078 244.189 447.551 244.315 448.03 244.3H469.41C470.022 244.336 470.624 244.127 471.083 243.721C471.542 243.314 471.821 242.742 471.86 242.13V233.85C467.63 238 459.59 243 445.73 242.89Z" fill="#E0E196"/>
<path d="M467.14 225.4H450.3C450.046 225.4 449.84 225.606 449.84 225.86V226.51C449.84 226.764 450.046 226.97 450.3 226.97H467.14C467.394 226.97 467.6 226.764 467.6 226.51V225.86C467.6 225.606 467.394 225.4 467.14 225.4Z" fill="#E0E196"/>
<path d="M467.14 229.48H450.3C450.046 229.48 449.84 229.686 449.84 229.94V230.59C449.84 230.844 450.046 231.05 450.3 231.05H467.14C467.394 231.05 467.6 230.844 467.6 230.59V229.94C467.6 229.686 467.394 229.48 467.14 229.48Z" fill="#E0E196"/>
<path d="M462.54 233.55H454.9C454.787 233.532 454.672 233.538 454.561 233.569C454.451 233.6 454.349 233.655 454.262 233.729C454.175 233.803 454.105 233.895 454.057 233.999C454.009 234.103 453.985 234.216 453.985 234.33C453.985 234.444 454.009 234.557 454.057 234.661C454.105 234.765 454.175 234.857 454.262 234.931C454.349 235.005 454.451 235.06 454.561 235.091C454.672 235.122 454.787 235.128 454.9 235.11H462.54C462.653 235.128 462.768 235.122 462.878 235.091C462.989 235.06 463.091 235.005 463.178 234.931C463.265 234.857 463.335 234.765 463.383 234.661C463.43 234.557 463.455 234.444 463.455 234.33C463.455 234.216 463.43 234.103 463.383 233.999C463.335 233.895 463.265 233.803 463.178 233.729C463.091 233.655 462.989 233.6 462.878 233.569C462.768 233.538 462.653 233.532 462.54 233.55Z" fill="#E0E196"/>
<path d="M492.04 199.61H479.33C475.58 199.61 472.54 202.65 472.54 206.4V237.3C472.54 241.05 475.58 244.09 479.33 244.09H492.04C495.79 244.09 498.83 241.05 498.83 237.3V206.4C498.83 202.65 495.79 199.61 492.04 199.61Z" fill="#BACD8B"/>
<path d="M472.54 202V221.8C477.04 215.67 485.12 208.8 498.83 208.21V202C498.789 201.387 498.507 200.815 498.047 200.409C497.586 200.002 496.983 199.794 496.37 199.83H475C474.387 199.794 473.784 200.002 473.323 200.409C472.863 200.815 472.581 201.387 472.54 202Z" fill="#E0E196"/>
<path d="M498.83 233.85V208.2C485.12 208.75 477.04 215.66 472.54 221.79V242.13C472.541 242.392 472.595 242.65 472.7 242.89C486.56 243 494.6 238 498.83 233.85Z" fill="white"/>
<path d="M472.7 242.89C472.904 243.324 473.231 243.688 473.64 243.938C474.048 244.189 474.521 244.315 475 244.3H496.37C496.983 244.336 497.586 244.128 498.047 243.721C498.507 243.315 498.789 242.743 498.83 242.13V233.85C494.6 238 486.56 243 472.7 242.89Z" fill="#E0E196"/>
<path d="M494.11 225.4H477.27C477.016 225.4 476.81 225.606 476.81 225.86V226.51C476.81 226.764 477.016 226.97 477.27 226.97H494.11C494.364 226.97 494.57 226.764 494.57 226.51V225.86C494.57 225.606 494.364 225.4 494.11 225.4Z" fill="#E0E196"/>
<path d="M494.11 229.48H477.27C477.016 229.48 476.81 229.686 476.81 229.94V230.59C476.81 230.844 477.016 231.05 477.27 231.05H494.11C494.364 231.05 494.57 230.844 494.57 230.59V229.94C494.57 229.686 494.364 229.48 494.11 229.48Z" fill="#E0E196"/>
<path d="M489.5 233.55H481.87C481.757 233.532 481.641 233.538 481.531 233.569C481.421 233.6 481.319 233.655 481.232 233.729C481.145 233.803 481.075 233.895 481.027 233.999C480.979 234.103 480.955 234.216 480.955 234.33C480.955 234.444 480.979 234.557 481.027 234.661C481.075 234.765 481.145 234.857 481.232 234.931C481.319 235.005 481.421 235.06 481.531 235.091C481.641 235.122 481.757 235.128 481.87 235.11H489.5C489.613 235.128 489.728 235.122 489.838 235.091C489.948 235.06 490.051 235.005 490.138 234.931C490.225 234.857 490.294 234.765 490.342 234.661C490.39 234.557 490.415 234.444 490.415 234.33C490.415 234.216 490.39 234.103 490.342 233.999C490.294 233.895 490.225 233.803 490.138 233.729C490.051 233.655 489.948 233.6 489.838 233.569C489.728 233.538 489.613 233.532 489.5 233.55Z" fill="#E0E196"/>
<path d="M414.94 213.24L410.46 209.24L399.91 210.39L389.35 209.24L384.87 213.24C383.98 214.003 383.264 214.947 382.769 216.01C382.274 217.072 382.012 218.228 382 219.4V237.94C382 238.847 382.159 239.748 382.47 240.6C382.925 241.669 383.693 242.575 384.673 243.198C385.653 243.821 386.799 244.132 387.96 244.09H411.9C413.06 244.133 414.205 243.822 415.184 243.199C416.162 242.575 416.928 241.669 417.38 240.6C417.694 239.748 417.857 238.848 417.86 237.94V219.4C417.844 218.224 417.574 217.065 417.07 216.002C416.567 214.939 415.84 213.997 414.94 213.24Z" fill="#E1EDF1"/>
<path d="M412.85 207.63H387C386.551 207.605 386.111 207.758 385.774 208.056C385.437 208.353 385.231 208.772 385.2 209.22V210.12C385.231 210.568 385.437 210.987 385.774 211.284C386.111 211.582 386.551 211.735 387 211.71H412.89C413.34 211.738 413.783 211.586 414.122 211.288C414.462 210.99 414.669 210.57 414.7 210.12V209.22C414.685 208.994 414.625 208.772 414.523 208.569C414.422 208.366 414.281 208.185 414.108 208.037C413.936 207.889 413.736 207.777 413.52 207.707C413.304 207.637 413.076 207.611 412.85 207.63Z" fill="#8E9ED0"/>
<path d="M414.22 219.36H385.59V236.7H414.22V219.36Z" fill="#8E9ED0"/>
<path opacity="0.53" d="M410.78 233.66V222.4H389.05V233.66H410.78Z" fill="#B3E2F5"/>
<path d="M618.63 209.27L613.58 204.81L601.66 206.11L589.75 204.81L584.69 209.27C583.683 210.13 582.872 211.194 582.31 212.393C581.747 213.592 581.448 214.896 581.43 216.22V237.15C581.431 238.173 581.61 239.189 581.96 240.15C582.472 241.358 583.339 242.382 584.447 243.085C585.554 243.789 586.849 244.139 588.16 244.09H615.16C616.47 244.137 617.762 243.786 618.868 243.082C619.973 242.379 620.839 241.356 621.35 240.15C621.708 239.19 621.891 238.174 621.89 237.15V216.22C621.872 214.896 621.572 213.592 621.01 212.393C620.448 211.195 619.636 210.13 618.63 209.27Z" fill="#FCEFDE"/>
<path d="M616.27 202.94H587.06C586.558 202.921 586.068 203.098 585.695 203.434C585.321 203.77 585.094 204.239 585.06 204.74V205.74C585.094 206.241 585.321 206.71 585.695 207.046C586.068 207.382 586.558 207.559 587.06 207.54H616.27C616.772 207.559 617.262 207.382 617.635 207.046C618.009 206.71 618.237 206.241 618.27 205.74V204.74C618.237 204.239 618.009 203.77 617.635 203.434C617.262 203.098 616.772 202.921 616.27 202.94Z" fill="#F7C083"/>
<path d="M617.82 216.18H585.51V235.75H617.82V216.18Z" fill="#FBD684"/>
<path opacity="0.53" d="M613.93 232.31V219.61H589.4V232.31H613.93Z" fill="#D9F0FA"/>
<path d="M645.31 223.33L642.31 220.64L635.14 221.42L627.97 220.64L624.97 223.33C624.356 223.842 623.859 224.48 623.514 225.202C623.169 225.923 622.983 226.71 622.97 227.51V240.1C622.968 240.715 623.08 241.325 623.3 241.9C623.606 242.627 624.125 243.244 624.79 243.669C625.454 244.094 626.232 244.307 627.02 244.28H643.28C644.069 244.306 644.848 244.093 645.514 243.668C646.18 243.243 646.701 242.627 647.01 241.9C647.222 241.323 647.33 240.714 647.33 240.1V227.51C647.314 226.709 647.126 225.92 646.777 225.199C646.428 224.478 645.928 223.84 645.31 223.33Z" fill="#FCEFDE"/>
<path d="M643.89 219.52H626.31C626.159 219.511 626.007 219.531 625.864 219.58C625.721 219.629 625.589 219.706 625.476 219.807C625.362 219.907 625.27 220.029 625.204 220.165C625.137 220.301 625.099 220.449 625.09 220.6V221.2C625.108 221.506 625.246 221.793 625.475 221.997C625.704 222.201 626.004 222.306 626.31 222.29H643.89C644.196 222.306 644.496 222.201 644.725 221.997C644.953 221.793 645.092 221.506 645.11 221.2V220.6C645.101 220.449 645.062 220.301 644.996 220.165C644.93 220.029 644.837 219.907 644.724 219.807C644.611 219.706 644.479 219.629 644.336 219.58C644.192 219.531 644.041 219.511 643.89 219.52Z" fill="#E77387"/>
<path d="M644.82 227.48H625.38V239.25H644.82V227.48Z" fill="#FBD684"/>
<path opacity="0.53" d="M642.48 237.19V229.55H627.72V237.19H642.48Z" fill="#D9F0FA"/>
<path d="M670.59 223.33L667.59 220.64L660.42 221.42L653.25 220.64L650.25 223.33C649.636 223.842 649.139 224.48 648.794 225.202C648.449 225.923 648.263 226.71 648.25 227.51V240.1C648.253 240.715 648.365 241.324 648.58 241.9C648.887 242.626 649.407 243.242 650.071 243.667C650.735 244.092 651.512 244.306 652.3 244.28H668.56C669.349 244.306 670.128 244.093 670.794 243.668C671.46 243.243 671.981 242.627 672.29 241.9C672.502 241.323 672.61 240.714 672.61 240.1V227.51C672.594 226.709 672.406 225.92 672.057 225.199C671.708 224.478 671.208 223.84 670.59 223.33Z" fill="#FCEFDE"/>
<path d="M669.17 219.52H651.59C651.286 219.504 650.987 219.608 650.759 219.81C650.53 220.012 650.391 220.296 650.37 220.6V221.2C650.388 221.506 650.527 221.793 650.755 221.997C650.984 222.201 651.284 222.306 651.59 222.29H669.17C669.477 222.307 669.778 222.201 670.009 221.997C670.239 221.793 670.38 221.507 670.4 221.2V220.6C670.38 220.294 670.239 220.009 670.008 219.806C669.778 219.604 669.476 219.501 669.17 219.52Z" fill="#E77387"/>
<path d="M670.1 227.48H650.66V239.25H670.1V227.48Z" fill="#FBD684"/>
<path opacity="0.53" d="M667.76 237.19V229.55H653V237.19H667.76Z" fill="#D9F0FA"/>
<path d="M352.37 195.65V217.59C352.404 218.089 352.632 218.554 353.007 218.886C353.381 219.217 353.871 219.387 354.37 219.36H368.57C369.069 219.387 369.559 219.217 369.934 218.886C370.308 218.554 370.537 218.089 370.57 217.59V195.65H352.37Z" fill="#89D5F1"/>
<path d="M355.5 195.65V215.65C355.466 216.039 355.585 216.425 355.832 216.728C356.078 217.03 356.433 217.225 356.82 217.27H366.14C366.526 217.222 366.878 217.027 367.122 216.724C367.367 216.422 367.484 216.037 367.45 215.65V195.65H355.5Z" fill="#4CC0E5"/>
<path d="M371.05 194.63H351.9C351.768 194.621 351.635 194.637 351.51 194.68C351.384 194.722 351.268 194.789 351.168 194.876C351.069 194.964 350.988 195.07 350.93 195.189C350.871 195.308 350.838 195.438 350.83 195.57V196.23C350.83 196.367 350.858 196.503 350.912 196.63C350.967 196.756 351.047 196.869 351.147 196.963C351.248 197.057 351.366 197.129 351.496 197.175C351.625 197.221 351.763 197.24 351.9 197.23H371.05C371.187 197.24 371.325 197.221 371.454 197.175C371.584 197.129 371.702 197.057 371.803 196.963C371.903 196.869 371.983 196.756 372.038 196.63C372.092 196.503 372.12 196.367 372.12 196.23V195.57C372.112 195.438 372.079 195.308 372.021 195.189C371.962 195.07 371.881 194.964 371.782 194.876C371.682 194.789 371.566 194.722 371.441 194.68C371.315 194.637 371.182 194.621 371.05 194.63Z" fill="#DCE2F2"/>
<path opacity="0.63" d="M368.27 206.36H354.68V212.73H368.27V206.36Z" fill="#DCE2F2"/>
<path d="M341.38 220.38V242.32C341.413 242.819 341.642 243.284 342.016 243.616C342.391 243.947 342.881 244.117 343.38 244.09H357.58C358.079 244.117 358.569 243.947 358.943 243.616C359.318 243.284 359.546 242.819 359.58 242.32V220.38H341.38Z" fill="#89D5F1"/>
<path d="M344.51 220.38V240.44C344.476 240.827 344.596 241.213 344.842 241.514C345.089 241.815 345.443 242.007 345.83 242.05H355.15C355.535 242.005 355.887 241.811 356.131 241.51C356.376 241.21 356.494 240.826 356.46 240.44V220.38H344.51Z" fill="#4CC0E5"/>
<path d="M360.06 219.36H340.91C340.778 219.35 340.645 219.367 340.52 219.41C340.394 219.452 340.278 219.519 340.178 219.606C340.079 219.694 339.998 219.8 339.94 219.919C339.881 220.038 339.848 220.168 339.84 220.3V221C339.848 221.132 339.881 221.262 339.94 221.381C339.998 221.5 340.079 221.606 340.178 221.694C340.278 221.781 340.394 221.848 340.52 221.89C340.645 221.933 340.778 221.949 340.91 221.94H360.06C360.192 221.949 360.325 221.933 360.451 221.89C360.576 221.848 360.692 221.781 360.792 221.694C360.891 221.606 360.972 221.5 361.031 221.381C361.089 221.262 361.122 221.132 361.13 221V220.33C361.126 220.195 361.095 220.062 361.039 219.94C360.983 219.817 360.902 219.707 360.802 219.617C360.702 219.526 360.585 219.457 360.457 219.412C360.33 219.368 360.195 219.35 360.06 219.36Z" fill="#DCE2F2"/>
<path opacity="0.63" d="M357.28 231.09H343.69V237.46H357.28V231.09Z" fill="#DCE2F2"/>
<path d="M362.78 220.38V242.32C362.813 242.819 363.042 243.284 363.417 243.616C363.791 243.947 364.281 244.117 364.78 244.09H379C379.499 244.117 379.989 243.947 380.363 243.616C380.738 243.284 380.967 242.819 381 242.32V220.38H362.78Z" fill="#89D5F1"/>
<path d="M365.91 220.38V240.44C365.876 240.827 365.995 241.213 366.242 241.514C366.489 241.815 366.843 242.007 367.23 242.05H376.55C376.935 242.005 377.287 241.811 377.531 241.51C377.776 241.21 377.894 240.826 377.86 240.44V220.38H365.91Z" fill="#4CC0E5"/>
<path d="M381.46 219.36H362.31C362.178 219.35 362.045 219.367 361.919 219.41C361.794 219.452 361.678 219.519 361.578 219.606C361.479 219.694 361.398 219.8 361.34 219.919C361.281 220.038 361.248 220.168 361.24 220.3V221C361.248 221.132 361.281 221.262 361.34 221.381C361.398 221.5 361.479 221.606 361.578 221.694C361.678 221.781 361.794 221.848 361.919 221.89C362.045 221.933 362.178 221.949 362.31 221.94H381.46C381.592 221.949 381.725 221.933 381.851 221.89C381.976 221.848 382.092 221.781 382.192 221.694C382.291 221.606 382.372 221.5 382.43 221.381C382.489 221.262 382.522 221.132 382.53 221V220.33C382.526 220.195 382.495 220.062 382.439 219.94C382.383 219.817 382.302 219.707 382.202 219.617C382.102 219.526 381.985 219.457 381.857 219.412C381.73 219.368 381.595 219.35 381.46 219.36Z" fill="#DCE2F2"/>
<path opacity="0.63" d="M378.68 231.09H365.09V237.46H378.68V231.09Z" fill="#DCE2F2"/>
<path d="M523 213.11H505C504.133 213.063 503.283 213.359 502.632 213.933C501.981 214.507 501.582 215.314 501.52 216.18V241.18C501.582 242.046 501.981 242.853 502.632 243.427C503.283 244.001 504.133 244.297 505 244.25H523C523.867 244.299 524.719 244.005 525.371 243.43C526.022 242.855 526.421 242.047 526.48 241.18V216.18C526.421 215.313 526.022 214.505 525.371 213.93C524.719 213.355 523.867 213.061 523 213.11Z" fill="#FAC7C4"/>
<path d="M523.82 209H504.07C503.766 208.958 503.456 208.982 503.162 209.07C502.868 209.158 502.596 209.308 502.364 209.51C502.133 209.711 501.947 209.96 501.82 210.24C501.693 210.519 501.627 210.823 501.627 211.13C501.627 211.437 501.693 211.741 501.82 212.02C501.947 212.3 502.133 212.549 502.364 212.75C502.596 212.952 502.868 213.102 503.162 213.19C503.456 213.278 503.766 213.302 504.07 213.26H523.82C524.124 213.302 524.434 213.278 524.728 213.19C525.022 213.102 525.294 212.952 525.526 212.75C525.757 212.549 525.943 212.3 526.07 212.02C526.197 211.741 526.263 211.437 526.263 211.13C526.263 210.823 526.197 210.519 526.07 210.24C525.943 209.96 525.757 209.711 525.526 209.51C525.294 209.308 525.022 209.158 524.728 209.07C524.434 208.982 524.124 208.958 523.82 209Z" fill="#EB8580"/>
<path d="M520.56 215.59H507.2C506.755 215.562 506.317 215.712 505.982 216.006C505.646 216.3 505.441 216.715 505.41 217.16V240.34C505.441 240.785 505.646 241.2 505.982 241.494C506.317 241.788 506.755 241.937 507.2 241.91H520.56C521.005 241.937 521.443 241.788 521.779 241.494C522.114 241.2 522.319 240.785 522.35 240.34V217.16C522.319 216.715 522.114 216.3 521.779 216.006C521.443 215.712 521.005 215.562 520.56 215.59Z" fill="#EB8580"/>
<path d="M523.68 222.27H504.07V234.45H523.68V222.27Z" fill="white"/>
<path d="M549.7 213.11H531.7C530.833 213.063 529.983 213.359 529.332 213.933C528.681 214.507 528.282 215.314 528.22 216.18V241.18C528.282 242.046 528.681 242.853 529.332 243.427C529.983 244.001 530.833 244.297 531.7 244.25H549.7C550.567 244.299 551.419 244.005 552.071 243.43C552.722 242.855 553.121 242.047 553.18 241.18V216.18C553.121 215.313 552.722 214.505 552.071 213.93C551.419 213.355 550.567 213.061 549.7 213.11Z" fill="#FAC7C4"/>
<path d="M550.56 209H530.81C530.506 208.958 530.196 208.982 529.902 209.07C529.608 209.158 529.336 209.308 529.104 209.51C528.873 209.711 528.687 209.96 528.56 210.24C528.433 210.519 528.367 210.823 528.367 211.13C528.367 211.437 528.433 211.741 528.56 212.02C528.687 212.3 528.873 212.549 529.104 212.75C529.336 212.952 529.608 213.102 529.902 213.19C530.196 213.278 530.506 213.302 530.81 213.26H550.56C550.864 213.302 551.174 213.278 551.468 213.19C551.762 213.102 552.034 212.952 552.266 212.75C552.497 212.549 552.683 212.3 552.81 212.02C552.937 211.741 553.003 211.437 553.003 211.13C553.003 210.823 552.937 210.519 552.81 210.24C552.683 209.96 552.497 209.711 552.266 209.51C552.034 209.308 551.762 209.158 551.468 209.07C551.174 208.982 550.864 208.958 550.56 209Z" fill="#EB8580"/>
<path d="M547.3 215.59H533.94C533.495 215.562 533.057 215.712 532.721 216.006C532.386 216.3 532.181 216.715 532.15 217.16V240.34C532.181 240.785 532.386 241.2 532.721 241.494C533.057 241.788 533.495 241.937 533.94 241.91H547.3C547.745 241.937 548.183 241.788 548.518 241.494C548.854 241.2 549.059 240.785 549.09 240.34V217.16C549.059 216.715 548.854 216.3 548.518 216.006C548.183 215.712 547.745 215.562 547.3 215.59Z" fill="#EB8580"/>
<path d="M550.42 222.27H530.81V234.45H550.42V222.27Z" fill="white"/>
<path d="M576.44 213.11H558.44C557.573 213.063 556.723 213.359 556.072 213.933C555.421 214.507 555.022 215.314 554.96 216.18V241.18C555.022 242.046 555.421 242.853 556.072 243.427C556.723 244.001 557.573 244.297 558.44 244.25H576.44C577.308 244.3 578.161 244.005 578.815 243.431C579.468 242.856 579.868 242.048 579.93 241.18V216.18C579.868 215.312 579.468 214.504 578.815 213.929C578.161 213.355 577.308 213.061 576.44 213.11Z" fill="#FAC7C4"/>
<path d="M577.3 209H557.55C557.246 208.958 556.936 208.982 556.642 209.07C556.348 209.158 556.076 209.308 555.844 209.51C555.613 209.711 555.427 209.96 555.3 210.24C555.173 210.519 555.107 210.823 555.107 211.13C555.107 211.437 555.173 211.741 555.3 212.02C555.427 212.3 555.613 212.549 555.844 212.75C556.076 212.952 556.348 213.102 556.642 213.19C556.936 213.278 557.246 213.302 557.55 213.26H577.3C577.604 213.302 577.914 213.278 578.208 213.19C578.502 213.102 578.774 212.952 579.006 212.75C579.237 212.549 579.423 212.3 579.55 212.02C579.677 211.741 579.743 211.437 579.743 211.13C579.743 210.823 579.677 210.519 579.55 210.24C579.423 209.96 579.237 209.711 579.006 209.51C578.774 209.308 578.502 209.158 578.208 209.07C577.914 208.982 577.604 208.958 577.3 209Z" fill="#EB8580"/>
<path d="M574 215.59H560.64C560.195 215.562 559.757 215.712 559.422 216.006C559.086 216.3 558.881 216.715 558.85 217.16V240.34C558.881 240.785 559.086 241.2 559.422 241.494C559.757 241.788 560.195 241.937 560.64 241.91H574C574.445 241.937 574.883 241.788 575.219 241.494C575.554 241.2 575.759 240.785 575.79 240.34V217.16C575.759 216.715 575.554 216.3 575.219 216.006C574.883 215.712 574.445 215.562 574 215.59Z" fill="#EB8580"/>
<path d="M577.17 222.27H557.56V234.45H577.17V222.27Z" fill="white"/>
<path d="M806.05 243.59H330.37C329.299 243.59 328.43 244.459 328.43 245.53V248.28C328.43 249.351 329.299 250.22 330.37 250.22H806.05C807.122 250.22 807.99 249.351 807.99 248.28V245.53C807.99 244.459 807.122 243.59 806.05 243.59Z" fill="#FE5B70"/>
<path d="M492.8 284.9H462.77V307.58H492.8V284.9Z" fill="#EDD1D7"/>
<path d="M492.8 297.48H462.77V307.58H492.8V297.48Z" fill="#F0DBA9"/>
<path d="M488.06 289.05H466.96V303.42H488.06V289.05Z" fill="#FDF8FA"/>
<path d="M461.56 284.9H431.53V307.58H461.56V284.9Z" fill="#EDD1D7"/>
<path d="M461.56 297.48H431.53V307.58H461.56V297.48Z" fill="#F0DBA9"/>
<path d="M456.81 289.05H435.72V303.42H456.81V289.05Z" fill="#FDF8FA"/>
<path d="M467.65 307.29H423.82V329.97H467.65V307.29Z" fill="#EDD1D7"/>
<path d="M467.65 319.87H423.82V329.97H467.65V319.87Z" fill="#F0DBA9"/>
<path d="M463.66 311.44H427.8V325.81H463.66V311.44Z" fill="#FDF8FA"/>
<path d="M499.05 307.29H469.02V329.97H499.05V307.29Z" fill="#EDD1D7"/>
<path d="M499.05 319.87H469.02V329.97H499.05V319.87Z" fill="#F0DBA9"/>
<path d="M494.31 311.44H473.22V325.81H494.31V311.44Z" fill="#FDF8FA"/>
<path d="M364.29 298.94H346.29C345.423 298.891 344.571 299.185 343.919 299.76C343.268 300.335 342.869 301.143 342.81 302.01V327.06C342.869 327.927 343.268 328.735 343.919 329.31C344.571 329.885 345.423 330.179 346.29 330.13H364.29C365.157 330.177 366.007 329.881 366.658 329.307C367.309 328.733 367.708 327.926 367.77 327.06V302C367.706 301.136 367.305 300.331 366.655 299.759C366.004 299.187 365.155 298.893 364.29 298.94Z" fill="#E2AED0"/>
<path d="M365.15 294.81H345.4C345.1 294.774 344.795 294.802 344.507 294.893C344.218 294.983 343.952 295.134 343.726 295.335C343.5 295.536 343.319 295.782 343.195 296.058C343.071 296.334 343.007 296.633 343.007 296.935C343.007 297.237 343.071 297.536 343.195 297.812C343.319 298.088 343.5 298.334 343.726 298.535C343.952 298.736 344.218 298.886 344.507 298.977C344.795 299.067 345.1 299.096 345.4 299.06H365.15C365.45 299.096 365.755 299.067 366.043 298.977C366.332 298.886 366.598 298.736 366.824 298.535C367.05 298.334 367.231 298.088 367.355 297.812C367.479 297.536 367.543 297.237 367.543 296.935C367.543 296.633 367.479 296.334 367.355 296.058C367.231 295.782 367.05 295.536 366.824 295.335C366.598 295.134 366.332 294.983 366.043 294.893C365.755 294.802 365.45 294.774 365.15 294.81Z" fill="#BF75AF"/>
<path d="M361.89 301.41H348.52C348.075 301.385 347.638 301.538 347.305 301.834C346.971 302.129 346.768 302.545 346.74 302.99V326.17C346.768 326.614 346.972 327.029 347.305 327.323C347.639 327.618 348.076 327.767 348.52 327.74H361.89C362.334 327.767 362.771 327.618 363.105 327.323C363.438 327.029 363.642 326.614 363.67 326.17V303C363.644 302.553 363.442 302.135 363.109 301.837C362.775 301.539 362.337 301.385 361.89 301.41Z" fill="#DC6293"/>
<path d="M365.01 308.1H345.4V320.28H365.01V308.1Z" fill="white"/>
<path d="M391 298.94H373C372.133 298.891 371.281 299.185 370.629 299.76C369.978 300.335 369.579 301.143 369.52 302.01V327.06C369.579 327.927 369.978 328.735 370.629 329.31C371.281 329.885 372.133 330.179 373 330.13H391C391.867 330.177 392.717 329.881 393.368 329.307C394.019 328.733 394.418 327.926 394.48 327.06V302C394.416 301.136 394.015 300.331 393.365 299.759C392.714 299.187 391.865 298.893 391 298.94Z" fill="#E2AED0"/>
<path d="M391.89 294.81H372.14C371.84 294.774 371.535 294.802 371.247 294.893C370.958 294.983 370.692 295.134 370.466 295.335C370.24 295.536 370.059 295.782 369.935 296.058C369.811 296.334 369.747 296.633 369.747 296.935C369.747 297.237 369.811 297.536 369.935 297.812C370.059 298.088 370.24 298.334 370.466 298.535C370.692 298.736 370.958 298.886 371.247 298.977C371.535 299.067 371.84 299.096 372.14 299.06H391.89C392.19 299.096 392.495 299.067 392.783 298.977C393.072 298.886 393.338 298.736 393.564 298.535C393.79 298.334 393.971 298.088 394.095 297.812C394.219 297.536 394.283 297.237 394.283 296.935C394.283 296.633 394.219 296.334 394.095 296.058C393.971 295.782 393.79 295.536 393.564 295.335C393.338 295.134 393.072 294.983 392.783 294.893C392.495 294.802 392.19 294.774 391.89 294.81Z" fill="#BF75AF"/>
<path d="M388.63 301.41H375.26C374.815 301.385 374.378 301.538 374.045 301.834C373.711 302.129 373.508 302.545 373.48 302.99V326.17C373.508 326.614 373.712 327.029 374.045 327.323C374.379 327.618 374.816 327.767 375.26 327.74H388.63C389.074 327.767 389.511 327.618 389.845 327.323C390.178 327.029 390.382 326.614 390.41 326.17V303C390.384 302.553 390.182 302.135 389.849 301.837C389.515 301.539 389.077 301.385 388.63 301.41Z" fill="#DC6293"/>
<path d="M391.75 308.1H372.14V320.28H391.75V308.1Z" fill="white"/>
<path d="M756.89 298.94H738.89C738.023 298.893 737.173 299.189 736.522 299.763C735.871 300.337 735.472 301.144 735.41 302.01V327.06C735.472 327.926 735.871 328.733 736.522 329.307C737.173 329.881 738.023 330.177 738.89 330.13H756.89C757.757 330.177 758.607 329.881 759.258 329.307C759.909 328.733 760.308 327.926 760.37 327.06V302C760.306 301.136 759.906 300.331 759.255 299.759C758.604 299.187 757.755 298.893 756.89 298.94Z" fill="#FAC7C4"/>
<path d="M757.74 294.81H738C737.7 294.774 737.395 294.802 737.107 294.893C736.818 294.983 736.552 295.134 736.326 295.335C736.1 295.536 735.919 295.782 735.795 296.058C735.671 296.334 735.607 296.633 735.607 296.935C735.607 297.237 735.671 297.536 735.795 297.812C735.919 298.088 736.1 298.334 736.326 298.535C736.552 298.736 736.818 298.886 737.107 298.977C737.395 299.067 737.7 299.096 738 299.06H757.74C758.04 299.096 758.345 299.067 758.633 298.977C758.922 298.886 759.188 298.736 759.414 298.535C759.64 298.334 759.821 298.088 759.945 297.812C760.069 297.536 760.133 297.237 760.133 296.935C760.133 296.633 760.069 296.334 759.945 296.058C759.821 295.782 759.64 295.536 759.414 295.335C759.188 295.134 758.922 294.983 758.633 294.893C758.345 294.802 758.04 294.774 757.74 294.81Z" fill="#EB8580"/>
<path d="M754.48 301.41H741.12C740.674 301.385 740.236 301.537 739.901 301.833C739.566 302.129 739.361 302.544 739.33 302.99V326.17C739.361 326.615 739.566 327.03 739.902 327.324C740.237 327.618 740.675 327.768 741.12 327.74H754.48C754.925 327.768 755.363 327.618 755.698 327.324C756.034 327.03 756.239 326.615 756.27 326.17V303C756.242 302.553 756.038 302.134 755.703 301.837C755.367 301.539 754.928 301.385 754.48 301.41Z" fill="#EB8580"/>
<path d="M757.61 308.1H738V320.28H757.61V308.1Z" fill="white"/>
<path d="M783.63 298.94H765.63C764.763 298.893 763.913 299.189 763.262 299.763C762.611 300.337 762.212 301.144 762.15 302.01V327.06C762.212 327.926 762.611 328.733 763.262 329.307C763.913 329.881 764.763 330.177 765.63 330.13H783.63C784.497 330.177 785.347 329.881 785.998 329.307C786.649 328.733 787.048 327.926 787.11 327.06V302C787.046 301.136 786.645 300.331 785.995 299.759C785.344 299.187 784.495 298.893 783.63 298.94Z" fill="#FAC7C4"/>
<path d="M784.49 294.81H764.74C764.44 294.774 764.135 294.802 763.847 294.893C763.558 294.983 763.292 295.134 763.066 295.335C762.84 295.536 762.659 295.782 762.535 296.058C762.411 296.334 762.347 296.633 762.347 296.935C762.347 297.237 762.411 297.536 762.535 297.812C762.659 298.088 762.84 298.334 763.066 298.535C763.292 298.736 763.558 298.886 763.847 298.977C764.135 299.067 764.44 299.096 764.74 299.06H784.49C784.79 299.096 785.095 299.067 785.383 298.977C785.672 298.886 785.938 298.736 786.164 298.535C786.39 298.334 786.571 298.088 786.695 297.812C786.819 297.536 786.883 297.237 786.883 296.935C786.883 296.633 786.819 296.334 786.695 296.058C786.571 295.782 786.39 295.536 786.164 295.335C785.938 295.134 785.672 294.983 785.383 294.893C785.095 294.802 784.79 294.774 784.49 294.81Z" fill="#EB8580"/>
<path d="M781.22 301.41H767.86C767.414 301.385 766.976 301.537 766.641 301.833C766.306 302.129 766.101 302.544 766.07 302.99V326.17C766.101 326.615 766.306 327.03 766.641 327.324C766.977 327.618 767.415 327.768 767.86 327.74H781.22C781.665 327.768 782.103 327.618 782.438 327.324C782.774 327.03 782.979 326.615 783.01 326.17V303C782.982 302.553 782.778 302.134 782.442 301.837C782.107 301.539 781.668 301.385 781.22 301.41Z" fill="#EB8580"/>
<path d="M784.35 308.1H764.74V320.28H784.35V308.1Z" fill="white"/>
<path d="M417.77 298.94H399.77C398.903 298.891 398.051 299.185 397.399 299.76C396.748 300.335 396.349 301.143 396.29 302.01V327.06C396.349 327.927 396.748 328.735 397.399 329.31C398.051 329.885 398.903 330.179 399.77 330.13H417.77C418.637 330.177 419.487 329.881 420.138 329.307C420.789 328.733 421.188 327.926 421.25 327.06V302C421.186 301.136 420.786 300.331 420.135 299.759C419.484 299.187 418.635 298.893 417.77 298.94Z" fill="#E2AED0"/>
<path d="M418.63 294.81H398.88C398.58 294.774 398.275 294.802 397.987 294.893C397.698 294.983 397.432 295.134 397.206 295.335C396.98 295.536 396.799 295.782 396.675 296.058C396.551 296.334 396.487 296.633 396.487 296.935C396.487 297.237 396.551 297.536 396.675 297.812C396.799 298.088 396.98 298.334 397.206 298.535C397.432 298.736 397.698 298.886 397.987 298.977C398.275 299.067 398.58 299.096 398.88 299.06H418.63C418.93 299.096 419.235 299.067 419.523 298.977C419.812 298.886 420.078 298.736 420.304 298.535C420.53 298.334 420.711 298.088 420.835 297.812C420.959 297.536 421.023 297.237 421.023 296.935C421.023 296.633 420.959 296.334 420.835 296.058C420.711 295.782 420.53 295.536 420.304 295.335C420.078 295.134 419.812 294.983 419.523 294.893C419.235 294.802 418.93 294.774 418.63 294.81Z" fill="#BF75AF"/>
<path d="M415.37 301.41H402C401.555 301.385 401.118 301.538 400.785 301.834C400.451 302.129 400.248 302.545 400.22 302.99V326.17C400.248 326.614 400.452 327.029 400.785 327.323C401.119 327.618 401.556 327.767 402 327.74H415.37C415.814 327.767 416.251 327.618 416.585 327.323C416.918 327.029 417.122 326.614 417.15 326.17V303C417.124 302.553 416.922 302.135 416.589 301.837C416.255 301.539 415.817 301.385 415.37 301.41Z" fill="#DC6293"/>
<path d="M418.49 308.1H398.88V320.28H418.49V308.1Z" fill="white"/>
<path d="M535.47 299.6L530.99 295.6L520.43 296.75L509.88 295.6L505.4 299.6C504.505 300.36 503.782 301.303 503.282 302.366C502.782 303.428 502.515 304.586 502.5 305.76V324.3C502.505 325.223 502.674 326.137 503 327C503.45 328.071 504.215 328.979 505.194 329.604C506.173 330.23 507.319 330.542 508.48 330.5H532.42C533.582 330.543 534.73 330.231 535.71 329.606C536.691 328.98 537.458 328.072 537.91 327C538.221 326.148 538.38 325.247 538.38 324.34V305.76C538.362 304.585 538.093 303.428 537.591 302.365C537.09 301.303 536.366 300.36 535.47 299.6Z" fill="#E1EDF1"/>
<path d="M533.38 294H507.49C507.041 293.973 506.599 294.125 506.261 294.423C505.924 294.721 505.718 295.141 505.69 295.59V296.48C505.718 296.93 505.923 297.351 506.26 297.651C506.598 297.95 507.04 298.105 507.49 298.08H533.38C533.83 298.105 534.272 297.95 534.609 297.651C534.947 297.351 535.152 296.93 535.18 296.48V295.59C535.149 295.142 534.943 294.723 534.606 294.426C534.269 294.128 533.829 293.975 533.38 294Z" fill="#8E9ED0"/>
<path d="M534.75 305.73H506.12V323.07H534.75V305.73Z" fill="#8E9ED0"/>
<path opacity="0.53" d="M531.3 320.02V308.76H509.57V320.02H531.3Z" fill="#B3E2F5"/>
<path d="M575.65 299.6L571.16 295.6L560.61 296.75L550.05 295.6L545.57 299.6C544.678 300.362 543.958 301.306 543.46 302.368C542.961 303.43 542.695 304.587 542.68 305.76V324.3C542.68 325.207 542.839 326.108 543.15 326.96C543.602 328.032 544.369 328.94 545.35 329.566C546.33 330.191 547.478 330.503 548.64 330.46H572.58C573.742 330.501 574.889 330.189 575.869 329.564C576.85 328.939 577.617 328.031 578.07 326.96C578.381 326.108 578.54 325.207 578.54 324.3V305.76C578.525 304.587 578.259 303.43 577.761 302.368C577.262 301.306 576.543 300.362 575.65 299.6Z" fill="#E1EDF1"/>
<path d="M573.55 294H547.67C547.219 293.973 546.776 294.124 546.437 294.422C546.098 294.72 545.891 295.14 545.86 295.59V296.48C545.891 296.931 546.098 297.352 546.437 297.651C546.775 297.951 547.218 298.105 547.67 298.08H573.55C574.001 298.105 574.444 297.951 574.783 297.651C575.122 297.352 575.329 296.931 575.36 296.48V295.59C575.329 295.14 575.122 294.72 574.782 294.422C574.443 294.124 574 293.973 573.55 294Z" fill="#8E9ED0"/>
<path d="M574.92 305.73H546.29V323.07H574.92V305.73Z" fill="#8E9ED0"/>
<path opacity="0.53" d="M571.47 320.03V308.77H549.74V320.03H571.47Z" fill="#B3E2F5"/>
<path d="M615.82 299.6L611.34 295.6L600.78 296.75L590.23 295.6L585.75 299.6C584.857 300.362 584.138 301.306 583.639 302.368C583.141 303.43 582.875 304.587 582.86 305.76V324.3C582.86 325.207 583.019 326.108 583.33 326.96C583.78 328.033 584.547 328.942 585.528 329.567C586.509 330.193 587.657 330.504 588.82 330.46H612.75C613.912 330.504 615.06 330.193 616.041 329.567C617.022 328.942 617.789 328.033 618.24 326.96C618.551 326.108 618.71 325.207 618.71 324.3V305.76C618.695 304.587 618.429 303.43 617.93 302.368C617.432 301.306 616.712 300.362 615.82 299.6Z" fill="#E1EDF1"/>
<path d="M613.73 294H587.84C587.391 293.973 586.949 294.125 586.611 294.423C586.274 294.721 586.068 295.141 586.04 295.59V296.48C586.068 296.93 586.273 297.351 586.611 297.651C586.948 297.95 587.39 298.105 587.84 298.08H613.73C614.18 298.105 614.622 297.95 614.959 297.651C615.297 297.351 615.502 296.93 615.53 296.48V295.59C615.499 295.142 615.293 294.723 614.956 294.426C614.619 294.128 614.179 293.975 613.73 294Z" fill="#8E9ED0"/>
<path d="M615.1 305.73H586.47V323.07H615.1V305.73Z" fill="#8E9ED0"/>
<path opacity="0.53" d="M611.65 320.03V308.77H589.92V320.03H611.65Z" fill="#B3E2F5"/>
<path d="M624.09 290V326.4C624.146 327.23 624.528 328.003 625.151 328.554C625.774 329.104 626.59 329.387 627.42 329.34H651C651.832 329.389 652.649 329.108 653.275 328.558C653.901 328.007 654.283 327.231 654.34 326.4V290H624.09Z" fill="#EEA4C8"/>
<path d="M629.29 290V323.3C629.231 323.945 629.428 324.587 629.837 325.088C630.247 325.589 630.837 325.909 631.48 325.98H647C647.642 325.907 648.229 325.585 648.636 325.085C649.044 324.584 649.239 323.943 649.18 323.3V290H629.29Z" fill="#E179AF"/>
<path d="M655.11 288.28H623.31C622.869 288.253 622.434 288.402 622.102 288.694C621.771 288.986 621.568 289.399 621.54 289.84V291C621.568 291.441 621.771 291.854 622.102 292.146C622.434 292.439 622.869 292.587 623.31 292.56H655.11C655.551 292.587 655.986 292.439 656.318 292.146C656.649 291.854 656.852 291.441 656.88 291V289.89C656.872 289.667 656.82 289.448 656.727 289.246C656.633 289.043 656.5 288.862 656.335 288.712C656.17 288.562 655.976 288.446 655.766 288.372C655.556 288.298 655.333 288.267 655.11 288.28Z" fill="#F7CADE"/>
<path opacity="0.63" d="M650.5 307.75H627.93V318.33H650.5V307.75Z" fill="#DCE2F2"/>
<path d="M662.81 290V326.4C662.867 327.23 663.248 328.003 663.871 328.554C664.495 329.104 665.31 329.387 666.14 329.34H689.72C690.55 329.387 691.365 329.104 691.989 328.554C692.612 328.003 692.993 327.23 693.05 326.4V290H662.81Z" fill="#EEA4C8"/>
<path d="M668 290V323.3C667.941 323.945 668.138 324.587 668.547 325.088C668.957 325.589 669.547 325.909 670.19 325.98H685.65C686.293 325.909 686.883 325.589 687.293 325.088C687.702 324.587 687.899 323.945 687.84 323.3V290H668Z" fill="#E179AF"/>
<path d="M693.83 288.28H662C661.559 288.253 661.124 288.402 660.792 288.694C660.461 288.986 660.258 289.399 660.23 289.84V291C660.258 291.441 660.461 291.854 660.792 292.146C661.124 292.439 661.559 292.587 662 292.56H693.8C694.242 292.587 694.676 292.439 695.008 292.146C695.339 291.854 695.542 291.441 695.57 291V289.89C695.562 289.67 695.511 289.453 695.419 289.253C695.328 289.053 695.197 288.872 695.035 288.723C694.873 288.573 694.684 288.457 694.477 288.381C694.27 288.305 694.05 288.271 693.83 288.28Z" fill="#F7CADE"/>
<path opacity="0.63" d="M689.22 307.75H666.65V318.33H689.22V307.75Z" fill="#DCE2F2"/>
<path d="M701.52 290V326.4C701.577 327.23 701.958 328.003 702.581 328.554C703.205 329.104 704.02 329.387 704.85 329.34H728.43C729.262 329.389 730.08 329.108 730.705 328.558C731.331 328.007 731.713 327.231 731.77 326.4V290H701.52Z" fill="#EEA4C8"/>
<path d="M706.72 290V323.3C706.661 323.945 706.858 324.587 707.267 325.088C707.677 325.589 708.267 325.909 708.91 325.98H724.38C725.022 325.907 725.611 325.586 726.02 325.085C726.429 324.585 726.626 323.944 726.57 323.3V290H706.72Z" fill="#E179AF"/>
<path d="M732.54 288.28H700.75C700.307 288.253 699.872 288.401 699.539 288.693C699.205 288.986 699.001 289.398 698.97 289.84V291C699.001 291.442 699.205 291.855 699.539 292.147C699.872 292.439 700.307 292.588 700.75 292.56H732.54C732.983 292.588 733.418 292.439 733.751 292.147C734.085 291.855 734.289 291.442 734.32 291V289.89C734.311 289.667 734.258 289.447 734.163 289.245C734.068 289.043 733.934 288.861 733.768 288.711C733.603 288.561 733.409 288.446 733.198 288.372C732.987 288.298 732.763 288.267 732.54 288.28Z" fill="#F7CADE"/>
<path opacity="0.63" d="M727.93 307.75H705.36V318.33H727.93V307.75Z" fill="#DCE2F2"/>
<path d="M806.05 329.78H330.37C329.299 329.78 328.43 330.649 328.43 331.72V334.47C328.43 335.541 329.299 336.41 330.37 336.41H806.05C807.122 336.41 807.99 335.541 807.99 334.47V331.72C807.99 330.649 807.122 329.78 806.05 329.78Z" fill="#FE5B70"/>
<path d="M739.95 211.97H678.26V243.89H739.95V211.97Z" fill="#EDD1D7"/>
<path d="M739.95 229.67H678.26V243.88H739.95V229.67Z" fill="#F0DBA9"/>
<path d="M734.35 217.81H683.87V238.04H734.35V217.81Z" fill="#FDF8FA"/>
<path d="M784.17 211.97H741.89V243.89H784.17V211.97Z" fill="#EDD1D7"/>
<path d="M784.17 229.67H741.89V243.88H784.17V229.67Z" fill="#F0DBA9"/>
<path d="M777.49 217.81H747.8V238.04H777.49V217.81Z" fill="#FDF8FA"/>
<path d="M806.05 154.86H330.37C329.299 154.86 328.43 155.729 328.43 156.8V159.55C328.43 160.622 329.299 161.49 330.37 161.49H806.05C807.122 161.49 807.99 160.622 807.99 159.55V156.8C807.99 155.729 807.122 154.86 806.05 154.86Z" fill="#FE5B70"/>
<path opacity="0.12" d="M601.89 351.87H596C594.983 351.638 593.943 351.517 592.9 351.51H585.9C593.31 311.36 586.9 271.29 577.61 256.56C558.61 226.3 502.49 211.25 502.49 211.25L504.26 199.05C511.896 194.713 518.071 188.204 522 180.35C523.987 175.953 525.548 171.375 526.66 166.68C530.073 166.991 533.473 165.954 536.13 163.79C541.34 159.15 540.01 150.54 534.28 146.71C539.69 139.14 541.11 129.42 540.9 120.29C540.75 113.62 539.78 106.66 535.53 101.14C533.752 98.8987 531.501 97.0784 528.937 95.8095C526.373 94.5405 523.56 93.8543 520.7 93.7999C519.437 90.4108 517.478 87.3246 514.947 84.7407C512.417 82.1568 509.372 80.1329 506.01 78.7999C501.852 77.2579 497.417 76.6063 492.992 76.887C488.567 77.1678 484.249 78.3748 480.32 80.4299C474.708 83.1923 468.436 84.3351 462.21 83.7299C454.46 83.1499 446.05 85.7299 440.61 90.5199C432.61 97.5199 429.78 108.22 431.06 118.11C432.06 125.93 433.62 138.51 437.06 147.69C434.12 149.69 432.06 152.74 432.06 156.08C432.06 162.35 439.35 167.44 446.24 167.08C447.339 171.648 448.869 176.101 450.81 180.38C455.42 190.04 463.18 196.24 470.28 200.13L471.51 211.28L419.29 229.52C404.2 234.79 393.14 246.41 389.9 260.44C383.07 289.94 374.05 340.44 385.59 363.44C390.08 372.44 399.27 378.44 410.34 382.44L409.62 386.09L404.78 407.76L412 409C412 409.62 412 410.24 412 410.86V413.4C412 414.03 412 414.65 412 415.28C412 416.57 412 417.86 412 419.14V425.14C412 426.38 412 427.62 412 428.85V444.08C412 445.29 412 446.5 412 447.69V449.49C412 450.16 412 450.82 412 451.49V455.14C412 455.61 412 456.08 412 456.55V458.24C412 458.99 412 459.73 412 460.46V462C412 463.06 412 464.12 412 465.16C412 465.69 412 466.21 412 466.73C412 467.42 412 468.1 412 468.73V470C412 471 412 471.94 412 472.89C412 473.52 412 474.13 412 474.75V475.82C412 477.11 412 478.37 412 479.6C412 479.81 412 480.02 412 480.22C412 480.76 412 481.28 412 481.8V483.27C412 483.76 412 484.27 412 484.73C412 485.54 412 486.33 412 487.11C412 487.44 412 487.77 412 488.11C412 488.71 412 489.3 412 489.87C412 490.75 412 491.59 412 492.41V492.73C412 493.27 412 493.8 412 494.32V494.84C412 496.27 412 497.62 412 498.84C412 500.06 412 501.46 412 502.58C412 502.8 412 502.99 412 503.2V503.47C412 504.12 412 504.71 412 505.26C412 505.44 412 505.62 412 505.8C412 506.23 412 506.63 412 506.99C412 507.71 412 508.27 412 508.69C412 508.84 412 508.97 412 509.08V509.5C455.89 497.19 486.31 444.42 486.31 444.42C486.31 444.42 488.72 448.6 493.16 454.87C495.16 457.66 497.5 460.87 500.24 464.3C502.98 467.73 506.09 471.4 509.53 475.12C522.44 489.07 540.06 503.73 560.63 509.5C560.63 509.5 560.75 496.87 560.85 477.5V476.76C560.85 475.76 560.85 474.76 560.85 473.69V473.37C560.85 470.88 560.85 468.28 560.85 465.6V465.55C560.85 462.87 560.85 460.11 560.85 457.27V457.05C560.85 455.76 560.85 454.45 560.85 453.13V452.13C560.85 450.94 560.85 449.73 560.85 448.51V448.05C560.85 446.61 560.85 445.15 560.85 443.67V429.17C560.85 428.02 560.85 426.87 560.85 425.71C560.874 426.05 560.941 426.386 561.05 426.71C561.395 427.459 561.952 428.091 562.652 428.527C563.353 428.962 564.166 429.182 564.99 429.16H601.5C602.556 429.214 603.591 428.848 604.378 428.142C605.165 427.435 605.641 426.446 605.7 425.39V355.64C605.644 354.651 605.224 353.719 604.52 353.022C603.816 352.326 602.879 351.915 601.89 351.87Z" fill="black"/>
<path opacity="0.12" d="M585.29 351.87H579.45C578.433 351.638 577.393 351.517 576.35 351.51H569.35C576.76 311.36 570.35 271.29 561.05 256.56C542.05 226.3 485.94 211.25 485.94 211.25L487.71 199.05C495.317 194.699 501.46 188.187 505.36 180.34C507.351 175.945 508.912 171.366 510.02 166.67C513.433 166.983 516.833 165.945 519.49 163.78C524.71 159.14 523.37 150.53 517.64 146.7C523.05 139.13 524.47 129.41 524.27 120.28C524.11 113.61 523.14 106.65 518.89 101.13C517.114 98.8895 514.864 97.0696 512.302 95.8007C509.74 94.5317 506.929 93.8451 504.07 93.7899C502.805 90.4024 500.844 87.3176 498.314 84.734C495.784 82.1505 492.74 80.1257 489.38 78.7899C481.22 75.5399 471.38 76.3999 463.68 80.4199C458.068 83.1828 451.796 84.3257 445.57 83.7199C437.83 83.1399 429.41 85.7199 423.98 90.5099C415.98 97.5099 413.14 108.21 414.42 118.1C415.42 125.92 416.99 138.5 420.42 147.68C417.48 149.68 415.42 152.73 415.42 156.07C415.42 162.34 422.71 167.43 429.6 167.07C430.703 171.637 432.233 176.09 434.17 180.37C438.79 190.03 446.54 196.23 453.64 200.12L454.88 211.27L402.66 229.51C387.57 234.78 376.5 246.4 373.26 260.43C366.44 289.93 357.42 340.43 368.96 363.43C373.45 372.43 382.64 378.43 393.7 382.43L392.99 386.08L388.15 407.75L395.42 409.02V410.88C395.42 411.73 395.42 412.57 395.42 413.42V415.3C395.42 416.59 395.42 417.88 395.42 419.16V420.5C395.42 421.5 395.42 422.5 395.42 423.56V434.72C395.42 435.85 395.42 436.98 395.42 438.09V447.68C395.42 448.29 395.42 448.88 395.42 449.48V451.48C395.42 452.71 395.42 453.93 395.42 455.13V458.23C395.42 458.98 395.42 459.72 395.42 460.45V462C395.42 463.06 395.42 464.12 395.42 465.16V466.73C395.42 467.42 395.42 468.1 395.42 468.73V470C395.42 471 395.42 471.94 395.42 472.89V474.75C395.42 475.11 395.42 475.46 395.42 475.82C395.42 477.11 395.42 478.37 395.42 479.6V480.22C395.42 480.76 395.42 481.28 395.42 481.8C395.42 482.32 395.42 482.8 395.42 483.27V484.73C395.42 485.54 395.42 486.33 395.42 487.11V488.11C395.42 488.71 395.42 489.3 395.42 489.87C395.42 490.75 395.42 491.59 395.42 492.41V492.73C395.42 493.27 395.42 493.8 395.42 494.32C395.42 494.5 395.42 494.67 395.42 494.84C395.42 496.27 395.42 497.62 395.42 498.84C395.42 500.06 395.42 501.46 395.42 502.58C395.42 502.8 395.42 502.99 395.42 503.2V503.47C395.42 504.12 395.42 504.71 395.42 505.26V505.8C395.42 506.23 395.42 506.63 395.42 506.99C395.42 507.71 395.42 508.27 395.42 508.69V509.5C439.31 497.19 469.74 444.42 469.74 444.42C469.74 444.42 472.15 448.6 476.58 454.87C478.58 457.66 480.93 460.87 483.67 464.3C486.41 467.73 489.51 471.4 492.96 475.12C505.87 489.07 523.48 503.73 544.05 509.5C544.05 509.5 544.18 496.87 544.27 477.5V476.76C544.27 475.76 544.27 474.76 544.27 473.69V473.37C544.27 470.88 544.27 468.28 544.27 465.6V465.55C544.27 462.883 544.27 460.123 544.27 457.27V453.13C544.27 452.81 544.27 452.48 544.27 452.13V448.05C544.27 446.61 544.27 445.15 544.27 443.67V429.17C544.27 428.02 544.27 426.87 544.27 425.71C544.293 426.051 544.363 426.388 544.48 426.71C544.824 427.458 545.38 428.088 546.078 428.524C546.776 428.959 547.587 429.18 548.41 429.16H584.92C585.976 429.215 587.011 428.848 587.798 428.142C588.585 427.435 589.061 426.446 589.12 425.39V355.64C589.064 354.648 588.641 353.713 587.933 353.016C587.225 352.319 586.283 351.911 585.29 351.87Z" fill="black"/>
<path d="M477.07 335.13V445.48C477.07 445.48 507.5 498.25 551.38 510.56C551.38 510.56 553.38 306.56 547.38 281.91C541.38 257.26 492.2 212.3 492.2 212.3L477.07 335.13Z" fill="white"/>
<path d="M477.07 335.13V445.48C477.07 445.48 446.64 498.25 402.75 510.56C402.75 510.56 400.75 306.56 406.75 281.91C412.75 257.26 461.95 212.3 461.95 212.3L477.07 335.13Z" fill="white"/>
<path d="M461.94 212.3L476.78 337.14L492.89 212.95L461.94 212.3Z" fill="#FE5B70"/>
<path d="M476.82 181.43L457.51 172.34L461.94 212.3L476.82 221.45L492.89 212.95L498.79 172.34L476.82 181.43Z" fill="#ECB782"/>
<path d="M439.92 108.31L429.79 111.93C429.79 111.93 431.06 160.11 441.23 181.4C447.23 194 458.6 200.71 466.87 204.09C473.249 206.67 480.381 206.67 486.76 204.09C495.03 200.71 506.39 194 512.4 181.4C522.57 160.11 523.84 111.93 523.84 111.93L513.71 108.31C489.841 99.8498 463.789 99.8498 439.92 108.31Z" fill="#F4C794"/>
<path d="M442.08 140.62C444.16 134.36 439.24 127.06 441.95 120.84C446.24 111 457.52 118.52 464.45 121.04C470.78 123.34 477.23 125.8 484.08 126.04C496.65 126.46 508.92 118.23 511.81 107.43C514.7 96.63 507.89 84.43 496.42 79.86C492.262 78.318 487.827 77.6663 483.402 77.9471C478.977 78.2279 474.659 79.4349 470.73 81.49C465.115 84.2567 458.839 85.3997 452.61 84.79C444.87 84.21 436.45 86.79 431.02 91.58C423.02 98.58 420.18 109.28 421.46 119.17C422.74 129.06 424.88 146.59 430.57 155.17C427.12 147.39 439.42 148.64 442.08 140.62Z" fill="black"/>
<path d="M440.29 146.8C432.57 143.8 422.45 149.7 422.48 157.13C422.51 164.56 432.69 170.35 440.38 167.33C448.07 164.31 449.99 153.76 443.75 148.77L440.29 146.8Z" fill="#F4C794"/>
<path d="M519 137.64C519 142.64 518.73 147.7 520.46 152.44C529.37 144.54 531.54 132.49 531.29 121.34C531.14 114.68 530.16 107.71 525.91 102.2C521.66 96.6899 513.3 93.1399 506.29 95.6599C496.91 99.0199 495.55 110.54 503.97 115.22C507.97 117.42 511.97 118.03 514.97 121.65C518.72 126.18 519 132.25 519 137.64Z" fill="black"/>
<path d="M522.06 146.46C514.19 143.81 504.38 150.07 504.8 157.46L505.66 161.01C508.74 167.92 520.6 170.08 526.54 164.81C532.48 159.54 529.92 149.12 522.06 146.46Z" fill="#F4C794"/>
<path d="M493 115.77C495.988 114.286 498.636 112.201 500.781 109.646C502.925 107.09 504.518 104.12 505.46 100.92C507.77 107.85 503.81 115.85 496.75 119.49C493.298 121.198 489.467 121.996 485.62 121.81C483.06 121.72 476.96 121.24 476.03 118.81C482 119.12 487.73 118.49 493 115.77Z" fill="#0D0C0F"/>
<path d="M486.2 231.22L477.07 221.45L467.94 231.22L473.05 235.6L469.19 273.53L477.07 335.13L484.94 273.53L481.1 235.6L486.2 231.22Z" fill="#DF3349"/>
<path d="M477.07 221.45L464.62 235.12L461.94 212.3L477.07 221.45Z" fill="#EF4D68"/>
<path d="M477.07 221.45L490 235.22L493 212.3L477.07 221.45Z" fill="#EF4D68"/>
<path d="M412.67 493.07C412.67 493.07 403.94 422.51 403.02 353.83C401.88 421.39 402.75 510.56 402.75 510.56C446.64 498.25 477.07 445.48 477.07 445.48V445.35C459.23 463 444.26 485 412.67 493.07Z" fill="#DEE6E7"/>
<path d="M541.47 493.07C541.47 493.07 550.2 422.51 551.12 353.83C552.26 421.39 551.38 510.56 551.38 510.56C507.5 498.25 477.07 445.48 477.07 445.48V445.35C494.91 463 509.88 485 541.47 493.07Z" fill="#DEE6E7"/>
<path d="M421.88 289.37L395.21 408.82L492.15 425.64L518.82 306.2L421.88 289.37Z" fill="#FE5B70"/>
<path d="M476.31 360.5C473.94 359.687 471.446 359.291 468.94 359.33C467.368 358.434 465.635 357.857 463.84 357.63C460.531 357.337 457.207 357.996 454.26 359.53C452.546 360.402 450.916 361.429 449.39 362.6L442 364L437.83 385.14C437.512 385.432 437.215 385.746 436.94 386.08L401.09 381.97L399.49 390C399.49 390 436.7 401.12 452.16 395.84L453.7 390.39C464.12 391.02 475.86 390.89 478.7 389.25C481.13 387.85 481.7 386.25 481.7 385.03C482.474 384.399 483.2 383.71 483.87 382.97C488.66 377.69 485.07 375.58 485.07 375.58C485.07 375.58 490.98 377.14 490.98 370.8C491 366.39 483.72 363.09 476.31 360.5Z" fill="#DF3349"/>
<path d="M464.31 353.39C461.004 353.103 457.685 353.762 454.74 355.29C452.001 356.754 449.429 358.511 447.07 360.53C455.37 359.89 464.01 359.03 471.94 356.81C469.769 354.975 467.125 353.789 464.31 353.39Z" fill="#F4C794"/>
<path d="M467.17 354.65C463.861 354.357 460.537 355.016 457.59 356.55C454.851 358.014 452.279 359.771 449.92 361.79C458.22 361.15 466.86 360.29 474.79 358.07C472.625 356.232 469.983 355.046 467.17 354.65Z" fill="#E9B179"/>
<path d="M476.79 356.27C473.255 355.053 469.467 354.768 465.79 355.44L442.5 359.72L438.33 380.86C436.76 382.32 436.26 383.48 437.71 384.01C443.71 386.19 474.36 387.81 479.25 385.01C481.68 383.61 482.25 382.01 482.25 380.79C483.022 380.179 483.748 379.51 484.42 378.79C489.21 373.51 485.62 371.4 485.62 371.4C485.62 371.4 491.53 372.95 491.53 366.62C491.48 362.15 484.2 358.85 476.79 356.27Z" fill="#F4C794"/>
<path d="M456.49 348.85C442.96 347.43 425.73 345.42 418.69 343.72C406.34 340.72 424.3 279.37 424.3 279.37C424.3 279.37 463.64 243.24 461.94 212.3L409.72 230.54C394.63 235.81 383.56 247.44 380.32 261.46C373.5 290.96 364.48 341.46 376.02 364.52C386.76 385.99 424.46 390.52 450.35 391.02C452 376.9 455.05 365.56 456.49 348.85Z" fill="white"/>
<path d="M404.22 340.21C407.47 357.42 440.02 361.01 455.22 360.05C455.71 356.55 456.15 352.85 456.49 348.85C442.96 347.43 425.73 345.42 418.69 343.72C406.34 340.72 424.3 279.37 424.3 279.37C424.3 279.37 401.46 325.62 404.22 340.21Z" fill="#DEE6E7"/>
<path d="M492.62 142.41C494.932 141.266 497.506 140.755 500.08 140.931C502.654 141.107 505.135 141.962 507.27 143.41C509.95 145.32 513.8 141.97 511.09 140.04C508.039 137.87 504.459 136.565 500.728 136.26C496.997 135.956 493.252 136.664 489.89 138.31C486.84 139.8 489.57 143.92 492.62 142.43V142.41Z" fill="black"/>
<path d="M468.51 142.41C466.198 141.266 463.624 140.755 461.05 140.931C458.476 141.107 455.995 141.962 453.86 143.41C451.17 145.32 447.32 141.97 450.03 140.04C453.083 137.87 456.664 136.563 460.397 136.259C464.13 135.954 467.876 136.663 471.24 138.31C474.24 139.8 471.56 143.92 468.51 142.43V142.41Z" fill="black"/>
<path d="M462.06 157.06C461.632 157.126 461.196 157.098 460.78 156.98C460.364 156.861 459.978 156.654 459.65 156.372C459.322 156.09 459.058 155.741 458.877 155.348C458.697 154.955 458.603 154.528 458.603 154.095C458.603 153.662 458.697 153.235 458.877 152.842C459.058 152.449 459.322 152.099 459.65 151.818C459.978 151.536 460.364 151.329 460.78 151.21C461.196 151.091 461.632 151.064 462.06 151.13C462.488 151.064 462.924 151.091 463.34 151.21C463.756 151.329 464.142 151.536 464.47 151.818C464.798 152.099 465.062 152.449 465.243 152.842C465.423 153.235 465.517 153.662 465.517 154.095C465.517 154.528 465.423 154.955 465.243 155.348C465.062 155.741 464.798 156.09 464.47 156.372C464.142 156.654 463.756 156.861 463.34 156.98C462.924 157.098 462.488 157.126 462.06 157.06Z" fill="black"/>
<path d="M497.82 157.06C497.392 157.126 496.956 157.098 496.54 156.98C496.124 156.861 495.738 156.654 495.41 156.372C495.082 156.09 494.818 155.741 494.637 155.348C494.457 154.955 494.363 154.528 494.363 154.095C494.363 153.662 494.457 153.235 494.637 152.842C494.818 152.449 495.082 152.099 495.41 151.818C495.738 151.536 496.124 151.329 496.54 151.21C496.956 151.091 497.392 151.064 497.82 151.13C498.247 151.064 498.684 151.091 499.1 151.21C499.516 151.329 499.902 151.536 500.23 151.818C500.558 152.099 500.822 152.449 501.003 152.842C501.183 153.235 501.277 153.662 501.277 154.095C501.277 154.528 501.183 154.955 501.003 155.348C500.822 155.741 500.558 156.09 500.23 156.372C499.902 156.654 499.516 156.861 499.1 156.98C498.684 157.098 498.247 157.126 497.82 157.06Z" fill="black"/>
<path d="M465.82 184.06C471.14 193.84 486.44 192.78 490.59 182.82C491.28 181.17 488.28 180.45 487.59 182.09C484.25 190.09 472.59 190.09 468.49 182.68C467.63 181.1 464.95 182.48 465.81 184.06H465.82Z" fill="black"/>
<path d="M484.38 164.62C485.22 166.45 485.38 168.73 483.89 170.22C482.4 171.71 479.89 171.91 477.66 171.7C478.918 172.366 480.342 172.656 481.76 172.535C483.179 172.415 484.532 171.889 485.66 171.02C486.672 170.179 487.342 168.997 487.543 167.696C487.744 166.396 487.462 165.067 486.75 163.96C484.99 161.34 481.3 160.25 480.2 157.21C480.92 160 483.18 162 484.38 164.62Z" fill="#EEB47B"/>
<path d="M507.41 417.24L507.18 417.59C505.22 420.458 502.428 422.657 499.18 423.89C495.65 425.27 491.33 427.52 490.18 430.6H532.31L538.85 416.17L507.41 417.24Z" fill="#F4C794"/>
<path d="M493 212.3C493 212.3 549.1 227.3 568.11 257.61C583.87 282.7 591.55 381.27 536.43 428.61L504.19 416C504.19 416 551.01 330.32 534.62 295.46C518.23 260.6 483.29 229 493 212.3Z" fill="white"/>
<path d="M522.65 274.37C527.115 281.118 531.124 288.157 534.65 295.44C551 330.3 504.19 416 504.19 416L507.41 417.26C521.29 393.12 536.14 361.41 541.29 337.34C546.79 311.61 545.94 293.12 522.65 274.37Z" fill="#DEE6E7"/>
<path d="M592.56 352.81H562.49C558.392 352.81 555.07 356.132 555.07 360.23V421.38C555.07 425.478 558.392 428.8 562.49 428.8H592.56C596.658 428.8 599.98 425.478 599.98 421.38V360.23C599.98 356.132 596.658 352.81 592.56 352.81Z" fill="#BACD8B"/>
<path d="M555.07 356.87V390.71C562.76 380.24 576.56 368.43 599.98 367.48V356.87C599.903 355.827 599.42 354.855 598.635 354.163C597.85 353.471 596.825 353.115 595.78 353.17H559.27C558.225 353.115 557.2 353.471 556.415 354.163C555.63 354.855 555.147 355.827 555.07 356.87Z" fill="#DF3349"/>
<path d="M600 411.29V367.48C576.58 368.43 562.78 380.24 555.09 390.71V425.45C555.092 425.897 555.184 426.339 555.36 426.75C579 427 592.75 418.32 600 411.29Z" fill="white"/>
<path d="M555.34 426.75C555.69 427.49 556.248 428.113 556.946 428.541C557.644 428.969 558.451 429.184 559.27 429.16H595.78C596.826 429.215 597.853 428.857 598.638 428.163C599.424 427.47 599.905 426.495 599.98 425.45V411.29C592.75 418.32 579 427 555.34 426.75Z" fill="#DF3349"/>
<path d="M592.19 396.87H562.85C562.574 396.87 562.35 397.094 562.35 397.37V399.04C562.35 399.316 562.574 399.54 562.85 399.54H592.19C592.466 399.54 592.69 399.316 592.69 399.04V397.37C592.69 397.094 592.466 396.87 592.19 396.87Z" fill="#EF4D68"/>
<path d="M592.19 403.83H562.85C562.574 403.83 562.35 404.054 562.35 404.33V406.01C562.35 406.286 562.574 406.51 562.85 406.51H592.19C592.466 406.51 592.69 406.286 592.69 406.01V404.33C592.69 404.054 592.466 403.83 592.19 403.83Z" fill="#EF4D68"/>
<path d="M584 410.78H571C570.81 410.757 570.618 410.774 570.435 410.831C570.253 410.888 570.084 410.982 569.941 411.109C569.798 411.236 569.683 411.391 569.605 411.566C569.526 411.74 569.486 411.929 569.486 412.12C569.486 412.311 569.526 412.5 569.605 412.674C569.683 412.849 569.798 413.004 569.941 413.131C570.084 413.258 570.253 413.352 570.435 413.409C570.618 413.466 570.81 413.483 571 413.46H584C584.19 413.483 584.382 413.466 584.565 413.409C584.747 413.352 584.915 413.258 585.059 413.131C585.202 413.004 585.316 412.849 585.395 412.674C585.473 412.5 585.514 412.311 585.514 412.12C585.514 411.929 585.473 411.74 585.395 411.566C585.316 411.391 585.202 411.236 585.059 411.109C584.915 410.982 584.747 410.888 584.565 410.831C584.382 410.774 584.19 410.757 584 410.78Z" fill="#EF4D68"/>
<path d="M830.16 451.59H251.01V620H830.16V451.59Z" fill="#FE5B70"/>
<path d="M448.28 404.62L416.2 298.35C415.731 296.7 414.743 295.245 413.384 294.199C412.025 293.153 410.365 292.571 408.65 292.54H230.41C225.05 292.54 221.24 298.02 222.86 303.39L254.93 409.66C255.4 411.312 256.388 412.768 257.75 413.814C259.111 414.861 260.773 415.441 262.49 415.47H440.72C446.08 415.47 449.9 410 448.28 404.62Z" fill="black"/>
<path d="M349.3 415.37H371.56L350.51 360.51L349.3 415.37Z" fill="#444444"/>
<path d="M350.51 360.51H320.63V446.88H350.51V360.51Z" fill="#2D2D2D"/>
<path d="M830.16 451.59H251.01V472.03H830.16V451.59Z" fill="#DF3349"/>
<path d="M236.12 446.7H833.06V457.48H236.12C235.354 457.48 234.618 457.175 234.076 456.633C233.534 456.092 233.23 455.356 233.23 454.59V449.59C233.23 448.823 233.534 448.088 234.076 447.546C234.618 447.004 235.354 446.7 236.12 446.7Z" fill="#EF4D68"/>
<path d="M432.42 517V620H301.61V517.06C313.37 517.06 319.5 507.87 320 498.28H413.49C413.549 499.48 413.7 500.673 413.94 501.85C414.226 503.218 414.638 504.557 415.17 505.85C415.499 506.662 415.883 507.451 416.32 508.21C417.852 510.967 420.115 513.248 422.861 514.801C425.607 516.353 428.728 517.118 431.88 517.01L432.42 517Z" fill="#DF3349"/>
<path d="M729.49 517V620H598.68V517.06C610.44 517.06 616.56 507.87 617.07 498.28H710.56C711.05 507.87 717.17 517.06 728.95 517.06L729.49 517Z" fill="#DF3349"/>
</svg>
