<svg width="11" height="10" viewBox="0 0 11 10" fill="none" xmlns="http://www.w3.org/2000/svg">
<path d="M3.65025 6.83658C4.45524 5.8135 5.21439 4.80411 6.02095 3.8337C7.08032 2.5567 8.2298 1.35722 9.46057 0.244464C9.50588 0.203372 9.55066 0.161227 9.5986 0.122769C9.79457 -0.0352778 10.0111 -0.0405464 10.1691 0.10591C10.3367 0.261322 10.3562 0.496813 10.1965 0.700166C10.0179 0.927753 9.82249 1.14164 9.63547 1.36291C7.68044 3.67144 6.13527 6.24707 4.7197 8.90752C4.45313 9.40747 4.11596 9.58554 3.63655 9.50072C3.50617 9.4791 3.38247 9.42787 3.27498 9.35097C3.16749 9.27408 3.07906 9.17356 3.01648 9.05714C2.14091 7.54692 1.26656 6.03757 0.39344 4.52911C0.248564 4.27834 0.288075 4.06076 0.481946 3.92484C0.675816 3.78892 0.87074 3.82791 1.06145 4.03495C1.86397 4.89472 2.66457 5.75519 3.46323 6.61637C3.53646 6.69434 3.59968 6.77653 3.65025 6.83658Z" fill="black"/>
</svg>
