<svg xmlns="http://www.w3.org/2000/svg" width="17" height="19" viewBox="0 0 17 19" fill="none"><path d="M8.49969 1.05347C4.18485 1.05347 0.679688 4.76481 0.679688 9.33347C0.679688 13.9021 4.18485 17.6135 8.49969 17.6135C12.8145 17.6135 16.3197 13.9021 16.3197 9.33347C16.3197 4.76481 12.8145 1.05347 8.49969 1.05347ZM8.49969 1.77347C12.447 1.77347 15.6397 5.15393 15.6397 9.33347C15.6397 13.513 12.447 16.8935 8.49969 16.8935C7.77765 16.8935 7.08111 16.779 6.42449 16.5686C6.71698 16.0509 7.09458 15.3108 7.24461 14.6997C7.33373 14.3374 7.70016 12.8596 7.70016 12.8596C7.93829 13.341 8.63408 13.7484 9.37492 13.7484C11.5794 13.7484 13.1687 11.6017 13.1687 8.93409C13.1687 6.37662 11.1977 4.46362 8.66172 4.46362C5.50661 4.46362 3.83199 6.70576 3.83199 9.14714C3.83199 10.2825 4.40232 11.6959 5.31551 12.146C5.45383 12.2141 5.52811 12.1846 5.55988 12.0426C5.58434 11.9348 5.7077 11.4095 5.76309 11.1651C5.7808 11.0871 5.77222 11.0197 5.71262 10.9429C5.41038 10.5547 5.16809 9.84171 5.16809 9.17667C5.16809 7.4694 6.38878 5.81714 8.46848 5.81714C10.2642 5.81714 11.5218 7.1133 11.5218 8.96644C11.5218 11.0601 10.5234 12.5109 9.22418 12.5109C8.50668 12.5109 7.96941 11.8824 8.14176 11.1117C8.34841 10.1918 8.74738 9.19917 8.74738 8.53472C8.74738 7.94052 8.44622 7.44487 7.82234 7.44487C7.08881 7.44487 6.49953 8.24787 6.49953 9.32433C6.49953 10.0093 6.71867 10.4732 6.71867 10.4732C6.71867 10.4732 5.99407 13.717 5.86137 14.3207C5.72838 14.924 5.764 15.7366 5.81887 16.3415C3.20287 15.2204 1.35969 12.5084 1.35969 9.33347C1.35969 5.15393 4.55235 1.77347 8.49969 1.77347Z" fill="currentColor"></path></svg>