<svg width="109" height="33" viewBox="0 0 109 33" fill="none" xmlns="http://www.w3.org/2000/svg">
<path d="M3.36589 0.327148H0V4.74061H3.36589V0.327148Z" fill="#F6F6F6"/>
<path d="M3.36589 7.17285H0V25.375H3.36589V7.17285Z" fill="#F6F6F6"/>
<path d="M89.7662 9.17427C89.2785 8.45568 88.6475 7.88717 87.8923 7.48411C87.1353 7.08105 86.208 6.87711 85.1354 6.87711C83.6376 6.87711 82.2255 7.28017 80.9384 8.07571C80.1986 8.53264 79.5474 9.09154 78.9904 9.74567V0.327148H75.6245V25.3736H78.9904V14.4381C79.1693 13.8292 79.4387 13.2616 79.7917 12.747C80.1611 12.2073 80.6026 11.7311 81.1019 11.331C81.6012 10.9318 82.1427 10.6124 82.7112 10.3825C83.2634 10.1603 83.8252 10.0468 84.3812 10.0468C85.4807 10.0468 86.2859 10.4383 86.8448 11.2425C87.4402 12.1025 87.7423 13.4588 87.7423 15.274V25.3736H91.1082V14.8161C91.1082 13.6887 91.0043 12.6402 90.8003 11.6984C90.5906 10.7259 90.2424 9.8765 89.7662 9.17427Z" fill="#F6F6F6"/>
<path d="M105.641 7.17235L100.147 21.2285L94.2241 7.17235H90.6841L98.3672 24.8079C97.9113 25.8815 97.5505 26.7578 97.2946 27.4148C97.034 28.0814 96.7992 28.5942 96.5972 28.9376C96.3808 29.3041 96.2269 29.4061 96.172 29.433C96.0682 29.483 95.8633 29.5417 95.4833 29.5417C95.3467 29.5417 95.1995 29.5369 95.0475 29.5263C94.8946 29.5157 94.7339 29.5003 94.5704 29.4801L93.9316 29.4013V32.4988L94.4145 32.5728C94.7128 32.619 94.9734 32.6479 95.1899 32.6604C95.3986 32.6719 95.6189 32.6777 95.8431 32.6777C96.9368 32.6777 97.8266 32.3958 98.4865 31.8388C99.1137 31.3098 99.5706 30.6768 99.8448 29.9573L109 7.17139H105.641V7.17235Z" fill="#F6F6F6"/>
<path d="M72.4852 16.4292C71.8888 16.055 71.1452 15.727 70.2747 15.4518C69.4358 15.1873 68.4527 14.9189 67.3542 14.6553L67.3484 14.6534C66.6038 14.4831 65.9612 14.3167 65.4399 14.1561C64.9493 14.006 64.5452 13.8377 64.2374 13.6539C63.9796 13.501 63.7978 13.3278 63.6949 13.1364C63.5881 12.9382 63.5342 12.6554 63.5342 12.2937C63.5342 11.8464 63.6218 11.4578 63.793 11.1394C63.969 10.8133 64.2047 10.5516 64.5145 10.339C64.8367 10.1178 65.2186 9.95329 65.6505 9.85036C66.1084 9.7407 66.6154 9.68587 67.156 9.68587C68.0679 9.68587 68.9558 9.83978 69.7956 10.1428C70.6152 10.4391 71.3193 10.8883 71.8888 11.477L72.3323 11.9349L74.1379 9.74743L73.7954 9.38189C73.0855 8.62483 72.1466 8.0111 71.0029 7.5561C69.8706 7.1059 68.5989 6.87695 67.2224 6.87695C66.3018 6.87695 65.4177 6.99431 64.5953 7.22614C63.7564 7.46279 63.0119 7.81775 62.3818 8.28141C61.7344 8.75758 61.215 9.36938 60.8379 10.0995C60.4589 10.8325 60.2665 11.681 60.2665 12.6208C60.2665 13.3856 60.4031 14.0406 60.6724 14.5668C60.9466 15.1026 61.365 15.5557 61.9162 15.9145C62.4232 16.2455 63.0677 16.5417 63.8315 16.7967C64.5616 17.04 65.436 17.2873 66.4316 17.5306L66.4384 17.5326C67.2685 17.724 68.0131 17.9144 68.6518 18.0982C69.2511 18.2713 69.7504 18.4685 70.1342 18.6859C70.4824 18.8822 70.7441 19.1054 70.9115 19.3478C71.0625 19.5671 71.1385 19.8605 71.1385 20.2203C71.1385 21.0533 70.8182 21.6757 70.1592 22.124C69.4406 22.6126 68.4412 22.8608 67.1877 22.8608C66.1296 22.8608 65.1253 22.6761 64.2038 22.3116C63.2697 21.9422 62.3347 21.3775 61.4237 20.632L60.9398 20.2366L59.3247 22.6328L59.3411 22.7088L59.6652 23.0022C60.6349 23.8805 61.8027 24.5577 63.1369 25.0175C64.4577 25.4725 65.8314 25.7034 67.2195 25.7034C69.3685 25.7034 71.1154 25.2013 72.4121 24.2114C73.756 23.185 74.437 21.7767 74.437 20.025C74.437 19.2092 74.2687 18.4984 73.9378 17.9106C73.6088 17.3257 73.1201 16.8284 72.4852 16.4292Z" fill="#F6F6F6"/>
<path d="M14.7297 7.17235H10.0142C10.019 5.78906 10.2624 4.73283 10.7356 4.03252C11.1724 3.38609 11.8005 3.07153 12.6547 3.07153C13.0568 3.07153 13.4599 3.13021 13.8533 3.24468C14.2285 3.35434 14.544 3.50922 14.7922 3.70257L15.3752 4.1595L16.5353 1.45256L16.162 1.18609C15.656 0.824397 15.051 0.532924 14.3622 0.31937C13.6773 0.107739 12.9587 0 12.2286 0C10.4971 0 9.10993 0.677218 8.10565 2.01241C7.15427 3.27546 6.66464 5.0118 6.64828 7.17235H4.29053V10.0794H6.64828V25.3735H10.0142V10.0794H14.7306V7.17235H14.7297Z" fill="#39BDAB"/>
<path d="M48.1158 9.68252C47.3241 8.82157 46.3641 8.13281 45.2617 7.63259C44.1545 7.13237 42.9242 6.87842 41.6044 6.87842C40.3076 6.87842 39.0831 7.13237 37.9653 7.63259C37.0052 8.06355 36.151 8.6311 35.419 9.32371L35.417 9.32564C35.3026 9.43434 35.191 9.54592 35.0823 9.6604C35.0121 9.73447 34.9428 9.81046 34.8755 9.88742C34.5801 10.2231 34.2839 10.5589 33.9789 10.8859L31.4894 13.5582L27.3664 17.9832L23.0318 22.6353C22.8981 22.7786 22.7106 22.8604 22.5143 22.8604H22.5114C21.763 22.8604 21.0512 22.7161 20.3961 22.4323C19.7343 22.1466 19.1378 21.7407 18.6242 21.226C18.1066 20.7085 17.6766 20.0861 17.3457 19.3742C17.0966 18.8394 16.9234 18.2603 16.8272 17.6456H27.2067L31.0238 13.4842C30.9411 13.1985 30.8458 12.9185 30.7371 12.6425C30.2985 11.5353 29.678 10.5387 28.8911 9.68348C28.0994 8.8235 27.1394 8.13377 26.037 7.63355C24.9298 7.13334 23.6994 6.87938 22.3796 6.87938C21.082 6.87938 19.8574 7.13334 18.7406 7.63355C17.6285 8.13185 16.6589 8.81484 15.8576 9.66232C15.0592 10.5079 14.4252 11.5045 13.975 12.6242C13.5239 13.7468 13.2949 14.9589 13.2949 16.2267C13.2949 17.5167 13.5239 18.7442 13.9741 19.8764C14.4243 21.0076 15.063 22.0215 15.872 22.8873C16.6839 23.7579 17.6545 24.4514 18.755 24.9497C19.8622 25.45 21.0925 25.7039 22.4123 25.7039C22.42 25.7039 22.4287 25.7039 22.4364 25.7039C23.7187 25.7001 24.9423 25.1652 25.835 24.2446L32.5735 17.2897C32.5735 17.2916 32.5735 17.2945 32.5745 17.2964L36.5435 13.0388C36.8456 12.377 37.2448 11.8017 37.7286 11.3284C38.2308 10.8369 38.8253 10.4473 39.4957 10.1702C40.1653 9.89512 40.8858 9.75467 41.6371 9.75467C42.3864 9.75467 43.1002 9.89415 43.7591 10.1693C44.421 10.4463 45.0106 10.8359 45.5128 11.3275C46.0197 11.8248 46.444 12.426 46.7729 13.1157C47.0202 13.6314 47.1924 14.1989 47.2876 14.8059H36.0192C36.0596 14.5471 36.1125 14.2951 36.1799 14.0488L32.6447 17.8399C32.7553 18.546 32.941 19.2271 33.1988 19.8754C33.649 21.0067 34.2877 22.0206 35.0967 22.8863C35.9086 23.7569 36.8792 24.4505 37.9797 24.9488C39.0869 25.449 40.3173 25.703 41.6371 25.703C42.5124 25.703 43.3667 25.5914 44.1766 25.372C44.9876 25.1527 45.7417 24.8343 46.418 24.4264C47.0923 24.0195 47.6955 23.5347 48.2101 22.9854C48.7353 22.4236 49.1471 21.7878 49.4337 21.0942L49.6809 20.4968L46.6469 19.6744L46.4517 20.1294C46.2833 20.5219 46.0351 20.8874 45.7148 21.2173C45.382 21.5598 45.0049 21.8522 44.596 22.086C44.1795 22.3236 43.7159 22.515 43.2185 22.6545C42.726 22.7921 42.2267 22.8633 41.7342 22.8633C40.9858 22.8633 40.274 22.719 39.6189 22.4352C38.957 22.1495 38.3606 21.7435 37.8469 21.2289C37.3294 20.7114 36.8994 20.089 36.5685 19.3771C36.3203 18.8423 36.1472 18.2632 36.051 17.6485H50.4332L50.5621 17.257C50.6044 17.1281 50.6237 16.9617 50.6237 16.7192V16.195C50.6237 14.9502 50.4005 13.7554 49.9618 12.6444C49.5232 11.5343 48.9018 10.5387 48.1158 9.68252ZM17.2851 13.1148C17.592 12.4203 18.0027 11.819 18.5049 11.3255C19.007 10.834 19.6015 10.4444 20.272 10.1673C20.9415 9.89223 21.662 9.75178 22.4133 9.75178C23.1627 9.75178 23.8764 9.89127 24.5354 10.1664C25.1972 10.4434 25.7869 10.833 26.289 11.3246C26.796 11.8219 27.2202 12.4231 27.5492 13.1129C27.7964 13.6285 27.9686 14.196 28.0638 14.803H16.7955C16.8878 14.2056 17.0523 13.6391 17.2851 13.1148Z" fill="#39BDAB"/>
<path d="M58.878 22.7071L58.8617 22.6311L58.6895 21.8404L58.07 22.0789C57.8189 22.1761 57.5419 22.255 57.2465 22.3136C56.957 22.3714 56.7088 22.4012 56.5068 22.4012C56.0297 22.4012 55.6814 22.2809 55.4419 22.0337C55.1976 21.7817 55.0783 21.4238 55.0783 20.94V0.327148H51.7124V21.6932C51.7124 22.8956 52.0674 23.8528 52.7667 24.5396C53.4632 25.2236 54.4136 25.5708 55.5891 25.5708C56.0566 25.5708 56.6145 25.5131 57.2465 25.3977C57.8853 25.2813 58.4384 25.1264 58.8886 24.9359L59.3244 24.7522L58.8867 22.7465L58.878 22.7071Z" fill="#39BDAB"/>
</svg>
