<?xml version="1.0" encoding="UTF-8"?>
<svg version="1.1" xmlns="http://www.w3.org/2000/svg" width="1017" height="245">
<path d="M0 0 C1.40958984 0.60134766 1.40958984 0.60134766 2.84765625 1.21484375 C16.29886956 7.74180379 26.08428925 19.98903698 31 34 C30.77705561 38.45888773 28.78351005 40.64637343 26 44 C34.97425293 34.52489411 34.97425293 34.52489411 43.6875 24.8125 C44.20054687 24.22210938 44.71359375 23.63171875 45.2421875 23.0234375 C46.66598883 21.38448397 48.08728579 19.74335505 49.5078125 18.1015625 C59.36529799 6.88869456 71.53656373 -2.8563572 87.08374023 -4.17700195 C105.97727544 -4.69738792 120.59677872 -1.56052956 134.7109375 11.6796875 C147.01967038 24.15645769 151.29804095 38.56584713 151.24145508 55.71459961 C151.14411209 61.85588791 151.14411209 61.85588791 150 63 C147.2611158 63.09516211 144.54752059 63.12554594 141.80834961 63.11352539 C140.94988937 63.11367142 140.09142914 63.11381744 139.20695496 63.1139679 C136.35539262 63.11326847 133.50389475 63.1054747 130.65234375 63.09765625 C128.68079158 63.09579218 126.70923895 63.09436822 124.73768616 63.09336853 C119.53773733 63.08954251 114.33781625 63.07971152 109.13787842 63.06866455 C103.83606339 63.05845222 98.5342439 63.05387129 93.23242188 63.04882812 C82.82160237 63.03808933 72.41080349 63.02101191 62 63 C62.89829741 65.22094855 63.80872223 67.43557375 64.7265625 69.6484375 C64.97607666 70.26904053 65.22559082 70.88964355 65.48266602 71.52905273 C68.7033286 79.22931821 73.8702124 85.68594611 81.375 89.5625 C90.0137863 92.9882256 100.60575226 93.68438607 109.5 90.4375 C117.14472172 86.78244786 122.3013116 81.55148881 126 74 C132.54849313 75.16204993 138.74538144 76.73383385 145 79 C145 84.9516039 141.10171975 90.39463693 137.8125 95.1875 C127.38685793 105.61314207 113.61185898 112.34752472 98.7890625 112.41015625 C97.86867188 112.39855469 96.94828125 112.38695312 96 112.375 C95.07960938 112.38660156 94.15921875 112.39820313 93.2109375 112.41015625 C78.6240181 112.34852138 65.44263668 106.04954233 55 96 C46.80047539 86.40756141 41.85866047 76.22484072 39 64 C32.99906565 68.97360048 27.49681319 74.35357421 22 79.875 C21.13632812 80.73480469 20.27265625 81.59460938 19.3828125 82.48046875 C14.37997694 87.4909074 9.5917809 92.61141465 5 98 C-1.60105527 105.61364433 -8.96506334 111.60876364 -19.3515625 112.5078125 C-28.49173847 112.90862098 -36.60910681 111.82826978 -45 108 C-45.90878906 107.61070312 -46.81757813 107.22140625 -47.75390625 106.8203125 C-59.79518104 101.03090869 -68.56863076 91.07184188 -74 79 C-74.31324219 78.36449219 -74.62648438 77.72898437 -74.94921875 77.07421875 C-81.21335083 63.78203605 -80.82811228 46.84730509 -76.25390625 33.140625 C-70.52123304 18.78215378 -60.97097557 6.87739676 -46.6171875 0.49609375 C-31.47261293 -5.44993049 -15.24572159 -6.59889442 0 0 Z M-49.25 27.1875 C-52.75285644 31.47729954 -54.76031255 36.63087089 -56 42 C-55.67 42.99 -55.34 43.98 -55 45 C-33.22 44.67 -11.44 44.34 11 44 C9.51350081 33.5945057 5.1971235 27.30373029 -2.828125 20.625 C-17.91393623 9.33777433 -37.12301609 14.51343411 -49.25 27.1875 Z M68 28 C67.05887939 29.40652315 66.13455894 30.8243602 65.22265625 32.25 C61.92877155 37.32215254 57.9740687 41.50719921 53.75 45.8125 C52.32383582 47.27316815 50.90178262 48.73786436 49.484375 50.20703125 C48.86272461 50.8410083 48.24107422 51.47498535 47.60058594 52.12817383 C46.00136387 53.99840501 44.99440759 55.75885854 44 58 C50.3343346 52.90499173 55.62789574 47.07469335 61 41 C61.33 41.99 61.66 42.98 62 44 C84.11 44 106.22 44 129 44 C127.41975304 34.51851822 123.6517195 26.99029037 116 21 C99.75994144 10.25700594 80.73836496 13.55206724 68 28 Z M22 46 C22.33 46.66 22.66 47.32 23 48 C23.33 47.34 23.66 46.68 24 46 C23.34 46 22.68 46 22 46 Z M16 53 C13.69 55.31 11.38 57.62 9 60 C9.33 60.66 9.66 61.32 10 62 C12.31 59.69 14.62 57.38 17 55 C16.67 54.34 16.34 53.68 16 53 Z M-55 63 C-53.63969786 73.88241709 -49.7719631 80.33009341 -41.35546875 87.30859375 C-35.41255993 91.57605564 -28.45263616 94.56990747 -21 94 C-17.53964584 92.10504415 -15.42002943 89.34059789 -12.875 86.39453125 C-8.21609589 81.05870792 -3.32247272 75.95229761 1.56640625 70.828125 C2.25347656 70.10367188 2.94054687 69.37921875 3.6484375 68.6328125 C4.57922119 67.65658936 4.57922119 67.65658936 5.52880859 66.66064453 C7.08176618 65.05177354 7.08176618 65.05177354 8 63 C-12.79 63 -33.58 63 -55 63 Z " fill="#C11F35" transform="translate(334,69)"/>
<path d="M0 0 C3.47914941 -0.02887814 6.95826831 -0.04675687 10.4375 -0.0625 C11.92733398 -0.07506836 11.92733398 -0.07506836 13.44726562 -0.08789062 C14.39150391 -0.09111328 15.33574219 -0.09433594 16.30859375 -0.09765625 C17.62041626 -0.10551147 17.62041626 -0.10551147 18.95874023 -0.11352539 C21 0 21 0 22 1 C22.09962362 2.67606902 22.12908874 4.35634417 22.13130188 6.03536987 C22.13531006 7.12624908 22.13931824 8.2171283 22.14344788 9.34106445 C22.14291916 10.54835205 22.14239044 11.75563965 22.1418457 12.99951172 C22.14717898 14.93867713 22.15251824 16.87784254 22.15808237 18.8170073 C22.16328908 20.90784008 22.16619607 22.99866655 22.16866493 25.08950424 C22.17456251 29.44228861 22.1910908 33.79499066 22.21000671 38.1477356 C22.21634446 39.63637347 22.22267008 41.12501139 22.22898388 42.61364937 C22.23214969 43.35927265 22.2353155 44.10489594 22.23857725 44.87311387 C22.28069735 55.01093497 22.3136344 65.14871834 22.32592773 75.28662109 C22.33429831 82.11922245 22.35675236 88.95162085 22.3952834 95.78412068 C22.41508029 99.40213082 22.42743685 103.01983733 22.42244911 106.63790512 C22.41695474 110.67278667 22.44216094 114.70690981 22.4699707 118.74169922 C22.46336929 119.94493835 22.45676788 121.14817749 22.44996643 122.38787842 C22.46243408 123.48439728 22.47490173 124.58091614 22.48774719 125.71066284 C22.49013555 126.66526335 22.4925239 127.61986385 22.49498463 128.60339165 C22.79658601 131.14365206 22.79658601 131.14365206 24.88406658 132.82155037 C28.75753211 134.97884132 32.79769639 133.77967268 37 133 C40.44776515 132.04896575 40.44776515 132.04896575 43 131 C43.99 132.32 44.98 133.64 46 135 C50.20240011 131.28249221 52.99782679 126.68339021 56 122 C59.72064918 123.3302144 62.54436903 124.99557193 65.6875 127.375 C76.54462016 135.12318219 89.17973767 138.39616288 102.421875 136.6875 C108.4222491 135.55991292 112.93318061 133.54907725 116.875 128.6875 C118.35852558 125.14352224 118.54405572 122.80839006 118 119 C112.01325121 110.69580007 100.64249776 108.97663692 91.29660034 106.67962646 C62.95705772 99.65042606 62.95705772 99.65042606 55 89 C51.36209281 82.33257283 50.83374847 74.3862597 52 67 C55.70068771 57.0193574 61.51942805 49.85170684 70.8125 44.75 C72.19405574 44.13361359 73.59119603 43.55127112 75 43 C75.7528125 42.7009375 76.505625 42.401875 77.28125 42.09375 C92.07586143 37.16221286 109.03098043 39.18805336 123.08984375 45.35546875 C129.12727958 48.44458201 134.13776797 52.29101883 139 57 C138.67 57.99 138.34 58.98 138 60 C137.34 60 136.68 60 136 60 C135.74476563 60.57234375 135.48953125 61.1446875 135.2265625 61.734375 C133.86912841 64.24173733 132.28025896 66.1330456 130.375 68.25 C129.74335937 68.95640625 129.11171875 69.6628125 128.4609375 70.390625 C127.97882813 70.92171875 127.49671875 71.4528125 127 72 C126.05125 71.113125 125.1025 70.22625 124.125 69.3125 C114.68135001 61.24247183 104.3742144 58.55460872 92.1953125 58.73828125 C87.79612552 59.09860586 84.01377177 60.20328081 80 62 C79.28714844 62.25394531 78.57429687 62.50789063 77.83984375 62.76953125 C75.76974853 63.89374415 75.76974853 63.89374415 75.1015625 66.42578125 C74.94429687 67.37839844 74.78703125 68.33101563 74.625 69.3125 C74.45226562 70.25738281 74.27953125 71.20226562 74.1015625 72.17578125 C73.97949057 75.57031998 74.15209108 77.12495389 76 80 C83.56796103 84.9364382 92.68044663 86.36369883 101.36499023 88.42456055 C115.18666915 91.72898923 129.51566111 95.70793071 138 108 C140.20251533 112.2413302 140.30218743 116.25367784 140.25 120.9375 C140.25773438 121.62779297 140.26546875 122.31808594 140.2734375 123.02929688 C140.24972218 129.28421307 138.80837879 134.1098362 135.5 139.375 C135.0771875 140.06335938 134.654375 140.75171875 134.21875 141.4609375 C133.8165625 141.96882812 133.414375 142.47671875 133 143 C132.34 143 131.68 143 131 143 C131 143.66 131 144.32 131 145 C116.53180541 156.22299207 99.74854106 157.73392722 82.06640625 155.50390625 C70.91044164 153.30256206 61.25532175 149.39025018 52.15625 142.55078125 C49.7908225 140.76276925 49.7908225 140.76276925 46 139 C46.66 142.63 47.32 146.26 48 150 C43.98391345 152.74663391 40.38548505 153.77499323 35.625 154.6875 C33.72621094 155.06455078 33.72621094 155.06455078 31.7890625 155.44921875 C23.50320773 156.65365743 15.83026795 156.15762449 8.6875 151.48828125 C4.33161808 147.92510578 1.50279746 144.51321768 0 139 C-0.42712545 134.48058454 -0.37896477 129.98202496 -0.34057617 125.44555664 C-0.33972897 124.07508361 -0.34020687 122.70460921 -0.34190369 121.33413696 C-0.34276143 117.63000357 -0.32517183 113.92616395 -0.30418181 110.22209859 C-0.28537792 106.34505674 -0.28366166 102.46800753 -0.28010559 98.59092712 C-0.270796 91.25644874 -0.24619701 83.92210514 -0.21605712 76.587686 C-0.18247922 68.23461821 -0.1660186 59.88154386 -0.15097082 51.52842534 C-0.11964641 34.35220571 -0.06690715 17.17611712 0 0 Z " fill="#F5F5F5" transform="translate(491,25)"/>
<path d="M0 0 C7.26 0 14.52 0 22 0 C22.495 26.235 22.495 26.235 23 53 C25.475 52.505 25.475 52.505 28 52 C28.33 51.01 28.66 50.02 29 49 C32 47 32 47 35 47 C35 46.34 35 45.68 35 45 C48.21908686 40.07799957 61.83622229 36.67339594 75.47265625 42.55859375 C85.95852709 48.53894358 91.67802694 57.12121926 95.04638672 68.55053711 C96.72521292 76.34166797 96.36118278 84.44484443 96.4140625 92.37890625 C96.43279665 94.15967178 96.45237169 95.94042865 96.4727478 97.72117615 C96.52383785 102.38171249 96.5635866 107.04227754 96.60089111 111.70294189 C96.64107662 116.46934984 96.69210224 121.23564075 96.7421875 126.00195312 C96.83867264 135.33456094 96.9221609 144.66721802 97 154 C89.41 154 81.82 154 74 154 C74.01047363 151.93186035 74.02094727 149.8637207 74.03173828 147.73291016 C74.06501147 140.86780177 74.0870227 134.00268965 74.10362434 127.13752174 C74.11402163 122.97884448 74.12810595 118.82025046 74.15087891 114.66162109 C74.17275294 110.64157681 74.18459905 106.62161216 74.18975449 102.60151291 C74.19342428 101.0746676 74.20058981 99.54782619 74.21146011 98.02101517 C74.45821583 81.20194265 74.45821583 81.20194265 68 66 C62.44311447 61.4850305 58.07487106 60.4385023 51 61 C38.99689302 64.014396 31.64301714 70.05462899 25.3125 80.546875 C23.07170988 84.73501844 22.87779724 87.88830716 22.88647461 92.58276367 C22.88632858 93.24644455 22.88618256 93.91012543 22.8860321 94.59391785 C22.88672818 96.78530152 22.8945063 98.97659995 22.90234375 101.16796875 C22.90420901 102.68825738 22.90563241 104.20854661 22.90663147 105.72883606 C22.91044812 109.72864443 22.92027115 113.72841644 22.93133545 117.72821045 C22.94156787 121.81033842 22.94613302 125.89247227 22.95117188 129.97460938 C22.96189417 137.98309145 22.97948409 145.99153701 23 154 C15.74 154 8.48 154 1 154 C0.13136037 120.71846927 -0.13189032 87.46370184 -0.06866455 54.17163086 C-0.05817068 48.02783575 -0.05381301 41.88403598 -0.04882812 35.74023438 C-0.03831309 23.82680951 -0.02082932 11.9134113 0 0 Z " fill="#F5F5F5" transform="translate(637,25)"/>
<path d="M0 0 C7.59 0 15.18 0 23 0 C24.32 3.3 25.64 6.6 27 10 C27.79602148 11.91973671 28.59814509 13.83697174 29.41015625 15.75 C29.83723877 16.75772461 30.26432129 17.76544922 30.7043457 18.80371094 C31.15253662 19.85848633 31.60072754 20.91326172 32.0625 22 C33.03649869 24.29685789 34.01045579 26.59373341 34.984375 28.890625 C35.72977539 30.64729492 35.72977539 30.64729492 36.49023438 32.43945312 C38.4626581 37.091107 40.42941827 41.74514542 42.39624023 46.39916992 C46.57139273 56.27746124 50.76070084 66.14906446 55 76 C56.00064717 78.33305652 57.00035045 80.66651574 58 83 C60.78787237 77.64692877 63.12024709 72.13312071 65.4375 66.5625 C65.86853027 65.52770508 66.29956055 64.49291016 66.74365234 63.42675781 C71.13981122 52.79134458 75.27534566 42.05909342 79.40731812 31.31925964 C79.7761058 30.36071831 79.7761058 30.36071831 80.15234375 29.3828125 C80.39489899 28.7522847 80.63745422 28.1217569 80.88735962 27.47212219 C83.11960849 21.67595105 85.38864582 15.8950494 87.6875 10.125 C88.17790771 8.8860498 88.17790771 8.8860498 88.67822266 7.62207031 C90.87961764 2.12038236 90.87961764 2.12038236 92 1 C93.63256758 0.84285346 95.27135338 0.74914586 96.91015625 0.68359375 C98.39418945 0.62075195 98.39418945 0.62075195 99.90820312 0.55664062 C101.46958008 0.49766602 101.46958008 0.49766602 103.0625 0.4375 C104.10728516 0.39431641 105.15207031 0.35113281 106.22851562 0.30664062 C108.81886884 0.20018775 111.40932186 0.0981724 114 0 C112.58613456 4.39108357 110.97171276 8.65213133 109.2265625 12.921875 C108.9509549 13.59838104 108.67534729 14.27488708 108.39138794 14.97189331 C107.78896178 16.45057571 107.18577171 17.92894706 106.58190918 19.40704346 C104.90128787 23.52198223 103.22758284 27.63972777 101.5546875 31.7578125 C101.19411255 32.64540253 100.8335376 33.53299255 100.46203613 34.44747925 C95.84708175 45.82223081 91.3015186 57.22475824 86.75 68.625 C74.86561205 98.3851317 74.86561205 98.3851317 69.60327148 111.14648438 C67.45988372 116.35386952 65.38900172 121.57824377 63.40234375 126.84765625 C62.96744629 127.98388428 62.53254883 129.1201123 62.08447266 130.29077148 C61.27191902 132.42072255 60.47444791 134.55652952 59.69677734 136.69946289 C56.75912349 144.34727091 52.70039682 151.43464109 45.29858398 155.47436523 C37.01452982 159.01129688 28.69004874 158.73800975 20 157 C20 150.4 20 143.8 20 137 C24.95 137 29.9 137 35 137 C35.66 135.35 36.32 133.7 37 132 C37.72522235 130.36108691 38.45857737 128.72575304 39.19921875 127.09375 C39.60333984 126.18496094 40.00746094 125.27617187 40.42382812 124.33984375 C41.26822414 122.44223664 42.12245858 120.54897778 42.98632812 118.66015625 C43.38658203 117.75136719 43.78683594 116.84257812 44.19921875 115.90625 C44.56877686 115.08447266 44.93833496 114.26269531 45.3190918 113.41601562 C46.65974806 108.65906533 44.60026974 104.74774257 42.69140625 100.390625 C42.20043457 99.26350098 41.70946289 98.13637695 41.20361328 96.97509766 C40.65667933 95.73335271 40.10963812 94.491655 39.5625 93.25 C38.991615 91.94467782 38.42115104 90.63917143 37.85107422 89.33349609 C36.25915735 85.69141772 34.66059055 82.052291 33.06072998 78.41369629 C31.55987146 74.99848535 30.0622891 71.58184066 28.5644989 68.1652832 C25.10194376 60.26716904 21.63500584 52.3709936 18.1640625 44.4765625 C15.48602745 38.38380149 12.80841337 32.29085693 10.13671875 26.1953125 C9.85958038 25.56420563 9.58244202 24.93309875 9.29690552 24.28286743 C7.14425659 19.36721814 5.07531769 14.41954766 3.04296875 9.453125 C2.05031038 7.020632 2.05031038 7.020632 0.86328125 4.859375 C0 3 0 3 0 0 Z " fill="#F5F5F5" transform="translate(730,66)"/>
<path d="M0 0 C1.11725464 0.00241699 1.11725464 0.00241699 2.25708008 0.00488281 C11.4007451 0.2054751 19.61565516 2.7288429 26.875 8.375 C26.31880331 13.0639493 24.99317327 16.57424267 22.8125 20.75 C22.26464844 21.80960938 21.71679688 22.86921875 21.15234375 23.9609375 C20.73082031 24.75757812 20.30929687 25.55421875 19.875 26.375 C17.14462968 25.32485757 14.74569211 24.29495226 12.25 22.75 C6.60281882 20.44929655 0.57012259 20.30818064 -5.125 22.5625 C-9.62245014 26.63831419 -10.79627362 31.38445865 -11.8125 37.1875 C-11.94205078 37.88037109 -12.07160156 38.57324219 -12.20507812 39.28710938 C-12.52057559 40.98144764 -12.82402647 42.67802158 -13.125 44.375 C-12.08666016 44.26671875 -12.08666016 44.26671875 -11.02734375 44.15625 C11.21719269 42.04609635 11.21719269 42.04609635 15.875 44.375 C15.90183987 47.35422593 15.92176037 50.33321295 15.9375 53.3125 C15.94587891 54.16263672 15.95425781 55.01277344 15.96289062 55.88867188 C15.96611328 56.69755859 15.96933594 57.50644531 15.97265625 58.33984375 C15.97789307 59.0887085 15.98312988 59.83757324 15.98852539 60.60913086 C15.875 62.375 15.875 62.375 14.875 63.375 C5.635 63.375 -3.605 63.375 -13.125 63.375 C-13.125 94.065 -13.125 124.755 -13.125 156.375 C-16.82946553 157.60982184 -20.2693008 157.52058202 -24.125 157.5 C-25.21167969 157.50580078 -25.21167969 157.50580078 -26.3203125 157.51171875 C-29.51782879 157.50581927 -32.07082607 157.39305798 -35.125 156.375 C-35.125 125.355 -35.125 94.335 -35.125 62.375 C-38.59 62.87 -38.59 62.87 -42.125 63.375 C-49.31667905 63.77916048 -49.31667905 63.77916048 -52.125 62.375 C-52.125 61.385 -52.125 60.395 -52.125 59.375 C-51.465 59.375 -50.805 59.375 -50.125 59.375 C-50.26648989 57.7704444 -50.41335686 56.16636233 -50.5625 54.5625 C-50.64371094 53.66917969 -50.72492188 52.77585938 -50.80859375 51.85546875 C-51.05989767 49.24756441 -51.05989767 49.24756441 -52.125 46.375 C-48.89724135 44.2231609 -47.40587493 43.99749109 -43.625 43.6875 C-42.6659375 43.60113281 -41.706875 43.51476562 -40.71875 43.42578125 C-38.125 43.375 -38.125 43.375 -35.125 44.375 C-35.2075 43.17875 -35.29 41.9825 -35.375 40.75 C-35.375 29.68808389 -30.92810827 16.38900309 -23.125 8.375 C-15.7545109 2.72382193 -9.40843819 -0.0212548 0 0 Z " fill="#C31F35" transform="translate(249.125,22.625)"/>
<path d="M0 0 C3.47914941 -0.02887814 6.95826831 -0.04675687 10.4375 -0.0625 C11.92733398 -0.07506836 11.92733398 -0.07506836 13.44726562 -0.08789062 C14.39150391 -0.09111328 15.33574219 -0.09433594 16.30859375 -0.09765625 C17.62041626 -0.10551147 17.62041626 -0.10551147 18.95874023 -0.11352539 C21 0 21 0 22 1 C22.09962362 2.67606902 22.12908874 4.35634417 22.13130188 6.03536987 C22.13531006 7.12624908 22.13931824 8.2171283 22.14344788 9.34106445 C22.14291916 10.54835205 22.14239044 11.75563965 22.1418457 12.99951172 C22.14717898 14.93867713 22.15251824 16.87784254 22.15808237 18.8170073 C22.16328908 20.90784008 22.16619607 22.99866655 22.16866493 25.08950424 C22.17456251 29.44228861 22.1910908 33.79499066 22.21000671 38.1477356 C22.21634446 39.63637347 22.22267008 41.12501139 22.22898388 42.61364937 C22.23214969 43.35927265 22.2353155 44.10489594 22.23857725 44.87311387 C22.28069735 55.01093497 22.3136344 65.14871834 22.32592773 75.28662109 C22.33429831 82.11922245 22.35675236 88.95162085 22.3952834 95.78412068 C22.41508029 99.40213082 22.42743685 103.01983733 22.42244911 106.63790512 C22.41695474 110.67278667 22.44216094 114.70690981 22.4699707 118.74169922 C22.46336929 119.94493835 22.45676788 121.14817749 22.44996643 122.38787842 C22.46243408 123.48439728 22.47490173 124.58091614 22.48774719 125.71066284 C22.49013555 126.66526335 22.4925239 127.61986385 22.49498463 128.60339165 C22.79658601 131.14365206 22.79658601 131.14365206 24.88406658 132.82155037 C28.75753211 134.97884132 32.79769639 133.77967268 37 133 C40.44776515 132.04896575 40.44776515 132.04896575 43 131 C45.79872437 133.52788007 47.45773019 135.20411134 48 139 C47.34 139 46.68 139 46 139 C46.66 142.63 47.32 146.26 48 150 C43.98391345 152.74663391 40.38548505 153.77499323 35.625 154.6875 C33.72621094 155.06455078 33.72621094 155.06455078 31.7890625 155.44921875 C23.50320773 156.65365743 15.83026795 156.15762449 8.6875 151.48828125 C4.33161808 147.92510578 1.50279746 144.51321768 0 139 C-0.42712545 134.48058454 -0.37896477 129.98202496 -0.34057617 125.44555664 C-0.33972897 124.07508361 -0.34020687 122.70460921 -0.34190369 121.33413696 C-0.34276143 117.63000357 -0.32517183 113.92616395 -0.30418181 110.22209859 C-0.28537792 106.34505674 -0.28366166 102.46800753 -0.28010559 98.59092712 C-0.270796 91.25644874 -0.24619701 83.92210514 -0.21605712 76.587686 C-0.18247922 68.23461821 -0.1660186 59.88154386 -0.15097082 51.52842534 C-0.11964641 34.35220571 -0.06690715 17.17611712 0 0 Z " fill="#C31F35" transform="translate(491,25)"/>
<path d="M0 0 C7.26 0 14.52 0 22 0 C22 37.62 22 75.24 22 114 C14.74 113.67 7.48 113.34 0 113 C0 75.71 0 38.42 0 0 Z " fill="#F5F5F5" transform="translate(174,66)"/>
<path d="M0 0 C6.93 0 13.86 0 21 0 C21 9.24 21 18.48 21 28 C13.41 28 5.82 28 -2 28 C-1.67 27.34 -1.34 26.68 -1 26 C-0.84621148 24.04225931 -0.75028537 22.07982648 -0.68359375 20.1171875 C-0.62075195 18.36728516 -0.62075195 18.36728516 -0.55664062 16.58203125 C-0.51732422 15.35871094 -0.47800781 14.13539062 -0.4375 12.875 C-0.39431641 11.64394531 -0.35113281 10.41289063 -0.30664062 9.14453125 C-0.20031377 6.09649488 -0.09963028 3.04826261 0 0 Z " fill="#F4F4F4" transform="translate(174,25)"/>
<path d="M0 0 C3.47914941 -0.02887814 6.95826831 -0.04675687 10.4375 -0.0625 C11.92733398 -0.07506836 11.92733398 -0.07506836 13.44726562 -0.08789062 C14.39150391 -0.09111328 15.33574219 -0.09433594 16.30859375 -0.09765625 C17.62041626 -0.10551147 17.62041626 -0.10551147 18.95874023 -0.11352539 C21 0 21 0 22 1 C22.09616807 2.68291696 22.12187691 4.36989561 22.12025452 6.05555725 C22.12162918 7.15077194 22.12300385 8.24598663 22.12442017 9.37438965 C22.12082489 10.58639038 22.11722961 11.79839111 22.11352539 13.04711914 C22.11367142 14.31522934 22.11381744 15.58333954 22.1139679 16.88987732 C22.11425585 20.37732422 22.10835945 23.86473701 22.10139394 27.35217595 C22.09516007 30.99303723 22.09455658 34.63389922 22.09336853 38.27476501 C22.09025531 45.17376972 22.08204205 52.07275865 22.07201904 58.9717564 C22.06085761 66.82410685 22.05534738 74.67645803 22.05032361 82.52881444 C22.03985943 98.68588553 22.02226017 114.84294076 22 131 C21.67 131 21.34 131 21 131 C20.82404689 120.93764614 20.65813513 110.87514802 20.5 100.8125 C20.48218412 99.67934608 20.48218412 99.67934608 20.46400833 98.52330017 C20.09853261 75.09807268 19.90740129 51.67808563 19.9375 28.25 C19.93835602 27.57878239 19.93921204 26.90756477 19.94009399 26.21600723 C19.95118043 18.14397181 19.97166345 10.07199211 20 2 C13.73 2 7.46 2 1 2 C1.08430241 19.64592208 1.17901594 37.29174423 1.28752708 54.93753338 C1.33764861 63.13078126 1.38409159 71.32401915 1.421875 79.51733398 C1.45481639 86.65863559 1.49465949 93.79985963 1.54279006 100.94107562 C1.56803371 104.72228173 1.58982128 108.50343651 1.60334396 112.28470421 C1.61618372 115.84451567 1.63825866 119.40415096 1.66738319 122.96386528 C1.68076094 124.89159628 1.68437678 126.8193873 1.68769836 128.74716187 C1.69886185 129.89836014 1.71002533 131.04955841 1.7215271 132.23564148 C1.72705786 133.23394328 1.73258862 134.23224508 1.73828697 135.26079845 C1.87389164 138.05305416 1.87389164 138.05305416 3.07990456 140.67277241 C4 143 4 143 3 146 C-0.72615773 139.31518636 -0.40419062 132.96302004 -0.34057617 125.44555664 C-0.33972897 124.07508361 -0.34020687 122.70460921 -0.34190369 121.33413696 C-0.34276143 117.63000357 -0.32517183 113.92616395 -0.30418181 110.22209859 C-0.28537792 106.34505674 -0.28366166 102.46800753 -0.28010559 98.59092712 C-0.270796 91.25644874 -0.24619701 83.92210514 -0.21605712 76.587686 C-0.18247922 68.23461821 -0.1660186 59.88154386 -0.15097082 51.52842534 C-0.11964641 34.35220571 -0.06690715 17.17611712 0 0 Z " fill="#962B36" transform="translate(491,25)"/>
<path d="M0 0 C0.33 0 0.66 0 1 0 C1.33 30.03 1.66 60.06 2 91 C7.94 91 13.88 91 20 91 C20.33 60.97 20.66 30.94 21 0 C21.33 0 21.66 0 22 0 C22 30.69 22 61.38 22 93 C18.29553447 94.23482184 14.8556992 94.14558202 11 94.125 C10.27554688 94.12886719 9.55109375 94.13273437 8.8046875 94.13671875 C5.60717121 94.13081927 3.05417393 94.01805798 0 93 C0 62.31 0 31.62 0 0 Z " fill="#A22839" transform="translate(214,86)"/>
<path d="M0 0 C0 0.33 0 0.66 0 1 C-2.875 1.625 -2.875 1.625 -6 2 C-6.66 1.34 -7.32 0.68 -8 0 C-10.3245339 -0.37051993 -10.3245339 -0.37051993 -13.0078125 -0.4140625 C-13.99394531 -0.45273438 -14.98007812 -0.49140625 -15.99609375 -0.53125 C-17.02863281 -0.5621875 -18.06117188 -0.593125 -19.125 -0.625 C-20.16527344 -0.66367188 -21.20554687 -0.70234375 -22.27734375 -0.7421875 C-24.85138311 -0.83664766 -27.42541155 -0.92221214 -30 -1 C-30.33 -0.34 -30.66 0.32 -31 1 C-32.90351305 1.36785682 -34.82496735 1.64493512 -36.75 1.875 C-41.71744343 2.59892837 -44.23731774 3.5900692 -48 7 C-50.125 6.61328125 -50.125 6.61328125 -52 6 C-37.13920097 -4.48997579 -17.03026708 -6.56212126 0 0 Z " fill="#A62A3C" transform="translate(450,68)"/>
<path d="M0 0 C0 3.92379055 -1.60406942 5.00508678 -4 8 C-4 8.99 -4 9.98 -4 11 C-8 13 -8 13 -9.8515625 13.765625 C-12.67471211 15.38765278 -14.46751693 17.44332176 -16.625 19.875 C-17.40101563 20.73867187 -18.17703125 21.60234375 -18.9765625 22.4921875 C-20.71186309 24.64288823 -21.78383513 26.55661422 -23 29 C-25.125 29.75 -25.125 29.75 -27 30 C-27 31.32 -27 32.64 -27 34 C-28.32 33.67 -29.64 33.34 -31 33 C-24.92774135 26.34530021 -18.82731792 19.71745904 -12.6875 13.125 C-12.11370605 12.5074585 -11.53991211 11.88991699 -10.94873047 11.25366211 C-7.37435363 7.42219913 -3.72488105 3.6854345 0 0 Z " fill="#A4273C" transform="translate(346,128)"/>
<path d="M0 0 C11.25175092 -0.42773288 21.5130949 -0.73379242 32 4 C32.66 4.66 33.32 5.32 34 6 C31.33333333 6 28.66666667 6 26 6 C25.32940552 5.2733313 25.32940552 5.2733313 24.64526367 4.53198242 C22.35665138 2.40094783 20.76573398 2.57363906 17.67578125 2.48828125 C16.13374023 2.43510742 16.13374023 2.43510742 14.56054688 2.38085938 C12.95276367 2.34702148 12.95276367 2.34702148 11.3125 2.3125 C10.22904297 2.27833984 9.14558594 2.24417969 8.02929688 2.20898438 C5.3529678 2.1264544 2.67696841 2.05732063 0 2 C0 1.34 0 0.68 0 0 Z " fill="#A9293B" transform="translate(302,65)"/>
<path d="M0 0 C0.33 0.66 0.66 1.32 1 2 C0.26394531 2.03738281 -0.47210938 2.07476562 -1.23046875 2.11328125 C-8.67141422 2.45036408 -8.67141422 2.45036408 -15 6 C-17.78619075 9.94650669 -18.76213949 13.59756787 -19.6875 18.3125 C-19.93886719 19.56675781 -20.19023437 20.82101563 -20.44921875 22.11328125 C-20.63097656 23.06589844 -20.81273437 24.01851562 -21 25 C-21.33 25 -21.66 25 -22 25 C-22.37634203 18.19796625 -21.77471079 13.24309927 -19 7 C-18.34 7 -17.68 7 -17 7 C-16.67 5.35 -16.34 3.7 -16 2 C-10.51324804 0.13216954 -5.77807024 -0.2358396 0 0 Z " fill="#A82A3E" transform="translate(257,41)"/>
<path d="M0 0 C1.4712017 1.94009347 2.91918344 3.88122414 4.2890625 5.89453125 C10.74749369 15.1667234 17.92084869 19.82558713 29 22 C29 22.33 29 22.66 29 23 C26.03 23 23.06 23 20 23 C20 22.34 20 21.68 20 21 C19.278125 20.896875 18.55625 20.79375 17.8125 20.6875 C11.67011536 19.1860282 8.93834859 15.74621496 5 11 C4.30519531 10.70480469 3.61039062 10.40960938 2.89453125 10.10546875 C1 9 1 9 0.390625 6.8359375 C0.34421875 6.02382812 0.2978125 5.21171875 0.25 4.375 C0.19328125 3.55773437 0.1365625 2.74046875 0.078125 1.8984375 C0.05234375 1.27195313 0.0265625 0.64546875 0 0 Z " fill="#A72B3D" transform="translate(280,140)"/>
<path d="M0 0 C0.66 0.99 1.32 1.98 2 3 C1.37372872 5.01301483 0.70164642 7.01200182 0 9 C0 10.0725 0 11.145 0 12.25 C0 13.1575 0 14.065 0 15 C-0.66 15.66 -1.32 16.32 -2 17 C-2.46162427 19.43252661 -2.46162427 19.43252661 -2.625 22.125 C-2.69976562 23.03507812 -2.77453125 23.94515625 -2.8515625 24.8828125 C-2.90054688 25.58148438 -2.94953125 26.28015625 -3 27 C-5.875 27.125 -5.875 27.125 -9 27 C-9.66 26.34 -10.32 25.68 -11 25 C-9.02 25.33 -7.04 25.66 -5 26 C-5.12375 24.205625 -5.12375 24.205625 -5.25 22.375 C-5.28700572 14.62846885 -2.4242747 7.2728241 0 0 Z " fill="#AD2641" transform="translate(219,41)"/>
<path d="M0 0 C1.65 0 3.3 0 5 0 C5.33 0.99 5.66 1.98 6 3 C8.01508358 3.73323796 8.01508358 3.73323796 10 4 C9.3709375 4.25652344 8.741875 4.51304688 8.09375 4.77734375 C1.03950858 7.93262944 -3.2714568 11.93742646 -8 18 C-8.33 17.34 -8.66 16.68 -9 16 C-7.6875 13.375 -7.6875 13.375 -6 11 C-5.34 11 -4.68 11 -4 11 C-4 10.34 -4 9.68 -4 9 C-3.34 9 -2.68 9 -2 9 C-2 8.34 -2 7.68 -2 7 C-1.01 7 -0.02 7 1 7 C0.67 4.69 0.34 2.38 0 0 Z " fill="#B0273D" transform="translate(409,82)"/>
<path d="M0 0 C0.66 0.99 1.32 1.98 2 3 C1.38190301 4.68528286 0.70723353 6.3501385 0 8 C-0.36120502 10.89555369 -0.36120502 10.89555369 -0.4140625 13.95703125 C-0.45273437 15.06884766 -0.49140625 16.18066406 -0.53125 17.32617188 C-0.5621875 18.47666016 -0.593125 19.62714844 -0.625 20.8125 C-0.66367187 21.98232422 -0.70234375 23.15214844 -0.7421875 24.35742188 C-0.8362513 27.23812564 -0.92189877 30.11882654 -1 33 C-3.48631889 28.5965121 -3.34318916 24.82986015 -3.3125 19.875 C-3.31121094 19.02639404 -3.30992187 18.17778809 -3.30859375 17.3034668 C-3.21450725 11.16255877 -2.45637665 5.68768164 0 0 Z " fill="#A12A3A" transform="translate(258,103)"/>
<path d="M0 0 C4.8 3.44615385 4.8 3.44615385 5.8125 6.25 C5.874375 6.8275 5.93625 7.405 6 8 C5.34 8 4.68 8 4 8 C4.66 11.63 5.32 15.26 6 19 C5.34 19.33 4.68 19.66 4 20 C3.49255577 18.10614563 2.99435426 16.20981334 2.5 14.3125 C2.2215625 13.25675781 1.943125 12.20101562 1.65625 11.11328125 C1 8 1 8 1 3 C-2.3 3.33 -5.6 3.66 -9 4 C-6.01193893 2.50596946 -3.10343799 1.20689255 0 0 Z " fill="#B24C58" transform="translate(533,156)"/>
<path d="M0 0 C0.02683987 2.97922593 0.04676037 5.95821295 0.0625 8.9375 C0.07087891 9.78763672 0.07925781 10.63777344 0.08789062 11.51367188 C0.09111328 12.32255859 0.09433594 13.13144531 0.09765625 13.96484375 C0.10289307 14.7137085 0.10812988 15.46257324 0.11352539 16.23413086 C0 18 0 18 -1 19 C-2.66617115 19.04063832 -4.33388095 19.042721 -6 19 C-5.67 18.34 -5.34 17.68 -5 17 C-4.01 17 -3.02 17 -2 17 C-2 11.72 -2 6.44 -2 1 C-5.63 1 -9.26 1 -13 1 C-13 0.67 -13 0.34 -13 0 C-11.58456585 -0.19658808 -10.16755969 -0.38187546 -8.75 -0.5625 C-7.96109375 -0.66691406 -7.1721875 -0.77132812 -6.359375 -0.87890625 C-3.98020513 -1.00101596 -2.27793584 -0.6241208 0 0 Z " fill="#A12C3E" transform="translate(265,67)"/>
<path d="M0 0 C0 4.62 0 9.24 0 14 C2.4440625 14.433125 2.4440625 14.433125 4.9375 14.875 C7.71484375 15.3671875 7.71484375 15.3671875 10 16 C10.33 16.66 10.66 17.32 11 18 C9.04174127 18.02694851 7.08337774 18.04637218 5.125 18.0625 C4.03445312 18.07410156 2.94390625 18.08570312 1.8203125 18.09765625 C-1 18 -1 18 -3 17 C-3 16.01 -3 15.02 -3 14 C-2.34 14 -1.68 14 -1 14 C-1.14148989 12.3954444 -1.28835686 10.79136233 -1.4375 9.1875 C-1.51871094 8.29417969 -1.59992188 7.40085937 -1.68359375 6.48046875 C-1.93489767 3.87256441 -1.93489767 3.87256441 -3 1 C-1 0 -1 0 0 0 Z " fill="#B94761" transform="translate(200,68)"/>
<path d="M0 0 C0 3.20395416 -0.74335022 5.09399739 -2 8 C-2.99 8 -3.98 8 -5 8 C-7.46494614 10.64530805 -9.49935509 12.90483925 -11 16.1875 C-12.45226846 18.81973659 -14.34152936 19.70318505 -17 21 C-17.99 21 -18.98 21 -20 21 C-19.25556641 20.27296875 -19.25556641 20.27296875 -18.49609375 19.53125 C-14.3482106 15.43846207 -10.40827059 11.24955434 -6.609375 6.83203125 C-4.50760458 4.43948191 -2.28559058 2.21633026 0 0 Z " fill="#AC273D" transform="translate(386,85)"/>
<path d="M0 0 C5.70629354 0.42797202 9.41078616 2.84345952 14 6 C13.67 7.98 13.34 9.96 13 12 C12.67 12 12.34 12 12 12 C12 10.02 12 8.04 12 6 C10.02 6 8.04 6 6 6 C5.67 5.01 5.34 4.02 5 3 C4.01 3 3.02 3 2 3 C1.67 3.66 1.34 4.32 1 5 C0.34 5 -0.32 5 -1 5 C-0.67 3.35 -0.34 1.7 0 0 Z " fill="#AC253E" transform="translate(262,25)"/>
<path d="M0 0 C0 3 0 3 -2 5.375 C-4.21755407 8.28553971 -4.40586646 9.4486685 -4 13 C-4.639375 13.28875 -5.27875 13.5775 -5.9375 13.875 C-8.15206079 14.82823451 -8.15206079 14.82823451 -9 17 C-9.66 17 -10.32 17 -11 17 C-9.6736501 12.08813279 -7.6660829 8.98026854 -4.375 5.125 C-3.55773437 4.15820312 -2.74046875 3.19140625 -1.8984375 2.1953125 C-1.27195312 1.47085938 -0.64546875 0.74640625 0 0 Z " fill="#AA283F" transform="translate(272,80)"/>
<path d="M0 0 C0.75 1.6875 0.75 1.6875 1 4 C-0.28725907 5.70250393 -1.62131719 7.37064759 -3 9 C-3 9.99 -3 10.98 -3 12 C-6.4342662 12.85856655 -8.61682513 12.97591583 -12 12 C-11.46890625 11.63648438 -10.9378125 11.27296875 -10.390625 10.8984375 C-5.84855246 7.66594062 -2.76940714 4.8464625 0 0 Z " fill="#AD2539" transform="translate(458,146)"/>
<path d="M0 0 C4.7433685 1.28798035 7.60471892 3.03107099 11.1875 6.375 C12.02667969 7.14585938 12.86585938 7.91671875 13.73046875 8.7109375 C15.71388681 10.71142457 17.38638784 12.69784324 19 15 C18.01 15 17.02 15 16 15 C14.38671875 13.35546875 14.38671875 13.35546875 12.6875 11.1875 C9.7870426 7.70077993 7.29792505 5.67723904 3 4 C3 3.34 3 2.68 3 2 C2.01 2 1.02 2 0 2 C0 1.34 0 0.68 0 0 Z " fill="#A62D3D" transform="translate(336,71)"/>
<path d="M0 0 C2.25597827 2.25597827 2.96574192 4.04603867 4.125 7 C4.47820312 7.886875 4.83140625 8.77375 5.1953125 9.6875 C6 12 6 12 6 14 C5.34 14 4.68 14 4 14 C4 13.01 4 12.02 4 11 C1.03 10.505 1.03 10.505 -2 10 C-2 9.34 -2 8.68 -2 8 C-1.34 8 -0.68 8 0 8 C0 5.36 0 2.72 0 0 Z " fill="#AD243B" transform="translate(395,132)"/>
<path d="M0 0 C0.66 0.33 1.32 0.66 2 1 C-1.66666667 4.66666667 -5.33333333 8.33333333 -9 12 C-8.505 10.6078125 -8.505 10.6078125 -8 9.1875 C-6.85032996 6.07970709 -6.85032996 6.07970709 -7 3 C-4.69631264 1.93347808 -2.35981813 0.93578995 0 0 Z " fill="#AF2436" transform="translate(385,116)"/>
<path d="M0 0 C-0.66 0 -1.32 0 -2 0 C-2 0.66 -2 1.32 -2 2 C-3.11375 2.12375 -4.2275 2.2475 -5.375 2.375 C-9.03103677 2.6465813 -9.03103677 2.6465813 -11 5 C-13.32275177 5.40047444 -15.65739357 5.7397104 -18 6 C-16.44000409 2.88000818 -13.87220503 2.54883154 -10.6875 1.3125 C-9.53636719 0.85488281 -8.38523437 0.39726563 -7.19921875 -0.07421875 C-4.13717158 -0.96030566 -2.88822927 -1.176686 0 0 Z " fill="#A62345" transform="translate(301,67)"/>
<path d="M0 0 C0 3.92379055 -1.60406942 5.00508678 -4 8 C-4 8.99 -4 9.98 -4 11 C-5.98 11.99 -5.98 11.99 -8 13 C-8.77734375 11.296875 -8.77734375 11.296875 -9 9 C-7.12890625 6.640625 -7.12890625 6.640625 -4.5625 4.25 C-3.71816406 3.45078125 -2.87382812 2.6515625 -2.00390625 1.828125 C-1.34261719 1.22484375 -0.68132812 0.6215625 0 0 Z " fill="#B22539" transform="translate(346,128)"/>
<path d="M0 0 C1.98 0.66 3.96 1.32 6 2 C6 2.99 6 3.98 6 5 C7.32 5.33 8.64 5.66 10 6 C10.33 7.65 10.66 9.3 11 11 C6.86378916 7.6189962 3.18683431 4.33409466 0 0 Z " fill="#AF293C" transform="translate(267,159)"/>
<path d="M0 0 C0.680625 0.70125 1.36125 1.4025 2.0625 2.125 C5.20780513 5.27934337 8.5888386 8.13934304 12 11 C9 12 9 12 7 11.375 C4.4743191 9.63859438 3.49171162 7.64439787 2 5 C1.34 4.67 0.68 4.34 0 4 C0 2.68 0 1.36 0 0 Z " fill="#AA2B3C" transform="translate(402,147)"/>
<path d="M0 0 C4.52615993 3.67832017 8.39424999 7.41086363 12 12 C11.67 12.66 11.34 13.32 11 14 C10.4225 13.2575 9.845 12.515 9.25 11.75 C5.3688654 6.84723845 5.3688654 6.84723845 0 4 C0 2.68 0 1.36 0 0 Z " fill="#A7263C" transform="translate(464,77)"/>
<path d="M0 0 C-0.33 0.99 -0.66 1.98 -1 3 C-1.59538574 2.99476318 -2.19077148 2.98952637 -2.80419922 2.98413086 C-5.49445547 2.96338001 -8.18469489 2.95034593 -10.875 2.9375 C-11.81214844 2.92912109 -12.74929688 2.92074219 -13.71484375 2.91210938 C-14.61074219 2.90888672 -15.50664063 2.90566406 -16.4296875 2.90234375 C-17.25710449 2.89710693 -18.08452148 2.89187012 -18.93701172 2.88647461 C-21.06411757 2.86647862 -21.06411757 2.86647862 -23 4 C-22.67 3.01 -22.34 2.02 -22 1 C-18.89590179 0.83204189 -15.79171114 0.66585677 -12.6875 0.5 C-11.80642578 0.45230469 -10.92535156 0.40460938 -10.01757812 0.35546875 C-8.74624023 0.28779297 -8.74624023 0.28779297 -7.44921875 0.21875 C-6.66893311 0.17685547 -5.88864746 0.13496094 -5.0847168 0.09179688 C-3.39117604 0.01722476 -1.69518179 0 0 0 Z " fill="#E9E9E9" transform="translate(844,66)"/>
<path d="M0 0 C2.31 0 4.62 0 7 0 C7.33 0.99 7.66 1.98 8 3 C8.66 3 9.32 3 10 3 C10 2.34 10 1.68 10 1 C10.99 1 11.98 1 13 1 C12.34 2.65 11.68 4.3 11 6 C7.2089881 4.55049545 3.6125362 2.84827434 0 1 C0 0.67 0 0.34 0 0 Z " fill="#A3283B" transform="translate(258,43)"/>
<path d="M0 0 C0 1.98 0 3.96 0 6 C-1.65 6.66 -3.3 7.32 -5 8 C-5.66 7.34 -6.32 6.68 -7 6 C-6.02388578 4.99702025 -5.04402202 3.99768827 -4.0625 3 C-3.51722656 2.443125 -2.97195313 1.88625 -2.41015625 1.3125 C-1 0 -1 0 0 0 Z " fill="#B42339" transform="translate(391,115)"/>
<path d="M0 0 C0.33 1.32 0.66 2.64 1 4 C0.34 4 -0.32 4 -1 4 C-1.33 4.99 -1.66 5.98 -2 7 C-2.66 7 -3.32 7 -4 7 C-4.33 7.99 -4.66 8.98 -5 10 C-5.99 9.67 -6.98 9.34 -8 9 C-5.36 6.03 -2.72 3.06 0 0 Z " fill="#AD2536" transform="translate(355,118)"/>
<path d="M0 0 C1.78409802 3.06246747 2.22880021 5.22079273 2.125 8.75 C2.10695313 9.54921875 2.08890625 10.3484375 2.0703125 11.171875 C2.03550781 12.07679688 2.03550781 12.07679688 2 13 C-0.26568725 10.73431275 -0.55280451 9.56766015 -1.25 6.5 C-1.44078125 5.7059375 -1.6315625 4.911875 -1.828125 4.09375 C-1.88484375 3.4028125 -1.9415625 2.711875 -2 2 C-1.34 1.34 -0.68 0.68 0 0 Z " fill="#AC253E" transform="translate(375,130)"/>
<path d="M0 0 C0.78375 0.04125 1.5675 0.0825 2.375 0.125 C-2.25 6 -2.25 6 -5.625 7.125 C-4.53409091 0.21590909 -4.53409091 0.21590909 0 0 Z " fill="#B3283E" transform="translate(333.625,168.875)"/>
<path d="M0 0 C1.74271938 2.297221 3.39911152 4.59866729 5 7 C4.625 9.1875 4.625 9.1875 4 11 C1 9 1 9 0.48828125 6.8359375 C0.43027344 6.02382812 0.37226563 5.21171875 0.3125 4.375 C0.24675781 3.55773437 0.18101562 2.74046875 0.11328125 1.8984375 C0.07589844 1.27195313 0.03851563 0.64546875 0 0 Z " fill="#AF253A" transform="translate(280,140)"/>
<path d="M0 0 C1.70840281 1.63412443 2.93453047 2.86906094 4 5 C4.04022391 7.3329866 4.04320247 9.66706666 4 12 C1.07034088 9.07034088 0.05866431 6.319947 -0.125 2.1875 C-0.08375 1.465625 -0.0425 0.74375 0 0 Z " fill="#A52A3D" transform="translate(257,136)"/>
<path d="M0 0 C-2.31 2.31 -4.62 4.62 -7 7 C-8 4 -8 4 -7.25 1.875 C-5.12549708 -1.31175437 -3.46820912 -1.15606971 0 0 Z " fill="#AC293C" transform="translate(368,137)"/>
<path d="M0 0 C4.455 0.99 4.455 0.99 9 2 C9 5 9 5 7 8 C7 6.35 7 4.7 7 3 C5.68 3.33 4.36 3.66 3 4 C2.67 3.01 2.34 2.02 2 1 C1.34 0.67 0.68 0.34 0 0 Z " fill="#A7273B" transform="translate(470,146)"/>
<path d="M0 0 C0.66 0.99 1.32 1.98 2 3 C-0.31 4.98 -2.62 6.96 -5 9 C-4.5206753 4.68607774 -3.2542015 2.83430453 0 0 Z " fill="#B0283C" transform="translate(397,101)"/>
<path d="M0 0 C1.37251933 0.11271898 2.74374297 0.24222031 4.11328125 0.38671875 C4.81517578 0.44794922 5.51707031 0.50917969 6.24023438 0.57226562 C7.97007795 0.72524499 9.69816622 0.89784477 11.42578125 1.07421875 C11.42578125 1.40421875 11.42578125 1.73421875 11.42578125 2.07421875 C5.48578125 2.40421875 -0.45421875 2.73421875 -6.57421875 3.07421875 C-3.57421875 0.07421875 -3.57421875 0.07421875 0 0 Z " fill="#A5273A" transform="translate(306.57421875,81.92578125)"/>
<path d="M0 0 C-1.24663331 0.50833591 -2.49749387 1.00631145 -3.75 1.5 C-4.44609375 1.7784375 -5.1421875 2.056875 -5.859375 2.34375 C-8 3 -8 3 -12 3 C-11.67 2.01 -11.34 1.02 -11 0 C-3.375 -1.125 -3.375 -1.125 0 0 Z " fill="#AE283B" transform="translate(453,177)"/>
<path d="M0 0 C1.65 0 3.3 0 5 0 C2.03 3.96 2.03 3.96 -1 8 C-2 4 -2 4 -1.0625 1.75 C-0.711875 1.1725 -0.36125 0.595 0 0 Z " fill="#AD2B3E" transform="translate(346,153)"/>
<path d="M0 0 C5.28 0 10.56 0 16 0 C16.33 0.99 16.66 1.98 17 3 C16.01 2.67 15.02 2.34 14 2 C11.60745424 1.77439324 9.21071877 1.59151405 6.8125 1.4375 C5.54019531 1.35371094 4.26789063 1.26992187 2.95703125 1.18359375 C1.98121094 1.12300781 1.00539062 1.06242188 0 1 C0 0.67 0 0.34 0 0 Z " fill="#B32437" transform="translate(218,177)"/>
<path d="M0 0 C0.99 0.66 1.98 1.32 3 2 C3 2.99 3 3.98 3 5 C0.03 4.505 0.03 4.505 -3 4 C-2.67 3.01 -2.34 2.02 -2 1 C-1.34 0.67 -0.68 0.34 0 0 Z " fill="#BB243C" transform="translate(402,169)"/>
<path d="M0 0 C2.74277578 3.19990508 4.6302836 6.00499382 6 10 C4.68 9.34 3.36 8.68 2 8 C2 6.68 2 5.36 2 4 C1.34 4 0.68 4 0 4 C0 2.68 0 1.36 0 0 Z " fill="#AB2A3D" transform="translate(355,86)"/>
<path d="M0 0 C-0.33 0.99 -0.66 1.98 -1 3 C-1.66 3 -2.32 3 -3 3 C-3.33 4.32 -3.66 5.64 -4 7 C-4.99 7 -5.98 7 -7 7 C-3.86206897 0 -3.86206897 0 0 0 Z " fill="#AB2A3E" transform="translate(394,78)"/>
<path d="M0 0 C2.475 0.99 2.475 0.99 5 2 C4.01 2.495 4.01 2.495 3 3 C2.67 3.66 2.34 4.32 2 5 C1.67 4.67 1.34 4.34 1 4 C-0.66617115 3.95936168 -2.33388095 3.957279 -4 4 C-2.68 2.68 -1.36 1.36 0 0 Z " fill="#B22539" transform="translate(281,73)"/>
<path d="M0 0 C4.43090471 1.20842856 6.98112756 2.51668565 10 6 C8.68 6 7.36 6 6 6 C6 5.34 6 4.68 6 4 C4.68 4 3.36 4 2 4 C2 3.34 2 2.68 2 2 C1.34 2 0.68 2 0 2 C0 1.34 0 0.68 0 0 Z " fill="#AC263E" transform="translate(454,71)"/>
<path d="M0 0 C2.35953094 2.35953094 2.49141413 3.77895617 3 7 C1.68 7.33 0.36 7.66 -1 8 C-0.67 5.36 -0.34 2.72 0 0 Z " fill="#CD1B31" transform="translate(207,66)"/>
<path d="M0 0 C2.31 0 4.62 0 7 0 C7.33 0.66 7.66 1.32 8 2 C7.67 2.66 7.34 3.32 7 4 C4.97954558 3.39816251 2.97888961 2.72693904 1 2 C0.67 1.34 0.34 0.68 0 0 Z " fill="#AE2739" transform="translate(280,171)"/>
<path d="M0 0 C0.66 0.33 1.32 0.66 2 1 C1.67 1.99 1.34 2.98 1 4 C-2.3 4 -5.6 4 -9 4 C-6.00084818 2.50042409 -3.16379181 1.08234983 0 0 Z " fill="#A13446" transform="translate(533,156)"/>
<path d="M0 0 C1.32 0.33 2.64 0.66 4 1 C0.535 3.97 0.535 3.97 -3 7 C-3 5.68 -3 4.36 -3 3 C-2.01 3 -1.02 3 0 3 C0 2.01 0 1.02 0 0 Z " fill="#AE2639" transform="translate(371,129)"/>
<path d="M0 0 C0.70125 0.474375 1.4025 0.94875 2.125 1.4375 C5.16081337 3.08739857 7.59168786 3.60368464 11 4 C11 4.33 11 4.66 11 5 C8.03 5 5.06 5 2 5 C1.34 3.35 0.68 1.7 0 0 Z " fill="#A72839" transform="translate(513,156)"/>
<path d="M0 0 C0 3 0 3 -2 5.1875 C-2.66 5.785625 -3.32 6.38375 -4 7 C-4 6.01 -4 5.02 -4 4 C-4.66 3.67 -5.32 3.34 -6 3 C-5.195625 2.690625 -4.39125 2.38125 -3.5625 2.0625 C-1.10919595 1.23664655 -1.10919595 1.23664655 0 0 Z " fill="#AF2B40" transform="translate(473,159)"/>
<path d="M0 0 C1.32 0.33 2.64 0.66 4 1 C1.03 3.475 1.03 3.475 -2 6 C-2 4.68 -2 3.36 -2 2 C-1.34 2 -0.68 2 0 2 C0 1.34 0 0.68 0 0 Z " fill="#AD273D" transform="translate(356,144)"/>
<path d="M0 0 C0.66 1.32 1.32 2.64 2 4 C0.1875 5.0625 0.1875 5.0625 -2 6 C-2.99 5.67 -3.98 5.34 -5 5 C-3.35 3.35 -1.7 1.7 0 0 Z " fill="#B02739" transform="translate(383,122)"/>
<path d="M0 0 C4 1 4 1 4 1 Z " fill="#DFDFDF" transform="translate(187,54)"/>
<path d="M0 0 C2 1 2 1 2 1 Z " fill="#FFFFFF" transform="translate(189,65)"/>
</svg>
