<svg width="877" height="620" viewBox="0 0 877 620" fill="none" xmlns="http://www.w3.org/2000/svg">
<g style="mix-blend-mode:multiply" opacity="0.08">
<path d="M876.516 0V620H2.92612C1.71945 612.307 0.876153 604.55 0.396153 596.73C-5.38385 501.81 52.5662 401.21 142.726 375C165.526 368.35 189.416 366.4 212.596 361.52L213.346 361.43C306.776 351.09 298.926 309.92 296.346 281.98C296.095 277.455 295.52 272.953 294.626 268.51C294.626 268.36 294.576 268.22 294.546 268.07C294.541 268.047 294.541 268.023 294.546 268C289.616 234.15 280.726 173 327.476 129.43L329.236 127.83L329.576 127.52C332.334 125.095 335.221 122.821 338.226 120.71C353.346 110.18 370.746 104.71 392.086 102.61C394.366 102.4 396.696 102.21 399.086 102.07C401.476 101.93 404.086 101.8 406.576 101.72C407.436 101.72 408.296 101.7 409.156 101.66C412.063 101.593 415.039 101.593 418.086 101.66C422.266 101.7 426.599 101.817 431.086 102.01C436.479 102.237 442.093 102.57 447.926 103.01C453.716 103.43 459.706 103.94 465.926 104.52C473.646 105.25 481.726 106.1 490.176 107.02L497.526 107.84L498.526 107.95L500.086 108.12L506.016 108.79L514.796 109.79C534.966 112.12 557.086 114.79 581.466 117.4C588.926 118.213 596.593 119.02 604.466 119.82L606.796 120.06C609.116 120.29 611.446 120.53 613.796 120.75L621.796 121.54C636.05 122.873 650.996 124.187 666.636 125.48C694.886 127.72 719.216 126.05 740.156 121.48C741.266 121.24 742.356 120.99 743.446 120.73C755.736 117.894 767.672 113.701 779.036 108.23C779.124 108.174 779.218 108.127 779.316 108.09C780.156 107.68 780.986 107.26 781.816 106.83C832.326 80.92 867.406 34.62 876.516 0Z" fill="black"/>
<path d="M254.088 286.332C259.879 259.97 243.584 233.989 217.692 228.301C191.799 222.613 166.115 239.372 160.324 265.733C154.533 292.095 170.828 318.076 196.72 323.764C222.612 329.452 248.297 312.693 254.088 286.332Z" fill="black"/>
<path d="M756.756 58.2906C760.477 41.313 749.979 24.5887 733.309 20.9357C716.639 17.2828 700.109 28.0845 696.389 45.0621C692.668 62.0396 703.166 78.7639 719.836 82.4169C736.506 86.0698 753.036 75.2681 756.756 58.2906Z" fill="black"/>
<path d="M242.082 130.415C237.882 131.45 234.256 134.091 231.982 137.771C229.708 141.451 228.969 145.876 229.922 150.095C230.367 152.172 231.222 154.14 232.436 155.884C233.65 157.627 235.199 159.111 236.993 160.25C238.786 161.388 240.789 162.158 242.883 162.514C244.978 162.871 247.122 162.806 249.192 162.325C253.382 161.285 257 158.647 259.272 154.975C261.544 151.304 262.291 146.889 261.352 142.675C260.91 140.595 260.058 138.624 258.845 136.877C257.633 135.13 256.084 133.642 254.29 132.501C252.496 131.359 250.492 130.587 248.396 130.229C246.3 129.87 244.153 129.934 242.082 130.415Z" fill="black"/>
</g>
<path d="M876.516 0V620H9.8155C8.60883 612.307 7.76553 604.55 7.28553 596.73C1.51553 501.81 59.4555 401.21 149.615 375C172.415 368.35 196.305 366.4 219.485 361.52L220.235 361.43C313.665 351.09 305.815 309.92 303.235 281.98C302.986 277.445 302.411 272.933 301.516 268.48C301.516 268.33 301.465 268.19 301.435 268.04C301.43 268.017 301.43 267.993 301.435 267.97C296.505 234.12 287.615 172.97 334.365 129.4L336.125 127.8L336.466 127.49C339.223 125.065 342.111 122.791 345.115 120.68C360.235 110.15 377.636 104.68 398.976 102.58C401.256 102.37 403.586 102.18 405.976 102.04C408.366 101.9 410.976 101.77 413.466 101.69C414.326 101.69 415.186 101.67 416.046 101.63C418.959 101.563 421.936 101.563 424.976 101.63C429.156 101.67 433.489 101.787 437.976 101.98C443.362 102.207 448.975 102.54 454.815 102.98C460.605 103.4 466.596 103.91 472.816 104.49C480.536 105.22 488.616 106.07 497.066 106.99L504.416 107.81L505.416 107.92L506.975 108.09L512.906 108.76L521.686 109.76C541.856 112.09 563.975 114.76 588.355 117.37C595.815 118.183 603.482 118.99 611.355 119.79L613.686 120.03C616.006 120.26 618.336 120.5 620.686 120.72L628.686 121.51C642.939 122.843 657.885 124.157 673.526 125.45C701.776 127.69 726.106 126.02 747.046 121.45C748.156 121.21 749.245 120.96 750.335 120.7C762.625 117.864 774.562 113.671 785.926 108.2C786.014 108.143 786.107 108.097 786.205 108.06C787.045 107.65 787.875 107.23 788.705 106.8C839.215 80.92 867.406 34.62 876.516 0Z" fill="white"/>
<path d="M260.986 286.332C266.777 259.971 250.482 233.989 224.59 228.301C198.698 222.613 173.013 239.372 167.222 265.734C161.431 292.096 177.726 318.077 203.618 323.765C229.511 329.453 255.195 312.694 260.986 286.332Z" fill="white"/>
<path d="M763.651 58.2902C767.371 41.3127 756.873 24.5884 740.203 20.9354C723.533 17.2825 707.003 28.0842 703.283 45.0617C699.563 62.0393 710.061 78.7636 726.731 82.4165C743.401 86.0695 759.93 75.2678 763.651 58.2902Z" fill="white"/>
<path d="M245.091 126.415C240.89 127.448 237.261 130.088 234.985 133.768C232.709 137.448 231.968 141.874 232.921 146.095C233.367 148.171 234.221 150.138 235.434 151.881C236.648 153.623 238.196 155.107 239.988 156.246C241.781 157.384 243.782 158.154 245.876 158.511C247.969 158.868 250.113 158.805 252.181 158.325C256.377 157.291 260.001 154.656 262.278 150.983C264.554 147.31 265.302 142.892 264.361 138.675C263.919 136.595 263.067 134.624 261.855 132.877C260.642 131.13 259.093 129.642 257.299 128.501C255.505 127.359 253.501 126.587 251.405 126.229C249.309 125.87 247.163 125.934 245.091 126.415Z" fill="white"/>
<path d="M791.976 143.22H699.406V155.56H791.976V143.22Z" fill="#111111"/>
<path d="M791.976 130.74H699.406V143.09H791.976V130.74Z" fill="black"/>
<path d="M791.976 118.53H699.406V130.88H791.976V118.53Z" fill="#111111"/>
<path d="M791.976 106.05H699.406V118.39H791.976V106.05Z" fill="black"/>
<path d="M696.046 120.11H648.846V155.75H696.046V120.11Z" fill="#EDD1D7"/>
<path d="M696.046 139.88H648.846V155.75H696.046V139.88Z" fill="#F0DBA9"/>
<path d="M688.605 126.63H655.445V149.22H688.605V126.63Z" fill="#FDF8FA"/>
<path d="M621.347 69.46H599.227V155.59H621.347V69.46Z" fill="#28A494"/>
<path d="M615.426 75.71H605.156V88.36H615.426V75.71Z" fill="#30BFAC"/>
<path d="M615.426 103.81H605.156V149.35H615.426V103.81Z" fill="#30BFAC"/>
<path d="M645.716 69.46H623.586V155.59H645.716V69.46Z" fill="#28A494"/>
<path d="M639.776 75.71H629.506V88.36H639.776V75.71Z" fill="#30BFAC"/>
<path d="M639.776 103.81H629.506V149.35H639.776V103.81Z" fill="#30BFAC"/>
<path d="M774.885 180.45H732.605V212.37H774.885V180.45Z" fill="#EDD1D7"/>
<path d="M774.885 198.16H732.605V212.37H774.885V198.16Z" fill="#F0DBA9"/>
<path d="M768.206 186.3H738.516V206.53H768.206V186.3Z" fill="#FDF8FA"/>
<path d="M730.917 180.45H688.637V212.37H730.917V180.45Z" fill="#EDD1D7"/>
<path d="M730.917 198.16H688.637V212.37H730.917V198.16Z" fill="#F0DBA9"/>
<path d="M724.225 186.3H694.535V206.53H724.225V186.3Z" fill="#FDF8FA"/>
<path d="M657.516 198.57L654.516 195.88L647.346 196.66L640.176 195.88L637.176 198.57C636.562 199.082 636.066 199.721 635.72 200.442C635.375 201.163 635.19 201.951 635.176 202.75V215.34C635.176 215.957 635.285 216.57 635.496 217.15C635.802 217.876 636.322 218.492 636.986 218.915C637.651 219.338 638.428 219.549 639.216 219.52H655.476C656.264 219.549 657.043 219.337 657.709 218.914C658.375 218.491 658.897 217.876 659.206 217.15C659.417 216.57 659.525 215.957 659.526 215.34V202.75C659.51 201.95 659.322 201.162 658.976 200.441C658.629 199.72 658.131 199.082 657.516 198.57Z" fill="#FCEFDE"/>
<path d="M656.045 194.76H638.515C638.21 194.743 637.91 194.847 637.68 195.049C637.45 195.251 637.308 195.535 637.285 195.84V196.45C637.308 196.755 637.45 197.039 637.68 197.241C637.91 197.443 638.21 197.547 638.515 197.53H656.095C656.401 197.547 656.7 197.443 656.93 197.241C657.16 197.039 657.302 196.755 657.325 196.45V195.84C657.315 195.684 657.274 195.531 657.203 195.392C657.133 195.252 657.035 195.128 656.916 195.027C656.796 194.926 656.657 194.85 656.508 194.805C656.358 194.759 656.201 194.744 656.045 194.76Z" fill="#E77387"/>
<path d="M656.975 202.72H637.535V214.49H656.975V202.72Z" fill="#FBD684"/>
<path opacity="0.53" d="M654.637 212.43V204.79H639.877V212.43H654.637Z" fill="#D9F0FA"/>
<path d="M437.616 199.61H424.906C421.156 199.61 418.116 202.65 418.116 206.4V237.3C418.116 241.05 421.156 244.09 424.906 244.09H437.616C441.366 244.09 444.406 241.05 444.406 237.3V206.4C444.406 202.65 441.366 199.61 437.616 199.61Z" fill="#BACD8B"/>
<path d="M418.116 202V221.8C422.626 215.67 430.706 208.8 444.416 208.21V202C444.375 201.387 444.094 200.815 443.633 200.409C443.172 200.002 442.57 199.794 441.956 199.83H420.576C419.963 199.794 419.36 200.002 418.9 200.409C418.439 200.815 418.157 201.387 418.116 202Z" fill="#E0E196"/>
<path d="M444.416 233.85V208.2C430.706 208.75 422.626 215.66 418.116 221.79V242.13C418.117 242.392 418.171 242.65 418.276 242.89C432.136 243 440.176 238 444.416 233.85Z" fill="white"/>
<path d="M418.275 242.89C418.48 243.323 418.806 243.688 419.215 243.938C419.623 244.189 420.096 244.315 420.575 244.3H441.955C442.569 244.336 443.171 244.128 443.632 243.721C444.093 243.315 444.374 242.743 444.415 242.13V233.85C440.175 238 432.135 243 418.275 242.89Z" fill="#E0E196"/>
<path d="M439.687 225.4H422.847C422.593 225.4 422.387 225.606 422.387 225.86V226.51C422.387 226.764 422.593 226.97 422.847 226.97H439.687C439.941 226.97 440.147 226.764 440.147 226.51V225.86C440.147 225.606 439.941 225.4 439.687 225.4Z" fill="#E0E196"/>
<path d="M439.687 229.48H422.847C422.593 229.48 422.387 229.686 422.387 229.94V230.59C422.387 230.844 422.593 231.05 422.847 231.05H439.687C439.941 231.05 440.147 230.844 440.147 230.59V229.94C440.147 229.686 439.941 229.48 439.687 229.48Z" fill="#E0E196"/>
<path d="M435.087 233.55H427.447C427.334 233.532 427.218 233.538 427.108 233.569C426.998 233.6 426.896 233.655 426.809 233.729C426.722 233.803 426.652 233.895 426.604 233.999C426.556 234.103 426.531 234.216 426.531 234.33C426.531 234.444 426.556 234.557 426.604 234.661C426.652 234.765 426.722 234.857 426.809 234.931C426.896 235.005 426.998 235.06 427.108 235.091C427.218 235.122 427.334 235.128 427.447 235.11H435.087C435.199 235.128 435.315 235.122 435.425 235.091C435.535 235.06 435.637 235.005 435.724 234.931C435.811 234.857 435.881 234.765 435.929 234.661C435.977 234.557 436.002 234.444 436.002 234.33C436.002 234.216 435.977 234.103 435.929 233.999C435.881 233.895 435.811 233.803 435.724 233.729C435.637 233.655 435.535 233.6 435.425 233.569C435.315 233.538 435.199 233.532 435.087 233.55Z" fill="#E0E196"/>
<path d="M464.586 199.61H451.876C448.126 199.61 445.086 202.65 445.086 206.4V237.3C445.086 241.05 448.126 244.09 451.876 244.09H464.586C468.336 244.09 471.376 241.05 471.376 237.3V206.4C471.376 202.65 468.336 199.61 464.586 199.61Z" fill="#BACD8B"/>
<path d="M445.086 202V221.8C449.586 215.67 457.666 208.8 471.376 208.21V202C471.337 201.388 471.058 200.816 470.599 200.409C470.14 200.003 469.538 199.794 468.926 199.83H447.516C446.908 199.802 446.313 200.014 445.859 200.42C445.404 200.825 445.127 201.393 445.086 202Z" fill="#E0E196"/>
<path d="M471.376 233.85V208.2C457.666 208.75 449.586 215.66 445.086 221.79V242.13C445.087 242.392 445.141 242.65 445.246 242.89C459.106 243 467.146 238 471.376 233.85Z" fill="white"/>
<path d="M445.246 242.89C445.45 243.323 445.777 243.688 446.186 243.938C446.594 244.189 447.067 244.315 447.546 244.3H468.926C469.538 244.336 470.14 244.127 470.599 243.721C471.058 243.314 471.337 242.742 471.376 242.13V233.85C467.146 238 459.106 243 445.246 242.89Z" fill="#E0E196"/>
<path d="M466.656 225.4H449.816C449.562 225.4 449.355 225.606 449.355 225.86V226.51C449.355 226.764 449.562 226.97 449.816 226.97H466.656C466.91 226.97 467.115 226.764 467.115 226.51V225.86C467.115 225.606 466.91 225.4 466.656 225.4Z" fill="#E0E196"/>
<path d="M466.656 229.48H449.816C449.562 229.48 449.355 229.686 449.355 229.94V230.59C449.355 230.844 449.562 231.05 449.816 231.05H466.656C466.91 231.05 467.115 230.844 467.115 230.59V229.94C467.115 229.686 466.91 229.48 466.656 229.48Z" fill="#E0E196"/>
<path d="M462.055 233.55H454.415C454.302 233.532 454.187 233.538 454.077 233.569C453.967 233.6 453.865 233.655 453.778 233.729C453.691 233.803 453.621 233.895 453.573 233.999C453.525 234.103 453.5 234.216 453.5 234.33C453.5 234.444 453.525 234.557 453.573 234.661C453.621 234.765 453.691 234.857 453.778 234.931C453.865 235.005 453.967 235.06 454.077 235.091C454.187 235.122 454.302 235.128 454.415 235.11H462.055C462.168 235.128 462.284 235.122 462.394 235.091C462.504 235.06 462.606 235.005 462.693 234.931C462.78 234.857 462.85 234.765 462.898 234.661C462.946 234.557 462.971 234.444 462.971 234.33C462.971 234.216 462.946 234.103 462.898 233.999C462.85 233.895 462.78 233.803 462.693 233.729C462.606 233.655 462.504 233.6 462.394 233.569C462.284 233.538 462.168 233.532 462.055 233.55Z" fill="#E0E196"/>
<path d="M491.557 199.61H478.847C475.097 199.61 472.057 202.65 472.057 206.4V237.3C472.057 241.05 475.097 244.09 478.847 244.09H491.557C495.307 244.09 498.347 241.05 498.347 237.3V206.4C498.347 202.65 495.307 199.61 491.557 199.61Z" fill="#BACD8B"/>
<path d="M472.057 202V221.8C476.557 215.67 484.637 208.8 498.347 208.21V202C498.305 201.387 498.024 200.815 497.563 200.409C497.103 200.002 496.5 199.794 495.887 199.83H474.517C473.903 199.794 473.301 200.002 472.84 200.409C472.379 200.815 472.098 201.387 472.057 202Z" fill="#E0E196"/>
<path d="M498.347 233.85V208.2C484.637 208.75 476.557 215.66 472.057 221.79V242.13C472.057 242.392 472.112 242.65 472.217 242.89C486.077 243 494.117 238 498.347 233.85Z" fill="white"/>
<path d="M472.217 242.89C472.421 243.323 472.748 243.688 473.156 243.938C473.565 244.189 474.038 244.315 474.517 244.3H495.887C496.5 244.336 497.103 244.128 497.563 243.721C498.024 243.315 498.306 242.743 498.347 242.13V233.85C494.117 238 486.077 243 472.217 242.89Z" fill="#E0E196"/>
<path d="M493.626 225.4H476.786C476.532 225.4 476.326 225.606 476.326 225.86V226.51C476.326 226.764 476.532 226.97 476.786 226.97H493.626C493.88 226.97 494.086 226.764 494.086 226.51V225.86C494.086 225.606 493.88 225.4 493.626 225.4Z" fill="#E0E196"/>
<path d="M493.626 229.48H476.786C476.532 229.48 476.326 229.686 476.326 229.94V230.59C476.326 230.844 476.532 231.05 476.786 231.05H493.626C493.88 231.05 494.086 230.844 494.086 230.59V229.94C494.086 229.686 493.88 229.48 493.626 229.48Z" fill="#E0E196"/>
<path d="M489.016 233.55H481.386C481.273 233.532 481.158 233.538 481.047 233.569C480.937 233.6 480.835 233.655 480.748 233.729C480.661 233.803 480.591 233.895 480.543 233.999C480.496 234.103 480.471 234.216 480.471 234.33C480.471 234.444 480.496 234.557 480.543 234.661C480.591 234.765 480.661 234.857 480.748 234.931C480.835 235.005 480.937 235.06 481.047 235.091C481.158 235.122 481.273 235.128 481.386 235.11H489.016C489.129 235.128 489.244 235.122 489.354 235.091C489.465 235.06 489.567 235.005 489.654 234.931C489.741 234.857 489.811 234.765 489.859 234.661C489.906 234.557 489.931 234.444 489.931 234.33C489.931 234.216 489.906 234.103 489.859 233.999C489.811 233.895 489.741 233.803 489.654 233.729C489.567 233.655 489.465 233.6 489.354 233.569C489.244 233.538 489.129 233.532 489.016 233.55Z" fill="#E0E196"/>
<path d="M414.456 213.24L409.976 209.24L399.426 210.39L388.866 209.24L384.386 213.24C383.496 214.003 382.779 214.947 382.284 216.01C381.789 217.072 381.527 218.228 381.516 219.4V237.94C381.516 238.847 381.675 239.748 381.986 240.6C382.44 241.669 383.208 242.575 384.188 243.198C385.169 243.821 386.315 244.132 387.476 244.09H411.416C412.575 244.133 413.72 243.822 414.699 243.199C415.678 242.575 416.444 241.669 416.896 240.6C417.21 239.748 417.372 238.848 417.376 237.94V219.4C417.359 218.224 417.09 217.065 416.586 216.002C416.082 214.939 415.356 213.997 414.456 213.24Z" fill="#E1EDF1"/>
<path d="M412.367 207.63H386.517C386.068 207.605 385.628 207.758 385.291 208.056C384.954 208.353 384.748 208.772 384.717 209.22V210.12C384.748 210.568 384.954 210.987 385.291 211.284C385.628 211.582 386.068 211.735 386.517 211.71H412.407C412.857 211.737 413.3 211.586 413.639 211.288C413.978 210.99 414.186 210.57 414.217 210.12V209.22C414.202 208.993 414.142 208.772 414.04 208.569C413.938 208.366 413.797 208.185 413.625 208.037C413.453 207.889 413.253 207.777 413.037 207.707C412.821 207.637 412.593 207.611 412.367 207.63Z" fill="#8E9ED0"/>
<path d="M413.735 219.36H385.105V236.7H413.735V219.36Z" fill="#8E9ED0"/>
<path opacity="0.53" d="M410.297 233.66V222.4H388.567V233.66H410.297Z" fill="#B3E2F5"/>
<path d="M618.146 209.27L613.096 204.81L601.176 206.11L589.266 204.81L584.206 209.27C583.199 210.13 582.388 211.194 581.826 212.393C581.263 213.591 580.964 214.896 580.946 216.22V237.15C580.947 238.173 581.126 239.189 581.476 240.15C581.988 241.358 582.856 242.382 583.963 243.085C585.07 243.789 586.365 244.139 587.676 244.09H614.676C615.986 244.137 617.278 243.786 618.384 243.082C619.489 242.379 620.355 241.356 620.866 240.15C621.224 239.19 621.407 238.174 621.406 237.15V216.22C621.388 214.896 621.088 213.592 620.526 212.393C619.964 211.195 619.152 210.13 618.146 209.27Z" fill="#FCEFDE"/>
<path d="M615.786 202.94H586.576C586.074 202.921 585.584 203.098 585.211 203.434C584.837 203.77 584.61 204.239 584.576 204.74V205.74C584.61 206.241 584.837 206.71 585.211 207.046C585.584 207.382 586.074 207.559 586.576 207.54H615.786C616.288 207.559 616.778 207.382 617.151 207.046C617.525 206.71 617.753 206.241 617.786 205.74V204.74C617.753 204.239 617.525 203.77 617.151 203.434C616.778 203.098 616.288 202.921 615.786 202.94Z" fill="#F7C083"/>
<path d="M617.335 216.18H585.025V235.75H617.335V216.18Z" fill="#FBD684"/>
<path opacity="0.53" d="M613.446 232.31V219.61H588.916V232.31H613.446Z" fill="#D9F0FA"/>
<path d="M644.826 223.33L641.826 220.64L634.656 221.42L627.486 220.64L624.486 223.33C623.872 223.842 623.375 224.48 623.03 225.202C622.685 225.923 622.5 226.71 622.486 227.51V240.1C622.485 240.715 622.597 241.325 622.816 241.9C623.122 242.627 623.642 243.244 624.306 243.669C624.97 244.094 625.748 244.307 626.536 244.28H642.796C643.586 244.306 644.365 244.093 645.03 243.668C645.696 243.244 646.218 242.627 646.526 241.9C646.738 241.324 646.847 240.714 646.846 240.1V227.51C646.831 226.709 646.642 225.921 646.293 225.199C645.945 224.478 645.444 223.84 644.826 223.33Z" fill="#FCEFDE"/>
<path d="M643.406 219.52H625.826C625.674 219.511 625.523 219.531 625.38 219.58C625.237 219.629 625.105 219.706 624.991 219.807C624.878 219.907 624.785 220.029 624.719 220.165C624.653 220.301 624.614 220.449 624.605 220.6V221.2C624.624 221.506 624.762 221.792 624.991 221.997C625.219 222.201 625.519 222.306 625.826 222.29H643.406C643.712 222.306 644.012 222.201 644.24 221.997C644.469 221.792 644.607 221.506 644.625 221.2V220.6C644.617 220.449 644.578 220.301 644.512 220.165C644.446 220.029 644.353 219.907 644.24 219.807C644.126 219.706 643.994 219.629 643.851 219.58C643.708 219.531 643.557 219.511 643.406 219.52Z" fill="#E77387"/>
<path d="M644.336 227.48H624.896V239.25H644.336V227.48Z" fill="#FBD684"/>
<path opacity="0.53" d="M641.996 237.19V229.55H627.236V237.19H641.996Z" fill="#D9F0FA"/>
<path d="M670.106 223.33L667.106 220.64L659.936 221.42L652.766 220.64L649.766 223.33C649.151 223.842 648.655 224.48 648.309 225.202C647.964 225.923 647.779 226.71 647.766 227.51V240.1C647.769 240.715 647.88 241.324 648.096 241.9C648.402 242.626 648.922 243.242 649.586 243.667C650.25 244.092 651.028 244.306 651.816 244.28H668.076C668.865 244.306 669.644 244.093 670.31 243.668C670.976 243.244 671.497 242.627 671.806 241.9C672.018 241.324 672.126 240.714 672.126 240.1V227.51C672.11 226.709 671.921 225.921 671.573 225.199C671.224 224.478 670.724 223.84 670.106 223.33Z" fill="#FCEFDE"/>
<path d="M668.687 219.52H651.107C650.802 219.504 650.503 219.608 650.275 219.81C650.047 220.012 649.907 220.296 649.887 220.6V221.2C649.905 221.506 650.043 221.792 650.272 221.997C650.5 222.201 650.801 222.306 651.107 222.29H668.687C668.994 222.306 669.295 222.201 669.525 221.997C669.755 221.793 669.896 221.507 669.917 221.2V220.6C669.896 220.294 669.755 220.008 669.525 219.806C669.294 219.604 668.993 219.501 668.687 219.52Z" fill="#E77387"/>
<path d="M669.616 227.48H650.176V239.25H669.616V227.48Z" fill="#FBD684"/>
<path opacity="0.53" d="M667.275 237.19V229.55H652.515V237.19H667.275Z" fill="#D9F0FA"/>
<path d="M351.887 195.65V217.59C351.92 218.089 352.149 218.554 352.523 218.886C352.898 219.217 353.388 219.387 353.887 219.36H368.087C368.586 219.387 369.076 219.217 369.45 218.886C369.825 218.554 370.053 218.089 370.087 217.59V195.65H351.887Z" fill="#89D5F1"/>
<path d="M355.015 195.65V215.65C354.982 216.039 355.1 216.425 355.347 216.728C355.593 217.03 355.948 217.225 356.335 217.27H365.655C366.041 217.222 366.393 217.027 366.638 216.725C366.882 216.422 366.999 216.037 366.965 215.65V195.65H355.015Z" fill="#4CC0E5"/>
<path d="M370.566 194.63H351.416C351.284 194.621 351.151 194.637 351.025 194.68C350.9 194.722 350.784 194.789 350.684 194.876C350.584 194.964 350.503 195.07 350.445 195.189C350.387 195.308 350.353 195.438 350.346 195.57V196.23C350.345 196.367 350.373 196.503 350.428 196.63C350.482 196.756 350.563 196.869 350.663 196.963C350.763 197.057 350.882 197.129 351.011 197.175C351.141 197.221 351.279 197.24 351.416 197.23H370.566C370.703 197.24 370.84 197.221 370.97 197.175C371.099 197.129 371.218 197.057 371.318 196.963C371.419 196.869 371.499 196.756 371.553 196.63C371.608 196.503 371.636 196.367 371.636 196.23V195.57C371.628 195.438 371.594 195.308 371.536 195.189C371.478 195.07 371.397 194.964 371.297 194.876C371.198 194.789 371.082 194.722 370.956 194.68C370.831 194.637 370.698 194.621 370.566 194.63Z" fill="#DCE2F2"/>
<path opacity="0.63" d="M367.786 206.36H354.196V212.73H367.786V206.36Z" fill="#DCE2F2"/>
<path d="M340.896 220.38V242.32C340.93 242.819 341.159 243.284 341.533 243.616C341.907 243.947 342.397 244.117 342.896 244.09H357.096C357.596 244.117 358.086 243.947 358.46 243.616C358.834 243.284 359.063 242.819 359.096 242.32V220.38H340.896Z" fill="#89D5F1"/>
<path d="M344.026 220.38V240.44C343.992 240.828 344.112 241.213 344.358 241.514C344.605 241.815 344.959 242.007 345.346 242.05H354.666C355.051 242.005 355.403 241.811 355.648 241.511C355.892 241.21 356.01 240.826 355.976 240.44V220.38H344.026Z" fill="#4CC0E5"/>
<path d="M359.575 219.36H340.425C340.293 219.35 340.161 219.367 340.035 219.41C339.909 219.452 339.793 219.519 339.694 219.606C339.594 219.694 339.513 219.8 339.455 219.919C339.397 220.038 339.363 220.168 339.355 220.3V221C339.363 221.132 339.397 221.262 339.455 221.381C339.513 221.5 339.594 221.606 339.694 221.694C339.793 221.781 339.909 221.848 340.035 221.89C340.161 221.933 340.293 221.949 340.425 221.94H359.575C359.708 221.949 359.84 221.933 359.966 221.89C360.092 221.848 360.208 221.781 360.307 221.694C360.407 221.606 360.488 221.5 360.546 221.381C360.604 221.262 360.638 221.132 360.645 221V220.33C360.642 220.195 360.611 220.062 360.554 219.94C360.498 219.817 360.417 219.707 360.317 219.617C360.217 219.526 360.1 219.457 359.973 219.412C359.845 219.368 359.71 219.35 359.575 219.36Z" fill="#DCE2F2"/>
<path opacity="0.63" d="M356.796 231.09H343.206V237.46H356.796V231.09Z" fill="#DCE2F2"/>
<path d="M362.297 220.38V242.32C362.33 242.819 362.559 243.284 362.933 243.616C363.308 243.947 363.798 244.117 364.297 244.09H378.517C379.016 244.117 379.506 243.947 379.88 243.616C380.255 243.284 380.483 242.819 380.517 242.32V220.38H362.297Z" fill="#89D5F1"/>
<path d="M365.426 220.38V240.44C365.392 240.828 365.511 241.213 365.758 241.514C366.004 241.815 366.359 242.007 366.746 242.05H376.066C376.45 242.005 376.802 241.811 377.047 241.511C377.292 241.21 377.409 240.826 377.376 240.44V220.38H365.426Z" fill="#4CC0E5"/>
<path d="M380.976 219.36H361.826C361.694 219.35 361.561 219.367 361.435 219.41C361.31 219.452 361.194 219.519 361.094 219.606C360.995 219.694 360.913 219.8 360.855 219.919C360.797 220.038 360.763 220.168 360.756 220.3V221C360.763 221.132 360.797 221.262 360.855 221.381C360.913 221.5 360.995 221.606 361.094 221.694C361.194 221.781 361.31 221.848 361.435 221.89C361.561 221.933 361.694 221.949 361.826 221.94H380.976C381.108 221.949 381.241 221.933 381.366 221.89C381.492 221.848 381.608 221.781 381.708 221.694C381.807 221.606 381.888 221.5 381.946 221.381C382.004 221.262 382.038 221.132 382.046 221V220.33C382.042 220.195 382.011 220.062 381.955 219.94C381.898 219.817 381.818 219.707 381.718 219.617C381.618 219.526 381.501 219.457 381.373 219.412C381.246 219.368 381.11 219.35 380.976 219.36Z" fill="#DCE2F2"/>
<path opacity="0.63" d="M378.196 231.09H364.605V237.46H378.196V231.09Z" fill="#DCE2F2"/>
<path d="M522.516 213.11H504.516C503.649 213.063 502.799 213.359 502.148 213.933C501.497 214.507 501.098 215.314 501.036 216.18V241.18C501.098 242.046 501.497 242.853 502.148 243.427C502.799 244.001 503.649 244.297 504.516 244.25H522.516C523.383 244.299 524.235 244.005 524.887 243.43C525.538 242.855 525.937 242.047 525.996 241.18V216.18C525.937 215.313 525.538 214.505 524.887 213.93C524.235 213.355 523.383 213.061 522.516 213.11Z" fill="#FAC7C4"/>
<path d="M523.336 209H503.586C503.282 208.958 502.972 208.982 502.678 209.07C502.384 209.158 502.112 209.308 501.88 209.51C501.649 209.711 501.464 209.96 501.336 210.24C501.209 210.519 501.144 210.823 501.144 211.13C501.144 211.437 501.209 211.741 501.336 212.02C501.464 212.3 501.649 212.549 501.88 212.75C502.112 212.952 502.384 213.102 502.678 213.19C502.972 213.278 503.282 213.302 503.586 213.26H523.336C523.64 213.302 523.95 213.278 524.244 213.19C524.538 213.102 524.81 212.952 525.042 212.75C525.273 212.549 525.459 212.3 525.586 212.02C525.713 211.741 525.779 211.437 525.779 211.13C525.779 210.823 525.713 210.519 525.586 210.24C525.459 209.96 525.273 209.711 525.042 209.51C524.81 209.308 524.538 209.158 524.244 209.07C523.95 208.982 523.64 208.958 523.336 209Z" fill="#EB8580"/>
<path d="M520.076 215.59H506.716C506.271 215.563 505.833 215.712 505.497 216.006C505.162 216.3 504.957 216.715 504.926 217.16V240.34C504.957 240.785 505.162 241.2 505.497 241.494C505.833 241.788 506.271 241.937 506.716 241.91H520.076C520.521 241.937 520.959 241.788 521.294 241.494C521.629 241.2 521.835 240.785 521.866 240.34V217.16C521.835 216.715 521.629 216.3 521.294 216.006C520.959 215.712 520.521 215.563 520.076 215.59Z" fill="#EB8580"/>
<path d="M523.196 222.27H503.586V234.45H523.196V222.27Z" fill="white"/>
<path d="M549.216 213.11H531.216C530.35 213.063 529.499 213.359 528.848 213.933C528.197 214.507 527.798 215.314 527.736 216.18V241.18C527.798 242.046 528.197 242.853 528.848 243.427C529.499 244.001 530.35 244.297 531.216 244.25H549.216C550.084 244.299 550.936 244.005 551.587 243.43C552.239 242.855 552.637 242.047 552.696 241.18V216.18C552.637 215.313 552.239 214.505 551.587 213.93C550.936 213.355 550.084 213.061 549.216 213.11Z" fill="#FAC7C4"/>
<path d="M550.075 209H530.325C530.021 208.958 529.712 208.982 529.417 209.07C529.123 209.158 528.851 209.308 528.62 209.51C528.388 209.711 528.203 209.96 528.076 210.24C527.949 210.519 527.883 210.823 527.883 211.13C527.883 211.437 527.949 211.741 528.076 212.02C528.203 212.3 528.388 212.549 528.62 212.75C528.851 212.952 529.123 213.102 529.417 213.19C529.712 213.278 530.021 213.302 530.325 213.26H550.075C550.38 213.302 550.689 213.278 550.983 213.19C551.278 213.102 551.55 212.952 551.781 212.75C552.012 212.549 552.198 212.3 552.325 212.02C552.452 211.741 552.518 211.437 552.518 211.13C552.518 210.823 552.452 210.519 552.325 210.24C552.198 209.96 552.012 209.711 551.781 209.51C551.55 209.308 551.278 209.158 550.983 209.07C550.689 208.982 550.38 208.958 550.075 209Z" fill="#EB8580"/>
<path d="M546.816 215.59H533.456C533.011 215.563 532.573 215.712 532.238 216.006C531.902 216.3 531.697 216.715 531.666 217.16V240.34C531.697 240.785 531.902 241.2 532.238 241.494C532.573 241.788 533.011 241.937 533.456 241.91H546.816C547.261 241.937 547.699 241.788 548.034 241.494C548.37 241.2 548.575 240.785 548.606 240.34V217.16C548.575 216.715 548.37 216.3 548.034 216.006C547.699 215.712 547.261 215.563 546.816 215.59Z" fill="#EB8580"/>
<path d="M549.936 222.27H530.326V234.45H549.936V222.27Z" fill="white"/>
<path d="M575.957 213.11H557.957C557.09 213.063 556.239 213.359 555.589 213.933C554.938 214.507 554.538 215.314 554.477 216.18V241.18C554.538 242.046 554.938 242.853 555.589 243.427C556.239 244.001 557.09 244.297 557.957 244.25H575.957C576.825 244.299 577.678 244.005 578.331 243.431C578.984 242.856 579.385 242.048 579.447 241.18V216.18C579.385 215.312 578.984 214.504 578.331 213.929C577.678 213.355 576.825 213.06 575.957 213.11Z" fill="#FAC7C4"/>
<path d="M576.816 209H557.066C556.761 208.958 556.452 208.982 556.158 209.07C555.863 209.158 555.591 209.308 555.36 209.51C555.129 209.711 554.943 209.96 554.816 210.24C554.689 210.519 554.623 210.823 554.623 211.13C554.623 211.437 554.689 211.741 554.816 212.02C554.943 212.3 555.129 212.549 555.36 212.75C555.591 212.952 555.863 213.102 556.158 213.19C556.452 213.278 556.761 213.302 557.066 213.26H576.816C577.12 213.302 577.429 213.278 577.724 213.19C578.018 213.102 578.29 212.952 578.521 212.75C578.753 212.549 578.938 212.3 579.065 212.02C579.192 211.741 579.258 211.437 579.258 211.13C579.258 210.823 579.192 210.519 579.065 210.24C578.938 209.96 578.753 209.711 578.521 209.51C578.29 209.308 578.018 209.158 577.724 209.07C577.429 208.982 577.12 208.958 576.816 209Z" fill="#EB8580"/>
<path d="M573.516 215.59H560.156C559.711 215.563 559.273 215.712 558.938 216.006C558.603 216.3 558.397 216.715 558.366 217.16V240.34C558.397 240.785 558.603 241.2 558.938 241.494C559.273 241.788 559.711 241.937 560.156 241.91H573.516C573.961 241.937 574.399 241.788 574.735 241.494C575.07 241.2 575.275 240.785 575.306 240.34V217.16C575.275 216.715 575.07 216.3 574.735 216.006C574.399 215.712 573.961 215.563 573.516 215.59Z" fill="#EB8580"/>
<path d="M576.686 222.27H557.076V234.45H576.686V222.27Z" fill="white"/>
<path d="M805.566 243.59H329.886C328.815 243.59 327.946 244.459 327.946 245.53V248.28C327.946 249.351 328.815 250.22 329.886 250.22H805.566C806.638 250.22 807.506 249.351 807.506 248.28V245.53C807.506 244.459 806.638 243.59 805.566 243.59Z" fill="#30BFAC"/>
<path d="M492.316 284.9H462.286V307.58H492.316V284.9Z" fill="#EDD1D7"/>
<path d="M492.316 297.48H462.286V307.58H492.316V297.48Z" fill="#F0DBA9"/>
<path d="M487.577 289.05H466.477V303.42H487.577V289.05Z" fill="#FDF8FA"/>
<path d="M461.077 284.9H431.047V307.58H461.077V284.9Z" fill="#EDD1D7"/>
<path d="M461.077 297.48H431.047V307.58H461.077V297.48Z" fill="#F0DBA9"/>
<path d="M456.326 289.05H435.236V303.42H456.326V289.05Z" fill="#FDF8FA"/>
<path d="M467.166 307.29H423.336V329.97H467.166V307.29Z" fill="#EDD1D7"/>
<path d="M467.166 319.87H423.336V329.97H467.166V319.87Z" fill="#F0DBA9"/>
<path d="M463.176 311.44H427.316V325.81H463.176V311.44Z" fill="#FDF8FA"/>
<path d="M498.566 307.29H468.536V329.97H498.566V307.29Z" fill="#EDD1D7"/>
<path d="M498.566 319.87H468.536V329.97H498.566V319.87Z" fill="#F0DBA9"/>
<path d="M493.826 311.44H472.736V325.81H493.826V311.44Z" fill="#FDF8FA"/>
<path d="M363.806 298.94H345.806C344.939 298.891 344.087 299.185 343.435 299.76C342.784 300.335 342.385 301.143 342.326 302.01V327.06C342.385 327.927 342.784 328.735 343.435 329.31C344.087 329.885 344.939 330.179 345.806 330.13H363.806C364.673 330.177 365.523 329.881 366.174 329.307C366.825 328.733 367.225 327.926 367.286 327.06V302C367.222 301.136 366.822 300.332 366.171 299.759C365.52 299.187 364.671 298.893 363.806 298.94Z" fill="#E2AED0"/>
<path d="M364.666 294.81H344.916C344.616 294.774 344.312 294.803 344.023 294.893C343.735 294.983 343.469 295.134 343.242 295.335C343.016 295.536 342.835 295.782 342.711 296.058C342.587 296.334 342.523 296.633 342.523 296.935C342.523 297.237 342.587 297.536 342.711 297.812C342.835 298.088 343.016 298.334 343.242 298.535C343.469 298.736 343.735 298.886 344.023 298.977C344.312 299.067 344.616 299.096 344.916 299.06H364.666C364.967 299.096 365.271 299.067 365.56 298.977C365.848 298.886 366.114 298.736 366.34 298.535C366.566 298.334 366.747 298.088 366.871 297.812C366.995 297.536 367.059 297.237 367.059 296.935C367.059 296.633 366.995 296.334 366.871 296.058C366.747 295.782 366.566 295.536 366.34 295.335C366.114 295.134 365.848 294.983 365.56 294.893C365.271 294.803 364.967 294.774 364.666 294.81Z" fill="#BF75AF"/>
<path d="M361.406 301.41H348.036C347.591 301.385 347.154 301.538 346.821 301.833C346.487 302.129 346.284 302.545 346.256 302.99V326.17C346.284 326.614 346.487 327.029 346.821 327.323C347.155 327.617 347.592 327.767 348.036 327.74H361.406C361.85 327.767 362.287 327.617 362.621 327.323C362.954 327.029 363.158 326.614 363.186 326.17V303C363.16 302.553 362.958 302.135 362.625 301.837C362.291 301.539 361.853 301.385 361.406 301.41Z" fill="#DC6293"/>
<path d="M364.526 308.1H344.916V320.28H364.526V308.1Z" fill="white"/>
<path d="M390.516 298.94H372.516C371.649 298.891 370.797 299.185 370.145 299.76C369.494 300.335 369.095 301.143 369.036 302.01V327.06C369.095 327.927 369.494 328.735 370.145 329.31C370.797 329.885 371.649 330.179 372.516 330.13H390.516C391.383 330.177 392.233 329.881 392.884 329.307C393.535 328.733 393.934 327.926 393.996 327.06V302C393.932 301.136 393.532 300.332 392.881 299.759C392.23 299.187 391.381 298.893 390.516 298.94Z" fill="#E2AED0"/>
<path d="M391.407 294.81H371.657C371.356 294.774 371.052 294.803 370.763 294.893C370.475 294.983 370.209 295.134 369.983 295.335C369.757 295.536 369.576 295.782 369.452 296.058C369.328 296.334 369.264 296.633 369.264 296.935C369.264 297.237 369.328 297.536 369.452 297.812C369.576 298.088 369.757 298.334 369.983 298.535C370.209 298.736 370.475 298.886 370.763 298.977C371.052 299.067 371.356 299.096 371.657 299.06H391.407C391.707 299.096 392.011 299.067 392.3 298.977C392.588 298.886 392.854 298.736 393.081 298.535C393.307 298.334 393.488 298.088 393.612 297.812C393.735 297.536 393.8 297.237 393.8 296.935C393.8 296.633 393.735 296.334 393.612 296.058C393.488 295.782 393.307 295.536 393.081 295.335C392.854 295.134 392.588 294.983 392.3 294.893C392.011 294.803 391.707 294.774 391.407 294.81Z" fill="#BF75AF"/>
<path d="M388.146 301.41H374.776C374.331 301.385 373.894 301.538 373.561 301.833C373.227 302.129 373.024 302.545 372.996 302.99V326.17C373.024 326.614 373.228 327.029 373.561 327.323C373.895 327.617 374.332 327.767 374.776 327.74H388.146C388.59 327.767 389.027 327.617 389.361 327.323C389.694 327.029 389.898 326.614 389.926 326.17V303C389.9 302.553 389.698 302.135 389.365 301.837C389.031 301.539 388.593 301.385 388.146 301.41Z" fill="#DC6293"/>
<path d="M391.266 308.1H371.656V320.28H391.266V308.1Z" fill="white"/>
<path d="M756.406 298.94H738.406C737.539 298.893 736.689 299.189 736.038 299.763C735.387 300.337 734.987 301.144 734.926 302.01V327.06C734.987 327.926 735.387 328.733 736.038 329.307C736.689 329.881 737.539 330.177 738.406 330.13H756.406C757.273 330.177 758.123 329.881 758.774 329.307C759.425 328.733 759.824 327.926 759.886 327.06V302C759.822 301.136 759.421 300.332 758.771 299.759C758.12 299.187 757.271 298.893 756.406 298.94Z" fill="#FAC7C4"/>
<path d="M757.256 294.81H737.516C737.216 294.774 736.911 294.803 736.623 294.893C736.334 294.983 736.068 295.134 735.842 295.335C735.616 295.536 735.435 295.782 735.311 296.058C735.187 296.334 735.123 296.633 735.123 296.935C735.123 297.237 735.187 297.536 735.311 297.812C735.435 298.088 735.616 298.334 735.842 298.535C736.068 298.736 736.334 298.886 736.623 298.977C736.911 299.067 737.216 299.096 737.516 299.06H757.256C757.556 299.096 757.861 299.067 758.149 298.977C758.438 298.886 758.704 298.736 758.93 298.535C759.156 298.334 759.337 298.088 759.461 297.812C759.585 297.536 759.649 297.237 759.649 296.935C759.649 296.633 759.585 296.334 759.461 296.058C759.337 295.782 759.156 295.536 758.93 295.335C758.704 295.134 758.438 294.983 758.149 294.893C757.861 294.803 757.556 294.774 757.256 294.81Z" fill="#EB8580"/>
<path d="M753.996 301.41H740.636C740.19 301.385 739.752 301.537 739.417 301.833C739.082 302.129 738.877 302.544 738.846 302.99V326.17C738.877 326.615 739.082 327.03 739.417 327.324C739.753 327.618 740.191 327.767 740.636 327.74H753.996C754.441 327.767 754.879 327.618 755.214 327.324C755.549 327.03 755.755 326.615 755.786 326.17V303C755.757 302.552 755.553 302.134 755.218 301.836C754.883 301.539 754.443 301.385 753.996 301.41Z" fill="#EB8580"/>
<path d="M757.126 308.1H737.516V320.28H757.126V308.1Z" fill="white"/>
<path d="M783.146 298.94H765.146C764.279 298.893 763.429 299.189 762.778 299.763C762.127 300.337 761.728 301.144 761.666 302.01V327.06C761.728 327.926 762.127 328.733 762.778 329.307C763.429 329.881 764.279 330.177 765.146 330.13H783.146C784.013 330.177 784.863 329.881 785.514 329.307C786.165 328.733 786.564 327.926 786.626 327.06V302C786.562 301.136 786.161 300.332 785.511 299.759C784.86 299.187 784.011 298.893 783.146 298.94Z" fill="#FAC7C4"/>
<path d="M784.006 294.81H764.256C763.956 294.774 763.652 294.803 763.363 294.893C763.075 294.983 762.808 295.134 762.582 295.335C762.356 295.536 762.175 295.782 762.051 296.058C761.927 296.334 761.863 296.633 761.863 296.935C761.863 297.237 761.927 297.536 762.051 297.812C762.175 298.088 762.356 298.334 762.582 298.535C762.808 298.736 763.075 298.886 763.363 298.977C763.652 299.067 763.956 299.096 764.256 299.06H784.006C784.306 299.096 784.611 299.067 784.899 298.977C785.188 298.886 785.454 298.736 785.68 298.535C785.906 298.334 786.087 298.088 786.211 297.812C786.335 297.536 786.399 297.237 786.399 296.935C786.399 296.633 786.335 296.334 786.211 296.058C786.087 295.782 785.906 295.536 785.68 295.335C785.454 295.134 785.188 294.983 784.899 294.893C784.611 294.803 784.306 294.774 784.006 294.81Z" fill="#EB8580"/>
<path d="M780.736 301.41H767.376C766.93 301.385 766.492 301.537 766.157 301.833C765.822 302.129 765.617 302.544 765.586 302.99V326.17C765.617 326.615 765.822 327.03 766.158 327.324C766.493 327.618 766.931 327.767 767.376 327.74H780.736C781.181 327.767 781.619 327.618 781.954 327.324C782.29 327.03 782.495 326.615 782.526 326.17V303C782.498 302.552 782.294 302.134 781.958 301.836C781.623 301.539 781.184 301.385 780.736 301.41Z" fill="#EB8580"/>
<path d="M783.866 308.1H764.256V320.28H783.866V308.1Z" fill="white"/>
<path d="M417.287 298.94H399.287C398.419 298.891 397.567 299.185 396.916 299.76C396.264 300.335 395.866 301.143 395.807 302.01V327.06C395.866 327.927 396.264 328.735 396.916 329.31C397.567 329.885 398.419 330.179 399.287 330.13H417.287C418.153 330.177 419.004 329.881 419.655 329.307C420.306 328.733 420.705 327.926 420.767 327.06V302C420.702 301.136 420.302 300.332 419.651 299.759C419.001 299.187 418.152 298.893 417.287 298.94Z" fill="#E2AED0"/>
<path d="M418.147 294.81H398.397C398.097 294.774 397.792 294.803 397.504 294.893C397.215 294.983 396.949 295.134 396.723 295.335C396.497 295.536 396.316 295.782 396.192 296.058C396.068 296.334 396.004 296.633 396.004 296.935C396.004 297.237 396.068 297.536 396.192 297.812C396.316 298.088 396.497 298.334 396.723 298.535C396.949 298.736 397.215 298.886 397.504 298.977C397.792 299.067 398.097 299.096 398.397 299.06H418.147C418.447 299.096 418.752 299.067 419.04 298.977C419.329 298.886 419.595 298.736 419.821 298.535C420.047 298.334 420.228 298.088 420.352 297.812C420.476 297.536 420.54 297.237 420.54 296.935C420.54 296.633 420.476 296.334 420.352 296.058C420.228 295.782 420.047 295.536 419.821 295.335C419.595 295.134 419.329 294.983 419.04 294.893C418.752 294.803 418.447 294.774 418.147 294.81Z" fill="#BF75AF"/>
<path d="M414.886 301.41H401.516C401.071 301.385 400.634 301.538 400.301 301.833C399.968 302.129 399.765 302.545 399.736 302.99V326.17C399.765 326.614 399.968 327.029 400.302 327.323C400.635 327.617 401.072 327.767 401.516 327.74H414.886C415.33 327.767 415.767 327.617 416.101 327.323C416.435 327.029 416.638 326.614 416.666 326.17V303C416.641 302.553 416.439 302.135 416.105 301.837C415.771 301.539 415.333 301.385 414.886 301.41Z" fill="#DC6293"/>
<path d="M418.006 308.1H398.396V320.28H418.006V308.1Z" fill="white"/>
<path d="M534.986 299.6L530.506 295.6L519.946 296.75L509.396 295.6L504.916 299.6C504.02 300.36 503.298 301.303 502.798 302.366C502.298 303.428 502.031 304.586 502.016 305.76V324.3C502.021 325.223 502.19 326.137 502.516 327C502.966 328.071 503.731 328.979 504.71 329.604C505.689 330.23 506.835 330.542 507.996 330.5H531.936C533.098 330.543 534.245 330.231 535.226 329.605C536.207 328.98 536.974 328.072 537.426 327C537.737 326.148 537.896 325.247 537.896 324.34V305.76C537.878 304.585 537.609 303.428 537.107 302.365C536.605 301.303 535.882 300.36 534.986 299.6Z" fill="#E1EDF1"/>
<path d="M532.896 294H507.006C506.557 293.973 506.115 294.125 505.777 294.423C505.44 294.721 505.234 295.141 505.206 295.59V296.48C505.234 296.93 505.439 297.351 505.777 297.651C506.114 297.95 506.556 298.105 507.006 298.08H532.896C533.347 298.105 533.788 297.95 534.126 297.651C534.463 297.351 534.668 296.93 534.696 296.48V295.59C534.665 295.142 534.459 294.723 534.122 294.426C533.785 294.128 533.345 293.975 532.896 294Z" fill="#8E9ED0"/>
<path d="M534.267 305.73H505.637V323.07H534.267V305.73Z" fill="#8E9ED0"/>
<path opacity="0.53" d="M530.816 320.02V308.76H509.086V320.02H530.816Z" fill="#B3E2F5"/>
<path d="M575.166 299.6L570.676 295.6L560.126 296.75L549.566 295.6L545.086 299.6C544.194 300.362 543.474 301.305 542.976 302.368C542.477 303.43 542.212 304.587 542.196 305.76V324.3C542.196 325.207 542.355 326.108 542.666 326.96C543.118 328.032 543.885 328.94 544.866 329.565C545.846 330.191 546.994 330.503 548.156 330.46H572.096C573.258 330.501 574.405 330.189 575.385 329.564C576.366 328.939 577.133 328.031 577.586 326.96C577.897 326.108 578.056 325.207 578.056 324.3V305.76C578.041 304.587 577.775 303.43 577.277 302.368C576.778 301.305 576.059 300.362 575.166 299.6Z" fill="#E1EDF1"/>
<path d="M573.066 294H547.186C546.736 293.973 546.293 294.124 545.953 294.422C545.614 294.72 545.407 295.14 545.376 295.59V296.48C545.407 296.931 545.614 297.352 545.953 297.651C546.291 297.951 546.735 298.105 547.186 298.08H573.066C573.517 298.105 573.96 297.951 574.299 297.651C574.638 297.352 574.845 296.931 574.876 296.48V295.59C574.845 295.14 574.638 294.72 574.299 294.422C573.96 294.124 573.516 293.973 573.066 294Z" fill="#8E9ED0"/>
<path d="M574.437 305.73H545.807V323.07H574.437V305.73Z" fill="#8E9ED0"/>
<path opacity="0.53" d="M570.986 320.03V308.77H549.256V320.03H570.986Z" fill="#B3E2F5"/>
<path d="M615.336 299.6L610.856 295.6L600.296 296.75L589.746 295.6L585.266 299.6C584.373 300.362 583.654 301.305 583.156 302.368C582.657 303.43 582.391 304.587 582.376 305.76V324.3C582.376 325.207 582.535 326.108 582.846 326.96C583.297 328.032 584.064 328.942 585.044 329.567C586.025 330.193 587.174 330.504 588.336 330.46H612.266C613.428 330.504 614.577 330.193 615.557 329.567C616.538 328.942 617.305 328.032 617.756 326.96C618.067 326.108 618.226 325.207 618.226 324.3V305.76C618.211 304.587 617.945 303.43 617.447 302.368C616.948 301.305 616.228 300.362 615.336 299.6Z" fill="#E1EDF1"/>
<path d="M613.247 294H587.357C586.907 293.973 586.465 294.125 586.128 294.423C585.79 294.721 585.585 295.141 585.557 295.59V296.48C585.585 296.93 585.79 297.351 586.127 297.651C586.464 297.95 586.906 298.105 587.357 298.08H613.247C613.697 298.105 614.139 297.95 614.476 297.651C614.813 297.351 615.018 296.93 615.047 296.48V295.59C615.016 295.142 614.81 294.723 614.473 294.426C614.136 294.128 613.695 293.975 613.247 294Z" fill="#8E9ED0"/>
<path d="M614.616 305.73H585.986V323.07H614.616V305.73Z" fill="#8E9ED0"/>
<path opacity="0.53" d="M611.166 320.03V308.77H589.436V320.03H611.166Z" fill="#B3E2F5"/>
<path d="M623.605 290V326.4C623.662 327.23 624.043 328.003 624.667 328.554C625.29 329.104 626.105 329.387 626.936 329.34H650.516C651.347 329.389 652.165 329.108 652.791 328.558C653.416 328.007 653.799 327.231 653.855 326.4V290H623.605Z" fill="#EEA4C8"/>
<path d="M628.805 290V323.3C628.746 323.945 628.943 324.587 629.352 325.088C629.762 325.589 630.352 325.909 630.995 325.98H646.515C647.157 325.907 647.744 325.585 648.152 325.085C648.559 324.584 648.754 323.943 648.695 323.3V290H628.805Z" fill="#E179AF"/>
<path d="M654.627 288.28H622.827C622.385 288.253 621.951 288.401 621.619 288.694C621.287 288.986 621.085 289.399 621.057 289.84V291C621.085 291.441 621.287 291.854 621.619 292.146C621.951 292.439 622.385 292.587 622.827 292.56H654.627C655.068 292.587 655.502 292.439 655.834 292.146C656.166 291.854 656.368 291.441 656.397 291V289.89C656.389 289.667 656.337 289.448 656.243 289.246C656.15 289.043 656.016 288.862 655.851 288.712C655.686 288.561 655.493 288.446 655.283 288.372C655.072 288.298 654.849 288.267 654.627 288.28Z" fill="#F7CADE"/>
<path opacity="0.63" d="M650.015 307.75H627.445V318.33H650.015V307.75Z" fill="#DCE2F2"/>
<path d="M662.326 290V326.4C662.383 327.23 662.764 328.003 663.387 328.554C664.011 329.104 664.826 329.387 665.656 329.34H689.236C690.066 329.387 690.882 329.104 691.505 328.554C692.128 328.003 692.51 327.23 692.566 326.4V290H662.326Z" fill="#EEA4C8"/>
<path d="M667.516 290V323.3C667.457 323.945 667.654 324.587 668.063 325.088C668.473 325.589 669.063 325.909 669.706 325.98H685.166C685.81 325.909 686.399 325.589 686.809 325.088C687.219 324.587 687.415 323.945 687.356 323.3V290H667.516Z" fill="#E179AF"/>
<path d="M693.346 288.28H661.516C661.075 288.253 660.64 288.401 660.308 288.694C659.977 288.986 659.774 289.399 659.746 289.84V291C659.774 291.441 659.977 291.854 660.308 292.146C660.64 292.439 661.075 292.587 661.516 292.56H693.316C693.758 292.587 694.192 292.439 694.524 292.146C694.856 291.854 695.058 291.441 695.086 291V289.89C695.078 289.67 695.027 289.453 694.935 289.253C694.844 289.053 694.713 288.872 694.551 288.723C694.39 288.573 694.2 288.457 693.993 288.381C693.786 288.305 693.566 288.271 693.346 288.28Z" fill="#F7CADE"/>
<path opacity="0.63" d="M688.736 307.75H666.166V318.33H688.736V307.75Z" fill="#DCE2F2"/>
<path d="M701.035 290V326.4C701.092 327.23 701.473 328.003 702.096 328.554C702.72 329.104 703.535 329.387 704.365 329.34H727.945C728.777 329.389 729.595 329.108 730.22 328.558C730.846 328.007 731.229 327.231 731.285 326.4V290H701.035Z" fill="#EEA4C8"/>
<path d="M706.237 290V323.3C706.178 323.945 706.374 324.587 706.784 325.088C707.193 325.589 707.783 325.909 708.427 325.98H723.897C724.539 325.907 725.128 325.586 725.537 325.085C725.946 324.585 726.143 323.944 726.087 323.3V290H706.237Z" fill="#E179AF"/>
<path d="M732.056 288.28H700.266C699.824 288.252 699.388 288.401 699.055 288.693C698.722 288.986 698.517 289.398 698.486 289.84V291C698.517 291.442 698.722 291.854 699.055 292.147C699.388 292.439 699.824 292.587 700.266 292.56H732.056C732.499 292.587 732.934 292.439 733.268 292.147C733.601 291.854 733.805 291.442 733.836 291V289.89C733.827 289.667 733.774 289.447 733.679 289.245C733.585 289.042 733.45 288.861 733.285 288.711C733.119 288.561 732.925 288.446 732.714 288.372C732.503 288.298 732.28 288.266 732.056 288.28Z" fill="#F7CADE"/>
<path opacity="0.63" d="M727.445 307.75H704.875V318.33H727.445V307.75Z" fill="#DCE2F2"/>
<path d="M805.566 329.78H329.886C328.815 329.78 327.946 330.649 327.946 331.72V334.47C327.946 335.541 328.815 336.41 329.886 336.41H805.566C806.638 336.41 807.506 335.541 807.506 334.47V331.72C807.506 330.649 806.638 329.78 805.566 329.78Z" fill="#30BFAC"/>
<path d="M739.465 211.97H677.775V243.89H739.465V211.97Z" fill="#EDD1D7"/>
<path d="M739.465 229.67H677.775V243.88H739.465V229.67Z" fill="#F0DBA9"/>
<path d="M733.867 217.81H683.387V238.04H733.867V217.81Z" fill="#FDF8FA"/>
<path d="M783.686 211.97H741.406V243.89H783.686V211.97Z" fill="#EDD1D7"/>
<path d="M783.686 229.67H741.406V243.88H783.686V229.67Z" fill="#F0DBA9"/>
<path d="M777.006 217.81H747.316V238.04H777.006V217.81Z" fill="#FDF8FA"/>
<path d="M805.566 154.86H329.886C328.815 154.86 327.946 155.729 327.946 156.8V159.55C327.946 160.621 328.815 161.49 329.886 161.49H805.566C806.638 161.49 807.506 160.621 807.506 159.55V156.8C807.506 155.729 806.638 154.86 805.566 154.86Z" fill="#30BFAC"/>
<path opacity="0.12" d="M601.406 351.87H595.516C594.499 351.638 593.46 351.517 592.416 351.51H585.416C592.826 311.36 586.416 271.29 577.126 256.56C558.126 226.3 502.006 211.25 502.006 211.25L503.776 199.05C511.412 194.713 517.587 188.204 521.516 180.35C523.503 175.953 525.064 171.375 526.176 166.68C529.589 166.992 532.989 165.954 535.646 163.79C540.856 159.15 539.526 150.54 533.796 146.71C539.206 139.14 540.626 129.42 540.416 120.29C540.266 113.62 539.296 106.66 535.046 101.14C533.268 98.8988 531.017 97.0786 528.453 95.8096C525.889 94.5406 523.076 93.8544 520.216 93.8C518.954 90.411 516.994 87.3247 514.463 84.7408C511.933 82.157 508.888 80.133 505.526 78.8C501.369 77.2581 496.934 76.6064 492.508 76.8872C488.083 77.168 483.765 78.3749 479.836 80.43C474.224 83.1924 467.952 84.3352 461.726 83.73C453.976 83.15 445.566 85.73 440.126 90.52C432.126 97.52 429.296 108.22 430.576 118.11C431.576 125.93 433.136 138.51 436.576 147.69C433.636 149.69 431.576 152.74 431.576 156.08C431.576 162.35 438.866 167.44 445.756 167.08C446.855 171.648 448.385 176.101 450.326 180.38C454.936 190.04 462.696 196.24 469.796 200.13L471.026 211.28L418.806 229.52C403.716 234.79 392.656 246.41 389.416 260.44C382.586 289.94 373.566 340.44 385.106 363.44C389.596 372.44 398.786 378.44 409.856 382.44L409.136 386.09L404.296 407.76L411.516 409C411.516 409.62 411.516 410.24 411.516 410.86V413.4C411.516 414.03 411.516 414.65 411.516 415.28C411.516 416.57 411.516 417.86 411.516 419.14V425.14C411.516 426.38 411.516 427.62 411.516 428.85V444.08C411.516 445.29 411.516 446.5 411.516 447.69V449.49C411.516 450.16 411.516 450.82 411.516 451.49V455.14C411.516 455.61 411.516 456.08 411.516 456.55V458.24C411.516 458.99 411.516 459.73 411.516 460.46V462C411.516 463.06 411.516 464.12 411.516 465.16C411.516 465.69 411.516 466.21 411.516 466.73C411.516 467.42 411.516 468.1 411.516 468.73V470C411.516 471 411.516 471.94 411.516 472.89C411.516 473.52 411.516 474.13 411.516 474.75V475.82C411.516 477.11 411.516 478.37 411.516 479.6C411.516 479.81 411.516 480.02 411.516 480.22C411.516 480.76 411.516 481.28 411.516 481.8V483.27C411.516 483.76 411.516 484.27 411.516 484.73C411.516 485.54 411.516 486.33 411.516 487.11C411.516 487.44 411.516 487.77 411.516 488.11C411.516 488.71 411.516 489.3 411.516 489.87C411.516 490.75 411.516 491.59 411.516 492.41V492.73C411.516 493.27 411.516 493.8 411.516 494.32V494.84C411.516 496.27 411.516 497.62 411.516 498.84C411.516 500.06 411.516 501.46 411.516 502.58C411.516 502.8 411.516 502.99 411.516 503.2V503.47C411.516 504.12 411.516 504.71 411.516 505.26C411.516 505.44 411.516 505.62 411.516 505.8C411.516 506.23 411.516 506.63 411.516 506.99C411.516 507.71 411.516 508.27 411.516 508.69C411.516 508.84 411.516 508.97 411.516 509.08V509.5C455.406 497.19 485.826 444.42 485.826 444.42C485.826 444.42 488.236 448.6 492.676 454.87C494.676 457.66 497.016 460.87 499.756 464.3C502.496 467.73 505.606 471.4 509.046 475.12C521.956 489.07 539.576 503.73 560.146 509.5C560.146 509.5 560.266 496.87 560.366 477.5V476.76C560.366 475.76 560.366 474.76 560.366 473.69V473.37C560.366 470.88 560.366 468.28 560.366 465.6V465.55C560.366 462.87 560.366 460.11 560.366 457.27V457.05C560.366 455.76 560.366 454.45 560.366 453.13V452.13C560.366 450.94 560.366 449.73 560.366 448.51V448.05C560.366 446.61 560.366 445.15 560.366 443.67V429.17C560.366 428.02 560.366 426.87 560.366 425.71C560.39 426.051 560.457 426.387 560.566 426.71C560.911 427.459 561.468 428.091 562.168 428.527C562.869 428.962 563.682 429.182 564.506 429.16H601.016C602.072 429.215 603.107 428.849 603.894 428.142C604.682 427.436 605.157 426.446 605.216 425.39V355.64C605.16 354.652 604.74 353.719 604.036 353.022C603.332 352.326 602.395 351.915 601.406 351.87Z" fill="black"/>
<path opacity="0.12" d="M584.807 351.87H578.967C577.949 351.638 576.91 351.517 575.867 351.51H568.867C576.277 311.36 569.867 271.29 560.567 256.56C541.567 226.3 485.457 211.25 485.457 211.25L487.227 199.05C494.833 194.699 500.976 188.187 504.877 180.34C506.868 175.945 508.429 171.367 509.537 166.67C512.95 166.983 516.35 165.945 519.007 163.78C524.227 159.14 522.887 150.53 517.157 146.7C522.567 139.13 523.987 129.41 523.787 120.28C523.627 113.61 522.657 106.65 518.407 101.13C516.63 98.8896 514.381 97.0697 511.818 95.8007C509.256 94.5318 506.445 93.8451 503.587 93.79C502.321 90.4025 500.361 87.3176 497.83 84.7341C495.3 82.1506 492.257 80.1257 488.897 78.79C480.737 75.54 470.897 76.4 463.197 80.42C457.585 83.1829 451.313 84.3257 445.087 83.72C437.347 83.14 428.927 85.72 423.497 90.51C415.497 97.51 412.657 108.21 413.937 118.1C414.937 125.92 416.507 138.5 419.937 147.68C416.997 149.68 414.937 152.73 414.937 156.07C414.937 162.34 422.227 167.43 429.117 167.07C430.22 171.637 431.75 176.09 433.687 180.37C438.307 190.03 446.057 196.23 453.157 200.12L454.397 211.27L402.177 229.51C387.087 234.78 376.017 246.4 372.777 260.43C365.957 289.93 356.937 340.43 368.477 363.43C372.967 372.43 382.157 378.43 393.217 382.43L392.507 386.08L387.667 407.75L394.937 409.02V410.88C394.937 411.73 394.937 412.57 394.937 413.42V415.3C394.937 416.59 394.937 417.88 394.937 419.16V420.5C394.937 421.5 394.937 422.5 394.937 423.56V434.72C394.937 435.85 394.937 436.98 394.937 438.09V447.68C394.937 448.29 394.937 448.88 394.937 449.48V451.48C394.937 452.71 394.937 453.93 394.937 455.13V458.23C394.937 458.98 394.937 459.72 394.937 460.45V462C394.937 463.06 394.937 464.12 394.937 465.16V466.73C394.937 467.42 394.937 468.1 394.937 468.73V470C394.937 471 394.937 471.94 394.937 472.89V474.75C394.937 475.11 394.937 475.46 394.937 475.82C394.937 477.11 394.937 478.37 394.937 479.6V480.22C394.937 480.76 394.937 481.28 394.937 481.8C394.937 482.32 394.937 482.8 394.937 483.27V484.73C394.937 485.54 394.937 486.33 394.937 487.11V488.11C394.937 488.71 394.937 489.3 394.937 489.87C394.937 490.75 394.937 491.59 394.937 492.41V492.73C394.937 493.27 394.937 493.8 394.937 494.32C394.937 494.5 394.937 494.67 394.937 494.84C394.937 496.27 394.937 497.62 394.937 498.84C394.937 500.06 394.937 501.46 394.937 502.58C394.937 502.8 394.937 502.99 394.937 503.2V503.47C394.937 504.12 394.937 504.71 394.937 505.26V505.8C394.937 506.23 394.937 506.63 394.937 506.99C394.937 507.71 394.937 508.27 394.937 508.69V509.5C438.827 497.19 469.257 444.42 469.257 444.42C469.257 444.42 471.667 448.6 476.097 454.87C478.097 457.66 480.447 460.87 483.187 464.3C485.927 467.73 489.027 471.4 492.477 475.12C505.387 489.07 522.997 503.73 543.567 509.5C543.567 509.5 543.697 496.87 543.787 477.5V476.76C543.787 475.76 543.787 474.76 543.787 473.69V473.37C543.787 470.88 543.787 468.28 543.787 465.6V465.55C543.787 462.883 543.787 460.123 543.787 457.27V453.13C543.787 452.81 543.787 452.48 543.787 452.13V448.05C543.787 446.61 543.787 445.15 543.787 443.67V429.17C543.787 428.02 543.787 426.87 543.787 425.71C543.809 426.052 543.88 426.388 543.997 426.71C544.341 427.458 544.896 428.088 545.595 428.524C546.293 428.959 547.104 429.181 547.927 429.16H584.437C585.493 429.215 586.528 428.849 587.315 428.142C588.102 427.436 588.577 426.446 588.637 425.39V355.64C588.58 354.648 588.157 353.713 587.449 353.016C586.741 352.319 585.799 351.911 584.807 351.87Z" fill="black"/>
<path d="M476.586 335.13V445.48C476.586 445.48 507.016 498.25 550.896 510.56C550.896 510.56 552.896 306.56 546.896 281.91C540.896 257.26 491.716 212.3 491.716 212.3L476.586 335.13Z" fill="white"/>
<path d="M476.585 335.13V445.48C476.585 445.48 446.155 498.25 402.265 510.56C402.265 510.56 400.265 306.56 406.265 281.91C412.265 257.26 461.465 212.3 461.465 212.3L476.585 335.13Z" fill="white"/>
<path d="M461.456 212.3L476.296 337.14L492.406 212.95L461.456 212.3Z" fill="#30DFC8"/>
<path d="M476.335 181.43L457.025 172.34L461.455 212.3L476.335 221.45L492.405 212.95L498.305 172.34L476.335 181.43Z" fill="#ECB782"/>
<path d="M439.437 108.31L429.307 111.93C429.307 111.93 430.577 160.11 440.747 181.4C446.747 194 458.117 200.71 466.387 204.09C472.766 206.67 479.898 206.67 486.277 204.09C494.547 200.71 505.907 194 511.917 181.4C522.087 160.11 523.357 111.93 523.357 111.93L513.227 108.31C489.357 99.8499 463.306 99.8499 439.437 108.31Z" fill="#F4C794"/>
<path d="M441.596 140.62C443.676 134.36 438.756 127.06 441.466 120.84C445.756 111 457.036 118.52 463.966 121.04C470.296 123.34 476.746 125.8 483.596 126.04C496.166 126.46 508.436 118.23 511.326 107.43C514.216 96.63 507.406 84.43 495.936 79.86C491.779 78.3181 487.343 77.6664 482.918 77.9472C478.493 78.228 474.175 79.4349 470.246 81.49C464.632 84.2568 458.356 85.3998 452.126 84.79C444.386 84.21 435.966 86.79 430.536 91.58C422.536 98.58 419.696 109.28 420.976 119.17C422.256 129.06 424.396 146.59 430.086 155.17C426.636 147.39 438.936 148.64 441.596 140.62Z" fill="black"/>
<path d="M439.806 146.8C432.086 143.8 421.966 149.7 421.996 157.13C422.026 164.56 432.206 170.35 439.896 167.33C447.586 164.31 449.506 153.76 443.266 148.77L439.806 146.8Z" fill="#F4C794"/>
<path d="M518.516 137.64C518.516 142.64 518.246 147.7 519.976 152.44C528.886 144.54 531.057 132.49 530.807 121.34C530.657 114.68 529.677 107.71 525.427 102.2C521.177 96.69 512.817 93.14 505.807 95.66C496.427 99.02 495.066 110.54 503.486 115.22C507.486 117.42 511.486 118.03 514.486 121.65C518.236 126.18 518.516 132.25 518.516 137.64Z" fill="black"/>
<path d="M521.576 146.46C513.706 143.81 503.896 150.07 504.316 157.46L505.176 161.01C508.256 167.92 520.116 170.08 526.056 164.81C531.996 159.54 529.436 149.12 521.576 146.46Z" fill="#F4C794"/>
<path d="M492.517 115.77C495.504 114.286 498.153 112.201 500.297 109.646C502.441 107.091 504.034 104.12 504.977 100.92C507.287 107.85 503.327 115.85 496.267 119.49C492.815 121.198 488.984 121.996 485.137 121.81C482.577 121.72 476.477 121.24 475.547 118.81C481.517 119.12 487.247 118.49 492.517 115.77Z" fill="#0D0C0F"/>
<path d="M485.716 231.22L476.586 221.45L467.456 231.22L472.566 235.6L468.706 273.53L476.586 335.13L484.456 273.53L480.616 235.6L485.716 231.22Z" fill="#28A494"/>
<path d="M476.586 221.45L464.136 235.12L461.456 212.3L476.586 221.45Z" fill="#30BFAC"/>
<path d="M476.586 221.45L489.516 235.22L492.516 212.3L476.586 221.45Z" fill="#30BFAC"/>
<path d="M412.187 493.07C412.187 493.07 403.457 422.51 402.537 353.83C401.397 421.39 402.267 510.56 402.267 510.56C446.157 498.25 476.587 445.48 476.587 445.48V445.35C458.747 463 443.777 485 412.187 493.07Z" fill="#DEE6E7"/>
<path d="M540.986 493.07C540.986 493.07 549.716 422.51 550.636 353.83C551.776 421.39 550.896 510.56 550.896 510.56C507.016 498.25 476.586 445.48 476.586 445.48V445.35C494.426 463 509.396 485 540.986 493.07Z" fill="#DEE6E7"/>
<path d="M421.397 289.37L394.727 408.82L491.667 425.64L518.337 306.2L421.397 289.37Z" fill="#28A494"/>
<path d="M475.826 360.5C473.455 359.687 470.962 359.291 468.456 359.33C466.884 358.434 465.151 357.857 463.356 357.63C460.047 357.337 456.723 357.996 453.776 359.53C452.062 360.402 450.432 361.429 448.906 362.6L441.516 364L437.346 385.14C437.028 385.432 436.73 385.746 436.456 386.08L400.606 381.97L399.006 390C399.006 390 436.216 401.12 451.676 395.84L453.216 390.39C463.636 391.02 475.376 390.89 478.216 389.25C480.646 387.85 481.216 386.25 481.216 385.03C481.99 384.399 482.716 383.71 483.386 382.97C488.176 377.69 484.586 375.58 484.586 375.58C484.586 375.58 490.496 377.14 490.496 370.8C490.516 366.39 483.236 363.09 475.826 360.5Z" fill="#30BFAC"/>
<path d="M463.826 353.39C460.52 353.103 457.201 353.762 454.256 355.29C451.517 356.754 448.945 358.511 446.586 360.53C454.886 359.89 463.526 359.03 471.456 356.81C469.285 354.975 466.64 353.79 463.826 353.39Z" fill="#F4C794"/>
<path d="M466.686 354.65C463.376 354.357 460.052 355.016 457.106 356.55C454.367 358.014 451.795 359.771 449.436 361.79C457.736 361.15 466.376 360.29 474.306 358.07C472.141 356.232 469.498 355.046 466.686 354.65Z" fill="#E9B179"/>
<path d="M476.306 356.27C472.771 355.053 468.983 354.768 465.306 355.44L442.016 359.72L437.846 380.86C436.276 382.32 435.776 383.48 437.226 384.01C443.226 386.19 473.876 387.81 478.766 385.01C481.196 383.61 481.766 382.01 481.766 380.79C482.538 380.179 483.264 379.51 483.936 378.79C488.726 373.51 485.136 371.4 485.136 371.4C485.136 371.4 491.046 372.95 491.046 366.62C490.996 362.15 483.716 358.85 476.306 356.27Z" fill="#F4C794"/>
<path d="M456.005 348.85C442.475 347.43 425.245 345.42 418.205 343.72C405.855 340.72 423.815 279.37 423.815 279.37C423.815 279.37 463.155 243.24 461.455 212.3L409.235 230.54C394.145 235.81 383.075 247.44 379.835 261.46C373.015 290.96 363.995 341.46 375.535 364.52C386.275 385.99 423.975 390.52 449.865 391.02C451.515 376.9 454.565 365.56 456.005 348.85Z" fill="white"/>
<path d="M403.735 340.21C406.985 357.42 439.535 361.01 454.735 360.05C455.225 356.55 455.665 352.85 456.005 348.85C442.475 347.43 425.245 345.42 418.205 343.72C405.855 340.72 423.815 279.37 423.815 279.37C423.815 279.37 400.975 325.62 403.735 340.21Z" fill="#DEE6E7"/>
<path d="M492.136 142.41C494.448 141.266 497.022 140.755 499.596 140.931C502.17 141.107 504.651 141.962 506.786 143.41C509.466 145.32 513.316 141.97 510.606 140.04C507.555 137.87 503.975 136.565 500.244 136.26C496.513 135.956 492.768 136.664 489.406 138.31C486.356 139.8 489.086 143.92 492.136 142.43V142.41Z" fill="black"/>
<path d="M468.025 142.41C465.713 141.266 463.139 140.755 460.565 140.931C457.992 141.107 455.511 141.962 453.375 143.41C450.685 145.32 446.835 141.97 449.545 140.04C452.598 137.87 456.18 136.563 459.913 136.259C463.646 135.954 467.392 136.663 470.755 138.31C473.755 139.8 471.075 143.92 468.025 142.43V142.41Z" fill="black"/>
<path d="M461.576 157.06C461.149 157.126 460.712 157.098 460.296 156.98C459.88 156.861 459.494 156.654 459.166 156.372C458.838 156.09 458.574 155.741 458.393 155.348C458.213 154.955 458.119 154.528 458.119 154.095C458.119 153.662 458.213 153.235 458.393 152.842C458.574 152.449 458.838 152.099 459.166 151.818C459.494 151.536 459.88 151.329 460.296 151.21C460.712 151.091 461.149 151.064 461.576 151.13C462.004 151.064 462.44 151.091 462.856 151.21C463.272 151.329 463.658 151.536 463.986 151.818C464.314 152.099 464.578 152.449 464.759 152.842C464.939 153.235 465.033 153.662 465.033 154.095C465.033 154.528 464.939 154.955 464.759 155.348C464.578 155.741 464.314 156.09 463.986 156.372C463.658 156.654 463.272 156.861 462.856 156.98C462.44 157.098 462.004 157.126 461.576 157.06Z" fill="black"/>
<path d="M497.336 157.06C496.908 157.126 496.472 157.098 496.056 156.98C495.64 156.861 495.254 156.654 494.926 156.372C494.598 156.09 494.334 155.741 494.153 155.348C493.972 154.955 493.879 154.528 493.879 154.095C493.879 153.662 493.972 153.235 494.153 152.842C494.334 152.449 494.598 152.099 494.926 151.818C495.254 151.536 495.64 151.329 496.056 151.21C496.472 151.091 496.908 151.064 497.336 151.13C497.763 151.064 498.2 151.091 498.616 151.21C499.032 151.329 499.417 151.536 499.746 151.818C500.074 152.099 500.338 152.449 500.519 152.842C500.699 153.235 500.793 153.662 500.793 154.095C500.793 154.528 500.699 154.955 500.519 155.348C500.338 155.741 500.074 156.09 499.746 156.372C499.417 156.654 499.032 156.861 498.616 156.98C498.2 157.098 497.763 157.126 497.336 157.06Z" fill="black"/>
<path d="M465.336 184.06C470.656 193.84 485.956 192.78 490.106 182.82C490.796 181.17 487.796 180.45 487.106 182.09C483.766 190.09 472.106 190.09 468.006 182.68C467.146 181.1 464.466 182.48 465.326 184.06H465.336Z" fill="black"/>
<path d="M483.896 164.62C484.736 166.45 484.896 168.73 483.406 170.22C481.916 171.71 479.406 171.91 477.176 171.7C478.434 172.366 479.857 172.656 481.276 172.536C482.694 172.415 484.048 171.889 485.176 171.02C486.188 170.179 486.858 168.997 487.058 167.697C487.259 166.396 486.977 165.067 486.266 163.96C484.506 161.34 480.816 160.25 479.716 157.21C480.436 160 482.696 162 483.896 164.62Z" fill="#EEB47B"/>
<path d="M506.926 417.24L506.696 417.59C504.736 420.458 501.944 422.657 498.696 423.89C495.166 425.27 490.846 427.52 489.696 430.6H531.826L538.366 416.17L506.926 417.24Z" fill="#F4C794"/>
<path d="M492.516 212.3C492.516 212.3 548.616 227.3 567.626 257.61C583.386 282.7 591.066 381.27 535.946 428.61L503.706 416C503.706 416 550.526 330.32 534.136 295.46C517.746 260.6 482.806 229 492.516 212.3Z" fill="white"/>
<path d="M522.166 274.37C526.631 281.118 530.64 288.157 534.166 295.44C550.516 330.3 503.706 416 503.706 416L506.926 417.26C520.806 393.12 535.656 361.41 540.806 337.34C546.306 311.61 545.456 293.12 522.166 274.37Z" fill="#DEE6E7"/>
<path d="M592.076 352.81H562.006C557.908 352.81 554.586 356.132 554.586 360.23V421.38C554.586 425.478 557.908 428.8 562.006 428.8H592.076C596.174 428.8 599.496 425.478 599.496 421.38V360.23C599.496 356.132 596.174 352.81 592.076 352.81Z" fill="#BACD8B"/>
<path d="M554.586 356.87V390.71C562.276 380.24 576.076 368.43 599.496 367.48V356.87C599.419 355.826 598.936 354.855 598.151 354.163C597.366 353.471 596.341 353.115 595.296 353.17H558.786C557.741 353.115 556.716 353.471 555.931 354.163C555.146 354.855 554.663 355.826 554.586 356.87Z" fill="#28A494"/>
<path d="M599.516 411.29V367.48C576.096 368.43 562.295 380.24 554.605 390.71V425.45C554.608 425.897 554.7 426.339 554.875 426.75C578.515 427 592.266 418.32 599.516 411.29Z" fill="white"/>
<path d="M554.855 426.75C555.205 427.49 555.763 428.113 556.461 428.541C557.159 428.969 557.967 429.184 558.786 429.16H595.296C596.342 429.215 597.368 428.857 598.154 428.163C598.939 427.47 599.421 426.495 599.495 425.45V411.29C592.265 418.32 578.515 427 554.855 426.75Z" fill="#28A494"/>
<path d="M591.706 396.87H562.366C562.09 396.87 561.866 397.094 561.866 397.37V399.04C561.866 399.316 562.09 399.54 562.366 399.54H591.706C591.982 399.54 592.206 399.316 592.206 399.04V397.37C592.206 397.094 591.982 396.87 591.706 396.87Z" fill="#30BFAC"/>
<path d="M591.706 403.83H562.366C562.09 403.83 561.866 404.054 561.866 404.33V406.01C561.866 406.286 562.09 406.51 562.366 406.51H591.706C591.982 406.51 592.206 406.286 592.206 406.01V404.33C592.206 404.054 591.982 403.83 591.706 403.83Z" fill="#30BFAC"/>
<path d="M583.516 410.78H570.516C570.326 410.757 570.134 410.774 569.951 410.831C569.769 410.888 569.6 410.982 569.457 411.109C569.314 411.236 569.2 411.391 569.121 411.566C569.043 411.74 569.002 411.929 569.002 412.12C569.002 412.311 569.043 412.5 569.121 412.674C569.2 412.849 569.314 413.004 569.457 413.131C569.6 413.258 569.769 413.352 569.951 413.409C570.134 413.466 570.326 413.483 570.516 413.46H583.516C583.706 413.483 583.898 413.466 584.081 413.409C584.263 413.352 584.432 413.258 584.575 413.131C584.718 413.004 584.832 412.849 584.911 412.674C584.989 412.5 585.03 412.311 585.03 412.12C585.03 411.929 584.989 411.74 584.911 411.566C584.832 411.391 584.718 411.236 584.575 411.109C584.432 410.982 584.263 410.888 584.081 410.831C583.898 410.774 583.706 410.757 583.516 410.78Z" fill="#30BFAC"/>
<path d="M829.675 451.59H250.525V620H829.675V451.59Z" fill="#28A494"/>
<path d="M447.797 404.62L415.717 298.35C415.247 296.7 414.26 295.245 412.901 294.199C411.541 293.152 409.882 292.571 408.167 292.54H229.927C224.567 292.54 220.757 298.02 222.377 303.39L254.447 409.66C254.916 411.311 255.905 412.768 257.266 413.814C258.628 414.861 260.29 415.441 262.007 415.47H440.237C445.597 415.47 449.417 410 447.797 404.62Z" fill="black"/>
<path d="M348.816 415.37H371.076L350.026 360.51L348.816 415.37Z" fill="#444444"/>
<path d="M350.026 360.51H320.146V446.88H350.026V360.51Z" fill="#2D2D2D"/>
<path d="M829.675 451.59H250.525V472.03H829.675V451.59Z" fill="#30BFAC"/>
<path d="M235.636 446.7H832.576V457.48H235.636C234.87 457.48 234.135 457.176 233.593 456.634C233.051 456.092 232.746 455.357 232.746 454.59V449.59C232.746 448.824 233.051 448.088 233.593 447.546C234.135 447.004 234.87 446.7 235.636 446.7Z" fill="#28A494"/>
<path d="M431.936 517V620H301.126V517.06C312.886 517.06 319.016 507.87 319.516 498.28H413.006C413.065 499.48 413.216 500.673 413.456 501.85C413.742 503.218 414.154 504.557 414.686 505.85C415.015 506.662 415.399 507.451 415.836 508.21C417.368 510.967 419.632 513.248 422.377 514.801C425.123 516.353 428.244 517.118 431.396 517.01L431.936 517Z" fill="#30BFAC"/>
<path d="M729.006 517V620H598.196V517.06C609.956 517.06 616.076 507.87 616.586 498.28H710.076C710.566 507.87 716.686 517.06 728.466 517.06L729.006 517Z" fill="#30BFAC"/>
</svg>
