<svg width="500" height="500" viewBox="0 0 500 500" fill="none" xmlns="http://www.w3.org/2000/svg">
<path d="M477.2 223C477.2 222.61 477.2 222.22 477.2 221.82C477.2 221.42 477.14 221.03 477.1 220.63C477.06 220.23 477.02 219.84 476.97 219.44C476.92 219.04 476.86 218.62 476.8 218.21C476.74 217.8 476.66 217.39 476.58 216.98C476.5 216.57 476.42 216.13 476.32 215.71C476.22 215.29 476.13 214.86 476.03 214.43C475.93 214 475.81 213.57 475.69 213.13C475.57 212.69 475.44 212.27 475.31 211.85C475.18 211.43 475.05 211 474.91 210.58C474.77 210.16 474.62 209.75 474.47 209.34C474.32 208.93 474.18 208.55 474.02 208.15C473.86 207.75 473.71 207.36 473.55 206.97C473.39 206.58 473.22 206.19 473.05 205.8L472.51 204.62C472.31 204.19 472.1 203.76 471.89 203.33C471.68 202.9 471.39 202.33 471.13 201.87C470.75 201.15 470.35 200.43 469.93 199.73C469.35 198.73 468.75 197.73 468.11 196.83C467.62 196.09 467.11 195.35 466.57 194.63C466.22 194.15 465.85 193.68 465.49 193.21C465.13 192.74 464.87 192.43 464.55 192.05L463.61 190.95C463.29 190.59 462.98 190.24 462.66 189.9C462.34 189.56 461.99 189.19 461.66 188.9C461.33 188.61 460.97 188.21 460.66 187.9L459.58 186.9L458.5 185.95L457.41 185.07C457.05 184.79 456.7 184.51 456.34 184.25L455.27 183.49L454.27 182.81L453.27 182.17L453.03 182.03L452.25 181.6C451.92 181.42 451.58 181.24 451.25 181.08C450.92 180.92 450.59 180.76 450.25 180.61L449.25 180.2C448.92 180.06 448.59 179.94 448.25 179.83C447.91 179.72 447.6 179.6 447.25 179.51C446.9 179.42 446.57 179.31 446.25 179.23C445.93 179.15 445.57 179.07 445.25 179C444.93 178.93 444.54 178.88 444.18 178.83C443.82 178.78 443.45 178.74 443.1 178.72C442.75 178.7 442.33 178.72 441.95 178.72C441.57 178.72 441.1 178.72 440.68 178.78C440.21 178.821 439.743 178.888 439.28 178.98C438.7 179.099 438.129 179.256 437.57 179.45C436.875 179.692 436.205 180 435.57 180.37L427.32 185.16C427.957 184.792 428.626 184.484 429.32 184.24C429.876 184.047 430.444 183.89 431.02 183.77C431.486 183.677 431.957 183.611 432.43 183.57C432.85 183.57 433.27 183.51 433.7 183.51C434.13 183.51 434.46 183.51 434.84 183.51C435.22 183.51 435.56 183.57 435.93 183.62C436.3 183.67 436.64 183.72 437 183.8C437.36 183.88 437.66 183.93 438 184.02C438.34 184.11 438.67 184.19 439 184.3C439.33 184.41 439.65 184.5 440 184.62C440.35 184.74 440.66 184.86 441 184.99L442 185.4L443 185.87C443.33 186.03 443.66 186.21 444 186.39L444.77 186.82L445.02 186.96L446.02 187.6L447.02 188.28L448.08 189.04C448.44 189.3 448.8 189.58 449.15 189.86C449.5 190.14 449.88 190.44 450.24 190.75C450.6 191.06 450.97 191.37 451.33 191.69C451.69 192.01 452.05 192.35 452.4 192.69C452.75 193.03 453.09 193.36 453.4 193.69C453.71 194.02 454.07 194.38 454.4 194.74C454.73 195.1 455.04 195.44 455.35 195.79C455.66 196.14 455.99 196.52 456.35 196.89L457.28 198.05C457.65 198.52 458.01 198.99 458.37 199.47C458.9 200.19 459.37 200.93 459.91 201.67C460.54 202.62 461.15 203.59 461.73 204.57C462.14 205.27 462.54 205.99 462.93 206.71C463.19 207.19 463.44 207.71 463.68 208.17C463.92 208.63 464.11 209.03 464.31 209.46C464.51 209.89 464.67 210.25 464.84 210.64C465.01 211.03 465.18 211.42 465.34 211.81C465.5 212.2 465.67 212.59 465.82 212.99C465.97 213.39 466.12 213.78 466.27 214.18C466.42 214.58 466.56 215.01 466.7 215.42C466.84 215.83 466.98 216.27 467.11 216.69C467.24 217.11 467.36 217.55 467.48 217.98C467.6 218.41 467.72 218.84 467.82 219.27C467.92 219.7 468.03 220.12 468.12 220.55C468.21 220.98 468.3 221.4 468.38 221.82C468.46 222.24 468.53 222.64 468.59 223.05C468.65 223.46 468.72 223.87 468.77 224.28C468.82 224.69 468.86 225.08 468.9 225.47C468.94 225.86 468.97 226.27 468.99 226.66C469.01 227.05 468.99 227.45 469.05 227.84C469.11 228.23 469.05 228.58 469.05 228.94V229C469.05 229.4 469.05 229.8 469.05 230.19C469.05 230.58 469.05 230.96 468.98 231.34C468.91 231.72 468.9 232.13 468.85 232.51C468.8 232.89 468.75 233.3 468.68 233.68C468.61 234.06 468.53 234.49 468.44 234.87C468.35 235.25 468.23 235.72 468.11 236.12C467.99 236.52 467.84 236.99 467.69 237.41C467.54 237.83 467.31 238.35 467.1 238.8C466.829 239.376 466.522 239.934 466.18 240.47C465.122 242.167 463.671 243.583 461.95 244.6L470.2 239.81C471.918 238.793 473.366 237.376 474.42 235.68C474.763 235.143 475.074 234.585 475.35 234.01C475.56 233.56 475.75 233.1 475.93 232.62C476.11 232.14 476.23 231.77 476.36 231.33C476.49 230.89 476.59 230.51 476.68 230.08C476.77 229.65 476.85 229.3 476.92 228.89C476.99 228.48 477.05 228.12 477.1 227.72C477.15 227.32 477.19 226.95 477.22 226.55C477.25 226.15 477.22 225.78 477.29 225.39C477.36 225 477.29 224.61 477.29 224.21V224.14C477.22 223.74 477.21 223.37 477.2 223Z" fill="url(#paint0_linear_234_1877)"/>
<path d="M444.63 186.75C458.12 194.54 469.02 213.4 468.97 228.89C468.92 244.38 457.97 250.64 444.48 242.89C430.99 235.14 420.09 216.22 420.14 200.73C420.19 185.24 431.15 179 444.63 186.75Z" fill="url(#paint1_linear_234_1877)"/>
<path d="M439.44 201.37C441.535 202.686 443.256 204.518 444.44 206.69L444.62 207.02C446.02 206.22 447.85 206.47 449.68 207.53C451.773 208.848 453.494 210.68 454.68 212.85C457.46 217.67 457.44 222.85 454.68 224.47L444.54 230.23L434.28 212.47C431.51 207.65 431.53 202.47 434.33 200.85C435.78 200.06 437.61 200.31 439.44 201.37Z" fill="white"/>
<path d="M61.14 137.32C61.14 137.27 61.14 137.22 61.14 137.18C61.14 137.14 61.14 137.08 61.14 137.03C61.14 136.98 61.14 136.93 61.14 136.88C61.1351 136.83 61.1351 136.78 61.14 136.73V136.57V136.42C61.1352 136.363 61.1352 136.307 61.14 136.25C61.1365 136.197 61.1365 136.143 61.14 136.09C61.1357 136.037 61.1357 135.983 61.14 135.93C61.1521 135.875 61.1689 135.822 61.19 135.77C61.1857 135.717 61.1857 135.663 61.19 135.61L61.25 135.46L61.31 135.31L61.37 135.16L61.72 135C61.72 134.94 61.77 134.89 61.79 134.84L61.89 134.64C61.95 134.54 62 134.44 62.06 134.35C62.12 134.26 62.23 134.07 62.32 133.93L62.52 133.65L62.66 133.47L62.8 133.3L62.93 133.15L63.06 133L63.2 132.85L63.35 132.71L63.5 132.57C63.5486 132.518 63.6022 132.471 63.66 132.43L63.81 132.3C63.8593 132.258 63.9129 132.221 63.97 132.19L64.12 132.08L64.27 131.98L64.41 131.89L75.79 125.59L75.93 125.51L76.08 125.44L76.22 125.38H76.36L76.51 125.33H76.66H76.8H76.96H77.46H77.67L77.91 125.4C78.0087 125.431 78.1028 125.474 78.19 125.53L91.19 133.11C91.1039 133.052 91.0095 133.009 90.91 132.98L90.67 132.91H90.47H90.12H89.96H89.81H89.66H89.51L89.37 132.96L89.23 133.01L89.08 133.08L88.94 133.14L88.79 133.22L77.4 139.52L77.25 139.61L77.1 139.71L76.95 139.82L76.8 139.93L76.64 140.06L76.49 140.2C76.4322 140.241 76.3785 140.288 76.33 140.34L76.19 140.48L76.05 140.63L75.91 140.78L75.78 140.93L75.65 141.1L75.51 141.28L75.31 141.56C75.22 141.7 75.13 141.84 75.05 141.98C74.9875 142.073 74.9307 142.17 74.88 142.27C74.8427 142.335 74.8093 142.401 74.78 142.47L74.7 142.63C74.7 142.68 74.65 142.73 74.63 142.79C74.6108 142.842 74.5875 142.892 74.56 142.94L74.5 143.09C74.4958 143.14 74.4958 143.19 74.5 143.24L74.44 143.4C74.44 143.4 74.44 143.51 74.44 143.56C74.44 143.61 74.44 143.67 74.39 143.72C74.34 143.77 74.39 143.83 74.39 143.88C74.39 143.93 74.39 143.99 74.39 144.05V144.2V144.36C74.3949 144.41 74.3949 144.46 74.39 144.51C74.3949 144.56 74.3949 144.61 74.39 144.66C74.3949 144.71 74.3949 144.76 74.39 144.81V176.1C74.39 176.15 74.39 176.2 74.39 176.25C74.385 176.297 74.385 176.343 74.39 176.39C74.39 176.44 74.39 176.49 74.39 176.54C74.3949 176.59 74.3949 176.64 74.39 176.69V176.84C74.39 176.84 74.39 176.95 74.44 177C74.437 177.053 74.437 177.107 74.44 177.16C74.4624 177.222 74.4892 177.282 74.52 177.34C74.5527 177.412 74.5894 177.482 74.63 177.55C74.7702 177.779 74.9664 177.968 75.2 178.1L62.2 170.52C61.9713 170.385 61.7791 170.196 61.64 169.97L61.52 169.76L61.44 169.58C61.4293 169.525 61.4126 169.471 61.39 169.42C61.39 169.36 61.39 169.31 61.39 169.26V169.11C61.3851 169.06 61.3851 169.01 61.39 168.96C61.39 168.91 61.39 168.86 61.39 168.81C61.3954 168.763 61.3954 168.716 61.39 168.67V168.52V137.32H61.14Z" fill="url(#paint2_linear_234_1877)"/>
<path d="M77.52 139.45C76.5754 140.047 75.7828 140.856 75.2049 141.812C74.6269 142.768 74.2794 143.846 74.19 144.96V176.1C74.19 178.1 75.7 178.9 77.51 177.9L88.9 171.55C89.8507 170.971 90.6497 170.174 91.2306 169.224C91.8115 168.275 92.1575 167.2 92.24 166.09V134.88C92.24 132.94 90.73 132.12 88.88 133.15L77.52 139.45Z" fill="url(#paint3_linear_234_1877)"/>
<path d="M30.52 190.6V190.51L43.52 198.09V198.18C43.52 198.35 43.52 198.75 43.52 199.33C43.52 200.42 43.45 202.16 43.46 204.33C43.46 205.84 43.46 207.56 43.58 209.39C43.58 210.05 43.64 210.73 43.68 211.39C43.68 211.52 43.68 211.65 43.68 211.78L43.74 212.27C43.74 212.45 43.74 212.62 43.81 212.79C43.88 212.96 43.88 213.14 43.92 213.31C43.96 213.48 44.01 213.68 44.06 213.85C44.11 214.02 44.18 214.24 44.25 214.42C44.32 214.6 44.42 214.85 44.51 215.05C44.6337 215.309 44.774 215.559 44.93 215.8C45.373 216.527 45.9876 217.135 46.72 217.57L33.72 209.99C32.9867 209.553 32.3693 208.946 31.92 208.22C31.7636 207.981 31.6265 207.731 31.51 207.47C31.408 207.265 31.3179 207.055 31.24 206.84C31.17 206.66 31.11 206.47 31.05 206.27C30.99 206.07 30.96 205.92 30.91 205.73C30.86 205.54 30.84 205.39 30.81 205.21C30.78 205.03 30.75 204.87 30.73 204.69C30.71 204.51 30.73 204.36 30.73 204.2V203.81C30.73 203.12 30.66 202.44 30.63 201.81C30.55 199.98 30.52 198.26 30.52 196.75C30.52 194.6 30.52 192.86 30.58 191.75C30.49 191.17 30.51 190.77 30.52 190.6Z" fill="url(#paint4_linear_234_1877)"/>
<path d="M10.53 166.14C10.5252 166.047 10.5252 165.953 10.53 165.86C10.53 165.77 10.53 165.67 10.53 165.58C10.5251 165.483 10.5251 165.387 10.53 165.29C10.53 165.2 10.53 165.1 10.53 165C10.53 164.9 10.53 164.8 10.58 164.7L10.64 164.4C10.64 164.3 10.69 164.2 10.71 164.1C10.73 164 10.71 163.89 10.79 163.79L10.88 163.48C10.88 163.38 10.95 163.28 10.98 163.18C11.01 163.08 11.05 162.98 11.08 162.88C11.11 162.78 11.16 162.68 11.19 162.58L11.31 162.3L11.43 162.01C11.43 161.91 11.52 161.82 11.57 161.72C11.6106 161.614 11.6573 161.51 11.71 161.41C11.78 161.29 11.84 161.16 11.9 161.04C11.96 160.92 12.11 160.66 12.22 160.48C12.33 160.3 12.55 159.95 12.72 159.69C12.89 159.43 12.97 159.33 13.1 159.16C13.23 158.99 13.27 158.92 13.36 158.81L13.62 158.49L13.88 158.19C13.9613 158.089 14.0481 157.992 14.14 157.9L14.41 157.61L14.71 157.32L15.01 157.04L15.32 156.77L15.63 156.52C15.73 156.43 15.84 156.36 15.94 156.28L16.25 156.06C16.3495 155.988 16.453 155.921 16.56 155.86L16.86 155.67H16.93L43.84 140.72L44.12 140.58L44.4 140.45L44.67 140.33L44.95 140.23L45.21 140.14L45.48 140.07L45.74 140.01L46.01 139.96H46.27H46.83H47.14H47.27L51.61 140.72L52.01 140.83C52.1947 140.895 52.3723 140.979 52.54 141.08L65.72 148.67C65.5513 148.571 65.3739 148.487 65.19 148.42L64.79 148.31L60.44 147.55H60.31H60H59.45H59.18L58.92 147.6L58.65 147.66L58.39 147.73L58.12 147.82L57.85 147.92L57.57 148.04L57.29 148.17L57.01 148.32L30.11 163.26H30.04L29.73 163.45L29.43 163.65L29.12 163.87L28.8 164.11L28.49 164.36L28.18 164.63L27.88 164.91L27.59 165.2L27.32 165.49L27.05 165.78L26.8 166.08C26.7079 166.182 26.6211 166.289 26.54 166.4L26.27 166.75C26.14 166.92 26.02 167.1 25.9 167.28C25.78 167.46 25.55 167.8 25.4 168.07C25.25 168.34 25.18 168.44 25.08 168.63L24.89 169L24.74 169.31C24.74 169.41 24.65 169.51 24.61 169.6C24.57 169.69 24.52 169.79 24.48 169.89C24.44 169.99 24.4 170.08 24.37 170.18C24.3274 170.274 24.2906 170.371 24.26 170.47L24.15 170.77L24.06 171.07C24.0209 171.17 23.9907 171.274 23.97 171.38C23.9375 171.482 23.9107 171.585 23.89 171.69C23.89 171.79 23.89 171.89 23.81 171.99L23.75 172.3C23.75 172.39 23.75 172.49 23.75 172.59C23.75 172.69 23.75 172.79 23.75 172.88V173.17C23.7451 173.263 23.7451 173.357 23.75 173.45C23.7451 173.547 23.7451 173.643 23.75 173.74V202.2C23.7449 202.293 23.7449 202.387 23.75 202.48C23.75 202.57 23.75 202.66 23.75 202.75V203.03C23.75 203.13 23.75 203.22 23.75 203.31L23.81 203.6C23.81 203.7 23.81 203.8 23.89 203.9C23.97 204 23.95 204.1 23.99 204.2L24.14 204.56C24.2052 204.698 24.2787 204.831 24.36 204.96C24.6348 205.4 25.0122 205.767 25.46 206.03L12.46 198.45C12.0173 198.184 11.6438 197.818 11.37 197.38C11.287 197.252 11.2134 197.119 11.15 196.98C11.0898 196.864 11.0397 196.744 11 196.62L10.89 196.32C10.89 196.22 10.89 196.12 10.82 196.02L10.76 195.73C10.7544 195.637 10.7544 195.543 10.76 195.45V195.17C10.76 195.08 10.76 194.99 10.76 194.9V194.62V166.33C10.52 166.27 10.53 166.21 10.53 166.14Z" fill="url(#paint5_linear_234_1877)"/>
<path d="M30.09 163.21C26.46 165.3 23.6 170.02 23.57 173.91V202.2C23.57 206.05 26.47 207.6 30.05 205.62L43.56 198.09C43.56 198.41 43.26 204.34 43.68 211.4C43.97 217.12 47.92 219.28 50.96 217.62C52.58 216.69 53.87 214.71 54.29 211.71C56.65 194.71 61.92 189.26 65.03 184.84C66.4538 182.94 67.2821 180.661 67.41 178.29V152.29C67.41 150.12 66.41 148.65 64.76 148.29L60.41 147.53C59.2172 147.348 57.999 147.604 56.98 148.25L30.09 163.21Z" fill="url(#paint6_linear_234_1877)"/>
<path d="M300.38 52.51C300.525 52.43 300.675 52.3598 300.83 52.3C300.982 52.2314 301.139 52.1746 301.3 52.13C301.464 52.0827 301.631 52.046 301.8 52.02C301.979 51.9869 302.159 51.9635 302.34 51.95H302.95C303.178 51.959 303.405 51.9824 303.63 52.02C303.904 52.0575 304.174 52.1143 304.44 52.19C304.814 52.2928 305.182 52.4198 305.54 52.57C305.952 52.7422 306.352 52.9392 306.74 53.16L323.29 62.32C322.84 60.1 322.42 57.73 322.06 55.14C322 54.71 321.93 54.3 321.84 53.91C321.75 53.52 321.7 53.29 321.62 53C321.54 52.71 321.49 52.54 321.41 52.31C321.33 52.08 321.28 51.94 321.21 51.76C321.14 51.58 321.08 51.43 321.02 51.28C320.96 51.13 320.89 50.99 320.82 50.85L320.63 50.47C320.56 50.34 320.5 50.22 320.43 50.11L320.22 49.76L319.99 49.42C319.9 49.3 319.82 49.18 319.73 49.07C319.64 48.96 319.53 48.82 319.42 48.7C319.288 48.5429 319.148 48.3927 319 48.25C318.572 47.82 318.087 47.45 317.56 47.15C317.338 47.0207 317.108 46.9071 316.87 46.81C316.627 46.7056 316.376 46.6187 316.12 46.55C315.91 46.49 315.69 46.45 315.47 46.41C315.25 46.37 315.06 46.41 314.86 46.35C314.66 46.29 314.45 46.35 314.25 46.35C314.046 46.3629 313.842 46.3863 313.64 46.42L313.02 46.56C312.81 46.63 312.6 46.7 312.39 46.79C312.171 46.8811 311.957 46.9846 311.75 47.1H311.68L329.53 36.73H329.6C329.806 36.6127 330.02 36.5091 330.24 36.42C330.445 36.3314 330.656 36.2546 330.87 36.19L331.48 36.05C331.69 36.05 331.89 35.99 332.09 35.98C332.29 35.97 332.5 35.98 332.7 35.98C332.9 35.98 333.11 35.98 333.32 36.04C333.53 36.1 333.75 36.12 333.97 36.18C334.223 36.2472 334.47 36.3341 334.71 36.44C334.95 36.5357 335.184 36.6459 335.41 36.77C335.931 37.0797 336.411 37.4525 336.84 37.88C336.991 38.0227 337.134 38.1729 337.27 38.33L337.57 38.7C337.66 38.81 337.75 38.93 337.83 39.05C337.912 39.1594 337.989 39.2728 338.06 39.39L338.27 39.74C338.345 39.8554 338.411 39.9757 338.47 40.1C338.54 40.22 338.61 40.35 338.67 40.48C338.73 40.61 338.8 40.76 338.86 40.91C338.92 41.06 338.99 41.22 339.06 41.39C339.13 41.56 339.19 41.75 339.26 41.94C339.33 42.13 339.4 42.4 339.47 42.63C339.54 42.86 339.62 43.23 339.69 43.54C339.76 43.85 339.85 44.34 339.9 44.77C340.32 47.77 340.8 50.48 341.33 52.98C341.737 54.8734 342.17 56.6434 342.63 58.29C342.99 59.59 343.37 60.82 343.75 61.98C344.08 62.98 344.42 63.9 344.75 64.79C345.08 65.68 345.38 66.38 345.75 67.13C346.12 67.88 346.38 68.52 346.69 69.13C347 69.74 347.32 70.41 347.69 71.01C348.06 71.61 348.36 72.24 348.69 72.82C349.02 73.4 349.47 74.12 349.85 74.72C350.38 75.54 350.9 76.3 351.4 77.02C352.57 78.69 353.67 80.11 354.62 81.46C354.82 81.75 355.02 82.04 355.2 82.33C355.38 82.62 355.51 82.81 355.65 83.06L356.04 83.76C356.16 83.98 356.27 84.21 356.38 84.44C356.49 84.67 356.59 84.88 356.69 85.11C356.79 85.34 356.88 85.56 356.97 85.79C357.06 86.02 357.14 86.25 357.22 86.49C357.3 86.73 357.38 86.98 357.45 87.23C357.52 87.48 357.59 87.78 357.65 88.06C357.71 88.34 357.78 88.73 357.82 89.06C357.887 89.527 357.921 89.9982 357.92 90.47V126C357.92 128.34 357.07 130.13 355.6 131L337.75 141.37C339.22 140.51 340.07 138.72 340.08 136.37V100.89C340.079 100.419 340.049 99.9477 339.99 99.48C339.99 99.15 339.89 98.81 339.82 98.48C339.75 98.15 339.69 97.93 339.61 97.65C339.53 97.37 339.47 97.16 339.38 96.91C339.29 96.66 339.22 96.44 339.13 96.21C339.04 95.98 338.95 95.76 338.86 95.53C338.77 95.3 338.66 95.08 338.55 94.86C338.44 94.64 338.32 94.4 338.2 94.18C338.08 93.96 337.95 93.71 337.81 93.48C337.67 93.25 337.52 92.99 337.37 92.75C337.22 92.51 336.99 92.17 336.79 91.88C335.85 90.53 334.79 89.11 333.58 87.44C333.07 86.72 332.58 85.96 332.03 85.14C331.64 84.5401 331.25 83.91 330.87 83.24C330.49 82.57 330.19 82.06 329.87 81.43C329.55 80.8 329.24 80.21 328.93 79.55C328.62 78.89 328.3 78.22 327.99 77.55C327.68 76.88 327.35 76.02 326.99 75.21C326.63 74.4 326.31 73.38 325.99 72.4C325.6 71.24 325.22 70.01 324.86 68.71C324.5 67.41 324.13 65.87 323.78 64.33L307.46 73.82L288.98 63.58C288.59 63.3573 288.186 63.1602 287.77 62.99C287.415 62.8398 287.051 62.7129 286.68 62.61C286.4 62.54 286.13 62.48 285.87 62.44C285.642 62.4029 285.411 62.3795 285.18 62.37C284.98 62.37 284.77 62.37 284.58 62.37C284.395 62.3829 284.212 62.4063 284.03 62.44C283.861 62.466 283.694 62.5027 283.53 62.55C283.37 62.5962 283.213 62.653 283.06 62.72C282.909 62.7799 282.762 62.85 282.62 62.93H282.57L300.38 52.51Z" fill="url(#paint7_linear_234_1877)"/>
<path d="M368.43 90.72L368.65 90.61L368.89 90.53C368.971 90.5007 369.055 90.4805 369.14 90.47C369.233 90.4602 369.327 90.4602 369.42 90.47H369.73H370.07L370.48 90.56L371.03 90.74C371.254 90.836 371.471 90.9463 371.68 91.07L387.36 99.75C387.93 100.084 388.455 100.491 388.92 100.96C389.093 101.133 389.263 101.313 389.43 101.5C389.55 101.64 389.68 101.79 389.79 101.94C389.9 102.09 390 102.21 390.09 102.35C390.18 102.49 390.27 102.6 390.35 102.74C390.43 102.88 390.51 102.98 390.58 103.11C390.65 103.24 390.72 103.35 390.78 103.47C390.84 103.59 390.91 103.71 390.97 103.84L391.14 104.2L391.29 104.58C391.34 104.71 391.39 104.84 391.43 104.97C391.47 105.1 391.52 105.25 391.56 105.39C391.6 105.53 391.64 105.7 391.67 105.86C391.713 106.048 391.746 106.238 391.77 106.43C391.806 106.695 391.823 106.963 391.82 107.23V149.83C391.87 150.35 391.779 150.874 391.558 151.347C391.336 151.82 390.991 152.225 390.56 152.52L372.72 162.89C373.149 162.593 373.491 162.188 373.711 161.715C373.93 161.242 374.02 160.719 373.97 160.2V117.6C373.985 117.334 373.985 117.066 373.97 116.8C373.97 116.61 373.91 116.42 373.87 116.23C373.83 116.04 373.8 115.92 373.75 115.76C373.7 115.6 373.67 115.48 373.62 115.34C373.57 115.2 373.53 115.08 373.48 114.95C373.43 114.82 373.38 114.7 373.33 114.57C373.28 114.44 373.22 114.33 373.16 114.21L372.98 113.84L372.77 113.48C372.7 113.35 372.63 113.23 372.55 113.11L372.29 112.72L371.99 112.31C371.87 112.16 371.75 112.01 371.62 111.87C371.46 111.68 371.29 111.5 371.11 111.33C370.647 110.858 370.122 110.451 369.55 110.12L353.88 101.44C353.669 101.315 353.448 101.208 353.22 101.12C353.044 101.045 352.864 100.981 352.68 100.93L352.27 100.84H351.92H351.62C351.527 100.83 351.433 100.83 351.34 100.84C351.251 100.85 351.164 100.871 351.08 100.9L350.85 100.98L350.62 101.09L368.43 90.72Z" fill="url(#paint8_linear_234_1877)"/>
<path d="M369.54 110.1L353.87 101.42C351.39 99.99 349.33 101.04 349.33 103.82V146.42C349.44 147.929 349.902 149.391 350.678 150.69C351.454 151.989 352.523 153.088 353.8 153.9L369.47 162.58C371.95 163.95 374.01 162.9 374.01 160.18V117.58C373.908 116.069 373.449 114.604 372.673 113.304C371.896 112.004 370.822 110.906 369.54 110.1Z" fill="url(#paint9_linear_234_1877)"/>
<path d="M317.6 47.12C313.39 44.74 307.98 47.7 307.53 55.5C307.01 65.19 307.37 73.33 307.42 73.74L288.94 63.5C284.03 60.73 280.09 62.85 280.07 68.18V106.82C280.07 112.1 283.97 118.56 288.88 121.39L325.79 141.9C327.205 142.738 328.856 143.09 330.49 142.9L336.43 141.81C338.69 141.38 340.05 139.31 340.06 136.34V100.89C339.898 97.6063 338.74 94.4496 336.74 91.84C332.55 85.84 325.34 78.31 322.11 55.11C321.53 51 319.72 48.36 317.6 47.12Z" fill="url(#paint10_linear_234_1877)"/>
<path d="M129.41 93.5299C123.34 97.0399 118.41 105.53 118.41 112.53L119.15 355.77C119.15 362.77 124.15 365.55 130.15 362.04L256.08 289.62C262.16 286.12 267.08 277.62 267.08 270.62L266.33 27.3799C266.33 20.3799 261.33 17.5699 255.33 21.0799L129.41 93.5299Z" fill="url(#paint11_linear_234_1877)"/>
<path style="mix-blend-mode:multiply" d="M197.67 289.59C191.41 293.2 186.36 301.96 186.38 309.15C186.4 316.34 191.49 319.25 197.75 315.63C204.01 312.01 209.07 303.25 209.05 296.06C209.03 288.87 203.94 286 197.67 289.59Z" fill="url(#paint12_linear_234_1877)"/>
<path d="M103.72 103.52V102.99C103.72 102.81 103.72 102.63 103.72 102.45L103.78 101.91C103.78 101.73 103.83 101.54 103.86 101.36C103.89 101.18 103.92 100.99 103.96 100.8C104 100.61 104.03 100.42 104.07 100.23C104.11 100.04 104.16 99.8399 104.21 99.6499L104.36 99.0599C104.42 98.8699 104.47 98.68 104.53 98.48L104.71 97.91C104.78 97.7299 104.84 97.54 104.91 97.35C104.98 97.16 105.04 96.9899 105.11 96.8099C105.18 96.6299 105.25 96.4599 105.33 96.2799C105.41 96.0999 105.48 95.9299 105.55 95.7499C105.62 95.5699 105.71 95.3999 105.8 95.2199L106.07 94.64L106.41 93.9899C106.58 93.6699 106.76 93.3599 106.94 93.0499C107.21 92.5899 107.49 92.1399 107.78 91.7099C108.07 91.2799 108.24 91.0399 108.48 90.7099C108.72 90.3799 108.8 90.28 108.97 90.07L109.39 89.5499L109.81 89.0499L110.24 88.5799L110.69 88.1099L111.16 87.6499L111.64 87.2L112.13 86.7699L112.62 86.3699L113.11 85.9999C113.26 85.8799 113.42 85.77 113.58 85.66L114.05 85.35L114.52 85.0599L114.72 84.9999L240.65 12.58L241 12.38L241.45 12.1499L241.89 11.94L242.33 11.7499L242.78 11.5899L243.22 11.44L243.67 11.32L244.13 11.22L244.61 11.1399C244.773 11.1301 244.937 11.1301 245.1 11.1399H245.62H246.19C246.4 11.1399 246.62 11.1899 246.82 11.2299C247.082 11.2787 247.34 11.3489 247.59 11.44C247.898 11.55 248.196 11.6872 248.48 11.85L263.16 20.38C262.876 20.2172 262.578 20.08 262.27 19.97C262.02 19.8789 261.762 19.8087 261.5 19.7599C261.29 19.7599 261.08 19.6899 260.86 19.6699C260.67 19.6595 260.48 19.6595 260.29 19.6699C260.12 19.66 259.95 19.66 259.78 19.6699C259.617 19.6596 259.453 19.6596 259.29 19.6699C259.125 19.6876 258.962 19.7143 258.8 19.7499L258.35 19.85L257.9 19.97C257.75 20.02 257.6 20.0599 257.46 20.1199L257.01 20.2799L256.57 20.47L256.12 20.6799L255.67 20.91L255.32 21.11L129.39 93.5299L129.29 93.5899L128.82 93.88L128.35 94.1899L127.87 94.5299L127.39 94.8999L126.9 95.2999L126.41 95.73C126.25 95.87 126.09 96.0199 125.93 96.1799L125.46 96.63L125.01 97.1099L124.58 97.5799L124.16 98.0799C124.01 98.2499 123.87 98.43 123.73 98.6L123.25 99.2399C123.01 99.5699 122.77 99.8999 122.55 100.24C122.33 100.58 121.97 101.12 121.71 101.58C121.45 102.04 121.35 102.2 121.18 102.52L120.84 103.17L120.56 103.75L120.32 104.28L120.09 104.81L119.88 105.34C119.81 105.52 119.74 105.7 119.68 105.88C119.62 106.06 119.54 106.26 119.48 106.44L119.3 107.01C119.24 107.21 119.18 107.4 119.13 107.59C119.08 107.78 119.02 107.98 118.98 108.18C118.94 108.38 118.88 108.56 118.84 108.76L118.72 109.33L118.63 109.89C118.63 110.07 118.57 110.26 118.55 110.44L118.49 110.98C118.49 111.16 118.49 111.34 118.49 111.52V112.05C118.49 112.22 118.49 112.38 118.49 112.55L119.23 355.79C119.23 355.97 119.23 356.15 119.23 356.32C119.22 356.493 119.22 356.667 119.23 356.84C119.23 357.02 119.23 357.19 119.23 357.37C119.23 357.55 119.28 357.72 119.31 357.89C119.34 358.06 119.38 358.25 119.42 358.43C119.46 358.61 119.51 358.8 119.56 358.99C119.61 359.18 119.69 359.38 119.76 359.56C119.835 359.775 119.921 359.985 120.02 360.19C120.141 360.448 120.278 360.699 120.43 360.94C120.909 361.703 121.564 362.341 122.34 362.8L107.72 354.3C106.944 353.841 106.289 353.203 105.81 352.44C105.66 352.2 105.53 351.95 105.4 351.69C105.27 351.43 105.22 351.28 105.14 351.06C105.06 350.84 105.01 350.68 104.95 350.49C104.889 350.306 104.839 350.119 104.8 349.93C104.8 349.75 104.73 349.57 104.69 349.39C104.65 349.21 104.64 349.04 104.62 348.87C104.6 348.7 104.62 348.52 104.56 348.34V347.82C104.56 347.65 104.56 347.47 104.56 347.29L103.72 104V103.52Z" fill="url(#paint13_linear_234_1877)"/>
<path d="M130.13 106.17C129.223 106.756 128.467 107.55 127.927 108.485C127.386 109.421 127.075 110.471 127.02 111.55L127.66 317.89C127.66 319.89 129.07 320.67 130.79 319.67L256.21 247.55C257.115 246.959 257.868 246.162 258.408 245.226C258.948 244.29 259.261 243.239 259.32 242.16L258.67 35.83C258.67 33.83 257.27 33.05 255.55 34.05L130.13 106.17Z" fill="white"/>
<g opacity="0.29">
<path d="M226.23 190.42C226.23 190.712 226.308 190.999 226.454 191.252C226.601 191.505 226.812 191.714 227.066 191.859C227.319 192.004 227.607 192.08 227.899 192.078C228.191 192.077 228.478 191.998 228.73 191.85L236.73 187.16C236.977 187.013 237.181 186.805 237.325 186.557C237.469 186.308 237.546 186.027 237.55 185.74C237.55 185.448 237.472 185.161 237.325 184.908C237.179 184.655 236.968 184.446 236.714 184.301C236.461 184.156 236.173 184.08 235.881 184.082C235.589 184.083 235.302 184.162 235.05 184.31L227.05 189C226.8 189.143 226.592 189.35 226.448 189.599C226.304 189.849 226.229 190.132 226.23 190.42Z" fill="url(#paint14_linear_234_1877)"/>
<path d="M169.38 172.4V191.14C169.379 192.681 169.785 194.194 170.557 195.527C171.33 196.86 172.441 197.965 173.778 198.731C175.115 199.496 176.63 199.895 178.171 199.886C179.711 199.877 181.222 199.461 182.55 198.68L215.55 179.26C218.528 177.509 220.997 175.012 222.714 172.015C224.431 169.018 225.336 165.624 225.34 162.17V143.43C225.341 141.891 224.936 140.378 224.164 139.046C223.392 137.714 222.282 136.61 220.946 135.845C219.609 135.081 218.095 134.683 216.555 134.693C215.016 134.702 213.507 135.119 212.18 135.9L179.18 155.31C176.202 157.061 173.731 159.558 172.013 162.555C170.294 165.552 169.387 168.945 169.38 172.4Z" fill="url(#paint15_linear_234_1877)"/>
<path d="M162.111 122.336L164.724 121.012L159.149 117.333L162.528 115.626L160.602 114.351L157.223 116.058L153.139 113.368L157.454 111.2L155.528 109.925L148.59 113.412L162.111 122.336Z" fill="#9CB1E1"/>
<path d="M170.294 118.207L177.439 114.604L175.513 113.329L170.99 115.614L167.037 112.998L170.626 111.19L168.691 109.909L165.097 111.726L161.336 109.236L165.853 106.961L163.927 105.686L156.782 109.288L170.294 118.207Z" fill="#9CB1E1"/>
<path d="M179.061 113.79L186.206 110.188L184.279 108.913L179.757 111.197L175.803 108.581L179.384 106.768L177.458 105.493L173.863 107.309L170.103 104.82L174.62 102.544L172.693 101.269L165.549 104.872L179.061 113.79Z" fill="#9CB1E1"/>
<path d="M178.451 98.3599L174.318 100.433L187.858 109.31L191.991 107.237C194.613 105.918 194.727 104.486 192.561 103.066L185.711 98.5758C184.642 97.8662 183.395 97.4699 182.112 97.4318C180.829 97.3936 179.561 97.7151 178.451 98.3599ZM189.986 104.476C190.957 105.112 190.805 105.598 189.976 106.023L188.498 106.764L178.822 100.421L180.3 99.6798C180.713 99.4518 181.183 99.3486 181.653 99.3829C182.123 99.4172 182.573 99.5875 182.948 99.873L189.986 104.476Z" fill="#9CB1E1"/>
<path d="M195.444 93.9798L194.968 93.6673C192.869 92.2911 190.691 92.2025 187.964 93.5715L184.016 95.5628L197.528 104.481L201.653 102.403C204.275 101.084 204.505 99.6569 202.428 98.2834L201.324 97.5596C200.628 97.0684 199.835 96.7311 198.999 96.5701C198.162 96.4092 197.3 96.4284 196.472 96.6263C197.205 95.7442 196.841 94.8955 195.444 93.9798ZM188.597 95.4693L189.865 94.8299C190.293 94.6004 190.779 94.501 191.263 94.5441C191.746 94.5872 192.207 94.7708 192.588 95.0724L193.349 95.5713C194.428 96.2786 194.185 96.813 193.204 97.306L192.171 97.8243L188.597 95.4693ZM199.775 99.5214C200.779 100.179 200.635 100.635 199.759 101.077L198.256 101.838L194.075 99.0965L195.252 98.505C195.762 98.1937 196.356 98.0488 196.953 98.0905C197.549 98.1321 198.117 98.3582 198.579 98.7373L199.775 99.5214Z" fill="#9CB1E1"/>
<path d="M195.664 89.6875L206.515 99.9466L208.922 98.7383L206.919 96.8871L210.135 95.2647L213.038 96.6541L215.68 95.3246L199.501 87.7553L195.664 89.6875ZM205.419 95.509L199.849 90.3626L207.941 94.2332L205.419 95.509Z" fill="#9CB1E1"/>
<path d="M206.894 83.8486C204.324 85.1414 204.222 86.6288 206.391 88.0627L213.424 92.6737C214.499 93.3881 215.75 93.7915 217.04 93.8394C218.329 93.8872 219.607 93.5776 220.732 92.9448C223.301 91.6519 223.403 90.1645 221.243 88.7361L219.445 87.5573L216.967 88.8023L218.898 90.0688C219.868 90.7048 219.689 91.1971 218.86 91.6223C218.443 91.8484 217.969 91.9508 217.496 91.9176C217.022 91.8845 216.567 91.717 216.185 91.4349L208.876 86.643C207.906 86.0069 208.068 85.5037 208.892 85.0869C209.313 84.8589 209.79 84.7558 210.268 84.7894C210.746 84.8231 211.204 84.9922 211.589 85.2769L213.044 86.2309L215.52 84.972L214.249 84.1387C213.17 83.4121 211.911 83.0001 210.612 82.9488C209.313 82.8976 208.026 83.2091 206.894 83.8486Z" fill="#9CB1E1"/>
<path d="M221.218 76.8099L218.609 78.1252L221.063 83.7394L215.17 79.8519L212.556 81.1756L226.068 90.094L228.69 88.7758L224.531 86.037L224.117 84.8087L232.05 87.0802L234.735 85.7199L223.603 82.6188L221.218 76.8099Z" fill="#9CB1E1"/>
<path d="M190.52 246.58C190.518 246.872 190.594 247.159 190.74 247.412C190.885 247.665 191.095 247.875 191.348 248.021C191.601 248.166 191.889 248.242 192.181 248.24C192.472 248.238 192.759 248.159 193.01 248.01L218.08 233.27C218.327 233.124 218.531 232.916 218.673 232.667C218.815 232.418 218.89 232.137 218.89 231.85C218.892 231.558 218.816 231.271 218.67 231.018C218.525 230.765 218.315 230.555 218.062 230.409C217.809 230.264 217.521 230.188 217.229 230.19C216.937 230.192 216.651 230.271 216.4 230.42L191.33 245.15C191.083 245.298 190.879 245.508 190.737 245.758C190.595 246.009 190.52 246.292 190.52 246.58Z" fill="url(#paint16_linear_234_1877)"/>
<path d="M159.17 238L195.78 216.47C196.032 216.322 196.319 216.243 196.611 216.242C196.903 216.24 197.191 216.316 197.444 216.461C197.698 216.606 197.909 216.815 198.056 217.068C198.202 217.321 198.28 217.608 198.28 217.9C198.281 218.188 198.206 218.471 198.062 218.721C197.918 218.97 197.71 219.177 197.46 219.32L160.85 240.85C160.599 240.997 160.313 241.076 160.022 241.078C159.73 241.08 159.443 241.006 159.19 240.862C158.937 240.718 158.726 240.51 158.578 240.258C158.431 240.007 158.352 239.721 158.35 239.43C158.349 239.141 158.425 238.856 158.569 238.605C158.713 238.354 158.92 238.146 159.17 238Z" fill="url(#paint17_linear_234_1877)"/>
<path d="M159.17 256.12L216.45 222.44C216.702 222.292 216.989 222.213 217.281 222.212C217.573 222.21 217.861 222.286 218.114 222.431C218.368 222.576 218.579 222.785 218.725 223.038C218.872 223.291 218.95 223.578 218.95 223.87C218.95 224.158 218.874 224.441 218.73 224.69C218.586 224.939 218.379 225.146 218.13 225.29L160.85 259C160.598 259.148 160.311 259.227 160.019 259.228C159.727 259.23 159.439 259.154 159.186 259.009C158.932 258.864 158.721 258.655 158.574 258.402C158.428 258.149 158.35 257.862 158.35 257.57C158.346 257.277 158.419 256.989 158.564 256.734C158.708 256.479 158.917 256.267 159.17 256.12Z" fill="url(#paint18_linear_234_1877)"/>
<path d="M205.04 221C205.038 221.292 205.114 221.579 205.259 221.832C205.405 222.085 205.615 222.295 205.868 222.441C206.121 222.586 206.409 222.662 206.701 222.66C206.993 222.658 207.279 222.579 207.53 222.43L218.15 216.18C218.399 216.035 218.605 215.828 218.749 215.579C218.893 215.33 218.969 215.048 218.97 214.76C218.97 214.468 218.892 214.181 218.746 213.928C218.599 213.675 218.388 213.466 218.134 213.321C217.881 213.176 217.593 213.1 217.301 213.102C217.009 213.103 216.722 213.182 216.47 213.33L205.85 219.57C205.602 219.718 205.398 219.927 205.256 220.178C205.114 220.428 205.039 220.712 205.04 221Z" fill="url(#paint19_linear_234_1877)"/>
<path d="M205.05 211.94C205.05 212.232 205.128 212.519 205.275 212.772C205.421 213.025 205.632 213.234 205.886 213.379C206.139 213.524 206.427 213.6 206.719 213.598C207.011 213.597 207.298 213.518 207.55 213.37L218.17 207.13C218.42 206.984 218.627 206.776 218.771 206.525C218.915 206.274 218.991 205.989 218.99 205.7C218.99 205.408 218.912 205.121 218.765 204.868C218.619 204.615 218.408 204.406 218.154 204.261C217.901 204.116 217.613 204.04 217.321 204.042C217.029 204.043 216.742 204.122 216.49 204.27L205.87 210.52C205.624 210.668 205.42 210.875 205.276 211.124C205.133 211.372 205.055 211.653 205.05 211.94Z" fill="url(#paint20_linear_234_1877)"/>
<path d="M159.17 228.91L216.51 195.19C216.762 195.042 217.049 194.963 217.341 194.962C217.633 194.96 217.921 195.036 218.174 195.181C218.428 195.326 218.639 195.535 218.785 195.788C218.932 196.041 219.01 196.328 219.01 196.62C219.006 196.908 218.928 197.191 218.785 197.441C218.641 197.691 218.437 197.901 218.19 198.05L160.85 231.76C160.598 231.908 160.311 231.987 160.019 231.988C159.727 231.99 159.439 231.914 159.186 231.769C158.932 231.624 158.721 231.415 158.574 231.162C158.428 230.909 158.35 230.622 158.35 230.33C158.35 230.042 158.426 229.759 158.57 229.51C158.714 229.261 158.921 229.054 159.17 228.91Z" fill="url(#paint21_linear_234_1877)"/>
<path d="M151.61 223.83C151.61 224.122 151.688 224.409 151.835 224.662C151.981 224.915 152.192 225.124 152.446 225.269C152.699 225.414 152.987 225.49 153.279 225.488C153.571 225.487 153.858 225.408 154.11 225.26L236.72 176.68C236.969 176.535 237.175 176.328 237.319 176.079C237.463 175.83 237.539 175.548 237.54 175.26C237.54 174.968 237.462 174.681 237.315 174.428C237.169 174.175 236.958 173.966 236.704 173.821C236.451 173.676 236.163 173.6 235.871 173.602C235.579 173.603 235.292 173.682 235.04 173.83L152.43 222.4C152.183 222.549 151.979 222.759 151.835 223.009C151.692 223.259 151.614 223.542 151.61 223.83Z" fill="url(#paint22_linear_234_1877)"/>
<path d="M226.17 217.67C226.17 217.962 226.248 218.249 226.395 218.502C226.541 218.755 226.752 218.964 227.006 219.109C227.259 219.254 227.547 219.33 227.839 219.328C228.131 219.327 228.418 219.248 228.67 219.1L236.67 214.41C236.919 214.265 237.125 214.058 237.269 213.809C237.413 213.56 237.489 213.278 237.49 212.99C237.49 212.698 237.412 212.411 237.265 212.158C237.119 211.905 236.908 211.696 236.654 211.551C236.401 211.406 236.113 211.33 235.821 211.332C235.529 211.333 235.242 211.412 234.99 211.56L226.99 216.24C226.743 216.389 226.539 216.599 226.395 216.849C226.252 217.099 226.174 217.382 226.17 217.67Z" fill="url(#paint23_linear_234_1877)"/>
</g>
<path d="M239.79 196.74C239.18 195.4 236.42 193.22 235.74 192.61C235.06 192 233.01 190.34 232.88 189.61C232.75 188.88 232.29 187.77 232.68 187.61C233.07 187.45 234.62 188.43 234.62 188.43C234.62 188.43 235.34 185.07 234.75 183.43C234.16 181.79 232.37 179 233.08 178.75C233.79 178.5 236.23 179.07 237.08 179.49C237.93 179.91 240.63 181.49 241.24 182.43C241.85 183.37 242.81 187.74 243.08 189.23C243.626 191.183 244.294 193.1 245.08 194.97L239.79 196.74Z" fill="#F8BEA1"/>
<path d="M249.24 238.85C250.71 245.04 257.01 254.49 261.39 251.85C262.3 251.29 264.25 244.16 264.45 242.66C265.56 234.43 261.04 224.66 259.87 220.66C258.4 215.59 245.39 192.94 245.39 192.94C245.39 192.94 240.72 194.85 239.79 196.81C239.79 196.81 249.03 217.93 250.07 221.97C251.11 226.01 249.24 238.85 249.24 238.85Z" fill="url(#paint24_linear_234_1877)"/>
<path d="M197.23 205.44C197.23 205.44 197.23 205.37 197.23 205.33C197.23 205.29 197.23 205.26 197.23 205.22L199.39 189.22C199.39 189.22 199.39 189.14 199.39 189.11C199.39 189.08 199.39 189.03 199.39 189V188.57C199.39 188.57 199.39 188.5 199.39 188.47C199.39 188.44 199.39 188.4 199.39 188.36C199.385 188.323 199.385 188.287 199.39 188.25V188.14C199.39 188.14 199.39 188.06 199.39 188.02L199.33 187.89C199.309 187.84 199.283 187.793 199.25 187.75C199.162 187.596 199.034 187.468 198.88 187.38L206.28 191.68C206.429 191.771 206.555 191.894 206.65 192.04L206.73 192.19C206.736 192.233 206.736 192.277 206.73 192.32C206.734 192.36 206.734 192.4 206.73 192.44V192.55C206.736 192.586 206.736 192.624 206.73 192.66C206.73 192.66 206.73 192.73 206.73 192.77C206.73 192.81 206.73 192.84 206.73 192.87C206.73 192.9 206.73 192.94 206.73 192.98V193.19C206.735 193.227 206.735 193.263 206.73 193.3C206.735 193.333 206.735 193.367 206.73 193.4C206.736 193.436 206.736 193.474 206.73 193.51L204.57 209.51C204.565 209.55 204.565 209.59 204.57 209.63C204.565 209.667 204.565 209.703 204.57 209.74C204.565 209.776 204.565 209.814 204.57 209.85V210.06C204.57 210.06 204.57 210.13 204.57 210.16C204.57 210.19 204.57 210.23 204.57 210.27C204.57 210.31 204.57 210.33 204.57 210.37V210.47C204.564 210.506 204.564 210.544 204.57 210.58C204.574 210.62 204.574 210.66 204.57 210.7L204.63 210.82C204.653 210.872 204.679 210.922 204.71 210.97C204.802 211.119 204.929 211.242 205.08 211.33L197.69 207.04C197.536 206.949 197.405 206.822 197.31 206.67L197.23 206.52C197.226 206.48 197.226 206.44 197.23 206.4C197.226 206.36 197.226 206.32 197.23 206.28V206.18C197.23 206.18 197.23 206.11 197.23 206.07C197.23 206.03 197.23 206 197.23 205.97C197.235 205.934 197.235 205.896 197.23 205.86V205.66C197.225 205.624 197.225 205.586 197.23 205.55V205.44Z" fill="url(#paint25_linear_234_1877)"/>
<path d="M221.32 157H221.44H221.72H221.81H221.9H222H222.09H222.18L235.07 151.71H235.17H235.26H235.35H235.45H235.85H235.97H236.12L236.29 151.79L243.68 156.08L243.52 156.01L243.36 155.96H243.03H242.93H242.84H242.75H242.65H242.56H242.47L229.58 161.24H229.49H229.4H229.31H229.22H229.12H228.68H228.53C228.47 161.216 228.413 161.186 228.36 161.15L220.96 156.86L221.14 156.94L221.32 157Z" fill="url(#paint26_linear_234_1877)"/>
<path d="M188.72 180.76V180.66C188.725 180.624 188.725 180.586 188.72 180.55C188.725 180.513 188.725 180.477 188.72 180.44C188.72 180.44 188.72 180.37 188.72 180.33C188.72 180.29 188.72 180.25 188.72 180.21C188.726 180.174 188.726 180.136 188.72 180.1V179.98V179.86C188.72 179.86 188.72 179.78 188.72 179.74V179.63C188.724 179.59 188.724 179.55 188.72 179.51C188.739 179.474 188.755 179.437 188.77 179.4C188.766 179.367 188.766 179.333 188.77 179.3C188.77 179.3 188.77 179.23 188.77 179.19C188.793 179.156 188.809 179.119 188.82 179.08L188.88 178.96L188.94 178.85C188.94 178.77 189.03 178.69 189.08 178.61L189.18 178.44L189.34 178.21L189.43 178.1L189.52 177.99L189.6 177.89L189.68 177.8L189.77 177.71L189.86 177.61L189.96 177.52L190.06 177.44L190.16 177.35L190.25 177.29L203.14 167.69L203.21 167.63L203.31 167.55L203.41 167.46L203.51 167.37L203.6 167.28L203.69 167.19L203.77 167.09L203.86 166.99L203.94 166.89L204.03 166.77L204.16 166.59C204.226 166.497 204.286 166.4 204.34 166.3C204.377 166.242 204.41 166.182 204.44 166.12L204.51 166C204.521 165.961 204.537 165.924 204.56 165.89V165.78C204.562 165.747 204.562 165.713 204.56 165.68C204.564 165.647 204.564 165.613 204.56 165.58C204.564 165.543 204.564 165.507 204.56 165.47C204.564 165.437 204.564 165.403 204.56 165.37L210.28 148.63V148.55C210.28 148.55 210.28 148.47 210.28 148.43C210.282 148.393 210.282 148.357 210.28 148.32V148.22L210.33 148.11C210.334 148.073 210.334 148.037 210.33 148C210.357 147.959 210.381 147.915 210.4 147.87L210.5 147.69L210.68 147.41L210.8 147.23L210.89 147.11L210.98 147.01L211.06 146.92L211.14 146.82L211.23 146.73L211.33 146.64L211.42 146.55L211.52 146.46L211.62 146.38L211.72 146.3L211.82 146.23L211.91 146.17L212.01 146.11H212.08L212.17 146.06H212.26H212.35H212.44H212.53H212.62H212.72H213.12H213.24H213.39C213.451 146.076 213.509 146.103 213.56 146.14L220.96 150.43L220.79 150.35H220.64H220.11H220.02H219.93H219.84H219.75H219.66H219.57L219.47 150.4H219.4L219.31 150.46L219.21 150.52L219.12 150.59L219.02 150.66L218.92 150.75C218.882 150.771 218.849 150.798 218.82 150.83L218.72 150.92L218.63 151.02L218.54 151.11L218.45 151.2C218.429 151.238 218.402 151.271 218.37 151.3L218.29 151.4L218.2 151.52L218.07 151.7C218.008 151.79 217.951 151.883 217.9 151.98C217.863 152.038 217.83 152.098 217.8 152.16C217.771 152.2 217.747 152.244 217.73 152.29C217.725 152.326 217.725 152.364 217.73 152.4V152.5C217.715 152.538 217.699 152.574 217.68 152.61C217.68 152.61 217.68 152.68 217.68 152.72C217.665 152.758 217.649 152.794 217.63 152.83V152.91L211.9 169.66V169.76V169.86C211.896 169.897 211.896 169.933 211.9 169.97C211.9 169.97 211.9 170.04 211.85 170.07C211.855 170.103 211.855 170.137 211.85 170.17C211.839 170.209 211.823 170.246 211.8 170.28L211.74 170.41L211.64 170.59L211.45 170.88L211.33 171.06L211.24 171.18L211.15 171.28L211.07 171.38L210.98 171.47L210.89 171.57L210.8 171.66L210.7 171.75L210.6 171.84L210.51 171.92L210.43 171.98L197.55 181.57L197.46 181.64L197.35 181.72L197.26 181.81L197.16 181.9L197.06 182L196.98 182.09L196.89 182.18L196.81 182.28L196.72 182.39C196.688 182.422 196.661 182.459 196.64 182.5C196.581 182.573 196.528 182.649 196.48 182.73C196.438 182.783 196.401 182.84 196.37 182.9C196.321 182.973 196.277 183.05 196.24 183.13L196.17 183.25C196.174 183.29 196.174 183.33 196.17 183.37C196.166 183.407 196.166 183.443 196.17 183.48C196.17 183.48 196.17 183.55 196.12 183.58C196.07 183.61 196.12 183.65 196.12 183.69C196.12 183.73 196.12 183.76 196.12 183.8C196.117 183.837 196.117 183.873 196.12 183.91V184.03V184.15V184.27V184.38C196.115 184.42 196.115 184.46 196.12 184.5C196.115 184.54 196.115 184.58 196.12 184.62C196.114 184.656 196.114 184.694 196.12 184.73C196.115 184.766 196.115 184.804 196.12 184.84C196.115 184.873 196.115 184.907 196.12 184.94C196.12 184.94 196.12 185.01 196.12 185.05V185.15C196.115 185.186 196.115 185.224 196.12 185.26V185.36C196.12 185.36 196.12 185.43 196.12 185.46C196.12 185.49 196.12 185.53 196.12 185.56C196.115 185.597 196.115 185.633 196.12 185.67V185.78V185.89L196.18 186.02C196.203 186.072 196.229 186.122 196.26 186.17C196.366 186.326 196.506 186.456 196.67 186.55L189.28 182.25C189.112 182.162 188.971 182.031 188.87 181.87L188.78 181.72C188.78 181.72 188.78 181.63 188.73 181.59C188.68 181.55 188.73 181.52 188.73 181.48V181.37C188.735 181.337 188.735 181.303 188.73 181.27C188.73 181.27 188.73 181.2 188.73 181.16C188.725 181.127 188.725 181.093 188.73 181.06C188.725 181.027 188.725 180.993 188.73 180.96V180.75L188.72 180.76Z" fill="url(#paint27_linear_234_1877)"/>
<path d="M220.21 150.4C219.269 150.98 218.561 151.872 218.21 152.92L212.48 169.67C212.177 170.587 211.61 171.394 210.85 171.99L197.97 181.58C196.18 182.91 195.47 185.86 196.77 186.58L206.12 191.64C206.401 191.85 206.612 192.14 206.726 192.472C206.84 192.803 206.852 193.162 206.76 193.5L204.6 209.5C204.36 211.27 205.49 211.94 206.76 211.21C207.138 210.972 207.475 210.675 207.76 210.33L219.26 196.71C219.541 196.364 219.879 196.07 220.26 195.84C220.561 195.653 220.906 195.55 221.26 195.54L232.8 195.85C233.153 195.843 233.498 195.743 233.8 195.56C234.497 195.115 235.064 194.492 235.442 193.756C235.82 193.02 235.995 192.196 235.95 191.37L233.71 177.9C233.622 176.996 233.837 176.089 234.32 175.32L243.72 159.47C245.02 157.27 244.3 155.15 242.51 155.89L229.62 161.17C229.345 161.332 229.018 161.378 228.709 161.299C228.4 161.221 228.134 161.023 227.97 160.75L222.17 150.66C221.78 150 220.99 150 220.21 150.4Z" fill="url(#paint28_linear_234_1877)"/>
<path d="M208.98 207C208.4 205.66 208.62 202.14 208.62 201.23C208.62 200.32 208.75 197.69 208.29 197.09C207.83 196.49 207.29 195.42 206.91 195.58C206.53 195.74 206.22 197.58 206.22 197.58C204.753 196.958 203.336 196.226 201.98 195.39C199.88 193.94 197.98 191.54 197.29 191.9C196.6 192.26 197.14 193.78 196.86 194.71C196.726 195.995 196.883 197.294 197.32 198.51C197.63 199.61 200.22 203.23 201.15 204.42C202.228 206.144 203.197 207.934 204.05 209.78L208.98 207Z" fill="#F8BEA1"/>
<path d="M241.99 377.43C241.99 377.43 242.04 381.31 242.04 382.65C242.04 383.99 241.66 385.47 241.25 385.65C239.841 386.382 238.205 386.544 236.68 386.1C236.23 385.99 231.68 384.7 229.79 382.25C227.9 379.8 229.52 378.83 231.64 378.83C233.76 378.83 236.9 376.16 236.9 376.16L241.99 377.43Z" fill="url(#paint29_linear_234_1877)"/>
<path d="M257.24 368.16C257.24 368.16 257.24 373.16 257.24 374.46C257.24 375.76 256.86 377.28 256.46 377.46C255.023 378.106 253.415 378.264 251.88 377.91C251.43 377.8 248.98 375.01 247.08 372.55C245.18 370.09 246.52 368.75 248.64 368.75C249.839 368.774 251.027 368.507 252.1 367.97L257.24 368.16Z" fill="url(#paint30_linear_234_1877)"/>
<path d="M239.43 213.13C238.78 213.22 237.65 217.91 237.21 220.19C236.77 222.47 236.48 225.57 236.21 226.42C235.94 227.27 236.57 228.8 236.57 229.42C236.57 230.04 236.07 232.9 237.89 233.77C239.71 234.64 241.5 234.03 241.6 234.52C241.7 235.01 242.6 241.03 242.6 241.03L251.6 239.62C251.579 237.963 251.7 236.307 251.96 234.67C252.36 232.67 253.96 226.38 253.96 226.38L239.43 213.13Z" fill="#F8BEA1"/>
<path d="M256.33 215.32C255.919 214.157 255.238 213.108 254.343 212.26C253.447 211.411 252.364 210.788 251.18 210.44C246.86 208.92 238.5 209.9 237.18 210.49C235.86 211.08 236.3 215.64 238.28 217.87C239.817 219.684 240.607 222.015 240.49 224.39L240.4 225.72L241.68 225.8C241.906 224.778 242.349 223.816 242.98 222.98C244.27 221.69 246.4 222.67 246.14 224.17C246.078 224.682 245.893 225.172 245.603 225.598C245.312 226.024 244.924 226.375 244.47 226.62C244.066 226.903 243.606 227.094 243.12 227.18C243.12 227.18 245.44 230.6 245.75 231.36C246.078 232.5 246.338 233.659 246.53 234.83L251.83 235.64C251.83 235.64 253.97 230.59 255.92 228.41C257.947 225.992 259.015 222.914 258.92 219.76C258.651 218.005 257.725 216.418 256.33 215.32Z" fill="#732A24"/>
<path d="M248.47 290.78C253.33 295.65 254.01 304.97 249.8 314.53C246.95 321.01 245.49 323.2 245.07 336.53C244.65 349.86 242.21 364.05 242.39 378.12C242.39 379.71 237.29 380.35 234.09 377.9C234.09 377.9 232.72 345.99 231.89 337.66C231.06 329.33 229.72 318.5 229.72 309.55C229.831 302.621 230.727 295.727 232.39 289L248.47 290.78Z" fill="#613531"/>
<path d="M258.98 287C263.84 291.86 261.98 301.35 260.91 311.25C259.84 321.15 259.14 333.39 258.74 340.8C258.4 347.17 258.18 355.8 257.33 368.21C257.22 369.8 252.76 371.92 249.57 369.46C249.57 369.46 247.57 342.27 246.78 333.94C245.99 325.61 243.29 309.35 241.62 301.43C239.95 293.51 239.12 290.6 239.12 290.6L258.98 287Z" fill="#613531"/>
<path d="M255.01 234.16C257.2 233.84 258.68 235.95 261.18 238.16C263.68 240.37 263.37 249.72 262.12 255.97C260.894 261.72 260.624 267.632 261.32 273.47C261.94 280.66 263.24 290.47 262.93 298.01C262.93 298.01 260.54 302.61 250.62 304.01C239.8 305.51 229.35 301.01 229.35 301.01C229.35 301.01 231.08 281.45 231.59 276.39C232.34 268.93 229.8 258.82 228.85 254.06C227.45 247.06 233.07 237 233.07 237C236.975 237.924 241.036 237.968 244.96 237.13C248.387 236.422 251.749 235.429 255.01 234.16Z" fill="url(#paint31_linear_234_1877)"/>
<path d="M233.07 237C237.41 241.65 236.47 256.63 231.82 258.8C230.82 259.25 228.65 253.02 227.82 251.8C223.19 244.96 214.7 238.99 212 235.8C208.59 231.8 202.38 208.66 202.38 208.66C202.38 208.66 206.92 206.45 209 207.07C209 207.07 215.72 225.25 218.51 228.35C221.3 231.45 233.07 237 233.07 237Z" fill="url(#paint32_linear_234_1877)"/>
<path d="M241.92 190.29C241.51 190.35 240.65 190.14 239.87 190.11C238.07 190.03 238.06 190.61 235.87 189.19C234.6 188.35 233.93 188.7 234.62 190.19C235.145 190.933 235.763 191.605 236.46 192.19C237.237 193.169 238.082 194.091 238.99 194.95C240.3 195.75 241.92 190.29 241.92 190.29Z" fill="#F8BEA1"/>
<path d="M390.56 278.75C389.95 277.42 387.19 275.23 386.56 274.62C385.93 274.01 383.83 272.36 383.7 271.62C383.57 270.88 383.11 269.79 383.5 269.62C383.89 269.45 385.44 270.44 385.44 270.44C385.44 270.44 386.16 267.09 385.57 265.44C384.98 263.79 383.19 261 383.9 260.75C384.61 260.5 387.05 261.08 387.9 261.49C388.75 261.9 391.45 263.49 392.06 264.43C392.67 265.37 393.63 269.75 393.9 271.23C394.446 273.183 395.114 275.1 395.9 276.97L390.56 278.75Z" fill="#F8BEA1"/>
<path d="M400.01 320.86C401.48 327.05 407.78 336.5 412.16 333.86C413.07 333.3 415.02 326.18 415.22 324.67C416.33 316.44 411.81 306.67 410.64 302.67C409.17 297.6 395.92 276.99 395.92 276.99C395.92 276.99 391.49 276.85 390.56 278.81C390.56 278.81 399.8 299.93 400.84 303.97C401.88 308.01 400.01 320.86 400.01 320.86Z" fill="#F8BEA1"/>
<path d="M401.14 306.52C402.444 306.14 403.785 305.899 405.14 305.8C407.448 305.652 409.763 305.913 411.98 306.57C413.69 311.4 415.98 318.46 415.2 324.64C415 326.15 413.05 333.27 412.14 333.83C407.76 336.5 401.46 327.05 399.99 320.83C400.694 316.091 401.078 311.31 401.14 306.52Z" fill="url(#paint33_linear_234_1877)"/>
<path d="M348 287.46C348 287.46 348 287.38 348 287.35C348 287.32 348 287.27 348 287.23L350.16 271.23C350.16 271.23 350.16 271.16 350.16 271.12C350.16 271.08 350.16 271.05 350.16 271.01V270.59C350.16 270.59 350.16 270.52 350.16 270.48C350.16 270.44 350.16 270.41 350.16 270.37C350.16 270.33 350.16 270.3 350.16 270.27V270.15C350.16 270.15 350.16 270.07 350.16 270.03C350.156 269.99 350.156 269.95 350.16 269.91L350.07 269.76C349.98 269.61 349.853 269.486 349.7 269.4L357.1 273.7C357.253 273.786 357.38 273.91 357.47 274.06C357.502 274.103 357.529 274.15 357.55 274.2C357.552 274.243 357.552 274.287 357.55 274.33C357.554 274.37 357.554 274.41 357.55 274.45V274.56C357.555 274.597 357.555 274.634 357.55 274.67C357.55 274.67 357.55 274.74 357.55 274.78C357.55 274.82 357.55 274.85 357.55 274.88C357.55 274.91 357.55 274.95 357.55 274.99V275.2C357.555 275.237 357.555 275.274 357.55 275.31C357.554 275.347 357.554 275.384 357.55 275.42C357.554 275.457 357.554 275.494 357.55 275.53L355.39 291.53C355.385 291.567 355.385 291.604 355.39 291.64C355.386 291.677 355.386 291.714 355.39 291.75C355.386 291.787 355.386 291.823 355.39 291.86V292.07C355.39 292.07 355.39 292.14 355.39 292.18C355.39 292.22 355.39 292.24 355.39 292.28C355.385 292.313 355.385 292.347 355.39 292.38C355.385 292.417 355.385 292.454 355.39 292.49C355.385 292.523 355.385 292.557 355.39 292.59C355.394 292.63 355.394 292.67 355.39 292.71L355.45 292.83C355.471 292.883 355.497 292.933 355.53 292.98C355.621 293.132 355.748 293.259 355.9 293.35L348.51 289.05C348.356 288.959 348.225 288.832 348.13 288.68C348.13 288.68 348.13 288.59 348.05 288.54C348.044 288.497 348.044 288.453 348.05 288.41C348.044 288.374 348.044 288.336 348.05 288.3V288.19C348.05 288.19 348.05 288.12 348.05 288.08C348.045 288.047 348.045 288.013 348.05 287.98C348.05 287.98 348.05 287.91 348.05 287.88V287.46H348Z" fill="url(#paint34_linear_234_1877)"/>
<path d="M372.09 239H372.21H372.62H372.71H372.81H372.9H372.99L385.88 233.72H385.98H386.07H386.16H386.26H386.35H386.66H386.78H386.93L387.1 233.8L394.49 238.1L394.33 238.02H394.17H394.06H393.65H393.56H393.46H393.37H393.28L380.39 243.31H380.3H380.21H380.12H380.03H379.93H379.62H379.49H379.35C379.287 243.291 379.226 243.264 379.17 243.23L371.77 238.93L371.95 239.01L372.09 239Z" fill="url(#paint35_linear_234_1877)"/>
<path d="M339.53 262.77V262.67C339.535 262.634 339.535 262.596 339.53 262.56C339.53 262.56 339.53 262.49 339.53 262.45C339.526 262.413 339.526 262.377 339.53 262.34C339.53 262.34 339.53 262.27 339.53 262.23C339.535 262.19 339.535 262.15 339.53 262.11V261.99V261.87C339.53 261.87 339.53 261.79 339.53 261.75V261.64C339.533 261.603 339.533 261.567 339.53 261.53V261.41C339.526 261.377 339.526 261.343 339.53 261.31C339.53 261.31 339.53 261.24 339.53 261.2V261.1L339.59 260.98L339.65 260.86C339.65 260.78 339.74 260.7 339.79 260.62L339.89 260.45L340.05 260.22L340.14 260.11L340.23 260L340.31 259.91L340.39 259.81L340.48 259.72L340.57 259.63L340.67 259.54L340.77 259.45L340.87 259.37L340.96 259.3L353.85 249.7L353.92 249.64L354.02 249.56L354.12 249.48L354.22 249.39L354.31 249.29L354.4 249.2L354.49 249.11C354.511 249.072 354.538 249.039 354.57 249.01L354.65 248.9C354.685 248.864 354.715 248.823 354.74 248.78C354.789 248.728 354.832 248.671 354.87 248.61C354.93 248.51 355 248.41 355.05 248.31L355.15 248.14L355.22 248.01V247.9V247.8C355.22 247.8 355.22 247.73 355.22 247.69C355.226 247.657 355.226 247.623 355.22 247.59C355.224 247.553 355.224 247.517 355.22 247.48C355.226 247.447 355.226 247.413 355.22 247.38L360.94 230.64V230.56C360.94 230.56 360.94 230.48 360.94 230.45C360.938 230.413 360.938 230.377 360.94 230.34C360.94 230.34 360.94 230.27 360.94 230.23V230.13C360.961 230.092 360.978 230.052 360.99 230.01C361.019 229.97 361.043 229.926 361.06 229.88L361.16 229.7L361.34 229.43L361.46 229.24L361.55 229.13L361.64 229.03C361.661 228.992 361.688 228.959 361.72 228.93L361.8 228.84L361.89 228.74L361.99 228.65L362.08 228.56L362.18 228.47L362.28 228.39L362.38 228.32L362.48 228.25L362.58 228.18L362.67 228.13H362.74H362.83H362.92H363.01H363.1H363.19H363.28H363.38H363.47H363.78H363.9H364.05L364.23 228.21L371.62 232.51L371.45 232.43H371.3H371.18H370.77H370.68H370.59H370.5H370.41H370.32H370.23L370.14 232.48H370.06L369.97 232.54L369.87 232.6L369.78 232.67L369.68 232.75C369.642 232.771 369.609 232.798 369.58 232.83L369.48 232.92L369.38 233.01L369.29 233.1L369.2 233.19L369.11 233.29L369.03 233.38L368.95 233.49L368.86 233.6L368.73 233.78C368.668 233.87 368.611 233.963 368.56 234.06C368.523 234.118 368.489 234.178 368.46 234.24C368.433 234.281 368.409 234.325 368.39 234.37C368.386 234.407 368.386 234.443 368.39 234.48C368.386 234.517 368.386 234.553 368.39 234.59C368.39 234.59 368.39 234.66 368.39 234.69C368.39 234.72 368.39 234.77 368.39 234.8C368.386 234.84 368.386 234.88 368.39 234.92V235L362.66 251.74V251.84C362.66 251.84 362.66 251.91 362.66 251.95C362.656 251.983 362.656 252.017 362.66 252.05V252.15C362.66 252.15 362.66 252.22 362.66 252.26L362.6 252.37L362.54 252.49L362.44 252.67C362.382 252.77 362.319 252.867 362.25 252.96L362.13 253.14L362.04 253.26L361.95 253.37L361.87 253.46L361.78 253.56L361.69 253.65L361.6 253.74L361.5 253.83L361.41 253.92L361.31 254L361.23 254.06L348.35 263.66L348.26 263.72L348.16 263.81L348.06 263.9C348.02 263.921 347.986 263.952 347.96 263.99L347.86 264.08L347.78 264.17L347.69 264.26L347.61 264.36L347.52 264.47C347.49 264.504 347.463 264.541 347.44 264.58L347.28 264.81C347.24 264.864 347.203 264.921 347.17 264.98C347.12 265.06 347.08 265.14 347.04 265.22L346.98 265.33L346.92 265.45L346.87 265.56V265.67V265.77C346.87 265.77 346.87 265.85 346.87 265.88V266C346.87 266 346.87 266.07 346.87 266.11V266.23V266.35V266.47C346.866 266.507 346.866 266.543 346.87 266.58C346.865 266.62 346.865 266.66 346.87 266.7C346.865 266.737 346.865 266.773 346.87 266.81C346.87 266.81 346.87 266.88 346.87 266.92C346.865 266.957 346.865 266.993 346.87 267.03C346.875 267.063 346.875 267.097 346.87 267.13V267.24C346.865 267.273 346.865 267.307 346.87 267.34V267.44C346.87 267.44 346.87 267.51 346.87 267.54C346.87 267.57 346.87 267.61 346.87 267.65C346.865 267.683 346.865 267.717 346.87 267.75V267.86V267.97L346.93 268.1C346.953 268.152 346.98 268.202 347.01 268.25C347.113 268.408 347.254 268.539 347.42 268.63L340.03 264.33C339.862 264.242 339.721 264.111 339.62 263.95L339.53 263.8C339.53 263.8 339.53 263.72 339.53 263.67C339.53 263.62 339.53 263.6 339.53 263.56V263.45C339.535 263.417 339.535 263.383 339.53 263.35C339.53 263.35 339.53 263.28 339.53 263.25C339.525 263.214 339.525 263.177 339.53 263.14C339.525 263.107 339.525 263.073 339.53 263.04V262.83V262.77Z" fill="url(#paint36_linear_234_1877)"/>
<path d="M370.98 232.41C370.038 232.994 369.33 233.889 368.98 234.94L363.25 251.68C362.947 252.597 362.38 253.404 361.62 254L348.74 263.6C346.95 264.93 346.24 267.87 347.54 268.6L356.89 273.67C357.171 273.878 357.383 274.166 357.497 274.496C357.611 274.826 357.623 275.183 357.53 275.52L355.37 291.52C355.13 293.28 356.26 293.96 357.53 293.22C357.912 292.988 358.251 292.69 358.53 292.34L370.03 278.73C370.31 278.381 370.648 278.083 371.03 277.85C371.329 277.661 371.676 277.56 372.03 277.56L383.57 277.86C383.923 277.853 384.268 277.753 384.57 277.57C385.268 277.125 385.835 276.503 386.213 275.767C386.591 275.03 386.766 274.206 386.72 273.38L384.48 259.91C384.392 259.006 384.607 258.099 385.09 257.33L394.38 241.51C395.68 239.3 394.96 237.19 393.17 237.92L380.28 243.21C380.004 243.371 379.675 243.416 379.366 243.335C379.057 243.254 378.793 243.055 378.63 242.78L372.83 232.69C372.55 232 371.72 232 370.98 232.41Z" fill="url(#paint37_linear_234_1877)"/>
<path d="M359.72 289C359.14 287.66 359.36 284.15 359.36 283.23C359.36 282.31 359.49 279.69 359.03 279.09C358.57 278.49 358.03 277.43 357.65 277.58C357.27 277.73 356.96 279.58 356.96 279.58C355.493 278.958 354.076 278.226 352.72 277.39C350.62 275.93 348.72 273.53 348.03 273.89C347.34 274.25 347.88 275.77 347.6 276.7C347.465 277.985 347.622 279.284 348.06 280.5C348.37 281.6 350.96 285.22 351.89 286.42C352.97 288.143 353.939 289.933 354.79 291.78L359.72 289Z" fill="#F8BEA1"/>
<path d="M392.72 459.44C392.72 459.44 392.72 463.32 392.72 464.66C392.72 466 392.34 467.49 391.93 467.66C390.521 468.392 388.885 468.554 387.36 468.11C386.91 467.99 382.36 466.71 380.47 464.25C378.58 461.79 380.2 460.83 382.32 460.83C384.44 460.83 387.58 458.17 387.58 458.17L392.72 459.44Z" fill="url(#paint38_linear_234_1877)"/>
<path d="M408.01 450.17C408.01 450.17 408.01 455.17 408.01 456.47C408.01 457.77 407.63 459.29 407.23 459.47C405.794 460.119 404.183 460.274 402.65 459.91C402.2 459.8 399.75 457.01 397.85 454.55C395.95 452.09 397.29 450.76 399.41 450.76C400.611 450.784 401.799 450.513 402.87 449.97L408.01 450.17Z" fill="url(#paint39_linear_234_1877)"/>
<path d="M390.2 295.15C389.55 295.23 388.42 299.92 387.98 302.2C387.54 304.48 387.25 307.58 386.98 308.43C386.71 309.28 387.34 310.81 387.34 311.43C387.34 312.05 386.84 314.91 388.66 315.78C390.48 316.65 392.27 316.04 392.37 316.53C392.47 317.02 393.37 323.04 393.37 323.04L402.37 321.63C402.349 319.976 402.47 318.323 402.73 316.69C403.13 314.69 404.73 308.4 404.73 308.4L390.2 295.15Z" fill="#F8BEA1"/>
<path d="M407.1 297.33C406.689 296.168 406.008 295.12 405.113 294.274C404.217 293.427 403.133 292.805 401.95 292.46C397.63 290.93 389.27 291.92 387.95 292.51C386.63 293.1 387.07 297.65 389.05 299.89C390.587 301.701 391.377 304.028 391.26 306.4L391.17 307.74L392.45 307.81C392.668 306.794 393.101 305.836 393.72 305C395.01 303.71 397.14 304.69 396.88 306.19C396.819 306.703 396.636 307.193 396.345 307.619C396.054 308.046 395.665 308.396 395.21 308.64C394.806 308.923 394.346 309.114 393.86 309.2C393.86 309.2 396.18 312.62 396.49 313.38C396.82 314.524 397.084 315.686 397.28 316.86L402.57 317.66C402.57 317.66 404.71 312.66 406.66 310.43C408.69 308.014 409.759 304.934 409.66 301.78C409.401 300.026 408.486 298.436 407.1 297.33Z" fill="#732A24"/>
<path d="M399.24 372.79C404.1 377.66 404.78 386.98 400.57 396.54C397.72 403.02 396.26 405.21 395.84 418.54C395.42 431.87 392.98 446.05 393.16 460.12C393.16 461.71 388.06 462.36 384.86 459.9C384.86 459.9 383.49 428 382.66 419.66C381.83 411.32 380.48 400.55 380.48 391.6C380.593 384.671 381.492 377.777 383.16 371.05L399.24 372.79Z" fill="url(#paint40_linear_234_1877)"/>
<path d="M409.72 369C414.58 373.87 412.72 383.35 411.65 393.25C410.58 403.15 409.88 415.4 409.48 422.81C409.14 429.17 408.92 437.75 408.07 450.21C407.96 451.8 403.5 453.93 400.31 451.47C400.31 451.47 398.36 424.28 397.52 415.94C396.68 407.6 394.03 391.35 392.36 383.43C390.69 375.51 389.86 372.6 389.86 372.6L409.72 369Z" fill="url(#paint41_linear_234_1877)"/>
<path d="M405.78 316.17C407.97 315.86 409.45 317.96 411.95 320.17C414.45 322.38 414.14 331.74 412.89 337.99C411.664 343.736 411.394 349.646 412.09 355.48C412.71 362.67 414.01 372.48 413.7 380.03C413.7 380.03 411.31 384.63 401.39 386.03C390.57 387.52 380.12 383.03 380.12 383.03C380.12 383.03 381.85 363.47 382.36 358.41C383.11 350.95 380.57 340.84 379.62 336.09C378.22 329.09 383.84 319.02 383.84 319.02C387.745 319.944 391.806 319.988 395.73 319.15C399.157 318.439 402.519 317.442 405.78 316.17Z" fill="url(#paint42_linear_234_1877)"/>
<path d="M383.84 319C388.18 323.65 387.24 338.64 382.59 340.81C381.59 341.26 379.42 335.02 378.59 333.81C373.96 326.97 365.47 321 362.77 317.81C359.36 313.81 354.06 290.26 354.06 290.26C354.06 290.26 357.69 288.46 359.77 289.08C359.77 289.08 366.49 307.26 369.28 310.37C372.07 313.48 383.84 319 383.84 319Z" fill="#F8BEA1"/>
<path d="M372.45 312.78C376.131 315.052 379.933 317.122 383.84 318.98C388.18 323.63 387.24 338.62 382.59 340.79C381.59 341.24 379.42 335 378.59 333.79C375.8 329.67 371.59 330.07 368.14 327C370.16 324.12 371.61 316.11 372.45 312.78Z" fill="url(#paint43_linear_234_1877)"/>
<path d="M392.72 272.31C392.31 272.36 391.45 272.15 390.72 272.12C388.92 272.04 388.91 272.63 386.72 271.2C385.45 270.36 384.78 270.71 385.47 272.2C385.992 272.945 386.611 273.618 387.31 274.2C388.087 275.181 388.936 276.104 389.85 276.96C391.07 277.76 392.72 272.31 392.72 272.31Z" fill="#F8BEA1"/>
<path d="M391.54 303.58C391.398 305.637 391.063 307.676 390.54 309.67C390 311.67 388.9 311.62 388.54 311.2C388.18 310.78 386.94 309.63 386.94 309.59C386.764 310.626 386.764 311.684 386.94 312.72C387.27 313.46 386.87 316.45 389.14 316.79C391.41 317.13 391.5 315.79 391.5 315.79C391.224 314.42 391.224 313.01 391.5 311.64C391.88 310.389 392.184 309.117 392.41 307.83L391.54 303.58Z" fill="#732A24"/>
<path d="M319.91 238.86C319.3 237.52 316.54 235.34 315.91 234.72C315.28 234.1 313.19 232.46 313.05 231.72C312.91 230.98 312.46 229.88 312.85 229.72C313.24 229.56 314.79 230.54 314.79 230.54C314.79 230.54 315.51 227.18 314.92 225.54C314.33 223.9 312.54 221.11 313.25 220.86C313.96 220.61 316.4 221.18 317.25 221.6C318.1 222.02 320.79 223.6 321.4 224.53C322.01 225.46 322.97 229.85 323.24 231.34C323.786 233.293 324.454 235.21 325.24 237.08L319.91 238.86Z" fill="#F8BEA1"/>
<path d="M325.12 278.71C325.97 284.58 331.05 293.99 335.39 292C336.29 291.59 338.73 285.23 339.05 283.87C340.8 276.4 337.41 266.87 336.67 263.05C335.73 258.22 325.27 237.05 325.27 237.05C325.27 237.05 320.95 237.16 319.91 238.87C319.91 238.87 326.74 259.35 327.37 263.19C328 267.03 325.12 278.71 325.12 278.71Z" fill="#F8BEA1"/>
<path d="M277.35 247.56C277.355 247.523 277.355 247.487 277.35 247.45C277.35 247.45 277.35 247.37 277.35 247.33L279.51 231.33C279.51 231.33 279.51 231.26 279.51 231.22C279.515 231.187 279.515 231.153 279.51 231.12C279.505 231.084 279.505 231.046 279.51 231.01V230.9C279.515 230.867 279.515 230.833 279.51 230.8V230.69C279.505 230.657 279.505 230.623 279.51 230.59C279.51 230.59 279.51 230.51 279.51 230.48C279.51 230.45 279.51 230.4 279.51 230.37V230.26C279.51 230.26 279.51 230.18 279.51 230.14C279.51 230.1 279.51 230.05 279.46 230.01L279.38 229.86C279.285 229.714 279.159 229.591 279.01 229.5L286.4 233.8C286.549 233.891 286.675 234.014 286.77 234.16C286.801 234.208 286.827 234.258 286.85 234.31L286.91 234.44V234.55C286.919 234.589 286.919 234.631 286.91 234.67V234.78C286.91 234.78 286.91 234.85 286.91 234.88C286.915 234.917 286.915 234.953 286.91 234.99C286.915 235.023 286.915 235.057 286.91 235.09V235.41C286.905 235.447 286.905 235.483 286.91 235.52C286.91 235.52 286.91 235.59 286.91 235.63L284.75 251.63C284.75 251.63 284.75 251.71 284.75 251.75C284.745 251.786 284.745 251.824 284.75 251.86C284.75 251.86 284.75 251.93 284.75 251.97V252.18C284.755 252.213 284.755 252.247 284.75 252.28C284.75 252.28 284.75 252.35 284.75 252.38C284.75 252.41 284.75 252.45 284.75 252.49C284.745 252.523 284.745 252.557 284.75 252.59V252.7C284.744 252.736 284.744 252.774 284.75 252.81C284.761 252.855 284.777 252.899 284.8 252.94C284.821 252.99 284.848 253.037 284.88 253.08C284.974 253.229 285.101 253.356 285.25 253.45L277.86 249.15C277.708 249.06 277.578 248.937 277.48 248.79L277.4 248.64V248.52C277.4 248.52 277.4 248.44 277.4 248.4V248.29C277.405 248.257 277.405 248.223 277.4 248.19C277.4 248.19 277.4 248.12 277.4 248.09C277.395 248.053 277.395 248.017 277.4 247.98C277.395 247.947 277.395 247.913 277.4 247.88V247.56H277.35Z" fill="url(#paint44_linear_234_1877)"/>
<path d="M301.44 199.12H301.97H302.07H302.16H302.25H302.34L315.22 193.84H315.31H315.4H315.49H315.59H315.68H316.11L316.26 193.89L316.43 193.96L323.82 198.26L323.66 198.18H323.51H323.39H323.08H322.98H322.89H322.8H322.7H322.61L309.72 203.46H309.63H309.53H309.44H309.35H308.94H308.82H308.67L308.49 203.38L301.1 199.08C301.153 199.116 301.21 199.146 301.27 199.17L301.44 199.12Z" fill="url(#paint45_linear_234_1877)"/>
<path d="M268.88 222.88C268.875 222.844 268.875 222.806 268.88 222.77V222.67C268.88 222.67 268.88 222.59 268.88 222.56C268.88 222.53 268.88 222.48 268.88 222.45C268.885 222.41 268.885 222.37 268.88 222.33V222.21C268.876 222.173 268.876 222.137 268.88 222.1C268.876 222.06 268.876 222.02 268.88 221.98V221.86C268.876 221.82 268.876 221.78 268.88 221.74C268.877 221.703 268.877 221.667 268.88 221.63C268.876 221.593 268.876 221.557 268.88 221.52C268.88 221.52 268.88 221.45 268.88 221.41C268.88 221.37 268.88 221.34 268.88 221.31C268.88 221.28 268.88 221.24 268.88 221.2L268.94 221.08L269 220.96C269 220.88 269.09 220.8 269.14 220.73L269.24 220.56L269.4 220.33L269.49 220.22L269.58 220.11C269.601 220.072 269.628 220.039 269.66 220.01L269.74 219.92L269.83 219.82L269.93 219.73L270.02 219.64L270.12 219.55C270.158 219.529 270.191 219.502 270.22 219.47L270.31 219.4L283.2 209.81L283.27 209.75L283.37 209.67L283.47 209.58L283.57 209.49L283.66 209.4L283.75 209.3L283.84 209.21L283.92 209.11L284 209.01L284.1 208.89L284.22 208.71L284.41 208.42L284.5 208.24C284.529 208.2 284.553 208.156 284.57 208.11C284.593 208.076 284.609 208.039 284.62 208C284.622 207.967 284.622 207.933 284.62 207.9V207.8L284.67 207.69C284.666 207.657 284.666 207.623 284.67 207.59V207.49L290.39 190.74V190.66C290.409 190.624 290.425 190.587 290.44 190.55C290.436 190.513 290.436 190.477 290.44 190.44C290.44 190.44 290.44 190.37 290.44 190.33C290.461 190.299 290.477 190.265 290.49 190.23L290.55 190.12L290.61 189.99C290.647 189.932 290.681 189.872 290.71 189.81L290.89 189.53L291.02 189.35L291.11 189.23L291.19 189.13L291.27 189.03L291.36 188.94L291.44 188.85L291.54 188.75L291.64 188.66C291.669 188.628 291.703 188.601 291.74 188.58L291.84 188.49L291.93 188.42L292.03 188.35L292.13 188.29L292.22 188.23H292.29L292.38 188.18H292.47H292.56H292.65H292.74H292.84H292.93H293.02H293.45H293.6L293.78 188.26L301.17 192.56L301 192.48H300.85H300.73H300.42H300.32H300.23H300.14H300.05H299.96H299.87H299.78L299.69 192.53H299.62L299.52 192.58L299.43 192.65L299.33 192.72L299.23 192.79L299.13 192.87L299.03 192.96L298.93 193.05L298.84 193.14L298.75 193.24L298.67 193.33L298.58 193.43L298.5 193.53L298.41 193.65L298.28 193.83L298.11 194.1C298.071 194.16 298.037 194.224 298.01 194.29L297.94 194.41V194.53C297.94 194.53 297.94 194.6 297.94 194.63L297.89 194.74C297.89 194.74 297.89 194.81 297.89 194.85C297.89 194.89 297.89 194.92 297.89 194.96V195.04L292.17 211.78C292.168 211.813 292.168 211.847 292.17 211.88C292.17 211.88 292.17 211.96 292.17 211.99C292.17 212.02 292.17 212.06 292.17 212.1C292.151 212.132 292.135 212.166 292.12 212.2V212.3L292.06 212.41L292 212.54C291.972 212.6 291.939 212.657 291.9 212.71L291.72 213.01L291.59 213.19L291.5 213.31L291.42 213.41L291.33 213.51L291.25 213.6L291.16 213.69C291.129 213.726 291.096 213.759 291.06 213.79L290.97 213.88L290.87 213.96L290.77 214.05L290.69 214.1L277.81 223.7L277.72 223.77L277.62 223.85L277.52 223.94L277.42 224.03L277.33 224.12L277.24 224.21L277.15 224.31L277.07 224.4L276.98 224.51L276.9 224.63C276.84 224.7 276.79 224.78 276.74 224.85C276.69 224.92 276.67 224.97 276.63 225.02L276.5 225.26L276.44 225.38L276.38 225.5C276.378 225.537 276.378 225.573 276.38 225.61C276.376 225.643 276.376 225.677 276.38 225.71V225.82C276.38 225.82 276.38 225.89 276.38 225.93C276.38 225.97 276.38 226 276.38 226.04C276.384 226.08 276.384 226.12 276.38 226.16V226.28V226.39V226.51C276.375 226.55 276.375 226.59 276.38 226.63C276.376 226.667 276.376 226.703 276.38 226.74C276.38 226.74 276.38 226.82 276.38 226.85C276.38 226.88 276.38 226.93 276.38 226.96C276.38 226.99 276.38 227.04 276.38 227.07V227.18C276.375 227.213 276.375 227.247 276.38 227.28V227.48C276.385 227.517 276.385 227.553 276.38 227.59C276.38 227.59 276.38 227.66 276.38 227.69C276.38 227.72 276.38 227.76 276.38 227.79V227.91C276.376 227.943 276.376 227.977 276.38 228.01C276.39 228.055 276.407 228.099 276.43 228.14C276.452 228.192 276.479 228.242 276.51 228.29C276.614 228.451 276.759 228.582 276.93 228.67L269.53 224.38C269.364 224.285 269.223 224.151 269.12 223.99C269.088 223.947 269.061 223.9 269.04 223.85L268.98 223.72V223.61C268.972 223.574 268.972 223.536 268.98 223.5C268.975 223.463 268.975 223.427 268.98 223.39C268.974 223.357 268.974 223.323 268.98 223.29C268.98 223.29 268.98 223.22 268.98 223.19C268.98 223.16 268.98 223.12 268.98 223.09V222.88H268.88Z" fill="url(#paint46_linear_234_1877)"/>
<path d="M300.34 192.51C299.401 193.097 298.694 193.991 298.34 195.04L292.62 211.78C292.309 212.696 291.74 213.502 290.98 214.1L278.1 223.7C276.31 225.03 275.6 227.97 276.91 228.7L286.26 233.77C286.54 233.981 286.75 234.271 286.862 234.603C286.975 234.935 286.984 235.293 286.89 235.63L284.73 251.63C284.5 253.4 285.62 254.07 286.89 253.34C287.27 253.101 287.608 252.8 287.89 252.45L299.39 238.84C299.673 238.496 300.011 238.202 300.39 237.97C300.687 237.776 301.035 237.671 301.39 237.67L312.93 237.98C313.285 237.976 313.632 237.872 313.93 237.68C314.629 237.236 315.197 236.614 315.575 235.877C315.953 235.141 316.127 234.317 316.08 233.49L313.84 220.03C313.747 219.125 313.966 218.214 314.46 217.45L323.75 201.62C325.04 199.42 324.32 197.3 322.53 198.04L309.64 203.32C309.365 203.479 309.038 203.524 308.73 203.445C308.421 203.367 308.156 203.171 307.99 202.9L302.19 192.81C301.9 192.08 301.12 192.06 300.34 192.51Z" fill="url(#paint47_linear_234_1877)"/>
<path d="M289.1 249.57C288.47 248.33 288.58 245.17 288.55 244.34C288.52 243.51 288.55 241.15 288.1 240.6C287.65 240.05 287.1 239.06 286.67 239.19C286.24 239.32 286.04 240.97 286.04 240.97C284.564 240.364 283.131 239.659 281.75 238.86C279.6 237.48 277.6 235.25 276.95 235.55C276.3 235.85 276.86 237.25 276.61 238.08C276.522 239.257 276.721 240.437 277.19 241.52C277.53 242.52 280.19 245.88 281.19 246.99C282.313 248.567 283.335 250.214 284.25 251.92L289.1 249.57Z" fill="#F8BEA1"/>
<path d="M313.19 279.08C317.53 283.73 316.6 298.72 311.95 300.89C310.95 301.34 311.27 292.72 310.35 291.51C308.76 289.39 297.69 281.92 294.99 278.73C291.58 274.73 284.17 251.89 284.17 251.89C284.17 251.89 287.03 248.5 289.11 249.12C289.369 251.711 290.176 254.216 291.48 256.47C298.1 266.95 297.74 269.54 299.63 271.34C300.4 272.07 313.19 279.08 313.19 279.08Z" fill="#F8BEA1"/>
<path d="M307.29 289.5C306.52 285.9 304.99 279.67 307.6 276.25C309.396 277.321 311.264 278.266 313.19 279.08C317.53 283.73 320.64 294.19 315.99 296.36C314.99 296.81 310.77 294.2 309.92 292.94C309.07 291.68 307.45 290.2 307.29 289.5Z" fill="#42B2FC"/>
<path d="M318.79 254.27C316.79 253.06 311.79 253.62 311.79 253.62C311.79 253.62 311.6 259.13 311.23 261.51C310.86 263.89 311.51 266.87 312.4 269.67C313.29 272.47 317.24 271.3 317.24 271.3L318.79 254.27Z" fill="#F8BEA1"/>
<path d="M323.28 331C328.38 336.12 325.92 345.68 322.12 356C318.64 365.46 316.86 372.3 317.77 378.93C319.68 392.87 316.7 405.73 316.89 420.51C316.89 422.18 313.58 423.26 310.22 420.68C310.22 420.68 308.31 385.06 307.43 376.3C306.55 367.54 306.43 359.1 304.98 350.73C303.1 339.94 306.39 329.15 306.39 329.15L323.28 331Z" fill="#133A50"/>
<path d="M316.89 420.49C316.89 420.49 316.89 424.57 316.89 425.98C316.89 427.39 316.54 429.14 316.07 429.14C315.6 429.14 311.73 429.73 311.26 429.61C310.79 429.49 308.26 426.56 306.26 423.98C304.26 421.4 305.67 419.98 307.9 419.98C309.163 420.005 310.413 419.72 311.54 419.15L316.89 420.49Z" fill="#21295B"/>
<path d="M316.89 420.49L317.89 403.71C317.89 403.71 312.31 404.53 308.89 403C308.89 403 310.35 417.45 310.26 420.66C310.17 423.87 316.89 420.49 316.89 420.49Z" fill="#21295B"/>
<path d="M334.32 327C339.43 332.11 338.32 344.15 335.13 354.1C331.94 364.05 330.53 372.36 331.85 378.93C333.17 385.5 331.96 401.85 331.07 414.93C330.95 416.59 327.66 418.8 324.3 416.22C324.3 416.22 322.38 385.04 321.51 376.28C320.64 367.52 317.84 350.46 316.09 342.14C314.34 333.82 313.46 330.76 313.46 330.76L334.32 327Z" fill="#133A50"/>
<path d="M330.39 274.73C332.69 274.4 334 273.41 336.63 275.73C339.26 278.05 338.93 287.88 337.63 294.44C336.33 301 332.37 303.64 333.03 311.19C333.69 318.74 337.64 326.19 337.31 334.04C337.31 334.04 331.72 339.09 321.21 338.44C310.7 337.79 305.12 334.17 305.12 334.17C305.12 334.17 308.41 320.05 309.39 314.8C310.37 309.55 311.03 303.64 309.72 298.71C308.41 293.78 308.41 282.95 308.41 282.95C308.41 282.95 310.41 280 316.61 277.37C321.018 275.707 325.679 274.814 330.39 274.73Z" fill="#42B2FC"/>
<path d="M330.97 416.06C330.97 416.06 330.97 420.13 330.97 421.54C330.97 422.95 330.62 424.71 330.15 424.71C329.68 424.71 325.81 425.29 325.34 425.18C324.87 425.07 322.29 422.18 320.29 419.55C318.29 416.92 319.71 415.55 321.94 415.55C323.199 415.577 324.445 415.295 325.57 414.73L330.97 416.06Z" fill="#21295B"/>
<path d="M330.97 416.06L331.97 399.27C331.97 399.27 326.38 400.09 322.97 398.57C322.97 398.57 324.42 413.01 324.34 416.22C324.26 419.43 330.97 416.06 330.97 416.06Z" fill="#21295B"/>
<path d="M314.97 256.39C314.97 256.39 311.58 256.82 310.03 255.63C310.03 255.63 308.72 246.72 315.16 247.08L314.97 256.39Z" fill="#732A24"/>
<path d="M331.42 272.65C331.42 272.65 338.61 273.49 339.55 280.7C339.55 280.7 339.55 291.28 336.22 298.82C336.22 298.82 328.12 279.05 331.42 272.65Z" fill="#42B2FC"/>
<path d="M330.65 246.36C334.98 248.87 336.13 253.86 334.44 260.47C332.75 267.08 333.61 268.8 335.44 273.2C337.27 277.6 338.59 282.51 335 285.61C332.42 287.83 325.31 291 319.06 288.69C312.81 286.38 313.15 281.93 313.67 275.46C314.19 268.99 315.49 262.4 313.87 258.6C312.25 254.8 310.6 252.6 312.47 249.08C314.34 245.56 323.34 242.13 330.65 246.36Z" fill="#732A24"/>
<path d="M225.93 105L228.77 102.88C229.231 102.532 229.578 102.055 229.77 101.51L231.03 97.82C231.231 97.2007 231.641 96.6705 232.19 96.32C232.66 96.05 233.12 96.06 233.37 96.48L234.65 98.7C234.697 98.7843 234.761 98.8579 234.838 98.9163C234.915 98.9746 235.004 99.0163 235.098 99.0388C235.191 99.0614 235.289 99.0642 235.384 99.0472C235.479 99.0302 235.57 98.9937 235.65 98.94L238.49 97.79C239.56 97.34 239.98 98.61 239.22 99.91L237.22 103.4C236.918 103.853 236.787 104.399 236.85 104.94L237.33 107.94C237.359 108.429 237.257 108.917 237.034 109.354C236.81 109.79 236.474 110.158 236.06 110.42C235.88 110.534 235.673 110.596 235.46 110.6L232.92 110.53C232.703 110.529 232.491 110.591 232.31 110.71C232.077 110.845 231.87 111.021 231.7 111.23L229.17 114.23C229.001 114.443 228.794 114.622 228.56 114.76C227.8 115.2 227.14 114.76 227.28 113.76L227.76 110.24C227.812 110.038 227.803 109.825 227.736 109.628C227.668 109.431 227.545 109.258 227.38 109.13L225.32 108.01C224.45 107.53 224.87 105.77 225.93 105Z" fill="url(#paint48_linear_234_1877)"/>
<path d="M206.72 116.08L209.55 113.97C210.01 113.616 210.357 113.137 210.55 112.59L211.72 108.9C211.924 108.279 212.337 107.749 212.89 107.4C213.35 107.13 213.81 107.14 214.05 107.56L215.33 109.78C215.378 109.863 215.443 109.935 215.52 109.993C215.597 110.051 215.684 110.092 215.777 110.116C215.87 110.139 215.967 110.143 216.062 110.129C216.157 110.114 216.248 110.08 216.33 110.03L219.16 108.87C220.24 108.42 220.67 109.69 219.89 111L217.89 114.48C217.599 114.938 217.469 115.48 217.52 116.02L218.01 119.02C218.036 119.51 217.932 119.998 217.709 120.436C217.486 120.873 217.152 121.243 216.74 121.51C216.556 121.621 216.345 121.68 216.13 121.68L213.59 121.61C213.377 121.615 213.17 121.677 212.99 121.79C212.759 121.928 212.553 122.104 212.38 122.31L209.85 125.31C209.675 125.517 209.469 125.696 209.24 125.84C208.49 126.27 207.82 125.84 207.96 124.84L208.43 121.32C208.489 121.12 208.485 120.906 208.416 120.709C208.348 120.512 208.22 120.341 208.05 120.22L206 119.09C205.21 118.63 205.63 116.87 206.72 116.08Z" fill="url(#paint49_linear_234_1877)"/>
<path d="M187.47 127.19L190.3 125.07C190.761 124.721 191.109 124.245 191.3 123.7L192.56 120.01C192.758 119.387 193.169 118.852 193.72 118.5C194.18 118.23 194.64 118.24 194.89 118.66L196.16 120.88C196.208 120.963 196.273 121.035 196.35 121.093C196.427 121.151 196.514 121.192 196.607 121.216C196.701 121.239 196.797 121.243 196.892 121.229C196.987 121.214 197.078 121.18 197.16 121.13L200 119.97C201.06 119.53 201.49 120.79 200.72 122.1L198.72 125.59C198.427 126.047 198.297 126.59 198.35 127.13L198.85 130.13C198.872 130.621 198.765 131.108 198.541 131.545C198.316 131.982 197.982 132.352 197.57 132.62C197.388 132.736 197.176 132.795 196.96 132.79L194.42 132.73C194.208 132.726 193.999 132.786 193.82 132.9C193.587 133.039 193.38 133.218 193.21 133.43L190.67 136.43C190.504 136.642 190.3 136.821 190.07 136.96C189.31 137.4 188.65 136.96 188.79 135.96L189.26 132.44C189.322 132.239 189.318 132.023 189.25 131.823C189.182 131.624 189.052 131.451 188.88 131.33L186.83 130.21C185.98 129.74 186.4 128 187.47 127.19Z" fill="url(#paint50_linear_234_1877)"/>
<path d="M168.24 138.29L171.07 136.18C171.53 135.826 171.877 135.347 172.07 134.8L173.33 131.11C173.527 130.489 173.938 129.957 174.49 129.61C174.96 129.34 175.42 129.35 175.66 129.77L176.93 131.99C177.031 132.154 177.193 132.271 177.381 132.316C177.568 132.361 177.765 132.33 177.93 132.23L180.76 131.08C181.83 130.63 182.26 131.9 181.49 133.21L179.49 136.69C179.202 137.149 179.072 137.69 179.12 138.23L179.62 141.23C179.647 141.719 179.544 142.206 179.321 142.642C179.098 143.078 178.763 143.446 178.35 143.71C178.165 143.829 177.95 143.892 177.73 143.89L175.19 143.82C174.977 143.823 174.769 143.885 174.59 144C174.359 144.138 174.153 144.314 173.98 144.52L171.45 147.52C171.281 147.726 171.078 147.902 170.85 148.04C170.09 148.48 169.42 148.04 169.56 147.04L170.03 143.52C170.11 142.98 169.97 142.52 169.66 142.42L167.6 141.29C166.72 140.84 167.17 139.08 168.24 138.29Z" fill="url(#paint51_linear_234_1877)"/>
<path d="M149 149.4L151.83 147.28C152.293 146.929 152.641 146.449 152.83 145.9L154.08 142.22C154.281 141.595 154.695 141.061 155.25 140.71C155.71 140.44 156.18 140.45 156.42 140.87L157.69 143.09C157.791 143.254 157.953 143.371 158.139 143.418C158.326 143.464 158.523 143.437 158.69 143.34L161.52 142.18C162.58 141.74 163.02 143 162.25 144.31L160.25 147.8C159.962 148.259 159.832 148.8 159.88 149.34L160.38 152.34C160.404 152.831 160.298 153.319 160.074 153.756C159.849 154.194 159.513 154.564 159.1 154.83C158.918 154.946 158.706 155.005 158.49 155L155.95 154.94C155.738 154.938 155.529 154.997 155.35 155.11C155.12 155.246 154.917 155.422 154.75 155.63L152.22 158.63C152.046 158.837 151.84 159.016 151.61 159.16C150.85 159.6 150.18 159.16 150.32 158.16L150.8 154.63C150.862 154.429 150.858 154.213 150.79 154.013C150.722 153.814 150.592 153.641 150.42 153.52L148.36 152.41C147.52 151.94 147.94 150.18 149 149.4Z" fill="#FFC610"/>
<path d="M141.28 327.87C141.54 327.917 141.82 327.957 142.12 327.99H142.45L151.86 333.46H151.52C151.238 333.439 150.958 333.403 150.68 333.35C150.375 333.286 150.074 333.202 149.78 333.1C149.432 332.988 149.097 332.841 148.78 332.66L139.38 327.2C139.697 327.381 140.032 327.528 140.38 327.64C140.673 327.74 140.974 327.817 141.28 327.87Z" fill="url(#paint52_linear_234_1877)"/>
<path d="M132.89 333C133.501 333.666 134.209 334.235 134.99 334.69L125.59 329.22C124.806 328.769 124.095 328.203 123.48 327.54L132.89 333Z" fill="url(#paint53_linear_234_1877)"/>
<path d="M109.53 315.54C109.53 315.32 109.53 315.09 109.53 314.87C109.53 314.65 109.53 314.42 109.53 314.19C109.53 313.96 109.58 313.73 109.61 313.49C109.64 313.25 109.67 313.02 109.71 312.79C109.75 312.56 109.79 312.3 109.84 312.06C109.89 311.82 109.94 311.55 109.99 311.3L110.17 310.53L110.38 309.73C110.46 309.46 110.53 309.19 110.62 308.92C110.71 308.65 110.79 308.38 110.88 308.11C110.97 307.84 111.06 307.57 111.16 307.3C111.26 307.03 111.36 306.75 111.47 306.48L111.8 305.65L112.16 304.82C112.29 304.53 112.42 304.24 112.56 303.95C112.7 303.66 112.88 303.28 113.04 302.95L113.61 301.84C113.917 301.273 114.25 300.703 114.61 300.13C115.18 299.13 115.78 298.2 116.43 297.24C116.91 296.52 117.43 295.8 117.95 295.08C118.32 294.58 118.71 294.08 119.1 293.57C119.49 293.06 119.81 292.68 120.18 292.24C120.55 291.8 120.92 291.36 121.3 290.93C121.68 290.5 122.08 290.05 122.48 289.62C122.88 289.19 123.33 288.71 123.77 288.27C124.21 287.83 124.7 287.34 125.17 286.89C125.64 286.44 126.17 285.96 126.66 285.5C127.15 285.04 127.66 284.58 128.22 284.14C128.78 283.7 129.29 283.25 129.83 282.83C130.37 282.41 130.9 281.99 131.45 281.59C132 281.19 132.52 280.81 133.07 280.44C133.62 280.07 134.15 279.72 134.69 279.37C135.23 279.02 135.76 278.7 136.3 278.37L136.67 278.15C137.08 277.91 137.49 277.68 137.89 277.47C138.29 277.26 138.89 276.91 139.45 276.66C140.01 276.41 140.45 276.17 140.97 275.94C141.49 275.71 141.97 275.5 142.47 275.31C142.97 275.12 143.47 274.92 143.93 274.75C144.39 274.58 144.93 274.43 145.38 274.28C145.83 274.13 146.38 274 146.81 273.89C147.24 273.78 147.81 273.66 148.23 273.57C148.65 273.48 149.23 273.4 149.64 273.34C150.05 273.28 150.58 273.22 151.04 273.19C151.5 273.16 152.04 273.19 152.47 273.19C152.9 273.19 153.47 273.19 153.94 273.26C154.454 273.306 154.964 273.379 155.47 273.48C156.05 273.593 156.622 273.747 157.18 273.94C157.815 274.163 158.427 274.444 159.01 274.78L168.41 280.25C167.83 279.916 167.221 279.635 166.59 279.41C166.032 279.215 165.461 279.061 164.88 278.95C164.372 278.845 163.857 278.772 163.34 278.73C162.855 278.681 162.368 278.658 161.88 278.66C161.41 278.66 160.88 278.66 160.44 278.71C160 278.76 159.52 278.79 159.04 278.85C158.56 278.91 158.11 278.99 157.63 279.09C157.15 279.19 156.69 279.28 156.21 279.4C155.73 279.52 155.27 279.65 154.78 279.8C154.29 279.95 153.78 280.1 153.34 280.27C152.9 280.44 152.34 280.62 151.87 280.82C151.4 281.02 150.87 281.23 150.38 281.46C149.89 281.69 149.38 281.92 148.86 282.17L147.3 282.98L146.08 283.66L145.7 283.88C145.16 284.2 144.63 284.53 144.1 284.88C143.57 285.23 143.01 285.58 142.47 285.95C141.93 286.32 141.39 286.7 140.85 287.1C140.31 287.5 139.77 287.91 139.24 288.33C138.71 288.75 138.16 289.2 137.63 289.64C137.1 290.08 136.58 290.54 136.06 291.01C135.54 291.48 135.06 291.92 134.57 292.39C134.08 292.86 133.63 293.31 133.18 293.77C132.73 294.23 132.31 294.67 131.88 295.13C131.45 295.59 131.09 295.99 130.71 296.43C130.33 296.87 129.95 297.3 129.59 297.74C129.23 298.18 128.86 298.63 128.51 299.07C128.16 299.51 127.73 300.07 127.35 300.59C126.82 301.3 126.35 302.02 125.83 302.74C125.19 303.74 124.58 304.67 124.02 305.63C123.68 306.2 123.36 306.78 123.02 307.35C122.82 307.72 122.63 308.08 122.45 308.45L121.96 309.45C121.83 309.75 121.69 310.04 121.56 310.33C121.43 310.62 121.32 310.88 121.21 311.16C121.1 311.44 120.98 311.71 120.87 311.99L120.57 312.8C120.47 313.07 120.37 313.35 120.28 313.62C120.19 313.89 120.11 314.16 120.02 314.43C119.93 314.7 119.86 314.97 119.79 315.24C119.72 315.51 119.64 315.77 119.58 316.04C119.52 316.31 119.45 316.55 119.4 316.8C119.35 317.05 119.29 317.31 119.24 317.57C119.19 317.83 119.15 318.05 119.12 318.29C119.09 318.53 119.05 318.76 119.02 319C118.99 319.24 118.96 319.46 118.94 319.7L118.88 320.37V321.04C118.88 321.25 118.88 321.46 118.88 321.67C118.88 321.89 118.88 322.11 118.88 322.33C118.88 322.55 118.88 322.77 118.88 322.99C118.88 323.21 118.88 323.44 118.95 323.66C119.02 323.88 119.01 324.11 119.05 324.33C119.09 324.55 119.14 324.8 119.19 325.02C119.24 325.24 119.31 325.52 119.38 325.76C119.45 326 119.55 326.3 119.64 326.55C119.73 326.8 119.88 327.15 120.02 327.43C120.193 327.799 120.39 328.157 120.61 328.5C121.417 329.761 122.514 330.81 123.81 331.56L114.4 326.09C113.105 325.347 112.011 324.3 111.21 323.04C111.027 322.703 110.864 322.356 110.72 322C110.59 321.71 110.46 321.42 110.35 321.12C110.24 320.82 110.17 320.6 110.09 320.33C110.01 320.06 109.95 319.84 109.89 319.58C109.83 319.32 109.8 319.13 109.76 318.9C109.72 318.67 109.68 318.45 109.65 318.22C109.62 317.99 109.65 317.78 109.59 317.55C109.53 317.32 109.59 317.12 109.54 316.9C109.49 316.68 109.54 316.46 109.54 316.23C109.52 316 109.52 315.75 109.53 315.54Z" fill="url(#paint54_linear_234_1877)"/>
<path d="M146.12 283.63C131.06 292.33 118.89 309.33 118.92 321.63C118.92 329.96 124.58 333.98 132.92 333C139.02 339.59 151.24 333.78 151.92 333.48C147.98 333.27 146.57 330.75 146.17 328.23C161.36 319.46 173.53 302.45 173.5 290.15C173.47 277.85 161.17 274.94 146.12 283.63Z" fill="url(#paint55_linear_234_1877)"/>
<path d="M159.25 294.07C158.126 294.803 157.19 295.791 156.519 296.953C155.849 298.116 155.462 299.42 155.39 300.76C155.39 303.22 157.14 304.21 159.28 302.98C160.405 302.248 161.342 301.261 162.013 300.098C162.684 298.935 163.07 297.631 163.14 296.29C163.14 293.83 161.4 292.84 159.25 294.07Z" fill="white"/>
<path d="M147.55 302.33C146.432 303.062 145.502 304.047 144.836 305.206C144.171 306.365 143.788 307.665 143.72 309C143.72 311.45 145.46 312.45 147.6 311.21C148.726 310.478 149.664 309.491 150.336 308.328C151.009 307.166 151.397 305.861 151.47 304.52C151.43 302.08 149.72 301.09 147.55 302.33Z" fill="white"/>
<path d="M135.84 310.58C134.715 311.312 133.778 312.299 133.107 313.462C132.436 314.625 132.05 315.93 131.98 317.27C131.98 319.73 133.73 320.72 135.87 319.49C136.993 318.757 137.927 317.769 138.596 316.606C139.265 315.444 139.65 314.139 139.72 312.8C139.72 310.34 137.98 309.35 135.84 310.58Z" fill="white"/>
<defs>
<linearGradient id="paint0_linear_234_1877" x1="450.2" y1="165.34" x2="456.45" y2="284.57" gradientUnits="userSpaceOnUse">
<stop stop-color="#FF8699"/>
<stop offset="1" stop-color="#F54383"/>
</linearGradient>
<linearGradient id="paint1_linear_234_1877" x1="437.3" y1="240.18" x2="449.8" y2="196.44" gradientUnits="userSpaceOnUse">
<stop stop-color="#FF8699"/>
<stop offset="1" stop-color="#F54383"/>
</linearGradient>
<linearGradient id="paint2_linear_234_1877" x1="55.85" y1="130.26" x2="86.81" y2="162.18" gradientUnits="userSpaceOnUse">
<stop stop-color="#C9D9FF"/>
<stop offset="1" stop-color="#6A8FBA"/>
</linearGradient>
<linearGradient id="paint3_linear_234_1877" x1="86.88" y1="99.36" x2="81.71" y2="178.56" gradientUnits="userSpaceOnUse">
<stop stop-color="#E7EEFF"/>
<stop offset="1" stop-color="#C0D6F0"/>
</linearGradient>
<linearGradient id="paint4_linear_234_1877" x1="-4.67004" y1="171.16" x2="34.48" y2="200.91" gradientUnits="userSpaceOnUse">
<stop stop-color="#FA8A87"/>
<stop offset="1" stop-color="#E31057"/>
</linearGradient>
<linearGradient id="paint5_linear_234_1877" x1="10.16" y1="151.65" x2="49.31" y2="181.4" gradientUnits="userSpaceOnUse">
<stop stop-color="#FA8A87"/>
<stop offset="1" stop-color="#E31057"/>
</linearGradient>
<linearGradient id="paint6_linear_234_1877" x1="42.21" y1="147.82" x2="54.3" y2="256.17" gradientUnits="userSpaceOnUse">
<stop stop-color="#FA8A87"/>
<stop offset="1" stop-color="#F0115C"/>
</linearGradient>
<linearGradient id="paint7_linear_234_1877" x1="314.13" y1="46.16" x2="337.9" y2="163.29" gradientUnits="userSpaceOnUse">
<stop stop-color="#00D5FF"/>
<stop offset="1" stop-color="#007DC6"/>
</linearGradient>
<linearGradient id="paint8_linear_234_1877" x1="359.17" y1="85.83" x2="386.33" y2="142.69" gradientUnits="userSpaceOnUse">
<stop stop-color="#E7EEFF"/>
<stop offset="1" stop-color="#C0D6F0"/>
</linearGradient>
<linearGradient id="paint9_linear_234_1877" x1="352.52" y1="87.08" x2="382.23" y2="233.06" gradientUnits="userSpaceOnUse">
<stop stop-color="#C9D9FF"/>
<stop offset="1" stop-color="#6A8FBA"/>
</linearGradient>
<linearGradient id="paint10_linear_234_1877" x1="313.73" y1="160.73" x2="306.94" y2="55.49" gradientUnits="userSpaceOnUse">
<stop stop-color="#00C8F0"/>
<stop offset="1" stop-color="#0073B7"/>
</linearGradient>
<linearGradient id="paint11_linear_234_1877" x1="195.34" y1="50.2499" x2="190.23" y2="333.33" gradientUnits="userSpaceOnUse">
<stop stop-color="#C9D9FF"/>
<stop offset="1" stop-color="#99BAE0"/>
</linearGradient>
<linearGradient id="paint12_linear_234_1877" x1="199.03" y1="331.26" x2="197.28" y2="293.14" gradientUnits="userSpaceOnUse">
<stop stop-color="#EEF4FB"/>
<stop offset="0.31" stop-color="#E3EDF8"/>
<stop offset="1" stop-color="#CFE1F3"/>
</linearGradient>
<linearGradient id="paint13_linear_234_1877" x1="114.69" y1="16.08" x2="194.94" y2="212.05" gradientUnits="userSpaceOnUse">
<stop stop-color="#C9D9FF"/>
<stop offset="1" stop-color="#6A8FBA"/>
</linearGradient>
<linearGradient id="paint14_linear_234_1877" x1="181.71" y1="153.96" x2="290.93" y2="228.25" gradientUnits="userSpaceOnUse">
<stop stop-color="#C9D9FF"/>
<stop offset="1" stop-color="#99BAE0"/>
</linearGradient>
<linearGradient id="paint15_linear_234_1877" x1="-129.64" y1="-55.14" x2="582.31" y2="429.13" gradientUnits="userSpaceOnUse">
<stop stop-color="#C9D9FF"/>
<stop offset="1" stop-color="#99BAE0"/>
</linearGradient>
<linearGradient id="paint16_linear_234_1877" x1="144.65" y1="198.37" x2="257.72" y2="275.28" gradientUnits="userSpaceOnUse">
<stop stop-color="#C9D9FF"/>
<stop offset="1" stop-color="#99BAE0"/>
</linearGradient>
<linearGradient id="paint17_linear_234_1877" x1="143.32" y1="204.84" x2="257.3" y2="282.37" gradientUnits="userSpaceOnUse">
<stop stop-color="#C9D9FF"/>
<stop offset="1" stop-color="#99BAE0"/>
</linearGradient>
<linearGradient id="paint18_linear_234_1877" x1="140.92" y1="208.24" x2="255.73" y2="286.33" gradientUnits="userSpaceOnUse">
<stop stop-color="#C9D9FF"/>
<stop offset="1" stop-color="#99BAE0"/>
</linearGradient>
<linearGradient id="paint19_linear_234_1877" x1="161.08" y1="183.27" x2="271.37" y2="258.29" gradientUnits="userSpaceOnUse">
<stop stop-color="#C9D9FF"/>
<stop offset="1" stop-color="#99BAE0"/>
</linearGradient>
<linearGradient id="paint20_linear_234_1877" x1="165.08" y1="176.89" x2="275.37" y2="251.91" gradientUnits="userSpaceOnUse">
<stop stop-color="#C9D9FF"/>
<stop offset="1" stop-color="#99BAE0"/>
</linearGradient>
<linearGradient id="paint21_linear_234_1877" x1="153.4" y1="189.48" x2="268.21" y2="267.57" gradientUnits="userSpaceOnUse">
<stop stop-color="#C9D9FF"/>
<stop offset="1" stop-color="#99BAE0"/>
</linearGradient>
<linearGradient id="paint22_linear_234_1877" x1="161.56" y1="177.08" x2="276.87" y2="255.52" gradientUnits="userSpaceOnUse">
<stop stop-color="#C9D9FF"/>
<stop offset="1" stop-color="#99BAE0"/>
</linearGradient>
<linearGradient id="paint23_linear_234_1877" x1="169.81" y1="173.15" x2="279.04" y2="247.45" gradientUnits="userSpaceOnUse">
<stop stop-color="#C9D9FF"/>
<stop offset="1" stop-color="#99BAE0"/>
</linearGradient>
<linearGradient id="paint24_linear_234_1877" x1="266.15" y1="259.13" x2="236.67" y2="184.86" gradientUnits="userSpaceOnUse">
<stop stop-color="#2B7D2B"/>
<stop offset="1" stop-color="#78A174"/>
</linearGradient>
<linearGradient id="paint25_linear_234_1877" x1="158.23" y1="139.61" x2="193.41" y2="187.58" gradientUnits="userSpaceOnUse">
<stop stop-color="#FFC62C"/>
<stop offset="1" stop-color="#FEA00F"/>
</linearGradient>
<linearGradient id="paint26_linear_234_1877" x1="198.44" y1="110.11" x2="233.62" y2="158.09" gradientUnits="userSpaceOnUse">
<stop stop-color="#FFC62C"/>
<stop offset="1" stop-color="#FEA00F"/>
</linearGradient>
<linearGradient id="paint27_linear_234_1877" x1="176.28" y1="126.36" x2="211.47" y2="174.34" gradientUnits="userSpaceOnUse">
<stop stop-color="#FFC62C"/>
<stop offset="1" stop-color="#FEA00F"/>
</linearGradient>
<linearGradient id="paint28_linear_234_1877" x1="207.4" y1="144.97" x2="232.63" y2="201.98" gradientUnits="userSpaceOnUse">
<stop stop-color="#FFD71D"/>
<stop offset="1" stop-color="#FEB200"/>
</linearGradient>
<linearGradient id="paint29_linear_234_1877" x1="242.04" y1="381.27" x2="228.95" y2="381.27" gradientUnits="userSpaceOnUse">
<stop stop-color="#120B06"/>
<stop offset="1" stop-color="#362D27"/>
</linearGradient>
<linearGradient id="paint30_linear_234_1877" x1="257.28" y1="373.04" x2="246.21" y2="373.04" gradientUnits="userSpaceOnUse">
<stop stop-color="#120B06"/>
<stop offset="1" stop-color="#362D27"/>
</linearGradient>
<linearGradient id="paint31_linear_234_1877" x1="244.7" y1="267.65" x2="215.21" y2="193.38" gradientUnits="userSpaceOnUse">
<stop stop-color="#2B7D2B"/>
<stop offset="1" stop-color="#78A174"/>
</linearGradient>
<linearGradient id="paint32_linear_234_1877" x1="236.25" y1="271" x2="206.77" y2="196.73" gradientUnits="userSpaceOnUse">
<stop stop-color="#2B7D2B"/>
<stop offset="1" stop-color="#78A174"/>
</linearGradient>
<linearGradient id="paint33_linear_234_1877" x1="388.12" y1="284.26" x2="424.88" y2="346.76" gradientUnits="userSpaceOnUse">
<stop stop-color="#FA8A87"/>
<stop offset="1" stop-color="#F0115C"/>
</linearGradient>
<linearGradient id="paint34_linear_234_1877" x1="309" y1="221.62" x2="344.18" y2="269.59" gradientUnits="userSpaceOnUse">
<stop stop-color="#FFC62C"/>
<stop offset="1" stop-color="#FEA00F"/>
</linearGradient>
<linearGradient id="paint35_linear_234_1877" x1="349.21" y1="192.13" x2="384.39" y2="240.1" gradientUnits="userSpaceOnUse">
<stop stop-color="#FFC62C"/>
<stop offset="1" stop-color="#FEA00F"/>
</linearGradient>
<linearGradient id="paint36_linear_234_1877" x1="327.06" y1="208.38" x2="362.24" y2="256.35" gradientUnits="userSpaceOnUse">
<stop stop-color="#FFC62C"/>
<stop offset="1" stop-color="#FEA00F"/>
</linearGradient>
<linearGradient id="paint37_linear_234_1877" x1="358.17" y1="226.99" x2="383.4" y2="283.99" gradientUnits="userSpaceOnUse">
<stop stop-color="#FFD71D"/>
<stop offset="1" stop-color="#FEB200"/>
</linearGradient>
<linearGradient id="paint38_linear_234_1877" x1="392.81" y1="463.28" x2="379.72" y2="463.28" gradientUnits="userSpaceOnUse">
<stop stop-color="#120B06"/>
<stop offset="1" stop-color="#362D27"/>
</linearGradient>
<linearGradient id="paint39_linear_234_1877" x1="408.05" y1="455.06" x2="396.98" y2="455.06" gradientUnits="userSpaceOnUse">
<stop stop-color="#120B06"/>
<stop offset="1" stop-color="#362D27"/>
</linearGradient>
<linearGradient id="paint40_linear_234_1877" x1="360.2" y1="353.52" x2="406.32" y2="443.53" gradientUnits="userSpaceOnUse">
<stop stop-color="#00D5FF"/>
<stop offset="1" stop-color="#007DC6"/>
</linearGradient>
<linearGradient id="paint41_linear_234_1877" x1="372.91" y1="347.01" x2="419.03" y2="437.02" gradientUnits="userSpaceOnUse">
<stop stop-color="#00D5FF"/>
<stop offset="1" stop-color="#007DC6"/>
</linearGradient>
<linearGradient id="paint42_linear_234_1877" x1="364.65" y1="298.07" x2="401.41" y2="360.56" gradientUnits="userSpaceOnUse">
<stop stop-color="#FA8A87"/>
<stop offset="1" stop-color="#F0115C"/>
</linearGradient>
<linearGradient id="paint43_linear_234_1877" x1="362.25" y1="299.48" x2="399.01" y2="361.97" gradientUnits="userSpaceOnUse">
<stop stop-color="#FA8A87"/>
<stop offset="1" stop-color="#F0115C"/>
</linearGradient>
<linearGradient id="paint44_linear_234_1877" x1="260.32" y1="211.64" x2="285.27" y2="245.71" gradientUnits="userSpaceOnUse">
<stop stop-color="#C9D9FF"/>
<stop offset="1" stop-color="#6A8FBA"/>
</linearGradient>
<linearGradient id="paint45_linear_234_1877" x1="300.55" y1="182.19" x2="325.5" y2="216.26" gradientUnits="userSpaceOnUse">
<stop stop-color="#C9D9FF"/>
<stop offset="1" stop-color="#6A8FBA"/>
</linearGradient>
<linearGradient id="paint46_linear_234_1877" x1="278.38" y1="198.42" x2="303.32" y2="232.5" gradientUnits="userSpaceOnUse">
<stop stop-color="#C9D9FF"/>
<stop offset="1" stop-color="#6A8FBA"/>
</linearGradient>
<linearGradient id="paint47_linear_234_1877" x1="300.75" y1="201.06" x2="298.03" y2="296.24" gradientUnits="userSpaceOnUse">
<stop stop-color="#C9D9FF"/>
<stop offset="1" stop-color="#6A8FBA"/>
</linearGradient>
<linearGradient id="paint48_linear_234_1877" x1="237.34" y1="96.7" x2="227.06" y2="114.51" gradientUnits="userSpaceOnUse">
<stop stop-color="#FFD71D"/>
<stop offset="1" stop-color="#FEB200"/>
</linearGradient>
<linearGradient id="paint49_linear_234_1877" x1="218.1" y1="107.81" x2="207.83" y2="125.61" gradientUnits="userSpaceOnUse">
<stop stop-color="#FFD71D"/>
<stop offset="1" stop-color="#FEB200"/>
</linearGradient>
<linearGradient id="paint50_linear_234_1877" x1="198.87" y1="118.91" x2="188.59" y2="136.72" gradientUnits="userSpaceOnUse">
<stop stop-color="#FFD71D"/>
<stop offset="1" stop-color="#FEB200"/>
</linearGradient>
<linearGradient id="paint51_linear_234_1877" x1="179.64" y1="130.02" x2="169.36" y2="147.82" gradientUnits="userSpaceOnUse">
<stop stop-color="#FFD71D"/>
<stop offset="1" stop-color="#FEB200"/>
</linearGradient>
<linearGradient id="paint52_linear_234_1877" x1="122.62" y1="278.82" x2="138.45" y2="314.25" gradientUnits="userSpaceOnUse">
<stop stop-color="#00C8F0"/>
<stop offset="1" stop-color="#0073B7"/>
</linearGradient>
<linearGradient id="paint53_linear_234_1877" x1="108.66" y1="285.06" x2="124.49" y2="320.49" gradientUnits="userSpaceOnUse">
<stop stop-color="#00C8F0"/>
<stop offset="1" stop-color="#0073B7"/>
</linearGradient>
<linearGradient id="paint54_linear_234_1877" x1="128.46" y1="276.21" x2="144.29" y2="311.64" gradientUnits="userSpaceOnUse">
<stop stop-color="#00C8F0"/>
<stop offset="1" stop-color="#0073B7"/>
</linearGradient>
<linearGradient id="paint55_linear_234_1877" x1="132.97" y1="289.01" x2="161.05" y2="324.89" gradientUnits="userSpaceOnUse">
<stop stop-color="#00D5FF"/>
<stop offset="1" stop-color="#007DC6"/>
</linearGradient>
</defs>
</svg>
