<svg width="1438" height="624" viewBox="0 0 1438 624" fill="none" xmlns="http://www.w3.org/2000/svg">
<mask id="mask0_225_59" style="mask-type:luminance" maskUnits="userSpaceOnUse" x="0" y="0" width="1438" height="624">
<path d="M1438 0H0V624H1438V0Z" fill="white"/>
</mask>
<g mask="url(#mask0_225_59)">
<g opacity="0.21">
<path d="M-161.42 538.729C-93.8342 502.304 -21.7233 505.814 59.8017 531.789C374.244 632.003 603.577 552.53 766.186 496.098C844.796 468.834 907.857 446.982 957.286 453.546C1187.37 484.082 1274.83 444.484 1306.87 368.025C1327.06 319.882 1325.16 257.184 1323.07 188.181C1321.71 143.13 1320.28 95.3633 1324.86 47.2791C1339.31 -104.449 1413.92 -259.686 1740.75 -345.187L1740.19 -346C1413.17 -260.202 1338.39 -104.568 1323.86 47.5566C1319.26 95.6804 1320.72 143.487 1322.08 188.557C1324.15 257.442 1326.05 320.04 1305.97 367.966C1274.16 443.83 1187.1 483.07 957.708 452.634C908.049 446.031 844.911 467.921 766.128 495.225C603.653 551.558 374.513 630.971 60.3386 530.917C-21.5123 504.822 -93.9492 501.372 -161.919 538.095L-161.42 538.729Z" fill="#C42035" fill-opacity="0.1"/>
<path d="M-161.228 539.007C-93.7767 498.14 -20.1511 500.024 66.4165 530.144C383.332 634.342 620.775 551.043 786.854 492.767C861.094 466.712 921.068 445.674 967.41 448.688C1190.91 472.343 1274.51 429.752 1304.86 352.896C1323.36 306.121 1322.12 246.734 1320.7 181.856C1319.76 138.372 1318.78 92.4091 1323.67 46.1491C1339.33 -102.029 1415.45 -253.262 1747.3 -335.57L1746.75 -336.383C1414.61 -253.777 1338.36 -102.228 1322.67 46.3078C1317.78 92.6074 1318.84 138.59 1319.7 182.133C1321.08 246.893 1322.35 306.2 1303.94 352.659C1273.76 428.919 1190.55 471.154 967.736 447.558C921.202 444.544 861.132 465.602 786.778 491.696C620.833 549.932 383.582 633.173 66.9534 529.073C-19.9593 498.815 -93.9109 496.99 -161.727 538.174L-161.228 539.007Z" fill="#C42035" fill-opacity="0.1"/>
<path d="M-160.96 539.522C-93.8533 494.075 -18.7514 494.135 72.9547 528.517C392.996 637.078 639.737 549.079 809.211 488.642C878.235 463.995 934.528 443.949 977.514 443.75C1194.84 460.505 1274.39 414.741 1303.04 337.251C1319.76 292.042 1319.05 236.126 1318.38 175.431C1317.86 133.533 1317.3 89.3946 1322.46 45.058C1339.26 -99.6902 1416.78 -246.739 1754 -325.993L1753.44 -326.786C1415.99 -247.333 1338.3 -99.8687 1321.46 45.2365C1316.31 89.6523 1316.84 133.81 1317.36 175.728C1318.11 236.304 1318.8 292.161 1302.16 337.172C1273.74 414.087 1194.52 459.454 977.898 442.759C934.738 442.957 878.445 463.043 809.172 487.73C639.929 548.108 393.399 636.047 73.6641 527.565C-18.3679 493.044 -93.7573 493.064 -161.324 538.828L-160.96 539.522Z" fill="#C42035" fill-opacity="0.1"/>
<path d="M-160.366 540.256C-93.5657 490.089 -17.2559 488.146 79.6653 526.871C403.695 640.31 661.154 546.462 833.541 483.625C896.622 460.644 948.275 441.807 987.58 438.813C1199.16 448.568 1274.55 399.433 1301.29 321.031C1316.12 277.607 1315.96 225.26 1315.79 168.986C1315.67 128.695 1315.54 86.4003 1320.91 43.9673C1338.74 -97.3109 1417.58 -240.294 1760.53 -316.376L1759.98 -317.209C1416.76 -240.909 1337.82 -97.529 1319.93 44.1458C1314.56 86.6383 1314.68 128.972 1314.81 169.284C1314.96 225.458 1315.14 277.746 1300.37 320.972C1273.82 398.779 1198.76 447.557 987.849 437.821C948.39 440.796 896.641 459.633 833.484 482.693C661.231 545.47 404.001 639.339 80.2406 525.919C-17.0258 487.036 -93.6807 489.058 -160.845 539.542L-160.366 540.256Z" fill="#C42035" fill-opacity="0.1"/>
<path d="M-159.695 541.247C-93.4123 486.223 -15.8947 482.079 86.28 525.226C415.448 644.197 685.447 542.933 860.269 477.419C916.255 456.421 962.482 439.091 997.704 433.797C1204.18 436.513 1275.12 383.63 1299.76 303.999C1312.57 262.676 1312.89 214.196 1313.18 162.523C1313.43 123.857 1313.7 83.3868 1319.22 42.8772C1338.05 -95.0104 1418.1 -233.85 1767.15 -306.739L1766.57 -307.592C1417.27 -234.484 1337.09 -95.2681 1318.22 43.0358C1312.68 83.6248 1312.47 124.095 1312.17 162.8C1311.86 214.354 1311.53 262.815 1298.74 303.999C1274.22 383.036 1203.57 435.522 997.915 432.884C962.578 438.119 916.294 455.469 860.212 476.507C685.542 541.941 415.755 643.067 86.8937 524.294C-15.6645 480.989 -93.5082 485.212 -160.155 540.553L-159.695 541.247Z" fill="#C42035" fill-opacity="0.1"/>
<path d="M-158.87 542.437C-93.2591 482.436 -14.6483 475.912 92.9141 523.6C428.716 648.857 713.67 538.154 889.892 469.686C937.557 451.186 977.246 435.759 1007.81 428.938C1209.7 424.259 1275.91 367.172 1298.36 285.875C1309.08 247.051 1309.86 202.774 1310.52 156.038C1311.11 118.959 1311.74 80.3331 1317.4 41.727C1337.15 -92.8294 1418.35 -227.505 1773.84 -297.103L1773.26 -297.936C1417.52 -228.1 1336.21 -93.0873 1316.42 41.8855C1310.67 80.571 1310.13 119.217 1309.54 156.316C1308.79 202.992 1308.08 247.21 1297.4 285.875C1275.12 366.617 1209.2 423.307 1008.04 427.967C977.361 434.808 937.633 450.254 889.892 468.794C713.823 537.182 429.099 647.786 93.6043 522.668C-14.3224 474.822 -93.2782 481.405 -159.254 541.743L-158.87 542.437Z" fill="#C42035" fill-opacity="0.1"/>
<path d="M-157.892 543.825C-93.0481 478.688 -13.4596 469.626 99.5288 522.013C444.131 654.706 747.396 531.372 923.177 459.871C960.948 444.523 992.814 431.556 1017.93 424.06C1216.38 411.688 1277.27 349.743 1297.19 266.126C1305.68 230.435 1306.78 190.917 1307.76 149.594C1308.66 114.081 1309.67 77.2596 1315.42 40.5371C1336 -90.7079 1418.23 -221.021 1780.53 -287.347L1779.96 -288.2C1417.41 -221.675 1335.14 -90.9854 1314.43 40.6958C1308.68 77.4976 1307.72 114.339 1306.76 149.911C1305.8 191.095 1304.69 230.534 1296.21 266.225C1276.45 349.267 1215.8 410.815 1018.2 423.109H1018.07C992.891 430.644 960.968 443.611 923.158 458.998C747.511 530.381 444.495 653.655 100.219 521.101C-13.1529 468.635 -93.0864 477.776 -158.295 543.21L-157.892 543.825Z" fill="#C42035" fill-opacity="0.1"/>
<path d="M-156.761 545.491C-92.8181 475.139 -12.3284 463.341 106.163 520.328C462.902 662.182 789.539 521.082 961.293 446.963C987.235 435.76 1009.63 426.103 1028.06 419.203C1224.64 398.621 1279.23 330.748 1296.29 243.899C1302.46 212.352 1303.67 178.346 1304.92 143.19C1306.11 109.164 1307.35 74.0872 1313.16 39.189C1334.5 -88.824 1417.68 -214.616 1787.17 -277.631L1786.57 -278.484C1416.87 -215.35 1333.58 -89.1016 1312.18 39.308C1306.43 74.2855 1305.11 109.402 1303.9 143.447C1302.67 178.564 1301.47 212.55 1295.31 243.998C1278.4 330.292 1224.01 397.748 1028.17 418.211H1028.04C1009.55 425.171 987.12 434.867 961.14 446.09C789.558 520.209 463.209 661.19 106.796 519.456C-12.079 462.31 -92.9139 474.187 -157.24 544.836L-156.761 545.491Z" fill="#C42035" fill-opacity="0.1"/>
<path d="M-155.496 547.335C-92.5496 471.649 -11.2738 456.937 112.797 518.683C487.789 672.671 846.426 504.089 1006.1 429.038C1017.87 423.506 1028.55 418.489 1038.14 414.127C1291.23 375.917 1296.27 262.498 1301.93 136.527C1303.38 103.969 1304.88 70.5579 1310.75 37.3848C1332.78 -87.416 1416.79 -208.648 1793.82 -268.113L1793.22 -268.986C1416.01 -209.322 1331.86 -87.6936 1309.73 37.5037C1303.88 70.7165 1302.37 104.147 1300.91 136.646C1295.29 262.042 1290.21 374.985 1038.24 412.997H1038.06C1028.48 417.359 1017.8 422.395 1005.97 427.967C846.407 502.959 488.057 671.402 113.449 517.552C-10.9862 455.608 -92.6263 470.4 -155.956 546.403L-155.496 547.335Z" fill="#C42035" fill-opacity="0.1"/>
<path d="M-154.077 549.397C-92.262 468.239 -10.2768 450.452 119.412 517.056C316.897 600.812 514.747 592.266 680.481 553.561C846.215 514.855 979.681 446.07 1048.28 409.189C1286.32 361.184 1292.36 250.125 1298.88 130.083C1300.57 98.8927 1302.29 67.0679 1308.16 35.6198C1330.84 -86.0083 1415.64 -202.322 1800.53 -258.318L1799.93 -259.191C1414.88 -203.116 1329.94 -86.3058 1307.18 35.7388C1301.29 67.2463 1299.51 99.1901 1297.86 130.321C1291.38 249.867 1285.38 360.471 1048.26 408.237H1048.09C979.566 445.059 846.119 513.864 680.538 552.51C514.958 591.156 317.223 599.722 120.044 516.065C-10.0466 449.263 -92.3961 467.128 -154.614 548.584L-154.077 549.397Z" fill="#C42035" fill-opacity="0.1"/>
<path d="M-152.524 551.757C-151.335 550.051 -150.127 548.366 -148.919 546.7C-88.6765 464.253 -6.71065 445.396 126.046 515.51C178.463 538.452 233.096 555.548 289.019 566.509C342.044 576.88 395.879 582.19 449.845 582.372C720.821 583.839 960.68 465.007 1058.33 404.391C1281.51 346.888 1288.41 238.089 1295.66 123.758C1297.57 93.8168 1299.49 63.4791 1305.24 33.6173C1328.52 -84.8779 1414.03 -196.215 1807.09 -248.443L1806.49 -249.316C1413.25 -196.929 1327.6 -85.1952 1304.15 33.7363C1298.4 63.6576 1296.37 94.0151 1294.45 123.996C1287.22 237.851 1280.36 346.274 1058.08 403.459H1057.89C960.411 463.996 720.726 582.768 449.96 581.301C396.045 581.119 342.261 575.809 289.287 565.438C233.478 554.482 178.955 537.413 126.64 514.519C-6.69138 444.107 -89.0792 463.163 -149.763 546.244C-150.894 547.791 -152.006 549.357 -153.118 550.944L-152.524 551.757Z" fill="#C42035" fill-opacity="0.1"/>
<path d="M-150.817 554.116C-147.251 548.537 -143.589 543.216 -139.831 538.154C-81.3523 459.157 0.000106812 441.866 132.68 513.765C184.283 537.095 238.19 554.541 293.448 565.795C346.331 576.521 400.06 582.163 453.948 582.649C725.634 585.742 971.973 467.445 1068.45 399.294C1276.85 332.809 1284.54 226.013 1292.4 117.174C1294.49 88.3633 1296.56 59.374 1302.41 30.9994C1326.2 -84.4423 1412.4 -190.406 1813.91 -238.807L1813.3 -239.7C1411.64 -191.14 1325.3 -84.7794 1301.37 31.0985C1295.5 59.5326 1293.41 88.6013 1291.32 117.392C1283.52 225.815 1275.85 332.195 1068.26 398.402H1068.07C971.781 466.454 725.691 584.671 454.197 581.578C400.36 581.098 346.682 575.462 293.85 564.744C238.656 553.507 184.807 536.094 133.255 512.813C0.0191345 440.637 -81.7551 458.145 -140.656 537.697C-144.337 542.655 -147.929 547.856 -151.431 553.303L-150.817 554.116Z" fill="#C42035" fill-opacity="0.1"/>
<path d="M-148.996 556.793C-143.633 547.629 -137.776 538.785 -131.452 530.302C-74.4499 454.24 6.49982 438.436 139.294 512.139H139.429C190.218 535.813 243.392 553.582 297.973 565.121C350.71 576.214 404.335 582.188 458.147 582.966C730.542 587.706 983.324 469.944 1078.63 394.278C1272.4 319.168 1280.8 214.275 1289.1 110.73C1291.32 82.8713 1293.55 55.1114 1299.38 28.0851C1323.63 -84.3427 1410.58 -184.616 1820.7 -229.071L1820.09 -229.963C1409.76 -185.329 1322.75 -84.7393 1298.42 28.2833C1292.67 55.3889 1290.35 83.1885 1288.1 111.067C1279.84 214.176 1271.46 318.771 1078.44 393.564L1078.27 393.664C983.17 469.19 730.657 586.873 458.492 582.035C404.73 581.257 351.157 575.282 298.471 564.189C243.933 552.691 190.802 534.948 140.061 511.286H139.946C6.59561 437.286 -74.7952 453.308 -132.315 529.945C-138.521 538.32 -144.281 547.037 -149.571 556.059L-148.996 556.793Z" fill="#C42035" fill-opacity="0.1"/>
<path d="M-147.021 559.688C-140.156 546.86 -132.348 534.597 -123.668 523.005C-67.9119 449.441 12.808 435.026 145.928 510.533L146.389 510.751C196.36 534.776 248.809 552.85 302.728 564.625C355.312 576.096 408.825 582.41 462.557 583.482C735.566 589.768 994.636 472.442 1088.74 389.42C1268.05 306.14 1277.04 203.032 1285.63 104.425C1288.01 77.3588 1290.33 50.6497 1296.14 24.8131C1320.81 -84.6602 1408.38 -178.885 1827.45 -219.217L1826.84 -220.109C1407.63 -179.639 1319.93 -85.037 1295.18 24.8924C1289.33 50.8083 1286.99 77.557 1284.65 104.643C1276.06 202.893 1267.11 305.684 1088.47 388.587H1088.3C994.348 471.57 735.662 588.677 462.883 582.391C409.209 581.327 355.753 575.02 303.226 563.554C249.359 551.802 196.96 533.747 147.04 509.74L146.58 509.522C12.923 433.697 -68.161 448.331 -124.435 522.45C-133.011 533.959 -140.734 546.122 -147.539 558.835L-147.021 559.688Z" fill="#C42035" fill-opacity="0.1"/>
<path d="M-144.912 562.701C-136.888 546.244 -127.347 530.626 -116.42 516.065C-61.6805 444.682 18.9626 431.555 152.562 508.887C201.757 533.36 253.542 551.819 306.869 563.891C359.31 575.766 412.725 582.451 466.391 583.858C740.282 591.929 1006.01 475.119 1098.98 384.443C1264 293.608 1273.45 192.106 1282.22 98.0992C1284.67 71.6281 1287.09 45.7717 1292.92 20.9662C1317.84 -85.6319 1406.27 -173.353 1834.33 -209.402L1833.72 -210.314C1405.5 -174.127 1316.98 -86.0284 1291.84 21.0258C1285.99 45.9106 1283.58 71.8264 1281.12 98.357C1272.38 191.987 1262.97 293.232 1098.54 383.709L1098.36 383.828C1005.64 474.345 740.244 590.997 466.621 582.946C413.013 581.531 359.656 574.845 307.272 562.979C254.065 550.919 202.396 532.493 153.31 508.074C19.0968 430.425 -61.9105 443.71 -117.034 515.728C-127.89 530.167 -137.38 545.651 -145.372 561.968L-144.912 562.701Z" fill="#C42035" fill-opacity="0.1"/>
<path d="M-142.669 565.954C-133.8 545.872 -122.701 526.928 -109.595 509.502C-55.7367 439.864 24.9637 428.066 159.196 507.222C207.493 532.064 258.484 550.856 311.087 563.198C363.36 575.461 416.651 582.506 470.226 584.236C744.865 593.952 1017.09 477.638 1108.89 379.427C1259.86 281.573 1269.64 181.399 1278.38 91.9132C1280.93 65.799 1283.39 40.6168 1289.23 16.5648C1314.58 -87.2177 1403.83 -167.999 1840.91 -199.566L1840.28 -200.478C1403.12 -168.753 1313.72 -87.5945 1288.28 16.6639C1282.39 40.6961 1279.94 65.918 1277.39 92.0123C1268.66 181.241 1258.92 281.176 1108.45 378.693L1108.31 378.812C1016.76 476.825 744.922 592.96 470.571 583.224C416.994 581.533 363.701 574.495 311.433 562.206C258.88 549.884 207.94 531.112 159.695 506.29C24.9254 426.817 -56.2162 438.873 -110.496 509.026C-123.519 526.335 -134.571 545.138 -143.436 565.061L-142.669 565.954Z" fill="#C42035" fill-opacity="0.1"/>
<path d="M-140.31 569.384C-129.554 543.607 -117.302 521.419 -103.152 503.256C-50.0231 435.185 30.8307 424.576 165.83 505.596C213.296 530.84 263.572 549.978 315.536 562.583C367.676 575.246 420.883 582.637 474.406 584.652C749.773 596.034 1028.52 480.215 1119.09 374.47C1256.33 270.192 1266.25 171.287 1274.83 85.7862C1277.44 59.7712 1279.92 35.0251 1285.82 11.7464C1311.44 -89.2601 1401.82 -162.606 1847.83 -189.612L1847.18 -190.564C1401.07 -163.439 1310.59 -89.7359 1284.84 11.687C1278.92 35.045 1276.43 59.8306 1273.82 85.8853C1265.27 171.148 1255.37 269.894 1118.51 373.815L1118.4 373.915C1028.02 479.422 749.735 595.022 474.655 583.641C421.223 581.661 368.105 574.302 316.053 561.671C264.142 549.083 213.917 529.965 166.501 504.743C30.9459 423.446 -50.3299 434.233 -103.843 502.859C-117.954 520.943 -130.129 543.052 -140.866 568.551L-140.31 569.384Z" fill="#C42035" fill-opacity="0.1"/>
<path d="M-137.818 573.013C-126.314 543.131 -113.008 517.493 -97.0554 497.268C-44.5205 430.545 36.5828 421.107 172.445 503.95C219.059 529.588 268.6 549.073 319.907 561.949C371.893 575.015 424.998 582.752 478.451 585.049C754.547 598.096 1039.75 482.773 1129.19 369.532C1252.98 259.504 1262.83 161.591 1271.08 79.679C1273.72 53.4657 1276.2 28.8983 1282.18 6.1351C1308.02 -92.1748 1399.75 -157.589 1854.6 -179.797L1853.97 -180.749C1399.08 -158.402 1307.24 -92.6705 1281.26 6.19452C1275.24 29.0568 1272.76 53.6443 1270.12 79.8774C1261.87 161.611 1252.04 259.286 1128.64 368.957C1039.46 481.98 754.758 596.986 478.931 584.018C425.535 581.714 372.488 573.977 320.559 560.917C269.305 548.066 219.814 528.608 173.25 502.998C36.8513 419.718 -44.6929 429.494 -97.6497 496.772C-113.564 516.977 -126.889 542.378 -138.316 572.121L-137.818 573.013Z" fill="#C42035" fill-opacity="0.1"/>
<path d="M-135.191 576.82C-123.227 542.715 -108.924 513.805 -91.2266 491.557C-39.2093 426.004 42.2198 417.636 179.117 502.364C184.984 505.735 190.903 508.993 196.872 512.139C357.449 596.906 561.165 601.784 740.302 565.042C919.438 528.299 1074.22 449.917 1136.69 368.204C1137.61 367.014 1138.61 365.824 1139.39 364.615C1250.1 249.609 1259.67 152.45 1267.45 73.7899C1270.1 47.1007 1272.53 22.4935 1278.63 0.0674896C1304.67 -95.6051 1398.02 -152.612 1861.5 -169.823L1860.85 -170.775C1397.28 -153.465 1303.88 -96.1802 1277.62 0.0476379C1271.48 22.5728 1269.06 47.2196 1266.42 73.9683C1258.65 152.489 1249.16 249.312 1138.69 364.06C1137.8 365.269 1136.9 366.479 1136 367.668C1073.73 449.104 919.342 527.268 740.436 563.971C561.53 600.673 357.966 595.815 197.562 511.148C191.593 508.002 185.687 504.743 179.846 501.372C42.4499 416.328 -39.4202 424.874 -91.8784 491.002C-109.518 513.23 -123.802 541.981 -135.747 575.848L-135.191 576.82Z" fill="#C42035" fill-opacity="0.1"/>
<path d="M-132.43 580.805C-120.159 542.417 -105.012 510.156 -85.6663 485.945C-34.0517 421.364 47.7801 414.067 185.713 500.678C202.591 510.759 219.995 519.868 237.845 527.962C393.149 598.75 587.107 600.435 758.133 563.951C929.159 527.466 1077.43 452.792 1141.25 370.9C1144.17 367.172 1146.9 363.411 1149.46 359.617C1247.57 240.17 1256.64 143.844 1263.77 67.9597C1266.36 40.3981 1268.7 15.5331 1274.97 -6.71455C1301.16 -99.7897 1396.49 -147.794 1868.35 -159.929L1867.67 -160.881C1395.8 -148.667 1300.35 -100.365 1273.99 -6.6947C1267.7 15.6521 1265.36 40.5567 1262.76 68.158C1255.64 143.883 1246.59 240.052 1148.75 359.181C1146.19 362.949 1143.46 366.696 1140.54 370.424C1076.93 452.058 929.044 526.554 758.248 562.959C587.452 599.364 393.686 597.719 238.497 527.01C220.686 518.913 203.315 509.818 186.461 499.766C48.01 412.818 -34.2626 420.313 -86.3373 485.449C-105.645 509.601 -120.85 541.683 -133.025 579.833L-132.43 580.805Z" fill="#C42035" fill-opacity="0.1"/>
<path d="M-129.554 584.989C-117.13 542.259 -101.312 506.587 -80.3361 480.533C-29.0474 416.804 53.2445 410.538 192.347 499.032C219.053 515.511 247.117 529.511 276.211 540.871C426.76 600.138 611.745 599.186 775.274 563.039C938.803 526.892 1081.05 455.43 1145.88 373.835C1150.77 367.708 1155.33 361.307 1159.55 354.661C1245.56 231.565 1253.82 135.774 1260.17 62.2696C1262.66 33.4984 1264.83 8.13774 1271.29 -14.0504C1297.59 -104.568 1395.28 -143.095 1875.25 -149.955L1874.58 -150.927C1394.67 -144.007 1296.87 -105.182 1270.39 -14.1099C1263.91 8.19717 1261.7 33.5975 1259.23 62.4281C1252.9 135.794 1244.64 231.427 1158.84 354.225C1154.63 360.828 1150.08 367.196 1145.22 373.3C1080.61 454.597 938.727 525.841 775.427 561.968C612.128 598.096 427.259 599.048 276.921 539.84C247.825 528.558 219.754 514.63 193.037 498.22C53.4362 409.388 -29.3734 415.872 -81.1414 480.136C-102.079 506.151 -117.897 541.604 -130.34 584.057L-129.554 584.989Z" fill="#C42035" fill-opacity="0.1"/>
<path d="M-125.758 590.501C-113.353 543.071 -96.9977 503.712 -74.354 475.813C-23.8322 413.472 58.4214 408.396 198.137 498.418C233.825 521.114 272.016 539.301 311.893 552.589C458.128 602.299 635.059 599.107 791.821 563.277C948.582 527.447 1085.63 458.681 1151.42 377.483C1158.46 368.836 1164.87 359.656 1170.59 350.021C1245.23 223.674 1252.46 128.12 1257.85 56.5587C1260.15 26.2607 1262.1 0.245743 1268.74 -21.8631C1294.87 -109.109 1395.28 -137.344 1882.82 -138.732L1880.56 -142.004C1393.04 -140.458 1292.34 -111.31 1265.54 -21.8631C1258.79 0.622482 1256.81 26.7961 1254.51 57.2924C1249.14 128.675 1241.95 223.654 1167.81 349.168C1162.19 358.594 1155.91 367.575 1149 376.036C1083.81 456.401 948.006 524.472 791.974 560.164C635.941 595.855 459.431 599.067 313.714 549.536C274.014 536.302 235.99 518.195 200.457 495.602C59.0157 404.391 -24.7909 410.22 -76.7698 474.366C-99.241 502.125 -115.634 540.791 -128.097 587.269L-125.758 590.501Z" fill="#C42035" fill-opacity="0.1"/>
</g>
<path d="M1541.63 330.093C1508.77 339.016 1475.56 349.287 1442.93 359.36C1321.87 396.796 1209.01 431.694 1152.34 385.811C1034.11 289.96 954.314 267.078 895.107 280.561C835.9 294.045 797.323 343.854 761.584 393.366C677.049 510.354 581.623 581.162 482.995 617.21C420.245 639.95 353.844 649.961 287.427 646.695C222.238 643.84 157.931 629.345 96.5571 606.522C59.1189 592.506 22.7477 575.611 -12.2516 555.98L-12.0599 556.892C22.7396 576.403 58.9061 593.186 96.1351 607.097C157.605 629.96 222.066 644.474 287.332 647.349C353.872 650.602 420.396 640.564 483.264 617.785C582.064 581.677 677.643 510.83 762.274 393.723C797.937 344.31 836.36 294.58 895.241 281.235C954.123 267.891 1033.67 290.674 1151.63 386.327C1208.63 432.527 1321.81 397.53 1443.16 360.034C1475.75 349.961 1508.9 339.71 1541.71 330.807L1541.63 330.093Z" fill="#C42035" fill-opacity="0.1"/>
<path d="M1542.72 335.626C1515.61 343.418 1488.23 352.024 1461.12 360.57C1341.86 398.125 1227.98 433.935 1166.72 388.786C997.991 260.832 915.91 260.773 849.206 310.225C821.328 330.887 796.173 360.213 768.525 392.434L764.863 396.717C692.522 489.495 616.615 552.232 539.614 591.354C468.75 627.625 390.507 645.787 311.452 644.316C235.928 643.126 161.746 625.162 91.3034 596.549C54.9338 581.64 19.5695 564.232 -14.5525 544.44L-14.38 545.372C19.5503 565.015 54.7091 582.298 90.8625 597.104C161.401 625.776 235.717 643.781 311.356 644.951C390.603 646.446 469.039 628.249 540.075 591.889C617.19 552.708 693.212 489.891 765.591 397.034L769.273 392.771C796.882 360.57 822.018 331.303 849.801 310.661C916.121 261.507 997.895 261.645 1166.16 389.242C1227.8 434.709 1341.94 398.779 1461.43 361.145C1488.48 352.619 1515.82 344.013 1542.88 336.26L1542.72 335.626Z" fill="#C42035" fill-opacity="0.1"/>
<path d="M1543.86 341.356C1522.5 347.82 1500.93 354.74 1479.45 361.66C1362.09 399.334 1247.24 436.255 1181.12 391.76C998.221 262.141 925.861 260.614 852.351 318.493C829.189 336.736 805.932 360.867 779.07 388.726L768.16 400.048C533.536 680.681 294.924 678.143 86.7594 586.436C51.2655 570.639 16.6946 552.71 -16.7766 532.741L-16.5847 533.693C16.7108 553.502 51.0886 571.298 86.376 586.992C294.944 678.877 533.997 681.435 768.947 400.366C772.666 396.539 776.29 392.771 779.856 389.063C806.699 361.303 829.937 337.113 853.041 318.91C926.149 261.407 998.221 262.954 1180.6 392.275C1247.13 437.028 1362.23 400.048 1479.84 362.255C1501.25 355.375 1522.77 348.474 1544.09 342.03L1543.86 341.356Z" fill="#C42035" fill-opacity="0.1"/>
<path d="M1545.03 347.304C1529.4 352.261 1513.66 357.437 1497.9 362.612C1382.59 400.504 1266.72 438.555 1195.5 394.734C993.6 261.229 935.985 259.008 848.343 332.373C829.764 347.919 809.863 366.875 786.989 388.686L771.497 403.399C516.817 689.069 286.91 673.067 82.8673 576.284C48.1061 559.807 14.1116 540.989 -19.1349 520.923L-18.9433 521.875C14.0732 541.703 47.8568 560.461 82.388 576.839C286.795 673.761 517.105 689.862 772.187 403.756L787.66 389.043C810.668 367.232 830.493 348.296 849.014 332.77C936.196 259.801 993.6 262.061 1194.96 395.21C1266.59 439.269 1382.68 401.159 1498.22 363.167C1513.93 357.992 1529.63 352.836 1545.2 347.899L1545.03 347.304Z" fill="#C42035" fill-opacity="0.1"/>
<path d="M1546.23 353.471C1536.35 356.736 1526.43 360.04 1516.48 363.385C1403.35 401.515 1286.53 440.875 1209.89 397.688C958.935 243.125 944.152 256.232 791.744 391.621C786.49 396.3 781.045 401.138 774.718 406.73C499.734 697.396 279.298 667.475 79.3585 566.013C45.1916 548.682 11.6191 529.251 -21.5508 508.986L-21.3589 509.937C11.5617 530.063 44.9231 549.337 78.8599 566.568C279.164 668.209 499.983 698.209 775.389 407.087L792.415 391.997C944.306 257.163 959.012 243.997 1209.34 398.184C1286.38 441.569 1403.45 402.15 1516.8 363.94C1526.7 360.609 1536.55 357.278 1546.37 354.026L1546.23 353.471Z" fill="#C42035" fill-opacity="0.1"/>
<path d="M1547.48 359.796L1535.21 364.039C1424.52 402.408 1306.64 443.235 1224.27 400.683L1203.7 388.904C1084.83 320.694 1025.27 286.589 973.852 287.66C922.429 288.731 879.27 324.997 793.028 397.47L777.996 410.101C482.459 705.784 272.223 661.547 76.2524 555.682C42.5457 537.48 9.27993 517.453 -23.9283 497.029L-23.7366 498.001C9.24154 518.286 42.2772 538.154 75.7347 556.218C272.031 662.26 482.631 706.597 778.629 410.478L793.642 397.867C879.711 325.532 922.755 289.365 973.871 288.294C1024.99 287.224 1084.39 321.289 1203.18 389.42L1223.78 401.317C1306.53 444.067 1424.64 403.141 1535.55 364.694L1547.63 360.53L1547.48 359.796Z" fill="#C42035" fill-opacity="0.1"/>
<path d="M1548.76 366.36C1442.16 404.47 1325.72 444.94 1238.67 403.677C1207.82 387.298 1180.89 372.506 1157.05 359.42C1072.69 313.16 1027.27 288.176 984.704 289.088C934.853 290.159 889.163 326.762 790.076 406.374L781.294 413.452C418.266 758.469 209.335 629.96 -11.2929 494.234L-26.229 485.053L-26.0373 486.025L-11.849 494.729C209.104 630.654 418.362 759.381 781.927 413.849L790.727 406.79C889.643 327.337 935.16 290.753 984.704 289.802C1026.89 288.909 1072.4 313.834 1156.55 360.034C1180.39 373.101 1207.33 387.893 1238.19 404.292C1325.59 445.713 1442.18 405.263 1548.94 367.093L1548.8 366.439L1548.76 366.36Z" fill="#C42035" fill-opacity="0.1"/>
<path d="M1550.11 373.141C1450.81 409.586 1341.25 445.059 1253.03 406.651C1204.3 382.679 1165.66 361.68 1133.82 344.37C984.263 263.073 983.592 262.696 784.573 416.803C416.579 750.161 226.629 631.864 19.9403 503.077C3.89222 493.163 -12.2516 483.031 -28.5873 473.117L-28.3956 474.088C-12.3092 483.844 3.56642 493.738 19.3652 503.593C226.437 632.478 416.637 751.073 785.206 417.2C983.688 263.529 984.321 263.866 1133.32 344.885C1165.18 362.196 1203.82 383.214 1252.59 407.187C1341.12 445.733 1450.83 410.26 1550.26 373.776L1550.11 373.141Z" fill="#C42035" fill-opacity="0.1"/>
<path d="M1551.47 380.081C1459.19 414.543 1356.32 445.179 1267.45 409.646C1204.53 381.113 1159.03 355.93 1123.38 336.28C998.356 267.098 994.559 264.997 787.852 420.195C413.435 744.411 238.785 632.697 44.9617 508.689C20.1514 492.826 -4.985 476.745 -30.9073 461.359L-30.7154 462.31C-5.08068 477.558 19.8062 493.481 44.3864 509.205C238.555 633.411 413.492 745.323 788.484 420.591C994.636 265.829 998.432 267.911 1122.89 336.776C1158.55 356.486 1204.07 381.668 1267.01 410.141C1356.17 445.833 1459.26 415.178 1551.62 380.676L1551.47 380.081Z" fill="#C42035" fill-opacity="0.1"/>
<path d="M1552.87 387.18C1467.39 419.322 1370.72 445.297 1281.81 412.6C1207.36 381.549 1157.95 353.114 1120.76 331.739C1013.14 269.894 1006.48 266.067 791.207 423.486C409.236 740.445 247.183 632.835 65.2852 512.1C33.4958 491.002 1.09295 469.488 -33.189 449.759L-32.9973 450.71C0.997036 470.301 33.1315 491.656 64.7867 512.595C246.933 633.549 409.389 741.436 791.859 424.001C1006.6 266.979 1013.18 270.806 1120.26 332.334C1157.55 353.749 1206.98 382.163 1281.51 413.235C1370.76 446.031 1467.49 420.055 1553.12 387.894L1552.87 387.18Z" fill="#C42035" fill-opacity="0.1"/>
<path d="M1554.29 394.417C1475.22 423.922 1384.66 445.456 1296.19 415.594C1212.02 383.452 1160.66 352.282 1122.91 329.399C1028.13 271.897 1018.97 266.365 794.39 426.857C404.27 737.927 252.82 632.637 81.8894 513.825C44.5973 487.889 6.36551 461.339 -35.4707 438.298L-35.2788 439.23C6.25066 462.151 44.2329 488.543 81.2949 514.32C252.513 633.291 404.27 738.819 794.965 427.293C1018.97 267.197 1028.09 272.63 1122.33 329.875C1160.12 352.797 1211.54 383.987 1295.79 416.149C1384.49 446.11 1475.2 424.576 1554.4 395.052L1554.27 394.397L1554.29 394.417Z" fill="#C42035" fill-opacity="0.1"/>
<path d="M1555.72 401.675C1482.67 428.265 1397.87 445.615 1310.59 418.569C1218.12 386.367 1166.05 352.678 1128.45 328.329C1043.53 273.345 1032.12 265.988 797.687 430.208C398.71 736.519 256.347 632.221 95.6366 514.459C54.0305 483.983 11.274 452.614 -37.618 427.214L-37.4261 428.126C11.0632 453.447 53.6471 484.657 95.004 514.955C256.06 632.955 398.69 737.471 798.282 430.664C1032.2 266.841 1043.45 274.177 1127.89 328.825C1165.53 353.194 1217.66 386.922 1310.25 419.163C1397.77 446.289 1482.81 428.939 1555.88 402.329L1555.76 401.675H1555.72Z" fill="#C42035" fill-opacity="0.1"/>
<path d="M1557.12 408.872C1489.71 432.349 1410.41 445.832 1324.97 421.562C1225.27 390.055 1173.39 353.947 1136.29 328.11C1059.1 274.355 1045.75 265.076 800.947 433.578C392.555 736.082 258.15 631.685 106.872 514.221C61.9874 479.382 15.6263 443.393 -39.7847 416.486L-39.5927 417.378C15.4539 444.206 61.5848 480.017 106.239 514.697C257.709 632.399 392.459 736.994 801.484 434.034C1045.68 265.948 1058.92 275.188 1135.66 328.606C1172.79 354.383 1224.73 390.63 1324.57 422.157C1410.2 446.487 1489.67 433.003 1557.2 409.526L1557.12 408.872Z" fill="#C42035" fill-opacity="0.1"/>
<path d="M1558.52 415.911C1496.31 436.096 1422.22 446.11 1339.37 424.536C1233.29 394.338 1182.15 355.85 1145.84 328.487C1074.9 275.049 1059.86 263.727 804.245 436.929C385.921 736.34 258.61 631.07 116.229 513.269C68.9473 474.147 19.9979 433.677 -41.7786 406.195L-41.6061 407.068C19.7486 434.57 68.5064 474.841 115.615 513.785C258.303 631.824 385.959 737.351 804.839 437.445C1059.84 264.679 1074.78 275.941 1145.26 329.003C1181.69 356.425 1232.83 394.952 1339.08 425.191C1422.14 446.804 1496.31 436.81 1558.7 416.605L1558.52 415.911Z" fill="#C42035" fill-opacity="0.1"/>
<path d="M1559.85 422.673C1502.44 439.527 1433.3 446.467 1353.75 427.511C1241.93 399.037 1192.06 358.269 1156.57 329.26C1090.83 275.525 1074.32 262.002 807.504 440.3C378.846 737.331 257.958 630.376 123.86 511.683C74.9296 468.377 24.1585 423.565 -43.7343 396.162L-43.581 397.014C24.005 424.398 74.4884 469.012 123.227 512.02C257.613 630.991 378.789 738.065 808.079 440.637C1074.24 262.795 1090.64 276.199 1155.94 329.597C1191.49 358.646 1241.45 399.493 1353.43 428.006C1433.19 447.002 1502.42 440.062 1559.96 423.188L1559.85 422.673Z" fill="#C42035" fill-opacity="0.1"/>
<path d="M1561.09 428.998C1508.08 442.58 1443.79 446.843 1368.15 430.505C1251.19 404.093 1202.78 361.105 1168.27 330.371C1106.91 275.802 1089.14 259.979 810.783 443.631C371.407 738.799 256.405 629.583 130.129 509.7C80.2787 462.29 28.5109 413.214 -45.6324 386.763L-45.4599 387.616C28.2424 414.087 79.7227 462.964 129.439 510.156C255.983 630.317 371.234 739.77 811.3 444.127C1088.97 260.931 1106.57 276.616 1167.56 330.827C1202.07 361.581 1250.6 404.688 1367.81 431.139C1443.6 447.597 1508.02 443.254 1561.17 429.672L1561.09 428.998Z" fill="#C42035" fill-opacity="0.1"/>
<path d="M1562.11 434.134C1513.26 444.563 1453.8 446.784 1382.84 432.745C1261.43 408.753 1214.88 363.623 1181.52 331.243C1123.5 275.01 1104.52 256.609 813.391 446.447C363.757 739.711 254.545 628.017 136.035 506.825C85.4365 455.073 33.1508 401.635 -47.6073 376.77L-47.0704 379.506C32.2113 404.43 83.7877 457.135 133.696 508.173C253.107 630.297 363.181 742.844 815.193 448.013C1103.9 259.642 1122.45 277.686 1179.12 332.611C1212.75 365.21 1259.65 410.657 1381.92 434.828C1453.34 448.945 1513.24 446.725 1562.47 436.275L1562.11 434.134Z" fill="#C42035" fill-opacity="0.1"/>
<g opacity="0.38">
<path d="M-666.638 257.541C-664.72 256.549 -662.688 255.558 -660.732 254.666C-562.948 208.525 -481.021 227.342 -403.253 345.877C-369.672 388.8 -331.178 427.351 -288.616 460.684C-247.398 492.893 -203.161 520.746 -156.569 543.825C79.5886 661.825 354.266 661.249 472.776 650.304C699.309 696.207 764.824 603.985 833.637 507.142C851.66 481.782 869.932 456.084 891.349 432.508C976.459 338.897 1112.07 278.381 1484.3 402.031V401.02C1111.82 277.429 975.884 338.223 890.467 432.171C868.993 455.806 850.721 481.524 832.66 506.904C764.134 603.37 698.887 695.275 473.255 649.471H473.064C354.726 660.417 80.2597 661.031 -155.822 543.111C-202.348 520.068 -246.521 492.255 -287.677 460.089C-330.212 426.797 -368.681 388.286 -402.237 345.401C-480.33 226.43 -562.814 207.573 -661.25 254.051C-663.071 254.923 -664.912 255.796 -666.753 256.708L-666.638 257.541Z" fill="#C42035" fill-opacity="0.1"/>
<path d="M-666.503 260.416C-660.33 257.085 -654.22 254.011 -648.174 251.196C-553.879 207.315 -473.274 227.223 -396.562 347.265C-363.891 390.151 -326.21 428.686 -284.379 461.993C-243.51 494.447 -199.571 522.542 -153.233 545.848C82.5988 665.592 362.683 668.249 484.28 650.245C702.856 681.852 767.93 591.79 834.27 500.004C851.833 475.694 869.491 451.266 890.122 428.958C973.986 338.283 1107.28 282.743 1484.82 413.373V412.342C1107.11 281.771 973.449 337.589 889.259 428.621C868.59 450.968 850.912 475.437 833.331 499.766C767.24 591.195 702.415 680.919 484.721 649.392H484.51C363.124 667.396 83.3273 664.779 -152.37 545.114C-198.661 521.83 -242.555 493.762 -283.382 461.338C-325.174 428.072 -362.818 389.575 -395.45 346.729C-472.508 226.212 -553.592 206.284 -648.538 250.482C-654.463 253.238 -660.464 256.252 -666.484 259.504L-666.503 260.416Z" fill="#C42035" fill-opacity="0.1"/>
<path d="M-666.35 263.549C-656.284 257.601 -646.352 252.425 -636.555 247.944C-545.155 205.987 -465.72 227.045 -389.87 348.693L-389.775 348.812C-358.049 391.662 -321.191 430.173 -280.084 463.421C-239.534 496.162 -195.846 524.519 -149.705 548.049C85.8966 669.538 371.292 675.407 495.976 650.324C706.442 668.17 771.113 580.012 834.96 493.005C852.216 469.627 869.262 446.309 889.125 425.171C971.762 337.311 1102.52 287.046 1485.42 424.874V423.843C1102.22 286.074 971.129 336.597 888.185 424.814C868.245 446.011 851.124 469.349 833.925 492.767C770.308 579.457 705.885 667.258 496.244 649.412H496.014C371.579 674.495 86.4719 668.626 -148.919 547.236C-194.988 523.727 -238.605 495.396 -279.087 462.687C-320.156 429.474 -356.983 391.003 -388.682 348.197C-464.838 226.053 -544.772 204.995 -636.861 247.27C-646.525 251.711 -656.335 256.834 -666.293 262.637L-666.35 263.549Z" fill="#C42035" fill-opacity="0.1"/>
<path d="M-666.196 266.9C-653.196 258.642 -639.681 251.283 -625.741 244.87C-536.776 204.559 -458.338 226.727 -383.179 350.1L-382.891 350.477C-352.05 393.285 -315.957 431.765 -275.521 464.947C-235.329 497.912 -191.945 526.486 -146.062 550.21C89.2137 673.305 379.805 682.407 507.518 650.245C709.778 654.706 774.028 568.373 835.382 485.866C852.236 463.222 868.859 440.856 888.071 420.769C969.461 335.665 1097.52 291.011 1486.01 436.275V435.204C1097.33 290.04 968.944 334.951 887.227 420.412C868.054 440.558 851.315 462.964 834.462 485.628C773.261 567.838 709.241 653.873 507.748 649.412H507.538C380.112 681.534 89.8464 672.453 -145.238 549.476C-191.072 525.741 -234.411 497.168 -274.562 464.214C-314.92 431.071 -350.936 392.638 -381.702 349.882L-381.99 349.486C-457.437 225.617 -536.393 203.449 -626.047 244.057C-639.853 250.411 -653.239 257.697 -666.12 265.869L-666.196 266.9Z" fill="#C42035" fill-opacity="0.1"/>
<path d="M-666.024 270.47C-650.015 259.536 -633.155 249.999 -615.617 241.956C-528.724 203.053 -451.053 226.371 -376.487 351.529C-346.663 394.337 -311.443 432.834 -271.763 465.999C-231.93 499.291 -188.836 528.18 -143.186 552.193C91.8979 677.113 388.088 689.545 518.926 650.305C712.865 641.957 776.635 557.111 835.612 478.847C852.236 456.758 868.475 435.225 887.131 416.011C967.237 333.584 1092.42 294.918 1486.43 447.736V446.666C1092.25 293.867 966.834 332.791 886.306 415.575C867.593 434.828 851.334 456.441 834.711 478.53C775.907 556.635 712.347 641.124 519.118 649.393H518.907C388.375 688.594 92.5689 676.28 -142.304 551.36C-187.918 527.385 -230.973 498.529 -270.766 465.265C-310.399 432.132 -345.585 393.683 -375.394 350.934C-450.266 225.28 -528.436 201.962 -616.001 241.163C-633.419 249.125 -650.164 258.576 -666.062 269.419L-666.024 270.47Z" fill="#C42035" fill-opacity="0.1"/>
<path d="M-665.851 274.276C-647.107 260.537 -627.079 248.773 -606.069 239.16C-520.92 201.485 -443.92 225.914 -369.796 352.955C-340.918 395.725 -306.522 434.211 -267.564 467.346C-228.091 500.938 -185.287 530.11 -139.869 554.374C94.9656 681.157 396.543 696.723 530.488 650.383C715.99 629.861 779.281 546.462 835.862 471.927C852.351 450.115 868.265 429.216 886.479 410.795C965.339 330.966 1087.53 298.784 1486.99 459.395V458.324C1087.38 297.713 964.879 330.212 885.655 410.418C867.382 428.899 851.45 449.897 834.941 471.669C778.514 545.986 715.415 629.127 530.565 649.57H530.373C396.773 695.83 95.6174 680.245 -138.987 553.58C-184.371 529.382 -227.137 500.262 -266.567 466.712C-305.491 433.622 -339.85 395.174 -368.684 352.44C-443.096 224.903 -520.613 200.454 -606.433 238.446C-627.31 247.991 -647.22 259.654 -665.87 273.265L-665.851 274.276Z" fill="#C42035" fill-opacity="0.1"/>
<path d="M-665.66 278.302C-642.191 260.456 -619.356 246.259 -597.038 236.483C-513.366 199.84 -436.883 225.399 -363.124 354.384C-335.231 397.129 -301.669 435.608 -263.422 468.695C-224.297 502.553 -181.77 531.969 -136.572 556.436C97.9949 685.004 404.979 703.782 541.992 650.384C718.962 618.301 781.658 536.052 835.957 464.928C852.466 443.314 868.149 422.732 886.038 404.907C963.633 327.575 1082.74 302.413 1487.51 470.936V469.845C1082.6 301.303 963.192 326.862 885.214 404.53C867.287 422.376 851.545 443.017 835.037 464.67C780.93 535.596 718.367 617.627 541.973 649.571H541.819C405.152 702.89 98.647 684.092 -135.689 555.643C-180.842 531.207 -223.325 501.824 -262.406 468.001C-300.646 434.959 -334.207 396.526 -362.108 353.828C-436.193 224.328 -513.193 198.769 -597.518 235.71C-619.759 245.446 -642.479 259.504 -665.794 277.211L-665.66 278.302Z" fill="#C42035" fill-opacity="0.1"/>
<path d="M-665.449 282.544C-639.105 261.348 -613.47 244.731 -588.429 233.885C-505.984 198.194 -429.962 224.824 -356.432 355.811C-330.03 398.323 -296.995 436.315 -259.166 470.043C-220.399 504.188 -178.155 533.867 -133.178 558.558C101.139 688.91 413.531 710.9 553.63 650.403C721.972 607.514 784.094 526.158 836.073 458.067C852.715 436.255 868.303 415.891 885.923 398.581C962.233 323.748 1078.17 306.061 1488.06 482.575V481.484C1078.08 305.01 961.83 322.975 885.099 398.204C867.363 415.614 851.737 436.057 835.095 457.849C783.327 525.761 721.262 606.939 553.438 649.67H553.304C413.569 710.067 101.715 688.038 -132.334 557.844C-177.268 533.18 -219.474 503.533 -258.207 469.428C-295.979 435.72 -328.976 397.768 -355.358 355.315C-429.195 223.812 -505.773 197.143 -588.851 233.152C-613.777 243.978 -639.335 260.475 -665.545 281.474L-665.449 282.544Z" fill="#C42035" fill-opacity="0.1"/>
<path d="M-665.219 287.006C-636.133 262.319 -607.814 243.225 -580.166 231.347C-498.833 196.429 -423.079 224.189 -349.702 357.219C-346.417 362.692 -343.03 368.091 -339.54 373.419C-245.438 516.719 -69.9826 608.724 106.757 653.774C283.497 698.825 461.656 696.941 560.916 652.406C562.392 651.752 563.811 651.097 565.23 650.423C724.924 597.481 786.337 516.759 836.13 451.285C853.041 429.077 868.609 408.614 886.211 391.621C961.255 319.188 1074.01 309.591 1488.73 494.155V493.044C1073.92 308.639 960.871 318.375 885.405 391.225C867.727 408.277 852.14 428.78 835.21 451.028C785.512 516.363 724.253 596.906 565 649.69C563.562 650.384 562.124 651.038 560.667 651.672C461.713 696.069 283.995 697.913 107.524 652.922C-68.9472 607.931 -244.307 516.105 -338.313 372.883C-341.803 367.596 -345.184 362.202 -348.456 356.703C-422.139 223.138 -498.392 195.359 -580.453 230.574C-608.025 242.471 -636.229 261.407 -665.18 285.876L-665.219 287.006Z" fill="#C42035" fill-opacity="0.1"/>
<path d="M-665.008 291.686C-633.295 263.41 -602.426 241.698 -572.286 228.869C-491.758 194.645 -416.33 223.515 -343.03 358.666C-333.79 374.775 -323.57 390.259 -312.429 405.026C-215.278 533.911 -46.6295 618.837 122.805 660.615C292.24 702.394 462.729 700.966 563.293 656.848C567.876 654.865 572.343 652.724 576.715 650.523C727.781 588.34 788.35 507.995 836.053 444.702C853.309 421.721 869.012 401.08 886.652 384.245C960.412 314.132 1069.99 313.239 1489.23 505.873V504.743C1069.93 312.169 960.047 313.299 885.846 383.789C868.13 400.604 852.485 421.463 835.114 444.385C787.506 507.559 727.053 587.746 576.389 649.749C572.113 651.93 567.665 654.032 563.083 656.035C462.844 700.014 292.739 701.442 123.572 659.723C-45.5941 618.004 -214.262 533.118 -311.337 404.431C-322.496 389.702 -332.742 374.258 -342.014 358.191C-415.582 222.524 -491.566 193.614 -572.746 228.155C-602.81 240.964 -633.583 262.518 -665.142 290.575L-665.008 291.686Z" fill="#C42035" fill-opacity="0.1"/>
<path d="M-664.778 296.563C-630.573 264.56 -597.23 240.19 -564.655 226.429C-484.989 192.82 -409.6 222.781 -336.339 360.074C-321.958 386.031 -305.042 410.396 -285.855 432.785C-186.614 549.456 -24.3309 628.314 138.432 667.138C301.194 705.962 464.589 704.812 565.862 661.348C573.749 657.977 581.227 654.355 588.295 650.482C730.772 579.893 790.344 499.785 836.053 438.139C853.961 414.047 869.721 392.811 887.495 376.194C959.951 308.361 1066.44 316.709 1489.83 517.492V516.342C1066.4 315.678 959.664 307.488 886.709 375.778C868.84 392.493 853.06 413.749 835.133 437.881C789.5 499.349 730.025 579.377 587.797 649.808C580.741 653.655 573.302 657.264 565.479 660.635C464.531 703.92 301.539 705.07 139.026 666.305C-23.4874 627.541 -185.694 548.782 -284.82 432.23C-303.982 409.87 -320.879 385.539 -335.246 359.618C-408.775 221.789 -484.683 191.829 -565.019 225.735C-597.614 239.457 -630.764 263.667 -664.835 295.433L-664.778 296.563Z" fill="#C42035" fill-opacity="0.1"/>
<path d="M-664.471 303.028C-627.696 266.9 -591.861 239.576 -556.851 224.883C-478.605 192.127 -403.905 223.138 -330.932 362.037C-312.055 397.34 -288.542 429.77 -261.064 458.404C-160.366 564.863 -3.89209 638.288 152.754 674.535C309.4 710.781 466.832 709.651 568.815 666.98C579.724 662.441 590.341 657.19 600.605 651.256C734.818 572.914 793.45 492.469 837.319 432.151C855.879 406.632 871.831 384.741 889.681 368.263C960.181 303.266 1063.37 321.766 1490.52 530.58L1490.34 526.753C1063.18 318.097 959.242 300.212 886.882 366.875C868.705 383.631 852.677 405.66 834.002 431.338C790.344 491.359 732.095 571.407 598.687 649.214C588.644 655.033 578.25 660.18 567.569 664.621C466.717 706.836 310.646 707.827 154.767 671.818C-1.11188 635.81 -157.298 562.603 -257.632 456.52C-284.998 428.018 -308.408 395.727 -327.193 360.57C-401.087 219.946 -477.512 188.875 -558.021 222.583C-592.801 237.137 -628.291 263.906 -664.586 299.181L-664.471 303.028Z" fill="#C42035" fill-opacity="0.1"/>
</g>
<g opacity="0.21">
<path d="M1497.53 411.113C1423.91 385.554 1353.54 400.009 1278.29 438.06C987.925 584.791 746.629 541.525 575.507 510.83C492.755 495.999 426.434 484.102 379.019 498.101C158.295 563.336 64.4417 537.758 18.0614 467.247C-11.1396 422.891 -21.4357 360.848 -32.7288 292.558C-40.1105 247.964 -47.9524 200.692 -61.7764 154.036C-105.415 6.76945 -208.989 -134.747 -547.514 -169.07L-547.111 -169.962C-208.261 -135.461 -104.495 6.51172 -60.7602 154.076C-46.8979 200.792 -39.075 248.102 -31.6741 292.717C-20.381 360.887 -10.1235 422.831 18.9433 466.99C64.9593 536.865 158.391 562.167 378.405 497.208C426.051 483.13 492.506 495.047 575.392 509.918C746.36 540.573 987.465 583.819 1277.56 437.187C1353.14 398.998 1423.83 384.523 1497.88 410.339L1497.53 411.113Z" fill="#C42035" fill-opacity="0.1"/>
<path d="M1497.3 411.41C1422.95 381.449 1350.78 394.556 1271.35 437.445C979.355 588.499 729.315 542.695 554.416 510.652C476.227 496.336 413.09 484.756 368.013 494.789C152.409 552.292 61.8342 523.045 16.9878 451.979C-10.2767 408.733 -20.5345 350.021 -31.7318 285.916C-39.2477 242.927 -47.1854 197.5 -60.9711 152.688C-105.07 9.10934 -209.373 -128.164 -552.23 -158.62L-551.828 -159.512C-208.625 -128.858 -104.188 8.77232 -59.9359 152.747C-46.1502 197.599 -38.1933 243.066 -30.6965 286.074C-19.4993 350.101 -9.27979 408.714 17.8889 451.761C62.3901 522.291 152.543 551.162 367.457 493.897C412.725 483.824 475.978 495.404 554.282 509.76C729.028 541.783 978.875 587.547 1270.62 436.652C1350.36 393.565 1422.85 380.478 1497.65 410.677L1497.3 411.41Z" fill="#C42035" fill-opacity="0.1"/>
<path d="M1497.07 411.965C1422.07 377.464 1348.19 388.964 1264.5 436.85C970.247 592.683 710.142 543.667 531.561 510.018C458.703 496.276 399.476 485.113 357.084 491.478C146.177 541.168 58.9963 508.253 15.7988 436.295C-9.41412 394.298 -19.5759 339.135 -30.6006 279.213C-38.2699 237.851 -46.2269 194.288 -59.8783 151.399C-104.456 11.4094 -209.315 -121.64 -556.87 -148.21L-556.487 -149.083C-208.606 -122.354 -103.555 11.0524 -58.862 151.419C-45.1914 194.387 -37.1577 237.97 -29.546 279.352C-18.5405 339.135 -8.45526 394.358 16.7001 435.998C59.61 507.38 146.427 539.998 356.586 490.486C399.151 484.102 458.492 495.285 531.447 509.026C709.874 542.735 969.768 591.651 1263.73 435.958C1347.73 387.894 1421.95 376.472 1497.38 411.153L1497.07 411.965Z" fill="#C42035" fill-opacity="0.1"/>
<path d="M1496.71 412.779C1421.18 373.558 1345.62 383.294 1257.66 436.256C960.469 597.501 688.629 544.361 506.636 508.788C440.047 495.761 385.499 484.994 346.213 488.167C139.678 530.084 55.8904 493.183 14.3418 420.036C-8.6662 379.526 -18.6364 327.932 -29.3735 272.472C-37.0428 232.815 -45.134 191.175 -58.632 150.11C-103.593 13.6503 -208.951 -115.156 -561.529 -137.741L-561.127 -138.633C-208.337 -115.889 -102.692 13.2934 -57.6158 150.11C-44.1945 191.175 -36.0266 232.874 -28.3381 272.611C-17.6202 327.992 -7.65002 379.506 15.2813 419.857C56.504 492.45 139.908 528.914 345.714 487.274C385.173 484.181 439.798 494.869 506.483 507.896C688.323 543.449 959.894 596.549 1256.87 435.443C1345.07 382.302 1421.05 372.586 1497 412.065L1496.71 412.779Z" fill="#C42035" fill-opacity="0.1"/>
<path d="M1496.23 413.85C1420.28 369.751 1343.13 377.524 1250.81 435.661C949.579 603.093 663.992 544.619 479.084 506.766C419.858 494.631 370.966 484.637 335.284 484.955C132.507 519.06 52.3625 477.796 12.597 403.142C-8.05267 364.377 -17.7351 316.65 -28.0887 265.81C-35.7581 227.759 -43.9069 187.943 -57.2131 148.821C-102.462 15.8513 -208.241 -108.692 -566.188 -127.192L-565.786 -128.104C-207.532 -109.445 -101.58 15.4745 -56.1969 148.821C-42.8715 187.963 -34.7804 227.798 -27.0344 265.81C-16.7191 316.571 -7.0365 364.239 13.5365 402.845C53.0144 476.944 132.775 517.85 334.843 483.884C370.659 483.666 419.628 493.679 478.95 505.814C663.704 543.647 949.042 602.062 1250.01 434.788C1342.63 376.453 1420.15 368.74 1496.52 413.076L1496.23 413.85Z" fill="#C42035" fill-opacity="0.1"/>
<path d="M1495.62 415.157C1419.34 366.062 1340.66 371.534 1243.95 434.985C937.403 609.635 635.251 544.042 448.388 503.572C397.847 492.627 355.761 483.486 324.336 481.444C124.55 507.657 48.2402 461.615 10.392 384.879C-7.66925 348.275 -16.9492 304.772 -26.7275 258.849C-34.5119 222.404 -42.603 184.432 -55.66 147.274C-101.158 17.7339 -207.13 -102.566 -570.905 -116.803L-570.502 -117.715C-206.535 -103.24 -100.296 17.3571 -54.7397 147.274C-41.6443 184.531 -33.6491 222.503 -25.7881 258.968C-16.0096 304.831 -6.74902 348.196 11.2547 384.74C48.8536 460.862 124.761 506.646 323.78 480.512C355.32 482.495 397.463 491.695 448.081 502.68C634.772 543.17 936.675 608.624 1242.93 434.133C1339.99 370.523 1419.04 364.951 1495.71 414.304L1495.62 415.157Z" fill="#C42035" fill-opacity="0.1"/>
<path d="M1494.96 416.704C1418.46 362.434 1338.32 365.666 1237.12 434.431C923.369 617.766 600.739 542.596 413.722 499.013C373.458 489.653 339.637 481.742 313.446 478.193C115.558 496.355 43.5427 444.682 7.76532 365.368C-7.57336 331.541 -16.1629 292.736 -25.2128 252.187C-32.8821 217.348 -41.05 181.201 -53.8386 145.886C-99.5287 19.7371 -205.787 -96.0218 -575.545 -106.095L-575.123 -107.027C-205.078 -96.8546 -98.6658 19.3207 -52.8416 145.886C-40.0338 181.26 -31.9426 217.408 -24.0816 252.306C-15.051 292.796 -6.40369 331.62 8.81995 365.328C44.3865 444.107 116.037 495.483 313.177 477.399H313.311C339.579 480.969 373.535 488.88 413.78 498.239C600.624 541.862 923.004 616.913 1236.47 433.737C1337.97 364.753 1418.5 361.541 1495.42 416.05L1494.96 416.704Z" fill="#C42035" fill-opacity="0.1"/>
<path d="M1494.16 418.489C1417.47 359.003 1335.98 359.618 1230.28 433.836C906.343 628.156 557.292 538.927 373.707 492.073C345.983 485.014 322.054 478.887 302.555 474.881C104.917 484.637 37.9632 426.123 4.35236 343.16C-7.84192 313.021 -15.6071 279.709 -23.6407 245.267C-31.425 211.935 -39.4395 177.572 -51.9213 144.141C-97.7456 21.3037 -204.062 -89.9939 -580.243 -95.5657L-579.821 -96.4976C-203.391 -90.7671 -96.9019 20.8674 -50.9243 144.102C-38.4041 177.671 -30.3896 212.074 -22.6052 245.426C-14.5717 279.828 -6.82568 313.12 5.34937 343.16C38.711 425.587 105.377 483.725 302.248 474.029H302.383C321.94 477.994 345.925 484.181 373.688 491.26C557.081 538.075 905.882 627.125 1229.53 433.102C1335.54 358.646 1417.43 358.012 1494.54 417.795L1494.16 418.489Z" fill="#C42035" fill-opacity="0.1"/>
<path d="M1493.28 420.491C1416.58 355.553 1333.7 353.451 1223.43 433.241C883.871 642.194 497.912 530.917 326.119 481.365C313.465 477.697 301.961 474.385 291.607 471.451C34.953 472.462 7.95679 361.521 -22.0111 238.307C-29.6804 206.443 -37.7139 173.785 -49.9081 142.04C-95.7899 22.4537 -202.029 -84.1445 -584.959 -85.1558L-584.537 -86.0876C-201.397 -84.9376 -94.9465 22.0373 -48.8922 141.94C-36.6979 173.944 -28.6642 206.74 -20.9949 238.466C8.83881 361.145 35.7199 471.609 291.358 470.578H291.511C301.75 473.414 313.311 476.745 326.023 480.493C497.74 530.064 883.373 641.104 1222.61 432.448C1333.2 352.42 1416.49 354.542 1493.58 419.718L1493.28 420.491Z" fill="#C42035" fill-opacity="0.1"/>
<path d="M1492.28 422.732C1415.59 352.242 1331.47 347.225 1216.59 432.646C1038.39 545.292 841.728 567.104 670.952 554.294C500.175 541.485 355.416 494.095 280.678 468.258C36.8894 457.313 9.43329 348.831 -20.247 231.565C-27.9164 201.109 -35.8351 170.097 -47.7034 139.937C-93.6043 23.5837 -199.709 -78.1763 -589.676 -74.4287L-589.254 -75.3806C-199.058 -78.9299 -92.7798 23.1474 -46.6487 139.898C-34.7613 170.037 -26.8811 201.148 -19.1542 231.664C10.3918 348.415 37.7332 456.46 280.563 467.306H280.755C355.378 493.083 500.175 540.513 670.779 553.323C841.383 566.132 1037.81 544.32 1215.86 431.813C1331.07 346.134 1415.64 351.151 1492.72 421.899L1492.28 422.732Z" fill="#C42035" fill-opacity="0.1"/>
<path d="M1491.19 425.21C1489.67 423.684 1488.16 422.216 1486.66 420.769C1411.33 348.752 1326.95 342.704 1209.74 432.031C1162.34 462.728 1111.8 487.924 1059.06 507.162C1008.61 525.503 956.616 538.939 903.754 547.295C637.111 590.104 377.791 509.62 269.845 464.887C38.8835 442.362 11.0056 336.2 -18.3104 224.685C-25.9797 195.477 -33.6492 165.893 -45.3066 137.439C-91.1692 24.238 -196.987 -72.3665 -594.297 -63.7808L-593.875 -64.7325C-196.354 -73.1993 -90.3447 23.782 -44.2903 137.38C-32.7864 165.972 -24.9445 195.576 -17.256 224.823C11.9258 335.863 39.6889 441.628 269.731 464.015H269.941C377.695 508.768 636.804 589.153 903.275 546.363C956.138 538.031 1008.13 524.608 1058.58 506.269C1111.28 487.066 1161.76 461.896 1209.11 431.219C1326.79 341.494 1411.66 347.701 1487.52 420.233C1488.94 421.582 1490.34 422.95 1491.74 424.338L1491.19 425.21Z" fill="#C42035" fill-opacity="0.1"/>
<path d="M1489.98 427.888C1485.38 422.944 1480.74 418.258 1476.06 413.829C1403.2 344.945 1319.66 340.325 1202.9 431.437C1156.39 462.395 1106.65 487.831 1054.63 507.261C1004.37 525.954 952.519 539.716 899.766 548.366C632.739 592.901 367.15 513.983 258.917 461.596C40.7434 427.888 12.4628 323.887 -16.3547 217.884C-24.024 189.807 -31.6935 161.591 -42.91 134.604C-88.6959 24.5359 -194.149 -66.6952 -599.052 -53.0532L-598.63 -54.0248C-193.536 -67.528 -87.8906 24.06 -41.9321 134.545C-30.639 161.69 -22.9505 189.945 -15.3195 218.042C13.4405 323.649 41.5486 427.273 258.859 460.783H259.07C367.112 513.111 632.432 591.989 899.287 547.474C951.982 538.835 1003.77 525.086 1053.98 506.409C1105.96 487.012 1155.65 461.616 1202.13 430.703C1319.39 339.234 1403.35 343.993 1476.79 413.373C1481.36 417.696 1485.91 422.276 1490.42 427.114L1489.98 427.888Z" fill="#C42035" fill-opacity="0.1"/>
<path d="M1488.69 430.802C1481.63 422.605 1474.15 414.796 1466.3 407.405C1395.36 341.178 1312.61 338.005 1195.96 430.862H1195.84C1150.2 462.055 1101.24 487.691 1049.91 507.261C999.883 526.313 948.214 540.402 895.606 549.337C628.176 595.597 356.355 518.167 247.815 458.126C42.3922 413.73 13.7858 311.673 -14.4565 210.904C-22.1259 183.818 -29.6227 156.812 -40.609 131.055C-86.2607 23.9806 -191.273 -61.5002 -603.979 -42.6433L-603.538 -43.6149C-190.659 -62.3528 -85.4554 23.5245 -39.6119 130.995C-28.6065 156.772 -21.014 183.858 -13.4214 210.964C14.7059 311.375 43.2167 413.036 247.834 457.234H248.045C356.355 517.116 627.907 594.467 895.088 548.247C947.653 539.331 999.277 525.255 1049.26 506.21C1100.51 486.66 1149.41 461.057 1194.98 429.91C1311.94 336.716 1395.28 340.008 1466.68 406.711C1474.45 414 1481.84 421.704 1488.83 429.791L1488.69 430.802Z" fill="#C42035" fill-opacity="0.1"/>
<path d="M1487.31 433.915C1478.07 422.319 1468.03 411.431 1457.27 401.337C1388.07 337.39 1305.8 335.526 1189.26 430.227L1188.84 430.525C1144.08 461.925 1095.9 487.755 1045.29 507.479C995.47 526.859 943.964 541.248 891.483 550.448C623.766 598.333 345.849 522.43 237.04 454.914C44.2905 400.286 15.4346 300.053 -12.2133 204.222C-19.7676 177.949 -27.2451 151.973 -37.9822 127.406C-83.4805 23.3457 -187.994 -56.1072 -608.657 -31.837L-608.216 -32.8086C-187.419 -56.9796 -82.6943 22.85 -37.0043 127.426C-26.2289 152.053 -18.7513 178.048 -11.1779 204.38C16.2975 299.855 45.0383 399.751 237.078 454.22H237.27C345.829 521.637 623.421 597.481 890.908 549.635C943.333 540.447 994.782 526.064 1044.54 506.686C1095.11 486.992 1143.25 461.188 1187.96 429.811L1188.38 429.533C1305.34 334.356 1388.15 336.339 1457.84 400.881C1468.54 410.868 1478.51 421.643 1487.7 433.122L1487.31 433.915Z" fill="#C42035" fill-opacity="0.1"/>
<path d="M1485.82 437.246C1474.72 422.215 1462.3 408.276 1448.72 395.607C1380.96 333.583 1298.97 333.008 1182.36 429.593C1138.52 461.327 1091.12 487.452 1041.21 507.4C991.58 527.185 940.209 541.934 887.821 551.439C619.586 601.189 335.188 526.733 226.034 451.582C45.8052 387.298 16.8727 288.691 -9.95081 197.5C-17.4859 171.723 -24.8677 146.699 -35.4322 123.143C-80.7196 22.0173 -184.735 -50.9517 -613.412 -21.1097L-612.971 -22.1012C-184.16 -51.844 -79.9526 21.5215 -34.4352 123.063C-23.8707 146.699 -16.4697 171.842 -8.91534 197.539C17.8123 288.453 46.6871 386.743 226.226 450.75L226.418 450.849C335.303 525.86 619.318 600.237 887.323 550.507C939.615 541.011 990.89 526.275 1040.42 506.507C1090.29 486.625 1137.65 460.572 1181.46 428.918C1298.55 331.957 1381 332.651 1449.27 395.21C1462.77 407.754 1475.11 421.561 1486.14 436.453L1485.82 437.246Z" fill="#C42035" fill-opacity="0.1"/>
<path d="M1484.25 440.717C1471.59 422.258 1456.99 405.307 1440.72 390.174C1374.19 329.796 1292.4 330.51 1175.52 428.978C1132.56 460.925 1085.94 487.24 1036.72 507.321C987.363 527.505 936.206 542.621 883.987 552.45C615.33 604.004 324.643 530.976 215.182 448.232C47.4926 374.866 18.4641 277.706 -7.51581 190.818C-15.0701 165.497 -22.3752 141.048 -32.7864 118.344C-77.8437 19.9948 -181.418 -45.9548 -618.11 -10.3626L-617.669 -11.3739C-180.862 -46.8669 -77.0959 19.4198 -31.8085 118.245C-21.3782 141.008 -14.0732 165.497 -6.48059 190.857C19.4034 277.488 48.3552 374.39 215.47 447.458L215.623 447.557C324.796 530.123 615.1 602.993 883.469 551.538C935.638 541.749 986.751 526.68 1036.07 506.547C1085.24 486.493 1131.81 460.204 1174.71 428.284C1292.07 329.399 1374.33 328.864 1441.39 389.718C1457.57 404.744 1472.09 421.568 1484.71 439.884L1484.25 440.717Z" fill="#C42035" fill-opacity="0.1"/>
<path d="M1482.58 444.523C1467.01 420.848 1450.65 400.782 1433.19 385.038C1367.65 326.088 1285.96 328.011 1168.6 428.423C1126.55 460.643 1080.71 487.19 1032.18 507.419C983.032 527.939 932.036 543.355 879.941 553.441C610.882 606.701 313.906 535.179 204.139 444.86C48.8346 363.107 19.8253 267.137 -5.19592 184.155C-12.8653 158.933 -20.0361 134.921 -30.3705 112.891C-75.1594 17.3177 -178.408 -41.1368 -623.018 0.364312L-622.558 -0.646962C-177.852 -42.0688 -74.4308 16.7229 -29.3927 112.792C-19.0391 134.901 -11.7915 158.953 -4.16052 184.175C20.7648 266.939 49.659 362.632 204.522 444.107H204.656C314.117 534.228 610.651 605.59 879.423 552.391C931.498 542.375 982.481 527.032 1031.62 506.587C1080.05 486.368 1125.8 459.856 1167.75 427.689C1285.53 326.881 1367.71 325.116 1433.76 384.542C1451.17 400.207 1467.45 420.114 1482.96 443.591L1482.58 444.523Z" fill="#C42035" fill-opacity="0.1"/>
<path d="M1480.83 448.47C1463.75 420.71 1445.65 397.649 1426 380.101C1361.33 322.38 1279.61 325.473 1161.81 427.828C1120.69 460.319 1075.63 487.103 1027.79 507.499C978.877 528.4 928.053 544.144 876.087 554.493C606.606 609.497 303.341 539.463 193.286 441.47C50.0425 352.004 21.3591 257.065 -2.64594 177.612C-10.3153 152.192 -17.5053 128.378 -27.8206 106.864C-72.3218 13.9673 -175.34 -36.4566 -627.735 11.112L-627.275 10.0809C-174.784 -37.3886 -71.6124 13.3526 -26.8619 106.745C-16.5083 128.358 -9.29901 152.212 -1.61053 177.652C22.337 256.966 50.9436 351.607 193.747 440.796H193.862C303.61 538.491 606.395 608.367 875.569 553.402C927.456 543.061 978.202 527.336 1027.04 506.468C1074.84 486.112 1119.85 459.368 1160.93 426.916C1279.19 324.145 1361.38 321.19 1426.59 379.328C1446.19 396.816 1464.21 419.818 1481.22 447.28L1480.83 448.47Z" fill="#C42035" fill-opacity="0.1"/>
<path d="M1478.97 452.614C1460.59 420.889 1440.9 394.556 1419.15 375.283C1355.19 318.653 1273.44 322.856 1154.96 427.214C1149.85 431.431 1144.65 435.542 1139.38 439.547C997.608 547.593 797.879 583.483 614.294 574.659C430.71 565.835 263.039 512.239 185.675 441.292C184.524 440.261 183.412 439.309 182.319 438.179C50.9629 341.713 22.7396 247.587 -0.172485 171.228C-7.8418 145.332 -15.1084 121.478 -25.462 100.301C-69.6565 10.0416 -172.656 -31.8164 -632.586 21.9784L-632.125 20.9274C-172.138 -32.7683 -68.9471 9.38719 -24.5033 100.241C-14.0922 121.498 -6.94061 145.391 0.84375 171.347C23.6984 247.508 51.8831 341.436 182.875 437.624L186.231 440.757C263.365 511.485 430.576 564.903 613.93 573.707C797.285 582.511 996.86 546.661 1138.47 438.774C1143.75 434.808 1148.94 430.697 1154.04 426.441C1272.92 321.667 1355.21 317.582 1419.71 374.728C1441.37 393.922 1461.03 420.056 1479.36 451.583L1478.97 452.614Z" fill="#C42035" fill-opacity="0.1"/>
<path d="M1477.06 456.996C1457.52 421.047 1436.35 391.562 1412.6 370.662C1349.23 314.944 1267.22 320.258 1148.12 426.638C1133.44 439.16 1118.08 450.792 1102.1 461.477C962.789 554.929 772.091 586.198 596.54 576.482C420.989 566.766 260.47 515.728 181.744 444.801C178.139 441.576 174.707 438.271 171.448 434.887C51.6722 332.215 24.0818 238.684 2.33929 165.021C-5.54095 138.272 -12.6543 114.141 -23.1422 93.1621C-66.9724 5.48033 -170.182 -27.2367 -637.36 32.8636L-636.9 31.8127C-169.684 -28.2082 -66.3013 4.80617 -22.1835 93.0431C-11.6573 114.101 -4.5249 138.272 3.39368 165.06C25.0787 238.585 52.6116 331.918 172.119 434.332C175.359 437.643 178.791 440.935 182.377 444.246C260.853 514.875 420.951 565.636 596.233 575.551C771.516 585.465 962.099 554.096 1101.28 460.743C1117.24 450.064 1132.61 438.452 1147.29 425.964C1266.86 319.168 1349.36 313.992 1413.25 370.186C1436.96 391.046 1458.07 420.333 1477.54 456.024L1477.06 456.996Z" fill="#C42035" fill-opacity="0.1"/>
<path d="M1475.02 461.537C1454.51 421.344 1432 388.627 1406.29 366.161C1343.42 311.217 1261.15 317.601 1141.27 426.043C1118.09 446.383 1093.14 464.464 1066.75 480.056C929.945 561.353 747.53 588.737 579.418 578.089C411.307 567.441 257.306 518.801 177.68 448.331C171.506 442.838 165.754 437.247 160.424 431.536C51.8641 323.411 25.1556 230.296 4.65936 158.854C-3.3551 130.896 -10.4301 106.249 -21.0714 85.3695C-64.5181 0.205988 -168.227 -22.8149 -642.287 43.7296L-641.827 42.6788C-167.728 -23.8063 -63.847 -0.488007 -20.1127 85.2505C-9.39478 106.229 -2.31964 130.856 5.71399 158.933C26.1528 230.316 52.8228 323.173 161.133 431.06C166.553 436.924 172.255 442.503 178.216 447.776C257.632 518.028 411.191 566.529 579.054 577.157C746.917 587.785 929.236 560.521 1065.88 479.224C1092.25 463.651 1117.16 445.597 1140.31 425.29C1260.63 316.451 1343.4 310.285 1406.82 365.606C1432.5 388.032 1454.95 420.551 1475.43 460.466L1475.02 461.537Z" fill="#C42035" fill-opacity="0.1"/>
<path d="M1472.36 467.544C1450.94 422.712 1427.17 386.446 1399.5 362.453C1337.67 308.758 1255.7 316.332 1135.44 426.361C1104.56 454.232 1070.42 477.993 1033.83 497.089C899.402 568.472 724.503 592.266 563.14 580.904C401.777 569.542 253.433 522.747 172.886 452.792C164.273 445.35 156.175 437.293 148.651 428.681C50.6559 315.658 25.0212 222.583 5.82874 152.826C-2.30078 123.321 -9.27991 98.0002 -20.0937 77.2397C-62.716 -4.67191 -167.038 -17.2036 -647.675 55.8844L-646.084 52.3153C-165.523 -20.6141 -60.6644 -7.26945 -16.9301 76.744C-5.94373 97.8614 1.07379 123.341 9.2608 153.044C28.4341 222.444 53.858 315.004 151.143 427.312C158.516 435.745 166.447 443.636 174.88 450.928C254.584 520.13 401.643 566.449 562.181 577.831C722.72 589.212 897.408 565.279 1031.43 494.253C1067.85 475.232 1101.82 451.571 1132.55 423.823C1254.22 312.446 1337.9 305.307 1401.53 360.57C1429.03 384.364 1452.69 420.055 1473.97 463.936L1472.36 467.544Z" fill="#C42035" fill-opacity="0.1"/>
</g>
<path d="M1496.23 302.135C1457.25 304.851 1417.33 306.378 1378.12 307.865C1232.62 313.437 1096.89 318.612 1056.22 381.965C971.263 514.241 895.855 563.475 826.773 570.811C757.692 578.148 694.995 543.607 635.423 508.391C494.595 425.112 362.088 390.035 241.162 389.222C165.623 388.679 90.572 401.77 19.3844 427.907C-47.4805 452.67 -110.378 487.66 -167.211 531.71C-200.841 557.634 -232.429 586.277 -261.678 617.369L-261.869 616.417C-232.769 585.528 -201.355 557.065 -167.92 531.293C-110.989 487.159 -47.9732 452.115 19.02 427.332C90.3597 401.13 165.574 388.005 241.277 388.548C362.414 389.361 495.113 424.536 636.094 507.876C695.532 542.992 758.018 577.454 826.716 570.157C895.414 562.86 970.516 513.745 1055.32 381.786C1096.29 318.018 1232.33 312.823 1378.16 307.231C1417.31 305.744 1457.17 304.217 1496.1 301.52L1496.23 302.135Z" fill="#C42035" fill-opacity="0.1"/>
<path d="M1495 296.464C1462.68 298.288 1429.7 299.399 1397.05 300.43C1253.42 305.268 1116.25 309.868 1070.31 374.132C945.284 554.453 857.489 582.609 764.92 558.022C726.228 547.771 686.712 528.279 643.246 506.845L637.494 504.009C520.172 439.864 411.977 405.719 312.832 394.576C215.201 383.61 126.314 394.952 46.1503 421.899C-34.0134 448.846 -105.549 491.478 -168.457 542.992C-200.611 569.444 -230.904 598.229 -259.108 629.127L-259.3 628.175C-231.256 597.488 -201.142 568.896 -169.186 542.615C-106.182 491.061 -34.5504 448.331 45.8051 421.324C126.16 394.318 215.24 382.917 313.081 393.921C412.38 405.065 520.709 439.249 638.146 503.454L643.898 506.29C687.307 527.704 726.784 547.156 765.38 557.407C857.412 581.836 944.766 553.719 1069.45 373.894C1115.7 309.234 1253.17 304.633 1397.12 299.795C1429.72 298.685 1462.64 297.594 1494.91 295.83L1495 296.464Z" fill="#C42035" fill-opacity="0.1"/>
<path d="M1493.7 290.595C1468.08 291.706 1442.05 292.459 1416.12 293.173C1274.45 297.139 1135.81 301.104 1084.42 366.4C944.958 553.165 868.284 579.398 764.748 549.08C732.153 539.542 696.893 524.374 656.169 506.845L639.603 499.747C267.813 311.138 13.939 395.191 -168.917 554.295C-199.829 581.348 -229.074 610.374 -256.482 641.203L-256.693 640.232C-229.444 609.62 -200.379 580.793 -169.665 553.918C13.5363 394.517 267.871 310.285 640.217 499.191L656.744 506.31C697.468 523.799 732.69 538.967 765.227 548.485C868.169 578.624 944.498 552.451 1083.5 366.182C1135.27 300.549 1274.2 296.584 1416.18 292.558C1442.05 291.825 1467.95 291.091 1493.56 289.961L1493.7 290.595Z" fill="#C42035" fill-opacity="0.1"/>
<path d="M1492.43 284.508C1473.59 285.103 1454.53 285.519 1435.45 285.955C1295.89 289.108 1155.69 292.261 1098.48 358.627C940.356 555.623 879.749 577.474 754.451 537.083C727.896 528.557 698.446 517.255 664.529 504.148L641.635 495.364C246.243 308.758 7.49692 402.785 -168.764 565.319C-198.613 593.06 -227.023 622.414 -253.874 653.259L-254.085 652.267C-227.398 621.673 -199.174 592.552 -169.53 565.022C7.05588 402.21 246.205 308.005 642.211 494.869L665.104 503.653C699.002 516.72 728.376 528.042 754.988 536.588C879.615 576.681 939.992 554.87 1097.69 358.389C1155.21 291.646 1295.73 288.493 1435.58 285.321C1454.58 284.904 1473.57 284.468 1492.34 283.873L1492.43 284.508Z" fill="#C42035" fill-opacity="0.1"/>
<path d="M1491.07 278.123C1479.11 278.361 1467.07 278.566 1454.97 278.738C1317.67 280.919 1175.84 283.179 1112.57 350.775C911.117 584.751 889.681 577.236 668.402 499.647L643.707 491.002C224.443 306.597 1.82173 410.657 -168.035 576.265C-197.063 604.58 -224.558 634.679 -251.228 665.493L-251.458 664.502C-224.96 633.946 -197.639 604.064 -168.821 575.967C1.32315 410.082 224.424 305.764 644.32 490.486L669.015 499.132C889.509 576.463 910.906 583.938 1111.92 350.557C1175.5 282.624 1317.63 280.364 1455.12 278.182C1467.14 277.984 1479.13 277.806 1491 277.568L1491.07 278.123Z" fill="#C42035" fill-opacity="0.1"/>
<path d="M1489.65 271.679L1474.72 271.817C1339.89 272.928 1196.32 274.118 1126.64 343.081L1109.77 361.423C1011.99 467.466 963.249 520.507 907.838 537.064C852.427 553.621 790.689 533.653 667.251 493.699L645.758 486.759C202.375 304.554 -3.18253 418.866 -166.846 587.329C-195.012 616.298 -221.912 646.814 -248.582 677.826L-248.812 676.815C-222.315 646.101 -195.587 615.763 -167.632 587.012C-3.66193 418.231 202.241 303.702 646.314 486.164L667.788 493.124C790.958 532.979 852.562 552.907 907.589 536.469C962.617 520.031 1011.43 467.069 1108.91 361.125L1125.82 342.784C1195.82 273.503 1339.66 272.313 1474.77 271.183L1489.48 271.064L1489.65 271.679Z" fill="#C42035" fill-opacity="0.1"/>
<path d="M1488.2 264.957L1488.06 264.283C1357.51 264.283 1215.47 265.353 1139.97 334.951C1114.05 361.204 1091.65 384.523 1071.85 405.283C1001.86 478.332 964.073 517.751 918.46 531.353C865.062 547.216 800.64 527.843 660.675 485.549L648.231 481.782C110.65 275.089 -57.3474 470.023 -234.854 675.863L-246.243 689.069L-246.032 690.061L-234.03 676.181C-56.8488 470.658 110.937 276.041 647.714 482.416L660.157 486.184C800.391 528.557 864.928 548.049 918.729 531.988C964.61 518.286 1002.44 478.807 1072.54 405.62C1092.36 384.939 1114.72 361.542 1140.66 335.289C1215.88 265.889 1357.74 264.917 1488.1 264.957H1488.2Z" fill="#C42035" fill-opacity="0.1"/>
<path d="M1486.7 257.997C1364.89 257.065 1232.52 260.535 1154.83 327.535C1113.07 367.192 1080.86 400.504 1054.3 428.007C929.542 557.11 929.025 557.645 649.88 478.093C112.797 284.587 -39.056 462.905 -204.369 657.026C-217.215 672.096 -230.118 687.245 -243.29 702.334L-243.501 701.343C-230.54 686.491 -217.847 671.6 -205.155 656.748C-39.5546 462.29 112.547 283.675 650.436 477.479C928.814 556.793 929.35 556.297 1053.59 427.689C1080.17 400.187 1112.4 366.855 1154.16 327.198C1232.12 259.98 1364.64 256.43 1486.64 257.382L1486.7 257.997Z" fill="#C42035" fill-opacity="0.1"/>
<path d="M1485.17 250.878C1371.76 249.411 1248.55 255.28 1168.92 319.743C1114.01 368.6 1076.26 408.297 1046.69 439.368C942.925 548.425 939.762 551.737 651.932 473.751C111.953 291.19 -26.459 457.987 -180.037 643.126C-199.728 666.921 -219.63 690.834 -240.683 714.509L-240.894 713.518C-220.09 690.14 -200.361 666.365 -180.881 642.908C-27.0152 457.452 111.627 290.357 652.43 473.216C939.493 550.983 942.638 547.672 1045.92 439.131C1075.51 408.039 1113.28 368.323 1168.21 319.446C1248.09 254.765 1371.45 248.856 1485.03 250.303L1485.17 250.878Z" fill="#C42035" fill-opacity="0.1"/>
<path d="M1483.59 243.582C1378.39 242.035 1263.96 250.204 1182.99 311.97C1116.83 367.193 1076.29 411.311 1045.71 444.583C957.401 540.672 951.937 546.601 653.983 469.409C109.173 296.385 -17.5436 454.934 -159.81 632.915C-184.735 664.026 -210.005 695.712 -238.133 726.347L-238.324 725.375C-210.466 694.978 -185.329 663.53 -160.653 632.637C-18.1378 454.339 108.828 295.552 654.443 468.794C951.63 545.788 957.056 539.859 1044.93 444.266C1075.6 410.994 1116.06 366.935 1182.3 311.574C1263.5 249.629 1378.08 241.4 1483.44 242.927L1483.59 243.582Z" fill="#C42035" fill-opacity="0.1"/>
<path d="M1481.98 236.185L1481.85 235.511C1384.49 234.321 1278.27 244.731 1196.42 303.761C1120.26 363.405 1078.79 410.835 1048.3 445.773C972.26 532.78 964.898 541.207 656.476 464.431C104.571 299.597 -12.0599 452.534 -143.646 625.221C-172.138 662.597 -201.339 700.886 -235.813 737.053L-235.602 738.005C-200.86 701.62 -171.467 663.093 -142.803 625.478C-11.4465 453.169 104.974 300.449 656.035 465.046C965.243 542 972.644 533.534 1049.09 446.05C1079.55 411.192 1121.01 363.762 1197.07 304.157C1278.69 245.286 1384.76 234.936 1481.96 236.145L1481.98 236.185Z" fill="#C42035" fill-opacity="0.1"/>
<path d="M1480.39 228.75L1480.24 228.076C1390.57 227.6 1292.34 239.973 1210.51 295.968C1125.49 358.527 1084.35 408.694 1054.65 444.92C988.002 526.217 979.048 537.063 658.508 460.089C99.1455 302.849 -8.16769 451.801 -129.324 619.947C-160.442 663.133 -192.481 707.589 -233.378 748.455L-233.167 749.387C-191.982 708.342 -159.752 663.629 -128.461 620.185C-7.53506 452.356 99.5674 303.702 658.067 460.724C979.432 537.896 988.424 526.931 1055.45 445.178C1085.13 408.991 1126.24 358.884 1211.16 296.464C1292.74 240.686 1390.83 228.294 1480.37 228.789L1480.39 228.75Z" fill="#C42035" fill-opacity="0.1"/>
<path d="M1478.8 221.374C1396.62 221.949 1306.07 236.146 1225.25 288.632C1132.3 352.916 1092.46 405.283 1063.97 442.72C1004.68 520.646 994.425 534.109 660.138 456.401C93.2208 306.279 -5.3494 452.277 -116.248 616.596C-149.169 665.334 -183.182 715.738 -230.77 760.412L-230.962 759.5C-183.719 714.945 -149.878 664.859 -117.13 616.358C-5.92451 451.781 92.7798 305.427 660.56 455.747C994.022 533.276 1004.2 519.872 1063.2 442.442C1091.71 404.966 1131.61 352.539 1224.68 288.176C1305.68 235.571 1396.39 221.294 1478.7 220.759L1478.8 221.374Z" fill="#C42035" fill-opacity="0.1"/>
<path d="M1477.23 214.136C1402.05 216.119 1318.57 231.843 1239.35 280.859C1139.01 346.095 1101.03 400.445 1073.99 439.11C1021.25 514.578 1010.05 530.579 662.189 452.078C85.9924 308.282 -4.60155 452.752 -105.913 614.335C-139.563 667.991 -174.381 723.511 -228.508 770.98L-228.699 770.108C-175.014 722.738 -140.291 667.475 -106.795 614.077C-5.17667 452.138 85.5132 307.37 662.592 451.384C1009.63 529.707 1020.71 513.804 1073.11 438.833C1100.19 400.108 1138.3 345.639 1238.71 280.363C1318.13 231.248 1401.69 215.425 1477.08 213.462L1477.23 214.136Z" fill="#C42035" fill-opacity="0.1"/>
<path d="M1475.73 207.216C1407.11 210.705 1330.28 227.699 1253.44 273.066C1146.24 338.5 1110.54 394.734 1085.15 434.669C1038.08 508.649 1026.27 527.248 664.241 447.716C78.0547 309.749 -4.90842 453.664 -97.0555 613.145C-130.666 671.362 -165.504 731.66 -226.303 781.172L-226.495 780.3C-166.099 730.947 -131.414 670.926 -98.0333 612.967C-5.75206 453.07 77.4604 308.916 664.548 447.081C1025.68 526.396 1037.41 507.955 1084.16 434.451C1109.6 394.457 1145.36 338.223 1252.73 272.571C1329.75 227.084 1406.73 210.051 1475.48 206.522L1475.73 207.216Z" fill="#C42035" fill-opacity="0.1"/>
<path d="M1474.33 200.792C1411.83 205.927 1341.25 223.753 1267.53 265.373C1153.91 330.807 1120.78 388.469 1097.16 429.712C1055.15 503.078 1042.97 524.215 666.312 443.473C69.465 310.959 -6.28871 454.954 -89.4626 613.027C-122.364 675.546 -156.435 740.247 -224.194 790.988L-224.366 790.135C-157.049 739.533 -123.131 675.13 -90.3639 612.868C-7.01747 454.438 68.9091 310.126 666.695 442.838C1042.49 523.382 1054.53 502.324 1096.18 429.514C1119.86 388.211 1153.03 330.371 1266.82 264.937C1340.7 223.297 1411.41 205.451 1474.07 200.197L1474.33 200.792Z" fill="#C42035" fill-opacity="0.1"/>
<path d="M1473.2 195.458C1416.51 202.16 1352.01 220.382 1282.25 258.116C1162.88 322.658 1132.7 381.826 1110.88 424.279C1073.15 498.001 1060.8 522.133 667.98 439.805C60.9904 312.644 -7.49669 457.016 -81.8317 613.681C-113.583 680.582 -146.388 749.685 -221.951 801.14L-222.545 798.324C-148.593 747.325 -116.209 679.194 -84.9186 613.205C-10.0084 455.33 59.0155 309.829 669.226 437.683C1058.96 519.337 1071.02 495.761 1107.89 423.803C1129.75 381.033 1160.24 321.468 1280.45 256.45C1350.67 218.498 1415.62 200.117 1472.76 193.316L1473.2 195.458Z" fill="#C42035" fill-opacity="0.1"/>
<g opacity="0.38">
<path d="M1690.3 -257.842C1618.33 -228.912 1580.78 -174.086 1558.89 -99.6898C1474.39 187.308 1270.98 310.404 1126.74 397.709C1056.97 439.944 1001.08 473.771 979.259 513.686C877.64 699.499 791.36 741.218 702.281 721.509C646.141 709.096 588.928 672.294 526.001 631.784C484.894 605.333 441.332 577.296 394.05 553.502C244.863 478.371 58.517 445.357 -205.653 636.504L-206.075 635.631C58.3828 444.405 245.227 477.558 394.798 552.867C442.137 576.661 485.737 604.758 526.864 631.229C589.695 671.66 646.793 708.402 702.683 720.755C791.149 740.306 876.854 698.666 978.108 513.448C1000.02 473.335 1056.05 439.448 1125.92 397.134C1270.04 309.888 1473.28 186.951 1557.7 -99.8484C1579.69 -174.523 1617.39 -229.567 1689.99 -258.615L1690.3 -257.842Z" fill="#C42035" fill-opacity="0.1"/>
<path d="M1690.46 -257.545C1614.38 -231.213 1574.53 -176.248 1553.63 -95.7641C1471.46 195.279 1259.9 322.182 1111.94 410.934C1045.79 450.591 992.373 482.674 968.963 518.325C864.698 695.434 777.92 732.612 689.3 711.475C635.385 698.607 580.914 664.125 521.4 626.47C481.5 601.209 439.338 574.519 393.609 551.994C247.048 479.759 63.5597 450.135 -200.457 646.735L-200.898 645.862C63.4831 449.183 247.394 478.926 394.357 551.36C440.143 573.925 482.324 600.614 522.262 625.895C581.7 663.569 636.056 697.932 689.741 710.742C777.67 731.72 863.912 694.601 967.755 518.028C991.261 482.237 1044.75 450.135 1111.02 410.399C1258.94 321.745 1470.33 194.843 1552.43 -95.883C1573.52 -176.664 1613.49 -231.867 1690.07 -258.299L1690.46 -257.545Z" fill="#C42035" fill-opacity="0.1"/>
<path d="M1690.72 -257.01C1610.54 -233.453 1568.21 -178.449 1548.36 -91.8381C1468.49 203.984 1247.34 335.03 1095.45 424.992C1033.52 461.695 983.132 491.557 958.667 522.945C851.469 691.627 764 724.066 675.803 701.283C624.341 687.978 572.727 655.856 516.779 621.057C478.125 597.005 437.42 571.684 393.303 550.388C249.33 480.988 68.8323 454.676 -195.319 656.967L-195.76 656.114C68.8323 453.724 249.656 480.136 394.012 549.773C438.111 571.089 478.95 596.43 517.603 620.482C573.475 655.241 624.974 687.304 676.244 700.55C763.77 723.174 850.721 690.754 957.536 522.628C982.116 491.121 1032.58 461.16 1094.61 424.457C1246.32 334.574 1467.32 203.627 1547.1 -91.8975C1567.02 -178.846 1609.6 -234.048 1690.3 -257.704L1690.72 -257.01Z" fill="#C42035" fill-opacity="0.1"/>
<path d="M1691.18 -256.216C1606.82 -235.614 1561.9 -180.868 1543.17 -87.9115C1465.55 213.581 1232.9 349.188 1077.12 439.983C1020.12 473.196 973.43 500.421 948.447 527.526C838.009 688.137 749.754 715.521 661.768 690.834C613.048 677.152 564.482 647.469 512.216 615.486C474.828 592.643 435.522 568.651 393.13 548.604C251.746 481.881 74.316 458.86 -190.123 667.139L-190.564 666.266C74.2393 457.908 252.072 481.048 393.839 547.97C436.385 568.056 475.652 592.048 513.04 614.911C565.172 646.775 613.662 676.379 662.189 690.021C749.505 714.529 837.223 687.086 947.278 527.11C972.356 499.885 1019.12 472.641 1076.18 439.369C1231.85 348.633 1464.31 213.145 1541.86 -88.0702C1560.67 -181.264 1605.84 -236.328 1690.72 -257.009L1691.18 -256.216Z" fill="#C42035" fill-opacity="0.1"/>
<path d="M1691.66 -255.166C1603.08 -237.697 1555.53 -183.248 1537.84 -83.9862C1462.43 224.367 1215.84 364.991 1056.2 456.064C1005.05 485.231 962.846 509.303 938.074 532.146C823.955 684.825 734.722 706.934 646.755 680.066C601.103 666.186 555.854 638.942 507.652 610.012C471.587 588.34 433.835 565.676 393.053 546.839C254.258 482.753 79.9912 462.964 -184.908 677.528L-185.368 676.636C79.8954 461.992 254.564 481.92 393.667 546.204C434.525 565.081 472.278 587.745 508.4 609.437C556.525 638.347 601.717 665.453 647.196 679.353C734.492 706.042 823.207 683.933 936.924 531.789C961.849 508.867 1004.03 484.736 1055.24 455.528C1214.78 364.555 1461.16 224.01 1536.49 -84.0457C1554.17 -183.664 1602.09 -238.292 1691.15 -255.86L1691.66 -255.166Z" fill="#C42035" fill-opacity="0.1"/>
<path d="M1692.32 -253.876C1599.48 -239.699 1549.01 -185.805 1532.58 -80.0596C1459.19 236.741 1195.42 382.976 1032.25 473.414C988.155 497.882 951.381 518.246 927.778 536.865C809.383 682.129 718.923 698.388 630.592 668.903C588.41 654.845 546.919 630.337 503.07 604.481C468.27 583.978 432.014 562.603 392.938 544.995C256.808 483.527 85.7623 466.87 -179.769 687.978L-180.229 687.086C85.6281 465.899 257.038 482.614 393.648 544.321C432.819 562.028 469.076 583.403 503.914 603.925C547.686 629.702 589.197 654.211 631.167 668.229C718.789 697.496 808.693 681.237 926.666 536.489C950.326 517.87 987.139 497.466 1031.33 473.037C1194.31 382.679 1457.98 236.542 1531.2 -79.9208C1547.69 -186.023 1598.42 -240.135 1691.76 -254.412L1692.32 -253.876Z" fill="#C42035" fill-opacity="0.1"/>
<path d="M1693.1 -252.369C1595.95 -241.642 1542.57 -188.462 1527.35 -76.1329C1456 251.296 1170.07 403.717 1004.34 492.212C968.733 511.208 938.669 527.229 917.521 541.387C793.929 679.81 701.955 689.427 612.991 656.789C575.066 642.909 537.735 621.276 498.737 598.691C465.203 579.299 430.441 559.193 393.034 542.656C259.434 483.587 91.8785 470.222 -174.497 698.191L-174.957 697.279C91.6677 469.251 259.645 482.754 393.686 542.021C431.132 558.578 465.931 578.684 499.484 598.116C538.445 620.661 575.737 642.235 613.547 656.095C701.897 688.515 793.335 678.878 916.485 540.97C937.71 526.773 967.793 510.712 1003.46 491.697C1169.06 403.361 1454.74 250.978 1526.02 -76.1329C1541.36 -188.838 1595.05 -242.237 1692.6 -253.063L1693.1 -252.369Z" fill="#C42035" fill-opacity="0.1"/>
<path d="M1693.96 -250.605C1592.35 -243.506 1536.01 -191.119 1522.04 -72.1482C1452.36 269.339 1136.65 428.939 970.765 512.793C945.706 525.464 924.059 536.409 907.205 545.986C777.038 678.382 683.088 680.087 592.763 643.483C559.957 630.198 527.669 611.877 494.289 592.921C462.001 574.579 428.697 555.663 392.977 540.216C261.946 483.546 97.9949 473.374 -169.224 708.521L-169.684 707.609C97.8799 472.442 262.195 482.753 393.629 539.602C429.425 555.088 462.768 574.024 495.075 592.365C528.417 611.302 560.667 629.603 593.395 642.868C683.146 679.214 776.558 677.469 906.208 545.57H906.323C923.215 535.953 944.9 524.988 970.017 512.298C1135.81 428.463 1451.27 269.002 1520.83 -72.1679C1534.86 -191.536 1591.56 -244.061 1693.58 -251.279L1693.96 -250.605Z" fill="#C42035" fill-opacity="0.1"/>
<path d="M1695.02 -248.641C1589.1 -245.27 1529.51 -194.053 1516.82 -68.2017C1448.1 293.51 1088.85 461.041 928.891 535.636C917.099 541.129 906.4 546.126 896.929 550.666C718.502 714.47 610.211 654.151 489.955 587.151C458.875 569.801 426.971 552.035 392.881 537.58C264.419 483.23 104.303 476.29 -163.932 718.931L-164.411 717.999C104.13 475.338 264.688 482.397 393.533 536.925C427.719 551.38 459.623 569.166 490.742 586.497C610.479 653.22 718.291 713.399 895.989 550.131L896.123 550.032C905.556 545.511 916.313 540.494 928.162 534.962C1087.99 460.427 1446.97 293.054 1515.59 -68.3206C1528.31 -194.47 1588.18 -245.925 1694.58 -249.395L1695.02 -248.641Z" fill="#C42035" fill-opacity="0.1"/>
<path d="M1696.07 -246.441C1585.73 -246.996 1522.88 -196.989 1511.51 -64.3357C1477.84 127.585 1358.12 267.772 1228.49 367.331C1098.86 466.89 959.587 525.821 886.556 555.246C707.477 702.533 600.873 644.217 485.603 581.202C455.654 564.823 425.111 548.108 392.555 534.644C266.72 482.555 110.707 478.926 -158.736 729.321L-159.215 728.389C110.419 477.955 266.951 481.722 393.226 534.069C425.821 547.553 456.498 564.268 486.408 580.666C601.161 643.444 707.343 701.62 885.674 554.889H885.846C958.705 525.484 1098.1 466.573 1227.55 367.093C1357.01 267.614 1476.65 127.426 1510.3 -64.3753C1521.81 -197.425 1584.83 -247.67 1695.67 -247.234L1696.07 -246.441Z" fill="#C42035" fill-opacity="0.1"/>
<path d="M1697.28 -244.022C1695.02 -244.022 1692.78 -244.18 1690.57 -244.24C1579.88 -246.679 1516.09 -197.266 1506.24 -60.4094C1497.96 -9.12566 1482.93 40.7439 1461.56 87.8089C1440.97 132.976 1415.41 175.543 1385.41 214.672C1233.69 414.008 987.753 522.629 876.24 559.926C696.797 690.973 591.727 634.541 481.385 575.293C452.472 559.767 423.194 544.044 392.152 531.472C268.868 481.564 117.092 481.326 -153.482 739.81L-153.962 738.859C116.862 480.374 269.079 480.691 392.804 530.758C423.922 543.369 453.239 559.093 482.171 574.639C592.073 633.649 696.721 689.862 875.416 559.311H875.608C986.928 522.093 1232.71 413.572 1384.31 214.295C1414.28 175.232 1439.81 132.739 1460.39 87.6502C1481.75 40.6388 1496.76 -9.17831 1505.03 -60.4094C1514.9 -197.861 1579.17 -247.452 1690.63 -244.993L1696.88 -244.815L1697.28 -244.022Z" fill="#C42035" fill-opacity="0.1"/>
<path d="M1698.62 -241.384C1691.41 -241.913 1684.38 -242.237 1677.53 -242.356C1571.08 -244.14 1509.06 -194.291 1500.93 -56.4832C1493.46 -5.61961 1479.16 43.9154 1458.44 90.684C1438.27 135.913 1413.1 178.566 1383.41 217.785C1232.94 418.668 983.688 532.305 865.944 564.507C686.424 679.631 582.812 624.944 477.224 569.226C449.27 554.454 421.161 539.622 391.481 527.864C270.689 480.097 123.591 483.388 -148.21 750.201L-148.689 749.269C123.342 482.416 270.958 479.244 392.133 527.189C421.871 538.967 450.017 553.819 478.01 568.591C583.176 624.111 686.386 678.56 865.177 563.892H865.369C982.998 531.79 1231.89 418.271 1382.36 217.606C1412.01 178.454 1437.16 135.867 1457.29 90.7039C1478.01 43.993 1492.31 -5.49092 1499.76 -56.3047C1507.92 -194.708 1570.39 -244.676 1677.61 -242.951C1684.31 -242.832 1691.17 -242.521 1698.2 -242.019L1698.62 -241.384Z" fill="#C42035" fill-opacity="0.1"/>
<path d="M1700.06 -238.529C1688.08 -239.798 1676.55 -240.512 1665.55 -240.651C1562.65 -241.861 1502.23 -191.476 1495.71 -52.5379V-52.4189C1489.07 -1.96565 1475.47 47.2449 1455.35 93.7173C1435.65 139.048 1410.86 181.827 1381.5 221.175C1231.94 423.426 979.757 542.06 855.629 569.166C676.358 668.705 574.126 615.604 473.179 563.217C446.029 549.119 418.976 535.061 390.561 524.056C272.376 478.312 130.11 485.331 -142.918 760.749L-143.397 759.797C129.842 484.339 272.549 477.38 391.232 523.302C419.743 534.327 446.835 548.405 474.003 562.523C574.587 614.752 676.435 667.614 854.977 568.472H855.188C979.105 541.465 1231.1 422.95 1380.54 220.858C1409.86 181.55 1434.63 138.818 1454.32 93.5388C1474.4 47.1286 1487.96 -2.01561 1494.58 -52.3991V-52.5181C1501.12 -192.012 1561.99 -242.594 1665.64 -241.365C1676.54 -241.246 1687.89 -240.585 1699.72 -239.382L1700.06 -238.529Z" fill="#C42035" fill-opacity="0.1"/>
<path d="M1701.59 -235.436C1685.92 -237.643 1670.13 -238.855 1654.31 -239.064C1554.46 -239.758 1495.46 -188.759 1490.44 -48.5718V-48.1158C1484.6 1.88153 1471.72 50.7269 1452.21 96.8705C1432.88 142.281 1408.43 185.164 1379.35 224.626C1230.97 428.185 975.674 551.796 845.276 573.766C666.619 658.097 565.671 606.424 469.172 557.031C442.693 543.468 416.56 530.084 389.257 519.753C273.584 475.992 136.553 486.917 -137.664 771.179L-138.144 770.208C136.227 485.926 273.757 475.1 389.909 519.059C417.289 529.43 443.479 542.854 469.977 556.397C566.15 605.611 666.753 657.125 844.681 573.072H844.892C975.041 551.261 1230.05 427.749 1378.29 224.348C1407.32 184.931 1431.72 142.093 1450.98 96.7317C1470.46 50.6641 1483.33 1.89943 1489.17 -48.0166V-48.4727C1494.22 -189.255 1553.65 -240.433 1654.29 -239.719C1669.96 -239.527 1685.59 -238.342 1701.12 -236.169L1701.59 -235.436Z" fill="#C42035" fill-opacity="0.1"/>
<path d="M1703.26 -232.204C1683.62 -235.612 1663.75 -237.442 1643.83 -237.677C1546.52 -237.935 1488.81 -186.242 1485.22 -44.6857C1480.26 4.89565 1468.14 53.4269 1449.25 99.2892C1430.46 144.815 1406.44 187.84 1377.72 227.441C1230.49 432.646 971.839 561.373 835.114 578.247C657.473 647.845 557.733 597.402 465.49 550.765C439.51 537.599 414.106 524.77 387.761 515.074C274.639 473.196 143.148 488.365 -132.181 781.609L-132.679 780.637C142.822 487.393 274.677 472.343 388.375 514.399C414.796 524.175 440.143 537.044 466.238 550.19C558.27 596.688 657.607 646.973 834.577 577.613H834.788C971.283 560.818 1229.61 432.27 1376.7 227.243C1405.39 187.681 1429.38 144.703 1448.16 99.2298C1467.01 53.413 1479.12 4.93736 1484.09 -44.5866C1487.72 -186.717 1545.85 -238.609 1643.94 -238.351C1663.7 -238.125 1683.42 -236.329 1702.92 -232.977L1703.26 -232.204Z" fill="#C42035" fill-opacity="0.1"/>
<path d="M1705.01 -228.734C1681.57 -233.551 1657.75 -236.113 1633.86 -236.388C1538.72 -236.269 1482.18 -183.803 1479.91 -40.7397C1475.77 8.39922 1464.38 56.5926 1446.13 102.164C1427.79 147.797 1404.15 190.955 1375.74 230.693C1229.64 437.386 967.774 571.129 824.645 582.907C648.423 638.229 549.776 588.856 461.617 544.618C435.906 531.75 411.115 519.317 385.537 510.077C274.792 470.023 149.284 489.772 -127.004 792.138L-127.503 791.146C148.958 488.781 274.869 469.131 386.132 509.383C411.786 518.643 436.615 531.194 462.365 544.004C550.275 588.063 648.595 637.336 824.223 582.174H824.415C967.218 570.455 1228.68 436.87 1374.69 230.396C1403.07 190.702 1426.68 147.589 1445 102.006C1463.24 56.4821 1474.61 8.33311 1478.72 -40.7596C1480.99 -184.397 1537.99 -237.062 1633.89 -237.062C1657.63 -236.826 1681.3 -234.344 1704.61 -229.646L1705.01 -228.734Z" fill="#C42035" fill-opacity="0.1"/>
<path d="M1706.87 -225.066C1676.9 -231.688 1649.35 -235.317 1624.42 -235.198C1531.14 -234.722 1475.62 -181.482 1474.64 -36.9126C1471.38 11.7943 1460.71 59.6654 1443.04 104.941C1425.18 150.679 1401.93 193.967 1373.83 233.826C1228.86 442.026 963.786 580.825 814.33 587.448C639.853 629.088 542.337 580.449 457.974 538.412C432.321 525.623 407.913 513.448 382.949 504.704C274.62 466.415 155.381 491.2 -121.655 802.726L-122.172 801.715C155.036 490.209 274.716 465.542 383.543 504.01C408.584 512.873 433.049 525.068 458.722 537.857C542.855 579.794 640.159 628.295 814.004 586.794H814.176C963.268 580.191 1227.9 441.589 1372.71 233.648C1400.81 193.831 1424.05 150.59 1441.93 104.901C1459.57 59.673 1470.22 11.8571 1473.49 -36.7936C1474.47 -182.038 1530.43 -235.495 1624.48 -235.971C1649.27 -236.11 1676.69 -232.521 1706.45 -226.057L1706.87 -225.066Z" fill="#C42035" fill-opacity="0.1"/>
<path d="M1708.82 -221.179C1674.58 -229.666 1643.29 -234.345 1615.41 -234.107C1523.7 -233.314 1469.14 -179.242 1469.39 -32.8875C1466.95 15.3685 1457.02 62.9045 1439.97 107.895C1422.57 153.724 1399.69 197.127 1371.89 237.098C1228.09 446.765 959.779 590.561 803.996 592.028C631.819 620.562 535.262 572.477 454.466 532.245C428.62 519.357 404.385 507.321 379.843 498.834C273.872 462.231 161.267 492.489 -116.324 813.176L-116.823 812.165C160.884 491.656 273.891 461.517 380.418 498.22C405.075 506.726 429.329 518.802 455.194 531.69C535.818 571.823 632.145 619.788 803.766 591.334H803.919C959.223 589.827 1227.09 446.229 1370.8 236.8C1398.56 196.861 1421.4 153.499 1438.79 107.717C1455.83 62.7757 1465.75 15.2834 1468.16 -32.9272C1467.91 -179.837 1522.96 -234.127 1615.39 -234.92C1643.17 -235.158 1674.31 -230.558 1708.34 -222.171L1708.82 -221.179Z" fill="#C42035" fill-opacity="0.1"/>
<path d="M1710.87 -217.114C1672.53 -227.623 1637.48 -233.453 1606.76 -233.096C1516.44 -232.005 1462.68 -177.08 1464.11 -28.8621C1463.94 -22.6558 1463.63 -16.489 1463.19 -10.3224C1451.25 155.206 1340.71 307.192 1205.37 417.696C1070.03 528.201 909.736 597.303 798.531 596.926C796.882 596.926 795.272 596.926 793.661 596.926C624.169 613.027 528.57 565.201 451.033 526.475C424.728 513.309 400.493 501.214 376.257 493.005C272.626 458.047 166.961 494.254 -110.898 824.141L-111.416 823.13C166.597 493.322 272.607 457.195 376.833 492.37C401.221 500.599 425.495 512.734 451.858 525.9C529.203 564.586 624.61 612.273 793.623 596.192H793.719C795.342 596.192 796.971 596.192 798.608 596.192C909.468 596.569 1069.32 527.625 1204.47 417.28C1339.62 306.934 1450.12 155.047 1462.04 -10.2828C1462.49 -16.4429 1462.8 -22.6161 1462.96 -28.8026C1461.53 -177.516 1515.73 -232.66 1606.76 -233.73C1637.44 -234.107 1672.16 -228.337 1710.3 -217.868L1710.87 -217.114Z" fill="#C42035" fill-opacity="0.1"/>
<path d="M1713.04 -212.832C1670.42 -225.522 1631.88 -232.66 1598.44 -232.164C1509.27 -230.836 1456.27 -174.999 1458.86 -25.0158C1458.69 -7.09439 1457.32 10.7936 1454.78 28.5212C1432.8 182.311 1324.84 325.334 1194.33 430.049C1063.81 534.763 910.561 601.169 798.474 601.665C793.354 601.665 788.312 601.665 783.365 601.328C616.921 605.73 522.282 557.943 447.716 520.308C420.625 506.627 396.217 494.313 371.982 486.322C270.689 452.931 172.234 495.661 -105.587 834.531L-106.105 833.5C171.793 494.67 270.632 452.039 372.557 485.628C396.888 493.56 421.334 505.992 448.483 519.674C522.876 557.249 617.343 604.936 783.346 600.534C788.267 600.799 793.29 600.918 798.416 600.891C910.216 600.396 1063.01 534.109 1193.39 429.553C1323.77 324.997 1431.62 182.093 1453.57 28.4618C1456.11 10.7342 1457.47 -7.15407 1457.63 -25.0752C1455.04 -175.633 1508.5 -231.669 1598.42 -233.037C1631.78 -233.533 1670.15 -226.474 1712.52 -213.942L1713.04 -212.832Z" fill="#C42035" fill-opacity="0.1"/>
<path d="M1715.28 -208.37C1668.56 -223.4 1626.47 -231.966 1590.41 -231.312C1502.21 -229.726 1449.91 -172.976 1453.57 -21.1296C1453.83 7.47774 1450.98 36.0245 1445.07 63.9743C1415.13 207.751 1309.73 342.724 1183.76 442.124C1057.79 541.525 911.04 605.372 798.588 606.701C789.845 606.701 781.333 606.542 773.05 605.888C610.076 599.364 516.357 551.3 444.457 514.439C416.311 500.004 391.52 487.274 367.246 479.461C268.254 447.597 177.257 497.426 -100.2 845.139L-100.737 844.108C176.797 496.415 268.12 446.685 367.783 478.767C392.191 486.699 417.02 499.349 445.224 513.824C516.971 550.626 610.517 598.591 773.088 605.035C781.333 605.69 789.826 605.967 798.493 605.848C910.599 604.46 1056.93 540.731 1182.75 441.49C1308.56 342.248 1413.96 207.513 1443.85 63.9743C1449.75 36.0704 1452.6 7.57088 1452.36 -20.9908C1448.64 -173.452 1501.43 -230.42 1590.41 -232.006C1626.4 -232.66 1668.31 -224.213 1714.79 -209.342L1715.28 -208.37Z" fill="#C42035" fill-opacity="0.1"/>
<path d="M1718.28 -202.481C1667.18 -220.188 1621.35 -230.399 1582.64 -229.606C1496.17 -227.802 1445 -170.398 1449.73 -17.1832C1450.71 21.3057 1446.02 59.7245 1435.81 96.7516C1399.38 231.982 1296.5 359.797 1174.64 454.399C1052.77 549.001 911.462 610.588 798.838 612.908C786.678 613.193 774.513 612.716 762.408 611.48C602.829 594.785 509.934 546.046 440.296 509.581C410.827 494.135 385.537 480.889 361.264 473.255C265.397 443.136 182.492 500.678 -94.2559 857.156L-96.02 853.646C180.824 497.327 264.784 440.023 363.066 470.955C387.762 478.708 413.205 492.053 442.866 507.599C512.158 543.924 604.574 592.366 763.06 608.942C774.884 610.149 786.768 610.619 798.646 610.35C910.12 608.03 1050.14 546.899 1171.45 452.773C1292.76 358.647 1395.47 231.11 1431.73 96.3946C1441.97 59.5214 1446.7 21.2472 1445.77 -17.1039C1440.97 -172.203 1493.7 -230.36 1582.64 -232.204C1620.99 -232.997 1666.32 -223.162 1716.55 -206.03L1718.28 -202.481Z" fill="#C42035" fill-opacity="0.1"/>
</g>
</g>
</svg>
